<?xml version="1.0" standalone="no"?>
<!DOCTYPE svg PUBLIC "-//W3C//DTD SVG 1.1//EN" "http://www.w3.org/Graphics/SVG/1.1/DTD/svg11.dtd" >
<svg xmlns="http://www.w3.org/2000/svg" xmlns:xlink="http://www.w3.org/1999/xlink" version="1.1">
<metadata>
Created by FontForge 20190801 at Tue Aug 11 16:08:06 2015
 By Unknown
Copyright (URW)++,Copyright 2014 by (URW)++ Design &#38; Development
</metadata>
<defs>
<font id="NimbusRomNo9L-Reg" horiz-adv-x="722" >
  <font-face 
    font-family="Nimbus Roman No9 L"
    font-weight="400"
    font-stretch="normal"
    units-per-em="1000"
    panose-1="0 0 5 0 0 0 0 0 0 0"
    ascent="683"
    descent="-317"
    x-height="450"
    cap-height="662"
    bbox="-165 -309 1000 1053"
    underline-thickness="50"
    underline-position="-100"
    stemh="38"
    stemv="83"
    unicode-range="U+0020-FB04"
  />
<missing-glyph horiz-adv-x="250" 
 />
    <glyph glyph-name="ff" unicode="ff" horiz-adv-x="605" 
d="M386 448v22c0 128 68 209 175 209c61 0 107 -28 107 -65c0 -22 -18 -39 -42 -39c-21 0 -34 10 -48 36c-14 27 -28 38 -49 38c-22 0 -42 -13 -49 -34c-5 -12 -7 -40 -7 -80v-87h121v-34h-121v-319c-1 -57 17 -77 75 -80h10v-15h-256v15h10c57 3 75 23 74 80v319h-175v-319
c-2 -56 17 -77 74 -80h10v-15h-255v15h10c56 3 75 24 74 80v319h-84v34h84v22c0 128 68 209 174 209c60 0 106 -28 106 -65c0 -22 -18 -39 -41 -39c-22 0 -34 9 -48 36c-15 28 -28 38 -49 38c-22 0 -41 -13 -48 -34c-5 -12 -7 -40 -7 -80v-87h175z" />
    <glyph glyph-name="fi" unicode="fi" horiz-adv-x="556" 
d="M30 448h68v7c0 133 87 224 213 224c80 0 133 -29 133 -72c0 -24 -16 -41 -38 -41c-19 0 -28 7 -53 42c-22 32 -39 42 -69 42c-63 0 -99 -47 -99 -131v-71h115c72 1 100 3 161 12v-365c-1 -57 15 -77 64 -80h4v-15h-223v15h4c49 3 65 23 64 80v236c0 67 -10 82 -54 83
h-135v-319c-1 -57 15 -77 64 -80h4v-15h-223v15h4c49 3 65 23 64 80v319h-68v34z" />
    <glyph glyph-name="fl" unicode="fl" horiz-adv-x="556" 
d="M28 448h67v13c0 56 14 106 40 146c33 49 74 72 133 72c42 0 77 -10 106 -32l82 33v-585c-1 -56 15 -77 64 -80h4v-15h-222v15h3c49 3 65 23 64 80v319h-187v-319c-1 -57 15 -77 64 -80h3v-15h-221v15h3c49 3 65 24 64 80v319h-67v34zM182 448h187v137
c-6 -5 -12 -7 -23 -7c-21 0 -33 10 -53 45c-11 18 -26 27 -46 27c-47 0 -65 -41 -65 -143v-59z" />
    <glyph glyph-name="ffi" unicode="ffi" horiz-adv-x="844" 
d="M211 448h181c2 86 10 118 42 158c39 49 100 75 174 75c80 0 133 -30 133 -76c0 -23 -18 -41 -43 -41c-21 0 -37 12 -50 37c-15 30 -16 31 -25 38c-10 8 -24 12 -41 12c-51 0 -91 -37 -99 -92c-3 -20 -5 -61 -5 -111h105c73 1 100 3 161 12v-365c0 -60 12 -77 60 -80h6
v-15h-219v15h8c47 3 59 20 59 80v319h-180v-319c0 -60 12 -77 59 -80h24v-15h-236v15h7c48 3 60 20 60 80v319h-181v-319c0 -60 12 -77 60 -80h23v-15h-254v15h25c48 3 61 20 60 80v319h-85v34h85c1 86 2 94 14 129c23 67 75 104 146 104c52 0 87 -25 87 -63
c0 -22 -16 -39 -37 -39c-14 0 -24 6 -31 17c-3 4 -3 4 -15 33c-6 15 -19 25 -34 25c-16 0 -32 -15 -37 -34c-4 -17 -7 -84 -7 -172z" />
    <glyph glyph-name=".notdef" horiz-adv-x="250" 
 />
    <glyph glyph-name="space" unicode=" " horiz-adv-x="250" 
 />
    <glyph glyph-name="exclam" unicode="!" horiz-adv-x="333" 
d="M170 176h-13l-9 108c-2 30 -8 79 -17 138c-12 75 -20 151 -20 177c0 48 20 77 53 77c34 0 53 -28 53 -80c0 -14 -1 -25 -2 -37zM164 96c30 0 55 -24 55 -54s-23 -51 -56 -51c-30 0 -52 22 -52 51c0 30 23 54 53 54z" />
    <glyph glyph-name="quotedbl" unicode="&#x22;" horiz-adv-x="408" 
d="M299 431h-21c-18 97 -32 187 -32 204c0 23 19 41 43 41c23 0 42 -18 42 -40c0 -29 -9 -89 -25 -165c-2 -9 -4 -23 -7 -40zM130 431h-21c-18 97 -32 187 -32 204c0 23 19 41 43 41c23 0 42 -18 42 -40c0 -29 -9 -89 -25 -165c-2 -9 -4 -23 -7 -40z" />
    <glyph glyph-name="numbersign" unicode="#" horiz-adv-x="500" 
d="M471 271v-55h-109l-31 -216h-58l31 216h-134l-33 -216h-58l33 216h-107v55h116l21 134h-110v55h118l31 202h58l-31 -202h133l30 202h58l-30 -202h97v-55h-105l-20 -134h100zM333 405h-133l-21 -134h134z" />
    <glyph glyph-name="dollar" unicode="$" horiz-adv-x="500" 
d="M425 500h-15c-17 85 -62 127 -146 137v-246c121 -69 147 -90 173 -131c13 -21 20 -54 20 -90c0 -48 -19 -89 -52 -117c-36 -29 -67 -41 -141 -53v-87h-34v87c-84 3 -126 14 -186 51v130h15c24 -105 77 -152 171 -153v282c-71 40 -93 55 -122 83c-40 37 -56 72 -56 119
c0 43 20 83 54 110c33 26 61 35 124 42v63h34v-63c84 -10 127 -25 161 -53v-111zM229 407v230c-69 -14 -103 -48 -103 -103c0 -47 19 -71 103 -127zM264 293v-265c78 15 114 52 114 118c0 62 -21 89 -114 147z" />
    <glyph glyph-name="percent" unicode="%" horiz-adv-x="833" 
d="M593 676h43l-387 -689h-48zM646 332c81 0 141 -77 141 -180c0 -104 -57 -176 -139 -176c-81 0 -142 76 -142 177c0 103 60 179 140 179zM647 306c-41 0 -63 -52 -63 -151c0 -100 21 -152 62 -152c40 0 64 55 64 148c0 100 -22 155 -63 155zM188 675
c81 0 137 -76 137 -184c0 -103 -57 -174 -140 -174c-82 0 -141 75 -141 178c0 104 60 180 144 180zM186 648c-43 0 -64 -48 -64 -147c0 -109 20 -160 61 -160c42 0 65 55 65 152c0 99 -23 155 -62 155z" />
    <glyph glyph-name="ampersand" unicode="&#x26;" horiz-adv-x="778" 
d="M711 426v-21c-50 -6 -70 -18 -94 -59l-26 -46c-31 -54 -56 -91 -100 -150c47 -61 98 -92 154 -92c36 0 58 13 90 53l15 -11c-30 -71 -87 -113 -151 -113c-58 0 -107 26 -170 91c-75 -66 -135 -91 -216 -91c-107 0 -171 57 -171 152c0 84 51 155 157 216l38 22
c-27 75 -35 107 -35 145c0 86 68 154 154 154c79 0 135 -50 135 -121c0 -72 -41 -117 -155 -171c44 -86 76 -137 132 -206c65 86 91 138 91 182c0 30 -14 40 -64 45v21h216zM321 416c80 42 117 88 117 143c0 49 -34 85 -80 85s-77 -33 -77 -82c0 -45 10 -83 40 -146z
M252 343c-87 -56 -118 -99 -118 -163c0 -78 58 -141 129 -141c43 0 81 18 141 65c-57 70 -92 125 -152 239z" />
    <glyph glyph-name="quotesingle" unicode="'" horiz-adv-x="180" 
d="M101 431h-21c-18 97 -32 187 -32 204c0 23 19 41 43 41c23 0 42 -18 42 -40c0 -29 -9 -89 -25 -165c-2 -9 -4 -23 -7 -40z" />
    <glyph glyph-name="parenleft" unicode="(" horiz-adv-x="333" 
d="M295 676l9 -16c-72 -58 -102 -94 -130 -156c-27 -62 -40 -144 -40 -249c0 -101 11 -176 35 -243c27 -74 55 -110 135 -173l-12 -16c-52 32 -78 54 -119 102c-88 102 -125 199 -125 327c0 117 35 217 106 304c37 46 67 71 141 120z" />
    <glyph glyph-name="parenright" unicode=")" horiz-adv-x="333" 
d="M38 -177l-9 16c72 58 103 94 130 157c27 60 40 143 40 248c0 101 -11 176 -35 243c-28 75 -55 110 -135 173l12 16c52 -32 78 -54 119 -102c88 -102 125 -199 125 -327c0 -117 -35 -217 -106 -304c-37 -46 -67 -71 -141 -120z" />
    <glyph glyph-name="asterisk" unicode="*" horiz-adv-x="500" 
d="M241 449l-1 7c-36 -24 -41 -28 -51 -36c-8 -8 -13 -13 -42 -45c-17 -19 -26 -24 -42 -24c-23 0 -36 13 -36 34c0 26 17 38 62 46c46 9 62 15 103 40l-11 7c-19 13 -49 23 -86 30c-49 9 -68 22 -68 47c0 21 14 36 34 36c16 0 28 -8 48 -32c32 -36 52 -52 90 -73v13
c0 25 -5 56 -15 91c-6 21 -10 40 -10 51c0 20 15 35 35 35s36 -16 36 -36l-27 -130v-26l7 4c23 13 48 35 72 64c24 28 41 41 56 41c22 0 36 -16 36 -39c0 -26 -12 -36 -51 -42c-43 -7 -63 -14 -112 -42l8 -5c26 -16 59 -28 97 -34c44 -7 59 -18 59 -44
c0 -22 -14 -37 -35 -37c-18 0 -35 12 -60 43c-26 33 -48 51 -70 60l-7 3v-7c0 -39 7 -77 20 -112c5 -14 8 -26 8 -32c0 -21 -18 -40 -39 -40c-19 0 -35 17 -35 36c0 11 4 28 11 47c12 32 18 58 18 84c0 2 -1 8 -2 17z" />
    <glyph glyph-name="plus" unicode="+" horiz-adv-x="564" 
d="M256 333v220h53v-220h219v-53h-219v-220h-53v220h-219v53h219z" />
    <glyph glyph-name="comma" unicode="," horiz-adv-x="250" 
d="M83 -141l-9 19c54 37 82 74 82 106c0 8 -6 14 -14 14c-1 0 -2 0 -7 -2c-6 -1 -13 -2 -20 -2c-37 0 -59 19 -59 51c0 34 24 57 59 57c45 0 80 -39 80 -89c0 -60 -45 -121 -112 -154z" />
    <glyph glyph-name="hyphen" unicode="-" horiz-adv-x="333" 
d="M39 257h246v-63h-246v63z" />
    <glyph glyph-name="period" unicode="." horiz-adv-x="250" 
d="M125 100c30 0 56 -26 56 -57c0 -30 -26 -54 -57 -54c-29 0 -54 25 -54 54c0 32 25 57 55 57z" />
    <glyph glyph-name="slash" unicode="/" horiz-adv-x="278" 
d="M278 676l-228 -690h-46l229 690h45z" />
    <glyph glyph-name="zero" unicode="0" horiz-adv-x="500" 
d="M254 676c131 0 222 -141 222 -346c0 -121 -38 -237 -96 -292c-36 -35 -79 -52 -130 -52c-58 0 -109 24 -146 68c-47 56 -80 172 -80 282c0 117 38 232 96 288c37 36 79 52 134 52zM251 650c-86 0 -131 -110 -131 -323c0 -208 44 -315 130 -315s130 107 130 316
s-45 322 -129 322z" />
    <glyph glyph-name="one" unicode="1" horiz-adv-x="500" 
d="M118 0v15c76 1 93 15 95 78v453c0 32 -9 47 -30 47c-9 0 -33 -7 -72 -22v14l180 91l8 -2v-600c1 -48 18 -59 95 -59v-15h-276z" />
    <glyph glyph-name="two" unicode="2" horiz-adv-x="500" 
d="M475 137l-55 -137h-390v12l178 189c84 89 130 181 130 260c0 84 -56 141 -141 141c-70 0 -105 -32 -145 -130l-21 5c17 71 32 103 64 137c37 40 89 62 144 62c104 0 185 -77 185 -176c0 -79 -39 -155 -128 -248l-168 -176h239c47 1 58 8 95 66z" />
    <glyph glyph-name="three" unicode="3" horiz-adv-x="500" 
d="M153 330l-1 13c68 24 96 39 126 69c25 26 40 61 40 97c0 64 -44 107 -110 107c-63 0 -108 -32 -148 -106l-15 4c21 60 36 86 66 113c36 32 80 49 130 49c93 0 156 -55 156 -137c0 -54 -25 -91 -93 -138c43 -19 62 -31 83 -53c28 -31 44 -77 44 -129
c0 -67 -25 -125 -72 -166c-48 -41 -127 -67 -203 -67c-70 0 -113 22 -113 57c0 21 15 35 38 35c17 0 34 -7 63 -25c37 -24 57 -31 85 -31c74 0 130 64 130 149c0 69 -38 125 -101 148c-23 9 -46 11 -105 11z" />
    <glyph glyph-name="four" unicode="4" horiz-adv-x="500" 
d="M472 231v-64h-102v-167h-77v167h-281v64l314 445h44v-445h102zM292 231v343l-240 -343h240z" />
    <glyph glyph-name="five" unicode="5" horiz-adv-x="500" 
d="M181 583l-42 -85c118 -21 175 -44 219 -88c49 -50 68 -96 68 -168c0 -76 -21 -133 -66 -178c-51 -51 -123 -78 -206 -78c-76 0 -122 24 -122 62c0 25 14 37 42 37c23 0 45 -9 77 -33c30 -22 46 -29 66 -29c79 0 139 75 139 171c0 100 -52 161 -167 198
c-42 13 -81 20 -113 20c-8 0 -12 2 -12 8c0 2 0 3 1 5l109 237h209c22 0 31 6 46 26l9 -7l-38 -89c-3 -8 -6 -9 -23 -9h-196z" />
    <glyph glyph-name="six" unicode="6" horiz-adv-x="500" 
d="M446 684l2 -16c-157 -26 -269 -134 -296 -285c63 38 83 45 127 45c117 0 189 -80 189 -209c0 -138 -86 -233 -210 -233c-62 0 -116 24 -154 68c-43 50 -70 138 -70 225c0 134 59 248 167 325c73 51 131 70 245 80zM242 382c-35 0 -66 -9 -87 -25c-20 -15 -28 -43 -28 -94
c0 -155 54 -249 142 -249c70 0 109 61 109 171c0 125 -49 197 -136 197z" />
    <glyph glyph-name="seven" unicode="7" horiz-adv-x="500" 
d="M455 662v-16l-212 -654h-65l198 596h-217c-56 -1 -75 -14 -116 -81l-17 8l59 147h370z" />
    <glyph glyph-name="eight" unicode="8" horiz-adv-x="500" 
d="M290 371c121 -91 155 -138 155 -216c0 -103 -77 -169 -197 -169c-114 0 -192 67 -192 165c0 69 21 98 130 181c-105 92 -124 121 -124 186c0 91 81 158 190 158c101 0 172 -59 172 -142c0 -68 -35 -110 -134 -163zM272 268l-60 44c-59 -48 -80 -89 -80 -154
c0 -86 51 -144 127 -144c65 0 110 45 110 110c0 56 -24 92 -97 144zM261 389c68 44 94 85 94 146c0 69 -43 113 -111 113c-63 0 -108 -41 -108 -99c0 -56 36 -102 125 -160z" />
    <glyph glyph-name="nine" unicode="9" horiz-adv-x="500" 
d="M59 -22l-3 20c152 26 263 133 304 296c-53 -41 -95 -57 -150 -57c-108 0 -180 81 -180 203c0 135 89 236 208 236c130 0 221 -117 221 -282c0 -135 -61 -259 -165 -335c-68 -49 -123 -68 -235 -81zM362 355v39c0 168 -45 254 -132 254c-29 0 -54 -11 -71 -31
c-21 -26 -37 -86 -37 -143c0 -119 48 -194 124 -194c36 0 73 14 101 37c11 9 15 18 15 38z" />
    <glyph glyph-name="colon" unicode=":" horiz-adv-x="278" 
d="M136 459c30 0 56 -26 56 -57c0 -30 -26 -54 -57 -54c-29 0 -54 25 -54 54c0 32 25 57 55 57zM136 100c30 0 56 -26 56 -57c0 -30 -26 -54 -57 -54c-29 0 -54 25 -54 54c0 32 25 57 55 57z" />
    <glyph glyph-name="semicolon" unicode=";" horiz-adv-x="278" 
d="M107 -141l-9 19c54 37 82 74 82 106c0 8 -6 14 -14 14c-1 0 -2 0 -7 -2c-6 -1 -13 -2 -20 -2c-37 0 -59 19 -59 52c0 34 23 56 59 56c45 0 80 -38 80 -89c0 -60 -43 -120 -112 -154zM136 459c30 0 56 -26 56 -57c0 -29 -26 -54 -57 -54c-29 0 -54 25 -54 54
c0 32 25 57 55 57z" />
    <glyph glyph-name="less" unicode="&#x3c;" horiz-adv-x="564" 
d="M530 54l-495 223v58l495 224v-58l-430 -195l430 -195v-57z" />
    <glyph glyph-name="equal" unicode="=" horiz-adv-x="564" 
d="M528 433v-53h-491v53h491zM528 233v-53h-491v53h491z" />
    <glyph glyph-name="greater" unicode="&#x3e;" horiz-adv-x="564" 
d="M35 54v57l430 195l-430 195v58l495 -224v-58z" />
    <glyph glyph-name="question" unicode="?" horiz-adv-x="444" 
d="M225 164h-17c1 44 11 93 30 142l28 64c24 55 37 110 37 156c0 67 -48 120 -109 120c-48 0 -94 -30 -94 -62c0 -9 4 -17 17 -31c15 -17 21 -29 21 -43c0 -25 -16 -41 -41 -41c-32 0 -48 21 -48 62c0 83 70 145 162 145c55 0 114 -23 148 -58c23 -23 36 -59 36 -97
c0 -41 -13 -77 -45 -126c-14 -21 -14 -21 -60 -77c-37 -46 -54 -86 -65 -154zM218 97c30 0 55 -24 55 -54s-23 -51 -55 -51c-31 0 -53 21 -53 50c0 31 23 55 53 55z" />
    <glyph glyph-name="at" unicode="@" horiz-adv-x="921" 
d="M718 -87l14 -38c-110 -57 -164 -73 -241 -73c-233 0 -412 187 -412 430c0 247 181 444 408 444c207 0 367 -162 367 -371c0 -164 -95 -304 -207 -304c-53 0 -94 37 -101 93c-37 -57 -90 -92 -139 -92c-56 0 -99 62 -99 141c0 93 35 190 93 256c38 44 77 64 127 64
c39 0 55 -13 80 -65l11 48h77l-73 -322c-1 -7 -2 -15 -2 -23c0 -39 14 -58 43 -58c32 0 58 17 86 55c37 51 59 125 59 195c0 190 -146 344 -325 344c-195 0 -341 -176 -341 -411c0 -220 147 -375 356 -375c75 0 133 16 219 62zM544 408c-28 2 -67 -23 -99 -64
c-36 -47 -57 -113 -57 -180c0 -66 26 -107 67 -107c30 0 63 29 84 73c29 61 50 145 50 197c0 53 -14 78 -45 81z" />
    <glyph glyph-name="A" unicode="A" 
d="M706 19v-19h-255v19c53 1 70 9 70 34c0 14 -7 40 -19 67l-41 96h-262l-46 -117c-5 -13 -8 -27 -8 -39c0 -29 20 -41 68 -41v-19h-198v19c48 2 60 18 124 164l208 491h20l249 -568c35 -74 45 -84 90 -87zM216 257h231l-116 275z" />
    <glyph glyph-name="B" unicode="B" horiz-adv-x="667" 
d="M17 643v19h280c172 0 262 -58 262 -170c0 -42 -15 -78 -40 -100c-24 -21 -45 -31 -97 -44c65 -16 92 -28 122 -55c32 -29 49 -69 49 -113c0 -48 -20 -93 -56 -125c-37 -34 -109 -55 -186 -55h-334v19c82 3 95 15 96 90v444c-1 75 -12 85 -96 90zM215 326v-248
c0 -32 14 -41 63 -41c66 0 107 8 139 26c40 23 61 62 61 116c0 62 -27 103 -84 126c-36 15 -82 21 -179 21zM215 365l95 1c96 1 147 43 147 122c0 89 -65 140 -176 137l-44 -1c-17 -1 -21 -7 -22 -29v-230z" />
    <glyph glyph-name="C" unicode="C" horiz-adv-x="667" 
d="M620 451h-23c-19 65 -34 93 -66 125c-40 39 -92 60 -149 60c-145 0 -238 -116 -238 -298c0 -111 31 -201 86 -250c43 -38 99 -58 162 -58c83 0 149 30 223 101l18 -18c-60 -81 -160 -127 -273 -127c-199 0 -332 136 -332 340c0 110 38 202 108 264c63 55 145 86 227 86
c47 0 97 -8 146 -25c15 -5 30 -8 39 -8c20 0 36 12 42 33h21z" />
    <glyph glyph-name="D" unicode="D" 
d="M16 0v19c75 5 87 17 88 90v444c-1 75 -9 83 -88 90v19h270c137 0 246 -36 314 -105c56 -55 85 -133 85 -223c0 -97 -37 -186 -102 -245c-62 -56 -167 -89 -283 -89h-284zM206 586v-508c0 -32 12 -41 52 -41c87 0 145 12 196 41c81 47 122 131 122 249
c0 108 -41 194 -119 248c-48 34 -112 50 -199 50c-42 0 -52 -8 -52 -39z" />
    <glyph glyph-name="E" unicode="E" horiz-adv-x="611" 
d="M597 169l-45 -169h-540v19c72 4 85 18 87 90v444c-2 72 -14 85 -87 90v19h531l3 -143h-25c-16 89 -36 103 -152 105h-135c-28 0 -32 -4 -33 -34v-222h154c84 2 98 14 110 95h23v-232h-23c-13 82 -26 94 -110 96h-154v-247c0 -39 1 -40 105 -43h27c143 1 188 26 236 132
h28z" />
    <glyph glyph-name="F" unicode="F" horiz-adv-x="556" 
d="M479 231h-23c-12 81 -28 95 -110 96h-145v-218c1 -73 15 -87 91 -90v-19h-280v19c76 5 86 16 87 101v433c-2 72 -14 85 -87 90v19h531l3 -143h-25c-16 89 -36 103 -152 105h-136c-28 -1 -31 -4 -32 -34v-222h145c82 2 99 16 110 95h23v-232z" />
    <glyph glyph-name="G" unicode="G" 
d="M709 354v-18c-57 -4 -68 -16 -70 -77v-203c-40 -35 -164 -70 -251 -70c-110 0 -207 38 -273 107c-56 59 -83 134 -83 232c0 204 143 351 343 351c45 0 91 -8 136 -23c18 -6 34 -10 44 -10c21 0 39 13 45 33h22l8 -211h-23c-25 61 -41 87 -71 116c-38 36 -88 55 -144 55
c-68 0 -130 -27 -174 -76s-72 -140 -72 -234c0 -186 100 -300 263 -300c73 0 133 27 133 59v162c-2 76 -10 84 -88 89v18h255z" />
    <glyph glyph-name="H" unicode="H" 
d="M19 0v19c78 5 87 16 88 101v433c-1 74 -11 84 -88 90v19h278v-19c-77 -7 -87 -17 -88 -90v-194h303v194c-1 74 -11 84 -88 90v19h278v-19c-77 -7 -87 -17 -88 -90v-444c1 -72 13 -84 88 -90v-19h-278v19c78 5 87 16 88 101v195h-303v-206c1 -72 13 -84 88 -90v-19h-278z
" />
    <glyph glyph-name="I" unicode="I" horiz-adv-x="333" 
d="M18 0v19c84 3 96 14 97 90v444c-1 75 -12 85 -97 90v19h297v-19c-83 -3 -96 -15 -98 -90v-444c2 -74 16 -88 98 -90v-19h-297z" />
    <glyph glyph-name="J" unicode="J" horiz-adv-x="389" 
d="M376 662v-19c-81 -6 -90 -15 -92 -90v-370c0 -125 -61 -197 -169 -197c-58 0 -99 30 -99 72c0 27 22 50 49 50c26 0 42 -16 52 -51c7 -25 13 -33 27 -33c26 0 38 21 38 66v463c-1 74 -12 84 -93 90v19h287z" />
    <glyph glyph-name="K" unicode="K" 
d="M406 643v19h262v-19c-68 -5 -84 -13 -152 -78l-190 -188l233 -250c91 -97 105 -107 157 -108v-19h-305v19c12 1 23 1 28 1c29 1 42 8 42 22c0 24 -54 94 -130 170l-106 105l-26 -21v-187c1 -74 13 -85 90 -90v-19h-282v19c78 5 89 16 90 101v433c-2 73 -13 85 -90 90v19
h284v-19c-81 -6 -91 -15 -92 -90v-205l177 161c55 51 78 81 78 103c0 24 -8 28 -68 31z" />
    <glyph glyph-name="L" unicode="L" horiz-adv-x="611" 
d="M294 662v-19c-78 -4 -91 -17 -93 -90v-473c1 -36 9 -39 86 -41h67c129 4 172 30 219 135h25l-48 -174h-538v19c72 4 85 18 87 90v444c-2 72 -14 85 -87 90v19h282z" />
    <glyph glyph-name="M" unicode="M" horiz-adv-x="889" 
d="M863 662v-19c-73 -5 -85 -18 -87 -90v-444c2 -72 15 -86 87 -90v-19h-280v19c79 5 90 16 91 101v453l-256 -573h-14l-251 550v-403c2 -103 17 -124 94 -128v-19h-235v19c82 5 95 22 97 128v406c-2 75 -13 86 -95 90v19h198l231 -505l221 505h199z" />
    <glyph glyph-name="N" unicode="N" 
d="M707 662v-19c-79 -7 -92 -24 -95 -128v-526h-17l-442 550v-392c2 -103 17 -124 94 -128v-19h-235v19c82 5 95 22 97 128v441c-40 47 -54 55 -97 55v19h171l385 -484v337c-3 106 -16 123 -96 128v19h235z" />
    <glyph glyph-name="O" unicode="O" 
d="M361 676c96 0 180 -36 243 -105c55 -59 84 -145 84 -244c0 -202 -136 -341 -333 -341c-88 0 -177 39 -235 102c-54 57 -86 149 -86 243c0 202 136 345 327 345zM361 640c-55 0 -104 -22 -143 -65c-42 -47 -70 -144 -70 -246c0 -111 33 -212 84 -258
c36 -31 81 -49 127 -49c53 0 98 18 133 53c23 23 40 48 49 73c20 52 33 121 33 180c0 119 -31 213 -85 262c-36 32 -82 50 -128 50z" />
    <glyph glyph-name="P" unicode="P" horiz-adv-x="556" 
d="M16 643v19h264c94 0 181 -28 221 -72c27 -29 41 -67 41 -109c0 -66 -36 -127 -96 -159c-43 -24 -96 -34 -175 -34c-26 0 -43 1 -69 3v-182c1 -74 15 -88 94 -90v-19h-280v19c76 7 83 16 84 101v433c-1 73 -10 82 -84 90zM202 591v-260c23 -2 37 -3 57 -3
c115 0 174 50 174 147c0 103 -62 150 -197 150c-27 0 -34 -7 -34 -34z" />
    <glyph glyph-name="Q" unicode="Q" 
d="M701 -159v-18h-6c-10 -1 -21 -1 -34 -1c-160 0 -281 42 -349 122l-47 55c-71 24 -103 44 -142 86c-59 64 -89 146 -89 244c0 203 136 347 327 347s327 -143 327 -345c0 -111 -38 -202 -112 -268c-46 -40 -82 -57 -150 -70c81 -105 161 -149 275 -152zM364 640
c-58 0 -106 -21 -146 -65c-41 -46 -70 -144 -70 -240c0 -118 32 -217 84 -264c37 -32 81 -49 129 -49c55 0 107 23 144 64c40 46 69 148 69 247c0 113 -32 209 -86 257c-35 31 -81 50 -124 50z" />
    <glyph glyph-name="R" unicode="R" horiz-adv-x="667" 
d="M659 19v-19h-161l-238 308l-56 -2v-197c1 -73 13 -85 90 -90v-19h-277v19c75 6 84 16 85 101v433c-1 73 -11 82 -85 90v19h276c94 0 177 -26 215 -67c26 -29 39 -66 39 -109c0 -92 -54 -142 -181 -167l206 -253c29 -34 49 -44 87 -47zM204 589v-246c96 2 131 8 177 34
c36 19 57 61 57 111c0 94 -58 137 -183 137c-40 0 -51 -8 -51 -36z" />
    <glyph glyph-name="S" unicode="S" horiz-adv-x="556" 
d="M447 676l22 -213h-25c-16 59 -30 85 -61 117c-35 36 -77 55 -122 55c-62 0 -104 -37 -104 -92s42 -99 147 -156c132 -72 187 -137 187 -219c0 -103 -88 -182 -204 -182c-39 0 -80 8 -118 23c-19 7 -36 11 -47 11c-15 0 -27 -14 -28 -33h-22l-30 212h23
c50 -122 112 -177 202 -177c73 0 123 46 123 112c0 25 -5 46 -14 59c-25 38 -77 78 -149 117c-112 59 -156 115 -156 195c0 52 18 94 53 125c33 29 77 46 119 46c33 0 70 -8 107 -22c17 -8 34 -12 44 -12c17 0 28 11 32 34h21z" />
    <glyph glyph-name="T" unicode="T" horiz-adv-x="611" 
d="M452 19v-19h-292v19c84 5 93 15 94 101v500h-54c-115 -2 -136 -19 -159 -128h-24l6 170h564l6 -170h-24c-22 109 -43 126 -159 128h-54v-511c1 -73 14 -86 96 -90z" />
    <glyph glyph-name="U" unicode="U" 
d="M705 662v-19c-81 -9 -92 -23 -94 -128v-261c0 -77 -9 -123 -33 -165c-39 -68 -114 -103 -223 -103c-170 0 -251 82 -251 255v312c-1 74 -11 84 -90 90v19h283v-19c-80 -7 -90 -17 -91 -90v-320c0 -63 7 -100 25 -132c27 -47 76 -71 147 -71c75 0 139 31 166 79
c16 30 23 68 23 136v270c-2 103 -17 123 -94 128v19h232z" />
    <glyph glyph-name="V" unicode="V" 
d="M697 662v-19c-48 -3 -59 -14 -92 -93l-222 -561h-15l-246 549c-43 89 -57 103 -106 105v19h266v-19c-13 -1 -24 -2 -29 -2c-32 -2 -46 -11 -46 -31c0 -15 8 -37 41 -111l151 -338l147 367c12 30 19 57 19 73c0 28 -18 39 -73 42v19h205z" />
    <glyph glyph-name="W" unicode="W" horiz-adv-x="944" 
d="M932 662v-19c-53 -10 -64 -19 -83 -71c-109 -294 -119 -322 -204 -583h-15l-160 423l-154 -423h-15l-193 537c-37 94 -52 112 -103 117v19h245v-19c-51 -3 -65 -10 -65 -32c0 -11 4 -28 11 -46l144 -376l107 282l-33 82c-34 80 -44 89 -101 90v19h267v-19
c-54 -1 -77 -11 -77 -35c0 -11 6 -30 15 -51c1 -3 10 -25 12 -30l132 -341l125 339c10 28 16 55 16 75c0 27 -18 38 -69 43v19h198z" />
    <glyph glyph-name="X" unicode="X" 
d="M696 662v-19c-64 -4 -84 -16 -149 -94l-146 -182l192 -274c43 -58 58 -68 111 -74v-19h-297v19c12 1 23 2 27 2c34 1 50 11 50 29c0 15 -17 48 -51 98l-95 140l-119 -148c-37 -46 -52 -71 -52 -86c0 -23 18 -31 76 -35v-19h-233v19c51 4 56 8 145 114l157 193l-109 160
c-98 139 -116 154 -181 157v19h302v-19l-28 -1c-33 -1 -48 -9 -48 -29c0 -22 24 -64 85 -150l42 -59l113 138c30 36 40 54 40 69c0 23 -16 30 -70 32v19h238z" />
    <glyph glyph-name="Y" unicode="Y" 
d="M703 662v-19c-51 -4 -77 -26 -138 -114l-148 -226v-194c1 -77 14 -88 103 -90v-19h-306v19c91 4 100 13 101 101v174l-131 192c-100 141 -114 155 -162 157v19h280v-19c-11 -1 -21 -1 -25 -1c-32 -2 -46 -10 -46 -29c0 -11 6 -28 17 -44l148 -222l143 226
c10 15 14 27 14 37c0 24 -17 32 -69 33v19h219z" />
    <glyph glyph-name="Z" unicode="Z" horiz-adv-x="611" 
d="M574 176h23l-24 -176h-564v15l437 609h-221c-115 -3 -151 -32 -168 -133h-26l20 171h526v-15l-432 -609h257c108 4 142 31 172 138z" />
    <glyph glyph-name="bracketleft" unicode="[" horiz-adv-x="333" 
d="M299 637h-90c-33 -1 -44 -12 -45 -44v-672c1 -36 15 -51 49 -52h86v-25h-211v818h211v-25z" />
    <glyph glyph-name="backslash" unicode="\" horiz-adv-x="278" 
d="M8 676h50l229 -690h-45z" />
    <glyph glyph-name="bracketright" unicode="]" horiz-adv-x="333" 
d="M34 -131h90c33 1 44 12 45 44v672c-1 36 -15 51 -49 52h-86v25h211v-818h-211v25z" />
    <glyph glyph-name="asciicircum" unicode="^" horiz-adv-x="469" 
d="M92 297h-68l181 365h60l181 -365h-68l-143 289z" />
    <glyph glyph-name="underscore" unicode="_" horiz-adv-x="500" 
d="M500 -125h-500v50h500v-50z" />
    <glyph glyph-name="grave" unicode="`" horiz-adv-x="333" 
d="M257 507h-40l-154 97c-19 12 -29 27 -29 43c0 19 13 31 34 31c15 0 24 -5 42 -23z" />
    <glyph glyph-name="a" unicode="a" horiz-adv-x="444" 
d="M442 66v-26c-35 -38 -56 -50 -90 -50c-41 0 -59 20 -64 73c-61 -52 -102 -73 -146 -73c-61 0 -105 44 -105 107c0 33 14 67 36 87c43 38 60 46 214 108v61c0 54 -27 83 -76 83c-40 0 -72 -22 -72 -49c0 -7 1 -15 3 -24c1 -7 2 -12 2 -16c0 -22 -21 -42 -45 -42
s-43 20 -43 43c0 63 74 112 168 112c59 0 102 -19 124 -55c15 -24 20 -53 20 -105v-195c0 -44 7 -58 30 -58c15 0 27 5 44 19zM287 123v145c-117 -41 -161 -79 -162 -139v-4c0 -43 28 -77 63 -77c21 0 48 8 73 22c21 12 26 23 26 53z" />
    <glyph glyph-name="b" unicode="b" horiz-adv-x="500" 
d="M153 681v-306c20 50 78 85 139 85c100 0 176 -93 176 -217c0 -143 -102 -253 -234 -253c-81 0 -165 33 -165 64v519c0 42 -8 51 -49 51c-7 0 -11 0 -17 -1v16l29 8c47 13 74 21 116 36zM153 322v-252c0 -26 45 -48 97 -48c82 0 130 64 130 175c0 72 -22 140 -54 171
c-21 19 -46 29 -74 29c-52 0 -99 -36 -99 -75z" />
    <glyph glyph-name="c" unicode="c" horiz-adv-x="444" 
d="M398 156l14 -9c-30 -59 -49 -87 -76 -110c-36 -31 -76 -47 -121 -47c-111 0 -190 93 -190 222c0 80 28 148 78 192c41 36 92 56 141 56c84 0 154 -47 154 -103c0 -23 -21 -42 -47 -42c-22 0 -40 17 -48 46l-6 22c-10 37 -23 48 -59 48c-81 0 -136 -70 -136 -174
c0 -115 63 -195 155 -195c57 0 93 24 141 94z" />
    <glyph glyph-name="d" unicode="d" horiz-adv-x="500" 
d="M491 58v-16l-147 -52l-4 3v64c-34 -47 -72 -67 -128 -67c-111 0 -185 87 -185 215c0 142 93 255 208 255c40 0 67 -11 105 -43v156c0 41 -9 51 -46 51c-8 0 -14 0 -22 -1v16c64 17 99 27 147 44l5 -2v-567c0 -46 8 -57 44 -57c4 0 10 0 23 1zM340 102v230
c0 53 -48 100 -102 100c-76 0 -125 -74 -125 -187c0 -123 55 -203 138 -203c29 0 55 10 72 30c10 11 17 23 17 30z" />
    <glyph glyph-name="e" unicode="e" horiz-adv-x="444" 
d="M414 164l16 -7c-42 -108 -116 -167 -212 -167c-115 0 -187 86 -187 224c0 82 27 153 74 194c38 34 85 52 135 52c52 0 98 -21 128 -57c25 -32 35 -61 43 -126h-308c2 -62 9 -94 27 -132c29 -57 72 -86 129 -86c64 0 107 29 155 105zM105 309h204c-13 87 -37 115 -98 115
s-95 -36 -106 -115z" />
    <glyph glyph-name="f" unicode="f" horiz-adv-x="333" 
d="M322 450v-32h-122v-314c0 -75 11 -86 93 -89v-15h-260v15c71 3 81 14 83 89v314h-82v32h82c1 80 9 116 35 161s78 72 141 72c60 0 104 -26 104 -62c0 -23 -18 -41 -42 -41c-17 0 -29 10 -45 36c-18 29 -31 39 -53 39c-38 0 -57 -30 -57 -89v-116h123z" />
    <glyph glyph-name="g" unicode="g" horiz-adv-x="500" 
d="M470 388h-83c14 -32 19 -55 19 -84c0 -50 -15 -85 -48 -113c-31 -27 -71 -42 -108 -42c-2 0 -21 2 -57 5c-27 -8 -60 -43 -60 -63c0 -16 24 -25 78 -27l129 -6c74 -3 121 -45 121 -107c0 -38 -17 -70 -55 -101c-52 -42 -130 -68 -205 -68c-96 0 -173 44 -173 97
c0 37 26 70 98 122c-42 20 -53 31 -53 53c0 17 6 28 27 50c3 4 15 15 36 35l26 24c-67 33 -93 71 -93 134c0 92 74 163 167 163c26 0 53 -5 80 -15l22 -8c20 -7 34 -10 55 -10h77v-39zM147 -2c-40 -48 -49 -63 -49 -86c0 -44 57 -73 146 -73c113 0 189 39 189 97
c0 36 -33 49 -124 49c-49 0 -128 6 -162 13zM152 338v-3c0 -96 41 -161 103 -161c46 0 74 35 74 91c0 40 -11 85 -30 120c-16 30 -42 47 -73 47c-46 0 -74 -35 -74 -94z" />
    <glyph glyph-name="h" unicode="h" horiz-adv-x="500" 
d="M487 15v-15h-212v15c57 5 66 16 68 87v198c0 70 -25 106 -75 106c-39 0 -69 -17 -111 -63v-241c2 -71 10 -82 68 -87v-15h-216v15c57 7 62 15 64 87v471c0 43 -8 51 -51 51c-5 0 -8 0 -12 -1v16l27 8c56 16 81 24 115 36l5 -3v-304c46 60 88 84 147 84
c82 0 123 -54 123 -159v-199c1 -71 6 -78 60 -87z" />
    <glyph glyph-name="i" unicode="i" horiz-adv-x="278" 
d="M23 0v15c68 3 77 13 79 87v232c0 44 -9 60 -33 60c-9 0 -22 -1 -34 -3l-8 -1v15l155 55l4 -3v-355c1 -73 8 -82 74 -87v-15h-237zM135 683c29 0 52 -22 52 -51s-22 -51 -52 -51c-28 0 -50 22 -50 51c0 28 23 51 50 51z" />
    <glyph glyph-name="j" unicode="j" horiz-adv-x="278" 
d="M193 457v-457c0 -79 -22 -147 -58 -179c-27 -25 -67 -39 -111 -39c-55 0 -94 23 -94 55c0 22 18 39 41 39c16 0 30 -9 48 -32c17 -21 27 -28 42 -28c14 0 28 8 34 18c11 20 14 45 14 121v379c0 43 -9 60 -32 60c-10 0 -25 -1 -40 -3l-5 -1v16c59 18 97 31 156 54z
M142 683c29 0 52 -22 52 -51s-22 -51 -52 -51c-28 0 -50 22 -50 51c0 28 23 51 50 51z" />
    <glyph glyph-name="k" unicode="k" horiz-adv-x="500" 
d="M7 0v15c71 11 74 14 75 67v482c0 48 -9 61 -43 61c-10 0 -19 -1 -32 -2v16l30 8c58 16 87 24 125 36l4 -2v-420l137 122c14 13 23 26 23 35c0 13 -11 17 -50 18v14h204v-15c-64 2 -91 -14 -216 -126l-29 -27l153 -194c42 -51 73 -70 117 -73v-15h-218v15h19
c12 0 21 6 21 15c0 5 -3 11 -11 21c-3 3 -6 8 -10 13l-140 187v-184c1 -37 13 -48 55 -51l20 -1v-15h-234z" />
    <glyph glyph-name="l" unicode="l" horiz-adv-x="278" 
d="M21 0v15c62 4 76 18 77 72v477c0 47 -10 61 -42 61c-8 0 -20 -1 -31 -2h-6v16c69 17 107 27 159 44l4 -2v-597c1 -56 12 -66 75 -69v-15h-236z" />
    <glyph glyph-name="m" unicode="m" horiz-adv-x="778" 
d="M16 0v15c55 0 68 14 70 70v253c0 48 -9 64 -35 64c-11 0 -19 -1 -32 -4v17c55 15 89 26 140 45l7 -2v-75c84 64 110 77 155 77c54 0 88 -27 106 -84c54 58 104 84 163 84c77 0 116 -60 116 -178v-206c0 -39 11 -54 43 -59l26 -2v-15h-219v15c58 6 64 13 66 72v211
c0 83 -18 110 -75 110c-47 0 -79 -18 -109 -61v-252c2 -64 16 -80 72 -80v-15h-224v15c56 3 66 14 68 71v217c0 70 -22 105 -66 105c-35 0 -78 -17 -103 -40c-7 -7 -15 -17 -15 -19v-282c1 -40 17 -51 68 -52v-15h-222z" />
    <glyph glyph-name="n" unicode="n" horiz-adv-x="500" 
d="M18 0v15c50 3 61 16 62 75v248c0 49 -9 64 -37 64c-11 0 -21 -1 -27 -4v17c55 16 89 27 138 45l7 -2v-79c68 64 99 81 145 81c74 0 118 -56 118 -150v-229c1 -49 12 -61 61 -66v-15h-208v15c49 3 61 19 63 84v209c0 66 -24 97 -73 97c-33 0 -56 -12 -103 -57v-281
c0 -36 16 -49 66 -52v-15h-212z" />
    <glyph glyph-name="o" unicode="o" horiz-adv-x="500" 
d="M250 460c128 0 220 -94 220 -226c0 -139 -96 -244 -222 -244s-219 100 -219 236c0 138 90 234 221 234zM237 432c-72 0 -118 -62 -118 -157c0 -71 16 -141 44 -193c21 -40 58 -64 97 -64c75 0 120 67 120 181c0 137 -59 233 -143 233z" />
    <glyph glyph-name="p" unicode="p" horiz-adv-x="500" 
d="M5 -217v17c59 6 70 16 70 69v468c0 47 -7 57 -41 57c-9 0 -16 0 -25 -1v16c55 17 90 30 144 51l6 -2v-77c44 55 88 79 144 79c97 0 167 -89 167 -213c0 -145 -91 -257 -210 -257c-42 0 -65 10 -101 43v-157c1 -64 13 -74 88 -75v-18h-242zM159 334v-246
c0 -30 57 -66 104 -66c72 0 121 75 121 185c0 117 -49 193 -123 193c-46 0 -102 -36 -102 -66z" />
    <glyph glyph-name="q" unicode="q" horiz-adv-x="500" 
d="M360 425l54 32l11 -1v-597c2 -43 9 -50 63 -62v-14h-236v17c70 4 88 20 89 76v188c-44 -48 -99 -74 -157 -74c-94 0 -160 89 -160 214c0 145 95 256 221 256c40 0 70 -9 115 -35zM341 127v206c0 66 -31 99 -93 99c-85 0 -138 -73 -138 -191c0 -67 21 -131 53 -161
c20 -19 47 -29 78 -29s64 12 86 30c10 9 14 22 14 46z" />
    <glyph glyph-name="r" unicode="r" horiz-adv-x="333" 
d="M5 0v15c63 11 69 17 71 69v250c0 44 -9 60 -34 60c-12 0 -21 -1 -35 -4v16c59 19 95 32 148 54l5 -2v-92c49 72 78 94 120 94c34 0 55 -20 55 -53c0 -28 -15 -45 -39 -45c-13 0 -24 5 -40 20c-11 10 -20 15 -26 15c-28 0 -70 -50 -70 -82v-225c2 -59 18 -73 85 -75v-15
h-240z" />
    <glyph glyph-name="s" unicode="s" horiz-adv-x="389" 
d="M315 314h-15c-23 90 -53 123 -110 123c-46 0 -77 -27 -77 -68c0 -27 15 -52 43 -68l108 -64c61 -36 84 -69 84 -119c0 -70 -63 -128 -141 -128c-20 0 -46 4 -73 10c-23 6 -35 8 -46 8c-12 0 -16 -2 -23 -12h-13v156h16c23 -102 58 -140 127 -140c51 0 83 28 83 72
c0 31 -17 55 -52 75l-58 33c-85 48 -117 88 -117 144c0 72 57 124 136 124c24 0 47 -5 70 -13c11 -5 21 -7 27 -7c5 0 10 3 16 11h11z" />
    <glyph glyph-name="t" unicode="t" horiz-adv-x="278" 
d="M259 450v-32h-101v-286c0 -63 15 -90 52 -90c22 0 38 9 60 35l13 -11c-33 -52 -71 -76 -120 -76c-59 0 -89 43 -89 127v301h-53c-3 2 -4 4 -4 7c0 6 6 12 17 19c29 17 59 51 117 135c5 0 7 -3 7 -13v-116h101z" />
    <glyph glyph-name="u" unicode="u" horiz-adv-x="500" 
d="M488 50v-14c-51 -14 -87 -25 -137 -45l-4 2v83l-43 -43c-27 -27 -66 -43 -103 -43c-73 0 -121 51 -121 130v252c-1 48 -15 62 -62 64v14h146v-326c0 -42 32 -76 71 -76c30 0 61 12 88 34c14 11 19 25 19 53v235c0 50 -12 60 -74 63v17h158v-343c1 -47 8 -55 57 -57h5z
" />
    <glyph glyph-name="v" unicode="v" horiz-adv-x="500" 
d="M477 450v-15c-30 -3 -36 -10 -65 -78l-128 -321c-15 -37 -22 -50 -28 -50c-3 0 -7 2 -9 6c-3 5 -6 12 -9 20s-6 15 -8 21l-120 287c-46 103 -53 113 -91 115v15h196v-15c-35 -3 -46 -10 -46 -28c0 -9 3 -23 9 -37l102 -256l99 259c4 10 6 20 6 30c0 19 -15 29 -47 32v15
h139z" />
    <glyph glyph-name="w" unicode="w" 
d="M571 450h123v-15c-20 -7 -23 -12 -41 -54l-138 -346c-16 -40 -21 -49 -28 -49s-9 5 -24 43l-91 236l-112 -240c-12 -27 -20 -39 -25 -39c-6 0 -14 13 -26 44l-135 342c-22 51 -30 61 -53 63v15h180v-15c-35 -4 -46 -12 -46 -33c0 -10 2 -20 6 -30l99 -261l91 199
c-6 18 -13 37 -20 56c-20 54 -32 65 -69 69v15h203v-15c-47 -7 -58 -14 -58 -36c0 -13 0 -13 17 -59l84 -224l90 222c11 26 17 51 17 66c0 17 -10 24 -44 31v15z" />
    <glyph glyph-name="x" unicode="x" horiz-adv-x="500" 
d="M278 0v15c33 2 40 6 40 24c0 7 -2 12 -6 18l-91 140l-79 -123c-14 -21 -20 -34 -20 -41c0 -13 11 -18 40 -18v-15h-145v15c33 3 43 10 73 51l114 165l-94 144c-31 47 -47 60 -77 60h-9v15h207v-15c-30 -1 -43 -7 -43 -22c0 -10 7 -26 26 -57c2 -4 11 -17 26 -40l8 -12
c13 20 25 38 30 44c25 31 37 53 37 65c0 14 -10 20 -40 22v15h158v-15c-32 -1 -62 -17 -81 -44l-83 -120l128 -196c31 -44 51 -60 82 -60v-15h-201z" />
    <glyph glyph-name="y" unicode="y" horiz-adv-x="500" 
d="M475 450v-15c-24 -3 -35 -13 -48 -45l-154 -408c-55 -145 -101 -200 -169 -200c-43 0 -74 25 -74 58c0 25 19 44 43 44c16 0 34 -4 52 -11c11 -5 20 -7 26 -7c14 0 35 19 50 44c17 31 40 92 40 108c0 15 -16 52 -44 102c-5 10 -6 11 -18 38l-114 246c-8 17 -25 28 -51 32
v14h206v-15c-43 -2 -58 -9 -58 -27c0 -10 4 -24 10 -38l115 -253l97 276c3 7 4 13 4 17c0 16 -16 25 -48 25v15h135z" />
    <glyph glyph-name="z" unicode="z" horiz-adv-x="444" 
d="M418 135l-14 -135h-377v15l266 405h-138c-62 -2 -76 -17 -84 -88h-18l3 118h347v-15l-269 -405h138c96 3 110 15 128 109z" />
    <glyph glyph-name="braceleft" unicode="{" horiz-adv-x="480" 
d="M350 -170v-11c-124 0 -162 32 -165 140v177c-1 70 -19 95 -85 114c66 18 84 43 85 113v178c2 106 41 139 165 139v-11c-68 -16 -90 -47 -91 -123v-168c-1 -84 -20 -110 -94 -129c74 -18 93 -44 94 -128v-168c1 -76 23 -107 91 -123z" />
    <glyph glyph-name="bar" unicode="|" horiz-adv-x="200" 
d="M67 -155v831h66v-831h-66z" />
    <glyph glyph-name="braceright" unicode="}" horiz-adv-x="480" 
d="M130 669v11c124 0 162 -32 165 -140v-177c1 -70 19 -95 85 -113c-66 -19 -84 -44 -85 -114v-178c-2 -106 -41 -139 -165 -139v11c67 16 90 47 91 123v168c1 84 20 110 94 129c-74 18 -93 43 -94 128v168c-1 76 -24 107 -91 123z" />
    <glyph glyph-name="asciitilde" unicode="~" horiz-adv-x="541" 
d="M448 303l54 -32c-46 -64 -77 -85 -123 -85c-45 0 -63 7 -152 54c-17 9 -38 14 -59 14c-31 0 -48 -12 -74 -51l-54 32c46 64 77 85 123 85c45 0 63 -7 152 -54c17 -9 38 -14 59 -14c31 0 48 12 74 51z" />
    <glyph glyph-name="uni00A0" unicode="&#xa0;" horiz-adv-x="250" 
 />
    <glyph glyph-name="exclamdown" unicode="&#xa1;" horiz-adv-x="333" 
d="M157 282h13l9 -108c4 -47 10 -93 17 -138c12 -71 20 -142 20 -176c0 -49 -20 -78 -53 -78c-34 0 -53 28 -53 80c0 12 1 25 2 37zM164 467c30 0 54 -22 54 -51c0 -30 -24 -54 -55 -54c-30 0 -53 24 -53 55c0 29 23 50 54 50z" />
    <glyph glyph-name="cent" unicode="&#xa2;" horiz-adv-x="500" 
d="M403 579l-47 -135c48 -19 75 -49 75 -84c0 -27 -18 -45 -43 -45s-40 13 -58 52l-101 -291c23 -9 39 -12 59 -12c59 0 95 25 147 100l13 -8c-34 -70 -53 -97 -88 -127c-28 -24 -65 -38 -103 -38c-17 0 -32 2 -56 9l-49 -138h-34l51 150c-37 21 -52 34 -70 59
c-29 39 -46 93 -46 148c0 135 96 241 220 241c14 0 27 -1 51 -5l44 124h35zM198 98l115 323c-18 7 -30 9 -47 9c-82 0 -136 -68 -136 -170c0 -72 19 -117 68 -162z" />
    <glyph glyph-name="sterling" unicode="&#xa3;" horiz-adv-x="500" 
d="M344 373v-45h-122l1 -27c1 -15 1 -28 1 -28c0 -33 -3 -53 -25 -162c65 -27 100 -35 149 -35c46 0 82 15 113 49c10 11 17 16 23 16c4 0 6 -1 6 -4c0 -18 -22 -62 -43 -86c-32 -37 -77 -58 -125 -58c-43 0 -76 14 -144 61c-40 -48 -63 -62 -98 -62c-42 0 -68 24 -68 62
c0 46 36 76 91 76c15 0 27 -1 46 -5c2 8 3 14 3 21c0 18 -6 73 -17 149l-2 16l-2 17h-108v45h107c-5 26 -7 44 -7 69c0 144 75 234 195 234c75 0 130 -40 130 -93c0 -31 -21 -53 -50 -53c-30 0 -38 14 -39 67c0 35 -19 52 -56 52c-60 0 -95 -51 -95 -139
c0 -37 3 -70 11 -137h125zM89 94c-34 0 -51 -13 -51 -37c0 -22 17 -37 41 -37c20 0 33 6 46 23c11 12 17 25 17 33s-28 18 -53 18z" />
    <glyph glyph-name="currency" unicode="&#xa4;" horiz-adv-x="500" 
d="M-22 108l98 96c-29 42 -41 78 -41 126s12 86 41 126l-98 98l50 48l96 -96c44 28 79 39 127 39c49 0 86 -12 125 -39l98 96l48 -48l-96 -98c29 -43 39 -76 39 -125c0 -48 -10 -82 -39 -127l96 -96l-48 -50l-98 98c-40 -28 -78 -41 -125 -41s-85 12 -127 41l-96 -98z
M253 481c-84 0 -150 -66 -150 -151c0 -83 66 -151 148 -151c81 0 146 67 146 152c0 82 -65 150 -144 150z" />
    <glyph glyph-name="yen" unicode="&#xa5;" horiz-adv-x="500" 
d="M367 19v-19h-244v19c67 3 78 17 79 101v62h-174v40h174v76l-7 14h-167v40h144l-95 173c-55 99 -72 115 -118 118v19h243v-19c-47 -1 -65 -8 -65 -29c0 -13 5 -30 13 -45l118 -221l112 220c9 17 14 34 14 45c0 18 -21 30 -51 30h-14v19h195v-19c-51 -11 -81 -38 -118 -107
l-92 -184h146v-40h-166l-7 -14v-76h173v-40h-173v-73c1 -71 17 -89 80 -90z" />
    <glyph glyph-name="brokenbar" unicode="&#xa6;" horiz-adv-x="200" 
d="M67 -153v330h66v-330h-66zM67 315v329h66v-329h-66z" />
    <glyph glyph-name="section" unicode="&#xa7;" horiz-adv-x="500" 
d="M310 125h-18c75 -65 94 -94 94 -146c0 -76 -57 -127 -144 -127c-78 0 -138 44 -138 100c0 31 23 54 54 54c27 0 48 -18 48 -42c0 -14 -8 -28 -23 -41c-7 -6 -11 -11 -11 -15c0 -18 34 -35 71 -35c53 0 87 30 87 77c0 39 -24 71 -89 115c-122 84 -171 147 -171 221
c0 68 49 119 115 119c6 0 15 0 25 -1c-80 66 -100 96 -100 150c0 73 56 122 139 122c73 0 128 -42 128 -98c0 -33 -19 -53 -51 -53c-28 0 -47 18 -47 43c0 16 10 33 26 44c6 5 8 8 8 11c0 18 -27 32 -62 32c-51 0 -85 -29 -85 -71c0 -26 14 -54 34 -71l137 -113
c58 -48 89 -102 89 -155c0 -70 -48 -120 -116 -120zM191 383c-40 0 -68 -28 -68 -67c0 -30 12 -53 46 -87c61 -60 98 -83 136 -83c37 0 69 31 69 66c0 26 -19 59 -53 93c-47 46 -99 78 -130 78z" />
    <glyph glyph-name="dieresis" unicode="&#xa8;" horiz-adv-x="333" 
d="M66 623c27 0 50 -23 50 -50c0 -28 -23 -50 -50 -50s-48 22 -48 51c0 26 22 49 48 49zM265 623c27 0 50 -23 50 -50c0 -28 -23 -50 -50 -50s-48 22 -48 51c0 26 22 49 48 49z" />
    <glyph glyph-name="copyright" unicode="&#xa9;" horiz-adv-x="760" 
d="M386 676c185 0 336 -155 336 -346c0 -193 -150 -344 -341 -344c-192 0 -343 152 -343 344c0 195 152 346 348 346zM385 634c-161 0 -292 -136 -292 -304c0 -165 131 -302 288 -302c156 0 286 138 286 303c0 164 -130 303 -282 303zM537 526l10 -128h-19
c-23 71 -71 107 -143 107c-93 0 -151 -69 -151 -181c0 -119 57 -186 156 -186c62 0 106 22 147 75l18 -9c-50 -66 -103 -93 -182 -93c-123 0 -217 88 -217 203c0 121 100 212 234 212c29 0 51 -4 91 -18c4 -2 11 -3 15 -3c10 0 16 5 22 21h19z" />
    <glyph glyph-name="ordfeminine" unicode="&#xaa;" horiz-adv-x="276" 
d="M270 442v-18c-24 -23 -36 -30 -59 -30c-27 0 -39 12 -45 44c-33 -31 -61 -44 -91 -44c-41 0 -71 28 -71 68c0 20 8 40 22 51c27 23 40 29 131 63v30c0 27 -13 42 -36 42s-45 -11 -45 -23c0 -4 1 -9 2 -14c1 -3 1 -6 1 -8c0 -13 -14 -25 -31 -25c-18 0 -32 13 -32 31
c0 39 45 67 108 67c70 0 105 -32 105 -96v-115c0 -29 2 -35 13 -35c10 0 18 3 28 12zM158 474v77c-70 -25 -91 -40 -91 -66c0 -24 17 -44 38 -44c13 0 25 3 42 11c7 7 11 14 11 22z" />
    <glyph glyph-name="guillemotleft" unicode="&#xab;" horiz-adv-x="500" 
d="M42 222l65 59c6 4 11 9 16 14l3 2c7 6 15 13 24 21c29 26 59 56 61 59c17 21 37 39 43 39c5 0 10 -5 10 -10c0 -13 -25 -53 -54 -89c-33 -39 -50 -60 -75 -93c6 -9 7 -9 10 -13c77 -98 118 -156 118 -169c0 -6 -3 -9 -9 -9c-5 0 -7 1 -11 6c-61 60 -98 94 -170 156z
M234 222l65 59c6 4 11 9 16 14l3 2c7 6 15 13 24 21c29 26 59 56 61 59c17 21 37 39 43 39c5 0 10 -5 10 -10c0 -13 -25 -53 -54 -89c-33 -39 -50 -60 -75 -93c6 -9 7 -9 10 -13c77 -98 118 -156 118 -169c0 -6 -3 -9 -9 -9c-5 0 -7 1 -11 6c-61 60 -98 94 -170 156z" />
    <glyph glyph-name="logicalnot" unicode="&#xac;" horiz-adv-x="564" 
d="M31 383h504v-270h-66v206h-438v64z" />
    <glyph glyph-name="uni00AD" unicode="&#xad;" horiz-adv-x="333" 
d="M39 257h246v-63h-246v63z" />
    <glyph glyph-name="registered" unicode="&#xae;" horiz-adv-x="760" 
d="M219 505v15h177c70 0 115 -36 115 -92c0 -48 -27 -83 -79 -104l57 -79c28 -39 52 -65 76 -85v-8h-64c-14 -3 -40 27 -69 79c-11 20 -15 27 -52 83h-48v-99c0 -30 2 -37 7 -40c8 -4 11 -5 42 -8v-15h-162v15c31 3 34 4 42 8c5 3 7 10 7 40v241c0 30 -2 38 -7 41
c-8 4 -9 4 -42 8zM332 501v-168h43c44 0 69 32 69 89c0 52 -24 79 -71 79h-41zM381 676c193 0 341 -153 341 -351c0 -187 -152 -339 -341 -339c-192 0 -343 152 -343 344c0 193 152 346 343 346zM381 634c-157 0 -288 -138 -288 -304c0 -165 131 -302 288 -302
c154 0 286 138 286 298c0 171 -127 308 -286 308z" />
    <glyph glyph-name="macron" unicode="&#xaf;" horiz-adv-x="333" 
d="M16 594h300v-49h-300v49z" />
    <glyph glyph-name="degree" unicode="&#xb0;" horiz-adv-x="400" 
d="M200 676c81 0 143 -63 143 -144c0 -80 -64 -142 -145 -142c-78 0 -141 64 -141 143c0 80 63 143 143 143zM200 642c-57 0 -104 -49 -104 -109c0 -59 47 -109 103 -109c58 0 105 49 105 109c0 59 -47 109 -104 109z" />
    <glyph glyph-name="plusminus" unicode="&#xb1;" horiz-adv-x="564" 
d="M37 60v53h491v-53h-491zM256 395v220h53v-220h219v-53h-219v-160h-53v160h-219v53h219z" />
    <glyph glyph-name="twosuperior" unicode="&#xb2;" horiz-adv-x="300" 
d="M296 355l-37 -85h-253v23l98 107c50 55 81 107 81 137c0 42 -33 76 -73 76c-37 0 -64 -22 -86 -70l-25 14c16 46 26 65 47 84c23 23 57 35 98 35c78 0 131 -43 131 -106c0 -49 -23 -89 -84 -150l-86 -85h121c28 1 37 5 51 27z" />
    <glyph glyph-name="threesuperior" unicode="&#xb3;" horiz-adv-x="300" 
d="M94 460l-1 29c70 23 96 45 96 82c0 30 -21 49 -56 49c-36 0 -56 -13 -87 -57l-25 18c35 68 74 95 136 95c61 0 108 -36 108 -83c0 -28 -17 -51 -60 -82c57 -23 86 -61 86 -113c0 -78 -82 -136 -193 -136c-53 0 -83 18 -83 50c0 21 15 37 35 37c11 0 22 -5 41 -19
c22 -16 33 -20 51 -20c41 0 68 27 68 68c0 31 -14 56 -41 71c-15 9 -40 16 -52 14z" />
    <glyph glyph-name="acute" unicode="&#xb4;" horiz-adv-x="333" 
d="M116 507h-40l147 148c18 18 27 23 42 23c22 0 35 -12 35 -32c0 -16 -9 -29 -30 -42z" />
    <glyph glyph-name="mu" unicode="&#xb5;" horiz-adv-x="500" 
d="M429 450v-358c0 -46 9 -65 32 -65c15 0 26 6 50 28v-8c-33 -43 -56 -57 -94 -57c-48 0 -71 27 -73 90c-40 -63 -82 -90 -137 -90c-51 0 -86 23 -117 74c4 -37 6 -47 19 -97c13 -51 18 -79 18 -108c0 -51 -15 -77 -46 -77c-29 0 -46 26 -46 70c0 22 5 65 12 105
c10 58 12 76 12 97v396h88v-306c0 -57 32 -92 84 -92c47 0 86 22 110 63v335h88z" />
    <glyph glyph-name="paragraph" unicode="&#xb6;" horiz-adv-x="453" 
d="M251 640v-820h-66v453c-63 2 -91 10 -124 33c-47 33 -70 89 -70 171c0 130 62 185 209 185h263v-19c-77 -7 -87 -17 -88 -90v-733h-66v820h-58zM185 295v345c-40 -3 -57 -9 -75 -22c-29 -21 -43 -66 -43 -138c0 -126 32 -176 118 -185z" />
    <glyph glyph-name="periodcentered" unicode="&#xb7;" horiz-adv-x="250" 
d="M125 310c30 0 56 -26 56 -57c0 -30 -26 -54 -57 -54c-29 0 -54 25 -54 54c0 32 25 57 55 57z" />
    <glyph glyph-name="cedilla" unicode="&#xb8;" horiz-adv-x="333" 
d="M98 -99l41 99h35l-25 -65c10 2 16 3 26 3c54 0 86 -25 86 -69c0 -52 -48 -84 -125 -84c-31 0 -55 5 -84 16l14 31c27 -9 44 -12 65 -12c34 0 55 17 55 44c0 26 -15 36 -53 36c-12 0 -20 -1 -28 -4z" />
    <glyph glyph-name="onesuperior" unicode="&#xb9;" horiz-adv-x="300" 
d="M248 294v-24h-191v24c42 2 52 9 53 32v257c0 22 -2 28 -8 28c-7 0 -7 0 -43 -13v23l118 55l14 -3v-343c1 -26 13 -34 57 -36z" />
    <glyph glyph-name="ordmasculine" unicode="&#xba;" horiz-adv-x="310" 
d="M159 676c85 0 145 -55 145 -134c0 -84 -65 -148 -153 -148c-84 0 -145 58 -145 139c0 86 61 143 153 143zM150 643c-43 0 -71 -29 -71 -74c0 -39 9 -80 25 -108c12 -22 31 -34 56 -34c46 0 71 31 71 87c0 76 -33 129 -81 129z" />
    <glyph glyph-name="guillemotright" unicode="&#xbb;" horiz-adv-x="500" 
d="M458 222l-31 -27c-71 -61 -111 -98 -170 -156c-4 -5 -6 -6 -11 -6c-6 0 -9 3 -9 9c0 13 41 71 118 169l6 7l4 6c-25 33 -42 54 -75 93c-29 36 -54 76 -54 89c0 5 5 10 10 10c6 0 26 -18 43 -39c2 -3 32 -33 61 -59c11 -9 19 -16 24 -21c2 -1 8 -7 19 -16zM266 222
l-31 -27c-71 -61 -111 -98 -170 -156c-4 -5 -6 -6 -11 -6c-6 0 -9 3 -9 9c0 13 41 71 118 169l6 7l4 6c-25 33 -42 54 -75 93c-29 36 -54 76 -54 89c0 5 5 10 10 10c6 0 26 -18 43 -39c2 -3 32 -33 61 -59c11 -9 19 -16 24 -21c2 -1 8 -7 19 -16z" />
    <glyph glyph-name="onequarter" unicode="&#xbc;" horiz-adv-x="750" 
d="M216 288v-11h-178v11c39 2 52 12 53 38v257c0 27 -3 35 -15 35c-7 0 -9 -1 -36 -10v9l112 52l7 -1v-338c1 -29 15 -39 57 -42zM712 145v-50h-51v-95h-66v95h-171v46l194 258h43v-254h51zM593 145v170l-126 -170h126zM631 676l-450 -690h-49l453 690h46z" />
    <glyph glyph-name="onehalf" unicode="&#xbd;" horiz-adv-x="750" 
d="M216 288v-11h-178v11c39 2 52 12 53 38v257c0 27 -3 35 -15 35c-7 0 -9 -1 -36 -10v9l112 52l7 -1v-338c1 -29 15 -39 57 -42zM600 676l-450 -690h-49l453 690h46zM734 81l-33 -75h-242v14l97 105c57 63 83 109 83 150c0 44 -32 74 -79 74c-39 0 -69 -22 -90 -67l-14 8
c14 41 25 59 43 76c22 21 55 33 88 33c69 0 122 -46 122 -105c0 -45 -24 -90 -74 -140l-97 -96h137c29 1 40 6 53 25z" />
    <glyph glyph-name="threequarters" unicode="&#xbe;" horiz-adv-x="750" 
d="M98 469l-1 20c71 25 96 47 96 85c0 32 -23 53 -61 53c-37 0 -57 -13 -87 -55l-18 13c11 19 12 21 17 29c25 38 66 59 112 59c58 0 103 -34 103 -77c0 -29 -14 -46 -65 -83c32 -13 37 -16 49 -26c26 -21 41 -52 41 -84c0 -75 -79 -131 -187 -131c-49 0 -77 16 -77 45
c0 18 13 32 30 32c10 0 20 -5 38 -18c22 -16 34 -21 53 -21c43 0 72 29 72 72c0 48 -42 90 -90 90c-1 0 -4 0 -7 -1zM712 145v-50h-51v-95h-66v95h-171v46l194 258h43v-254h51zM593 145v170l-126 -170h126zM645 676l-450 -690h-49l453 690h46z" />
    <glyph glyph-name="questiondown" unicode="&#xbf;" horiz-adv-x="444" 
d="M209 294h17c-1 -44 -11 -94 -30 -142l-28 -64c-24 -55 -37 -110 -37 -156c0 -67 48 -120 109 -120c48 0 94 30 94 62c0 9 -5 17 -17 31c-15 17 -21 29 -21 43c0 25 16 41 41 41c31 0 48 -21 48 -62c0 -83 -70 -145 -162 -145c-55 0 -114 23 -148 58c-23 23 -36 59 -36 97
c0 41 13 77 45 126c14 21 14 21 60 77c36 46 54 86 65 154zM217 466c31 0 54 -22 54 -51c0 -30 -24 -54 -55 -54c-30 0 -53 23 -53 55c0 29 22 50 54 50z" />
    <glyph glyph-name="Agrave" unicode="&#xc0;" 
d="M706 19v-19h-255v19c53 1 70 9 70 34c0 14 -7 40 -19 67l-41 96h-262l-46 -117c-5 -13 -8 -27 -8 -39c0 -29 20 -41 68 -41v-19h-198v19c48 2 60 18 124 164l208 491h20l249 -568c35 -74 45 -84 90 -87zM216 257h231l-116 275zM437 719h-40l-154 97c-19 12 -29 27 -29 43
c0 19 13 31 34 31c15 0 24 -5 42 -23z" />
    <glyph glyph-name="Aacute" unicode="&#xc1;" 
d="M706 19v-19h-255v19c53 1 70 9 70 34c0 14 -7 40 -19 67l-41 96h-262l-46 -117c-5 -13 -8 -27 -8 -39c0 -29 20 -41 68 -41v-19h-198v19c48 2 60 18 124 164l208 491h20l249 -568c35 -74 45 -84 90 -87zM216 257h231l-116 275zM323 719h-40l147 148c18 18 27 23 42 23
c22 0 35 -12 35 -32c0 -16 -9 -29 -30 -42z" />
    <glyph glyph-name="Acircumflex" unicode="&#xc2;" 
d="M706 19v-19h-255v19c53 1 70 9 70 34c0 14 -7 40 -19 67l-41 96h-262l-46 -117c-5 -13 -8 -27 -8 -39c0 -29 20 -41 68 -41v-19h-198v19c48 2 60 18 124 164l208 491h20l249 -568c35 -74 45 -84 90 -87zM216 257h231l-116 275zM512 719h-34l-122 103l-121 -103h-34
l124 167h62z" />
    <glyph glyph-name="Atilde" unicode="&#xc3;" 
d="M706 19v-19h-255v19c53 1 70 9 70 34c0 14 -7 40 -19 67l-41 96h-262l-46 -117c-5 -13 -8 -27 -8 -39c0 -29 20 -41 68 -41v-19h-198v19c48 2 60 18 124 164l208 491h20l249 -568c35 -74 45 -84 90 -87zM216 257h231l-116 275zM497 850h29c-21 -76 -50 -106 -105 -106
c-25 0 -40 4 -81 24l-23 11c-15 7 -29 11 -41 11c-23 0 -40 -15 -51 -46h-29c15 65 51 101 101 101c22 0 47 -6 70 -18l24 -12c19 -9 38 -15 53 -15c23 0 36 12 53 50z" />
    <glyph glyph-name="Adieresis" unicode="&#xc4;" 
d="M706 19v-19h-255v19c53 1 70 9 70 34c0 14 -7 40 -19 67l-41 96h-262l-46 -117c-5 -13 -8 -27 -8 -39c0 -29 20 -41 68 -41v-19h-198v19c48 2 60 18 124 164l208 491h20l249 -568c35 -74 45 -84 90 -87zM216 257h231l-116 275zM254 835c27 0 50 -23 50 -50
c0 -28 -23 -50 -50 -50s-48 22 -48 51c0 26 22 49 48 49zM453 835c27 0 50 -23 50 -50c0 -28 -23 -50 -50 -50s-48 22 -48 51c0 26 22 49 48 49z" />
    <glyph glyph-name="Aring" unicode="&#xc5;" 
d="M706 19v-19h-255v19c53 1 70 9 70 34c0 14 -7 40 -19 67l-41 96h-262l-46 -117c-5 -13 -8 -27 -8 -39c0 -29 20 -41 68 -41v-19h-198v19c48 2 60 18 124 164l208 491h20l249 -568c35 -74 45 -84 90 -87zM216 257h231l-116 275zM351 915c55 0 100 -45 100 -100
s-45 -99 -100 -99c-56 0 -99 44 -99 100c0 54 45 99 99 99zM352 881c-36 0 -66 -29 -66 -65c0 -37 29 -66 64 -66c38 0 67 29 67 65s-30 66 -65 66z" />
    <glyph glyph-name="AE" unicode="&#xc6;" horiz-adv-x="889" 
d="M816 521h-23c-12 91 -37 105 -182 105h-87c-20 0 -26 -7 -27 -30v-230h111c105 2 125 17 132 97h21v-234h-21c-7 77 -27 98 -98 100h-145v-238c0 -24 3 -41 8 -44c4 -5 30 -9 61 -9h76c112 2 139 20 197 130h24l-44 -168h-510v19l17 2c63 9 70 18 72 87v152h-176l-28 -53
c-41 -78 -64 -136 -64 -158c0 -15 25 -26 68 -30h1v-19h-199v19c43 6 55 17 88 78l245 484c6 11 9 22 9 28c0 22 -25 31 -90 33v20h564v-141zM239 299h159v319z" />
    <glyph glyph-name="Ccedilla" unicode="&#xc7;" horiz-adv-x="667" 
d="M336 -13l-20 -52c10 2 16 3 26 3c54 0 86 -25 86 -69c0 -52 -48 -84 -125 -84c-31 0 -55 5 -84 16l14 31c27 -9 44 -12 65 -12c34 0 55 17 55 44c0 26 -15 36 -53 36c-12 0 -20 -1 -28 -4l-7 5l37 89c-167 24 -274 154 -274 335c0 111 38 203 108 265
c63 55 145 86 227 86c47 0 97 -8 146 -25c15 -5 30 -8 39 -8c20 0 36 12 42 33h21l9 -225h-23c-19 65 -34 93 -66 125c-40 39 -92 60 -149 60c-145 0 -238 -116 -238 -298c0 -111 31 -201 86 -250c43 -38 99 -58 162 -58c83 0 149 30 223 101l18 -18
c-60 -80 -160 -127 -273 -127c-8 0 -15 0 -24 1z" />
    <glyph glyph-name="Egrave" unicode="&#xc8;" horiz-adv-x="611" 
d="M597 169l-45 -169h-540v19c72 4 85 18 87 90v444c-2 72 -14 85 -87 90v19h531l3 -143h-25c-16 89 -36 103 -152 105h-135c-28 0 -32 -4 -33 -34v-222h154c84 2 98 14 110 95h23v-232h-23c-13 82 -26 94 -110 96h-154v-247c0 -39 1 -40 105 -43h27c143 1 188 26 236 132
h28zM382 719h-40l-154 97c-19 11 -29 27 -29 43c0 19 13 31 34 31c15 0 23 -5 42 -23z" />
    <glyph glyph-name="Eacute" unicode="&#xc9;" horiz-adv-x="611" 
d="M597 169l-45 -169h-540v19c72 4 85 18 87 90v444c-2 72 -14 85 -87 90v19h531l3 -143h-25c-16 89 -36 103 -152 105h-135c-28 0 -32 -4 -33 -34v-222h154c84 2 98 14 110 95h23v-232h-23c-13 82 -26 94 -110 96h-154v-247c0 -39 1 -40 105 -43h27c143 1 188 26 236 132
h28zM273 719h-40l147 148c18 18 27 23 42 23c22 0 35 -12 35 -32c0 -16 -9 -29 -30 -42z" />
    <glyph glyph-name="Ecircumflex" unicode="&#xca;" horiz-adv-x="611" 
d="M597 169l-45 -169h-540v19c72 4 85 18 87 90v444c-2 72 -14 85 -87 90v19h531l3 -143h-25c-16 89 -36 103 -152 105h-135c-28 0 -32 -4 -33 -34v-222h154c84 2 98 14 110 95h23v-232h-23c-13 82 -26 94 -110 96h-154v-247c0 -39 1 -40 105 -43h27c143 1 188 26 236 132
h28zM462 719h-34l-122 103l-121 -103h-34l124 167h62z" />
    <glyph glyph-name="Edieresis" unicode="&#xcb;" horiz-adv-x="611" 
d="M597 169l-45 -169h-540v19c72 4 85 18 87 90v444c-2 72 -14 85 -87 90v19h531l3 -143h-25c-16 89 -36 103 -152 105h-135c-28 0 -32 -4 -33 -34v-222h154c84 2 98 14 110 95h23v-232h-23c-13 82 -26 94 -110 96h-154v-247c0 -39 1 -40 105 -43h27c143 1 188 26 236 132
h28zM206 835c27 0 50 -23 50 -50c0 -28 -23 -50 -50 -50s-48 22 -48 51c0 26 22 49 48 49zM405 835c27 0 50 -23 50 -50c0 -28 -23 -50 -50 -50s-48 22 -48 51c0 26 22 49 48 49z" />
    <glyph glyph-name="Igrave" unicode="&#xcc;" horiz-adv-x="333" 
d="M18 0v19c84 3 96 14 97 90v444c-1 75 -12 85 -97 90v19h297v-19c-83 -3 -96 -15 -98 -90v-444c2 -74 16 -88 98 -90v-19h-297zM243 719h-40l-154 97c-19 11 -29 27 -29 43c0 19 13 31 34 31c15 0 23 -5 42 -23z" />
    <glyph glyph-name="Iacute" unicode="&#xcd;" horiz-adv-x="333" 
d="M18 0v19c84 3 96 14 97 90v444c-1 75 -12 85 -97 90v19h297v-19c-83 -3 -96 -15 -98 -90v-444c2 -74 16 -88 98 -90v-19h-297zM133 719h-40l147 148c18 18 27 23 42 23c22 0 35 -12 35 -32c0 -16 -9 -29 -30 -42z" />
    <glyph glyph-name="Icircumflex" unicode="&#xce;" horiz-adv-x="333" 
d="M18 0v19c84 3 96 14 97 90v444c-1 75 -12 85 -97 90v19h297v-19c-83 -3 -96 -15 -98 -90v-444c2 -74 16 -88 98 -90v-19h-297zM322 719h-34l-122 103l-121 -103h-34l124 167h62z" />
    <glyph glyph-name="Idieresis" unicode="&#xcf;" horiz-adv-x="333" 
d="M18 0v19c84 3 96 14 97 90v444c-1 75 -12 85 -97 90v19h297v-19c-83 -3 -96 -15 -98 -90v-444c2 -74 16 -88 98 -90v-19h-297zM66 835c27 0 50 -23 50 -50c0 -28 -23 -50 -50 -50s-48 22 -48 51c0 26 22 49 48 49zM265 835c27 0 50 -23 50 -50c0 -28 -23 -50 -50 -50
s-48 22 -48 51c0 26 22 49 48 49z" />
    <glyph glyph-name="Eth" unicode="&#xd0;" 
d="M16 643v19h270c137 0 246 -36 314 -105c56 -55 85 -133 85 -223c0 -97 -37 -186 -102 -245c-62 -56 -167 -89 -283 -89h-284v19c75 5 87 17 88 90v206h-83v44h83v194c-1 75 -9 83 -88 90zM352 359v-44h-146v-237c0 -32 12 -41 52 -41c87 0 145 12 196 41
c81 47 122 131 122 249c0 108 -41 194 -119 248c-48 34 -112 50 -201 50c-40 0 -50 -8 -50 -39v-227h146z" />
    <glyph glyph-name="Ntilde" unicode="&#xd1;" 
d="M707 662v-19c-79 -7 -92 -24 -95 -128v-526h-17l-442 550v-392c2 -103 17 -124 94 -128v-19h-235v19c82 5 95 22 97 128v441c-40 47 -54 55 -97 55v19h171l385 -484v337c-3 106 -16 123 -96 128v19h235zM497 850h29c-21 -76 -50 -106 -105 -106c-25 0 -40 4 -81 24
l-23 11c-15 7 -29 11 -41 11c-23 0 -40 -15 -51 -46h-29c15 65 51 101 101 101c22 0 47 -6 70 -18l24 -12c19 -9 38 -15 53 -15c23 0 36 12 53 50z" />
    <glyph glyph-name="Ograve" unicode="&#xd2;" 
d="M361 676c96 0 180 -36 243 -105c55 -59 84 -145 84 -244c0 -202 -136 -341 -333 -341c-88 0 -177 39 -235 102c-54 57 -86 149 -86 243c0 202 136 345 327 345zM361 640c-55 0 -104 -22 -143 -65c-42 -47 -70 -144 -70 -246c0 -111 33 -212 84 -258
c36 -31 81 -49 127 -49c53 0 98 18 133 53c23 23 40 48 49 73c20 52 33 121 33 180c0 119 -31 213 -85 262c-36 32 -82 50 -128 50zM437 719h-40l-154 97c-19 12 -29 27 -29 43c0 19 13 31 34 31c15 0 24 -5 42 -23z" />
    <glyph glyph-name="Oacute" unicode="&#xd3;" 
d="M361 676c96 0 180 -36 243 -105c55 -59 84 -145 84 -244c0 -202 -136 -341 -333 -341c-88 0 -177 39 -235 102c-54 57 -86 149 -86 243c0 202 136 345 327 345zM361 640c-55 0 -104 -22 -143 -65c-42 -47 -70 -144 -70 -246c0 -111 33 -212 84 -258
c36 -31 81 -49 127 -49c53 0 98 18 133 53c23 23 40 48 49 73c20 52 33 121 33 180c0 119 -31 213 -85 262c-36 32 -82 50 -128 50zM328 719h-40l147 148c18 18 27 23 42 23c22 0 35 -12 35 -32c0 -16 -9 -29 -30 -42z" />
    <glyph glyph-name="Ocircumflex" unicode="&#xd4;" 
d="M361 676c96 0 180 -36 243 -105c55 -59 84 -145 84 -244c0 -202 -136 -341 -333 -341c-88 0 -177 39 -235 102c-54 57 -86 149 -86 243c0 202 136 345 327 345zM361 640c-55 0 -104 -22 -143 -65c-42 -47 -70 -144 -70 -246c0 -111 33 -212 84 -258
c36 -31 81 -49 127 -49c53 0 98 18 133 53c23 23 40 48 49 73c20 52 33 121 33 180c0 119 -31 213 -85 262c-36 32 -82 50 -128 50zM517 719h-34l-122 103l-121 -103h-34l124 167h62z" />
    <glyph glyph-name="Otilde" unicode="&#xd5;" 
d="M361 676c96 0 180 -36 243 -105c55 -59 84 -145 84 -244c0 -202 -136 -341 -333 -341c-88 0 -177 39 -235 102c-54 57 -86 149 -86 243c0 202 136 345 327 345zM361 640c-55 0 -104 -22 -143 -65c-42 -47 -70 -144 -70 -246c0 -111 33 -212 84 -258
c36 -31 81 -49 127 -49c53 0 98 18 133 53c23 23 40 48 49 73c20 52 33 121 33 180c0 119 -31 213 -85 262c-36 32 -82 50 -128 50zM497 850h29c-21 -76 -50 -106 -105 -106c-25 0 -40 4 -81 24l-23 11c-15 7 -29 11 -41 11c-23 0 -40 -15 -51 -46h-29c15 65 51 101 101 101
c22 0 47 -6 70 -18l24 -12c19 -9 38 -15 53 -15c23 0 36 12 53 50z" />
    <glyph glyph-name="Odieresis" unicode="&#xd6;" 
d="M361 676c96 0 180 -36 243 -105c55 -59 84 -145 84 -244c0 -202 -136 -341 -333 -341c-88 0 -177 39 -235 102c-54 57 -86 149 -86 243c0 202 136 345 327 345zM361 640c-55 0 -104 -22 -143 -65c-42 -47 -70 -144 -70 -246c0 -111 33 -212 84 -258
c36 -31 81 -49 127 -49c53 0 98 18 133 53c23 23 40 48 49 73c20 52 33 121 33 180c0 119 -31 213 -85 262c-36 32 -82 50 -128 50zM261 835c27 0 50 -23 50 -50c0 -28 -23 -50 -50 -50s-48 22 -48 51c0 26 22 49 48 49zM460 835c27 0 50 -23 50 -50c0 -28 -23 -50 -50 -50
s-48 22 -48 51c0 26 22 49 48 49z" />
    <glyph glyph-name="multiply" unicode="&#xd7;" horiz-adv-x="564" 
d="M243 306l-196 196l39 39l196 -197l197 197l38 -39l-197 -196l197 -197l-38 -38l-197 197l-196 -197l-39 38z" />
    <glyph glyph-name="Oslash" unicode="&#xd8;" 
d="M658 734l-88 -130c41 -38 58 -58 76 -93c27 -50 42 -115 42 -179c0 -205 -134 -346 -329 -346c-67 0 -113 13 -175 50l-79 -116h-49l95 139c-42 38 -58 58 -76 93c-26 50 -41 114 -41 178c0 203 135 346 328 346c66 0 111 -13 175 -49l72 107h49zM527 540l-308 -452
c43 -47 84 -66 142 -66c132 0 213 117 213 308c0 89 -13 145 -47 210zM194 123l308 452c-44 46 -85 65 -141 65c-131 0 -213 -119 -213 -310c0 -88 12 -143 46 -207z" />
    <glyph glyph-name="Ugrave" unicode="&#xd9;" 
d="M705 662v-19c-81 -9 -92 -23 -94 -128v-261c0 -77 -9 -123 -33 -165c-39 -68 -114 -103 -223 -103c-170 0 -251 82 -251 255v312c-1 74 -11 84 -90 90v19h283v-19c-80 -7 -90 -17 -91 -90v-320c0 -63 7 -100 25 -132c27 -47 76 -71 147 -71c75 0 139 31 166 79
c16 30 23 68 23 136v270c-2 103 -17 123 -94 128v19h232zM455 719h-40l-154 97c-19 11 -29 27 -29 43c0 19 13 31 34 31c15 0 23 -5 42 -23z" />
    <glyph glyph-name="Uacute" unicode="&#xda;" 
d="M705 662v-19c-81 -9 -92 -23 -94 -128v-261c0 -77 -9 -123 -33 -165c-39 -68 -114 -103 -223 -103c-170 0 -251 82 -251 255v312c-1 74 -11 84 -90 90v19h283v-19c-80 -7 -90 -17 -91 -90v-320c0 -63 7 -100 25 -132c27 -47 76 -71 147 -71c75 0 139 31 166 79
c16 30 23 68 23 136v270c-2 103 -17 123 -94 128v19h232zM353 719h-40l147 148c18 18 27 23 42 23c22 0 35 -12 35 -32c0 -16 -9 -29 -30 -42z" />
    <glyph glyph-name="Ucircumflex" unicode="&#xdb;" 
d="M705 662v-19c-81 -9 -92 -23 -94 -128v-261c0 -77 -9 -123 -33 -165c-39 -68 -114 -103 -223 -103c-170 0 -251 82 -251 255v312c-1 74 -11 84 -90 90v19h283v-19c-80 -7 -90 -17 -91 -90v-320c0 -63 7 -100 25 -132c27 -47 76 -71 147 -71c75 0 139 31 166 79
c16 30 23 68 23 136v270c-2 103 -17 123 -94 128v19h232zM536 719h-34l-122 103l-121 -103h-34l124 167h62z" />
    <glyph glyph-name="Udieresis" unicode="&#xdc;" 
d="M705 662v-19c-81 -9 -92 -23 -94 -128v-261c0 -77 -9 -123 -33 -165c-39 -68 -114 -103 -223 -103c-170 0 -251 82 -251 255v312c-1 74 -11 84 -90 90v19h283v-19c-80 -7 -90 -17 -91 -90v-320c0 -63 7 -100 25 -132c27 -47 76 -71 147 -71c75 0 139 31 166 79
c16 30 23 68 23 136v270c-2 103 -17 123 -94 128v19h232zM279 835c27 0 50 -23 50 -50c0 -28 -23 -50 -50 -50s-48 22 -48 51c0 26 22 49 48 49zM478 835c27 0 50 -23 50 -50c0 -28 -23 -50 -50 -50s-48 22 -48 51c0 26 22 49 48 49z" />
    <glyph glyph-name="Yacute" unicode="&#xdd;" 
d="M703 662v-19c-51 -4 -77 -26 -138 -114l-148 -226v-194c1 -77 14 -88 103 -90v-19h-306v19c91 4 100 13 101 101v174l-131 192c-100 141 -114 155 -162 157v19h280v-19c-11 -1 -21 -1 -25 -1c-32 -2 -46 -10 -46 -29c0 -11 6 -28 17 -44l148 -222l143 226
c10 15 14 27 14 37c0 24 -17 32 -69 33v19h219zM386 719h-40l147 148c18 18 27 23 42 23c22 0 35 -12 35 -32c0 -16 -9 -29 -30 -42z" />
    <glyph glyph-name="Thorn" unicode="&#xde;" horiz-adv-x="556" 
d="M296 19v-19h-280v19c76 7 83 16 84 101v433c-1 73 -10 82 -84 90v19h277v-19c-82 -7 -92 -20 -91 -111h80c160 0 260 -70 260 -181c0 -66 -37 -127 -96 -159c-43 -24 -96 -34 -175 -34c-26 0 -43 1 -69 3v-52c1 -74 15 -88 94 -90zM202 461v-260c22 -2 36 -3 57 -3
c115 0 174 50 174 147c0 103 -61 149 -199 149c-26 0 -32 -7 -32 -33z" />
    <glyph glyph-name="germandbls" unicode="&#xdf;" horiz-adv-x="500" 
d="M12 0v15c50 3 59 14 61 69v370c0 70 9 115 30 152c29 51 80 77 148 77c104 0 170 -59 170 -152c0 -72 -30 -105 -137 -154c61 -12 90 -23 122 -51c40 -34 62 -83 62 -140c0 -110 -78 -195 -179 -195c-57 0 -97 30 -97 73c0 27 19 48 45 48c22 0 40 -17 42 -40l2 -22
c2 -22 10 -30 29 -30c42 0 64 45 64 130c0 135 -44 204 -132 207c-23 1 -32 6 -32 17c0 9 8 13 29 15c65 7 95 48 95 128c0 87 -34 139 -91 139c-53 0 -86 -42 -86 -107v-549h-145z" />
    <glyph glyph-name="agrave" unicode="&#xe0;" horiz-adv-x="444" 
d="M442 66v-26c-35 -38 -56 -50 -90 -50c-41 0 -59 20 -64 73c-61 -52 -102 -73 -146 -73c-61 0 -105 44 -105 107c0 33 14 67 36 87c43 38 60 46 214 108v61c0 54 -27 83 -76 83c-40 0 -72 -22 -72 -49c0 -7 1 -15 3 -24c1 -7 2 -12 2 -16c0 -22 -21 -42 -45 -42
s-43 20 -43 43c0 63 74 112 168 112c59 0 102 -19 124 -55c15 -24 20 -53 20 -105v-195c0 -44 7 -58 30 -58c15 0 27 5 44 19zM287 123v145c-117 -41 -161 -79 -162 -139v-4c0 -43 28 -77 63 -77c21 0 48 8 73 22c21 12 26 23 26 53zM329 507h-40l-154 97
c-19 12 -29 27 -29 43c0 19 13 31 34 31c15 0 24 -5 42 -23z" />
    <glyph glyph-name="aacute" unicode="&#xe1;" horiz-adv-x="444" 
d="M442 66v-26c-35 -38 -56 -50 -90 -50c-41 0 -59 20 -64 73c-61 -52 -102 -73 -146 -73c-61 0 -105 44 -105 107c0 33 14 67 36 87c43 38 60 46 214 108v61c0 54 -27 83 -76 83c-40 0 -72 -22 -72 -49c0 -7 1 -15 3 -24c1 -7 2 -12 2 -16c0 -22 -21 -42 -45 -42
s-43 20 -43 43c0 63 74 112 168 112c59 0 102 -19 124 -55c15 -24 20 -53 20 -105v-195c0 -44 7 -58 30 -58c15 0 27 5 44 19zM287 123v145c-117 -41 -161 -79 -162 -139v-4c0 -43 28 -77 63 -77c21 0 48 8 73 22c21 12 26 23 26 53zM163 507h-40l147 148c18 18 27 23 42 23
c22 0 35 -12 35 -32c0 -16 -9 -29 -30 -42z" />
    <glyph glyph-name="acircumflex" unicode="&#xe2;" horiz-adv-x="444" 
d="M442 66v-26c-35 -38 -56 -50 -90 -50c-41 0 -59 20 -64 73c-61 -52 -102 -73 -146 -73c-61 0 -105 44 -105 107c0 33 14 67 36 87c43 38 60 46 214 108v61c0 54 -27 83 -76 83c-40 0 -72 -22 -72 -49c0 -7 1 -15 3 -24c1 -7 2 -12 2 -16c0 -22 -21 -42 -45 -42
s-43 20 -43 43c0 63 74 112 168 112c59 0 102 -19 124 -55c15 -24 20 -53 20 -105v-195c0 -44 7 -58 30 -58c15 0 27 5 44 19zM287 123v145c-117 -41 -161 -79 -162 -139v-4c0 -43 28 -77 63 -77c21 0 48 8 73 22c21 12 26 23 26 53zM378 507h-34l-122 103l-121 -103h-34
l124 167h62z" />
    <glyph glyph-name="atilde" unicode="&#xe3;" horiz-adv-x="444" 
d="M442 66v-26c-35 -38 -56 -50 -90 -50c-41 0 -59 20 -64 73c-61 -52 -102 -73 -146 -73c-61 0 -105 44 -105 107c0 33 14 67 36 87c43 38 60 46 214 108v61c0 54 -27 83 -76 83c-40 0 -72 -22 -72 -49c0 -7 1 -15 3 -24c1 -7 2 -12 2 -16c0 -22 -21 -42 -45 -42
s-43 20 -43 43c0 63 74 112 168 112c59 0 102 -19 124 -55c15 -24 20 -53 20 -105v-195c0 -44 7 -58 30 -58c15 0 27 5 44 19zM287 123v145c-117 -41 -161 -79 -162 -139v-4c0 -43 28 -77 63 -77c21 0 48 8 73 22c21 12 26 23 26 53zM358 638h29c-21 -76 -50 -106 -106 -106
c-25 0 -39 4 -80 24l-23 11c-15 7 -30 11 -41 11c-24 0 -40 -15 -51 -46h-29c15 65 51 101 101 101c22 0 46 -6 70 -18l24 -12c18 -9 38 -15 52 -15c23 0 36 12 54 50z" />
    <glyph glyph-name="adieresis" unicode="&#xe4;" horiz-adv-x="444" 
d="M442 66v-26c-35 -38 -56 -50 -90 -50c-41 0 -59 20 -64 73c-61 -52 -102 -73 -146 -73c-61 0 -105 44 -105 107c0 33 14 67 36 87c43 38 60 46 214 108v61c0 54 -27 83 -76 83c-40 0 -72 -22 -72 -49c0 -7 1 -15 3 -24c1 -7 2 -12 2 -16c0 -22 -21 -42 -45 -42
s-43 20 -43 43c0 63 74 112 168 112c59 0 102 -19 124 -55c15 -24 20 -53 20 -105v-195c0 -44 7 -58 30 -58c15 0 27 5 44 19zM287 123v145c-117 -41 -161 -79 -162 -139v-4c0 -43 28 -77 63 -77c21 0 48 8 73 22c21 12 26 23 26 53zM122 623c27 0 50 -23 50 -50
c0 -28 -23 -50 -50 -50s-48 22 -48 51c0 26 22 49 48 49zM321 623c27 0 50 -23 50 -50c0 -28 -23 -50 -50 -50s-48 22 -48 51c0 26 22 49 48 49z" />
    <glyph glyph-name="aring" unicode="&#xe5;" horiz-adv-x="444" 
d="M442 66v-26c-35 -38 -56 -50 -90 -50c-41 0 -59 20 -64 73c-61 -52 -102 -73 -146 -73c-61 0 -105 44 -105 107c0 33 14 67 36 87c43 38 60 46 214 108v61c0 54 -27 83 -76 83c-40 0 -72 -22 -72 -49c0 -7 1 -15 3 -24c1 -7 2 -12 2 -16c0 -22 -21 -42 -45 -42
s-43 20 -43 43c0 63 74 112 168 112c59 0 102 -19 124 -55c15 -24 20 -53 20 -105v-195c0 -44 7 -58 30 -58c15 0 27 5 44 19zM287 123v145c-117 -41 -161 -79 -162 -139v-4c0 -43 28 -77 63 -77c21 0 48 8 73 22c21 12 26 23 26 53zM222 722c55 0 100 -45 100 -100
s-45 -99 -100 -99c-56 0 -99 44 -99 100c0 54 45 99 99 99zM223 688c-36 0 -66 -29 -66 -65c0 -37 29 -66 64 -66c38 0 67 29 67 65s-30 66 -65 66z" />
    <glyph glyph-name="ae" unicode="&#xe6;" horiz-adv-x="667" 
d="M620 154l12 -5c-28 -59 -46 -87 -74 -111c-35 -32 -77 -48 -123 -48c-58 0 -95 21 -129 73c-68 -57 -102 -73 -152 -73c-68 0 -116 45 -116 110c0 60 42 101 149 145l86 36l2 63c0 23 -5 54 -12 70c-7 14 -26 22 -50 22c-43 0 -66 -17 -68 -50v-6l1 -11c1 -6 1 -13 1 -17
c0 -31 -15 -48 -43 -48c-27 0 -44 18 -44 48c0 61 69 108 159 108c50 0 79 -11 118 -45c45 35 72 45 119 45c101 0 148 -54 160 -183h-262c0 -100 5 -131 27 -170c16 -30 54 -50 95 -50c57 0 96 26 144 97zM274 201l-1 52c-121 -44 -148 -68 -148 -128c0 -48 30 -87 67 -87
c36 0 101 32 101 50c0 1 0 2 -1 3c-11 36 -17 73 -18 110zM355 307h166c-2 88 -25 124 -79 124c-57 0 -82 -36 -87 -124z" />
    <glyph glyph-name="ccedilla" unicode="&#xe7;" horiz-adv-x="444" 
d="M226 -9l-21 -46c10 1 17 2 27 2c53 0 85 -21 85 -57c0 -43 -48 -70 -125 -70c-31 0 -55 4 -84 14l14 25c27 -7 44 -10 65 -10c34 0 55 14 55 37c0 22 -15 30 -53 30c-12 0 -20 -1 -28 -4l-7 5l38 75c-101 13 -167 101 -167 220c0 80 28 148 78 192c41 36 92 56 141 56
c84 0 154 -47 154 -103c0 -23 -21 -42 -47 -42c-22 0 -40 17 -48 46l-6 22c-10 37 -23 48 -59 48c-81 0 -136 -70 -136 -174c0 -115 63 -195 155 -195c57 0 93 24 141 94l14 -9c-50 -103 -109 -153 -186 -156z" />
    <glyph glyph-name="egrave" unicode="&#xe8;" horiz-adv-x="444" 
d="M415 164l16 -7c-42 -108 -116 -167 -212 -167c-115 0 -187 86 -187 224c0 82 27 153 74 194c38 34 85 52 135 52c52 0 98 -21 128 -57c25 -32 35 -61 43 -126h-308c2 -62 9 -94 27 -132c29 -57 72 -86 129 -86c64 0 107 29 155 105zM106 309h204c-13 87 -37 115 -98 115
s-95 -36 -106 -115zM347 507h-40l-154 97c-19 12 -29 27 -29 43c0 19 13 31 34 31c15 0 24 -5 42 -23z" />
    <glyph glyph-name="eacute" unicode="&#xe9;" horiz-adv-x="444" 
d="M414 164l16 -7c-42 -108 -116 -167 -212 -167c-115 0 -187 86 -187 224c0 82 27 153 74 194c38 34 85 52 135 52c52 0 98 -21 128 -57c25 -32 35 -61 43 -126h-308c2 -62 9 -94 27 -132c29 -57 72 -86 129 -86c64 0 107 29 155 105zM105 309h204c-13 87 -37 115 -98 115
s-95 -36 -106 -115zM187 507h-40l147 148c18 18 27 23 42 23c22 0 35 -12 35 -32c0 -16 -9 -29 -30 -42z" />
    <glyph glyph-name="ecircumflex" unicode="&#xea;" horiz-adv-x="444" 
d="M417 164l16 -7c-42 -108 -116 -167 -212 -167c-115 0 -187 86 -187 224c0 82 27 153 74 194c38 34 85 52 135 52c52 0 98 -21 128 -57c25 -32 35 -61 43 -126h-308c2 -62 9 -94 27 -132c29 -57 72 -86 129 -86c64 0 107 29 155 105zM108 309h204c-13 87 -37 115 -98 115
s-95 -36 -106 -115zM394 507h-34l-122 103l-121 -103h-34l124 167h62z" />
    <glyph glyph-name="edieresis" unicode="&#xeb;" horiz-adv-x="444" 
d="M417 164l16 -7c-42 -108 -116 -167 -212 -167c-115 0 -187 86 -187 224c0 82 27 153 74 194c38 34 85 52 135 52c52 0 98 -21 128 -57c25 -32 35 -61 43 -126h-308c2 -62 9 -94 27 -132c29 -57 72 -86 129 -86c64 0 107 29 155 105zM108 309h204c-13 87 -37 115 -98 115
s-95 -36 -106 -115zM142 623c27 0 50 -23 50 -50c0 -28 -23 -50 -50 -50s-48 22 -48 51c0 26 22 49 48 49zM341 623c27 0 50 -23 50 -50c0 -28 -23 -50 -50 -50s-48 22 -48 51c0 26 22 49 48 49z" />
    <glyph glyph-name="igrave" unicode="&#xec;" horiz-adv-x="278" 
d="M16 0v15c68 3 77 13 79 87v232c0 44 -9 60 -33 60c-9 0 -22 -1 -34 -3l-8 -1v15l155 55l4 -3v-355c1 -73 8 -82 74 -87v-15h-237zM215 507h-40l-154 97c-19 12 -29 27 -29 43c0 19 13 31 34 31c15 0 24 -5 42 -23z" />
    <glyph glyph-name="iacute" unicode="&#xed;" horiz-adv-x="278" 
d="M16 0v15c68 3 77 13 79 87v232c0 44 -9 60 -33 60c-9 0 -22 -1 -34 -3l-8 -1v15l155 55l4 -3v-355c1 -73 8 -82 74 -87v-15h-237zM86 507h-40l147 148c18 18 27 23 42 23c22 0 35 -12 35 -32c0 -16 -9 -29 -30 -42z" />
    <glyph glyph-name="icircumflex" unicode="&#xee;" horiz-adv-x="278" 
d="M16 0v15c68 3 77 13 79 87v232c0 44 -9 60 -33 60c-9 0 -22 -1 -34 -3l-8 -1v15l155 55l4 -3v-355c1 -73 8 -82 74 -87v-15h-237zM283 507h-34l-122 103l-121 -103h-34l124 167h62z" />
    <glyph glyph-name="idieresis" unicode="&#xef;" horiz-adv-x="278" 
d="M59 623c27 0 50 -23 50 -50c0 -28 -23 -50 -50 -50s-48 22 -48 51c0 26 22 49 48 49zM218 623c27 0 50 -23 50 -50c0 -28 -23 -50 -50 -50s-48 22 -48 51c0 26 22 49 48 49zM16 0v15c68 3 77 13 79 87v232c0 44 -9 60 -33 60c-9 0 -22 -1 -34 -3l-8 -1v15l155 55l4 -3
v-355c1 -73 8 -82 74 -87v-15h-237z" />
    <glyph glyph-name="eth" unicode="&#xf0;" horiz-adv-x="500" 
d="M270 575l-123 -65l-33 30l121 64c-47 33 -81 47 -133 56l42 23c66 -6 101 -17 152 -47l95 50l33 -30l-91 -48c51 -49 69 -73 91 -118c31 -63 47 -135 47 -205c0 -96 -34 -190 -89 -242c-36 -35 -82 -53 -135 -53c-125 0 -218 100 -218 233c0 134 92 237 212 237
c48 0 75 -13 126 -60c-15 74 -38 115 -97 175zM237 432c-71 0 -118 -62 -118 -155c0 -71 16 -142 44 -194c22 -41 58 -65 98 -65c76 0 120 67 120 183c0 136 -59 231 -144 231z" />
    <glyph glyph-name="ntilde" unicode="&#xf1;" horiz-adv-x="500" 
d="M18 0v15c50 3 61 16 62 75v248c0 49 -9 64 -37 64c-11 0 -21 -1 -27 -4v17c55 16 89 27 138 45l7 -2v-79c68 64 99 81 145 81c74 0 118 -56 118 -150v-229c1 -49 12 -61 61 -66v-15h-208v15c49 3 61 19 63 84v209c0 66 -24 97 -73 97c-33 0 -56 -12 -103 -57v-281
c0 -36 16 -49 66 -52v-15h-212zM386 638h29c-21 -76 -50 -106 -106 -106c-25 0 -39 4 -80 24l-23 11c-15 7 -30 11 -41 11c-24 0 -40 -15 -51 -46h-29c15 65 51 101 101 101c22 0 46 -6 70 -18l24 -12c18 -9 38 -15 52 -15c23 0 36 12 54 50z" />
    <glyph glyph-name="ograve" unicode="&#xf2;" horiz-adv-x="500" 
d="M250 460c128 0 220 -94 220 -226c0 -139 -96 -244 -222 -244s-219 100 -219 236c0 138 90 234 221 234zM237 432c-72 0 -118 -62 -118 -157c0 -71 16 -141 44 -193c21 -40 58 -64 97 -64c75 0 120 67 120 181c0 137 -59 233 -143 233zM351 507h-40l-154 97
c-19 12 -29 27 -29 43c0 19 13 31 34 31c16 0 24 -5 42 -23z" />
    <glyph glyph-name="oacute" unicode="&#xf3;" horiz-adv-x="500" 
d="M250 460c128 0 220 -94 220 -226c0 -139 -96 -244 -222 -244s-219 100 -219 236c0 138 90 234 221 234zM237 432c-72 0 -118 -62 -118 -157c0 -71 16 -141 44 -193c21 -40 58 -64 97 -64c75 0 120 67 120 181c0 137 -59 233 -143 233zM194 507h-40l147 148
c18 18 27 23 43 23c21 0 34 -12 34 -32c0 -16 -9 -29 -30 -42z" />
    <glyph glyph-name="ocircumflex" unicode="&#xf4;" horiz-adv-x="500" 
d="M250 460c128 0 220 -94 220 -226c0 -139 -96 -244 -222 -244s-219 100 -219 236c0 138 90 234 221 234zM237 432c-72 0 -118 -62 -118 -157c0 -71 16 -141 44 -193c21 -40 58 -64 97 -64c75 0 120 67 120 181c0 137 -59 233 -143 233zM406 507h-34l-122 103l-121 -103
h-34l124 167h62z" />
    <glyph glyph-name="otilde" unicode="&#xf5;" horiz-adv-x="500" 
d="M250 460c128 0 220 -94 220 -226c0 -139 -96 -244 -222 -244s-219 100 -219 236c0 138 90 234 221 234zM237 432c-72 0 -118 -62 -118 -157c0 -71 16 -141 44 -193c21 -40 58 -64 97 -64c75 0 120 67 120 181c0 137 -59 233 -143 233zM386 638h29
c-21 -76 -50 -106 -106 -106c-25 0 -39 4 -80 24l-23 11c-15 7 -30 11 -41 11c-24 0 -40 -15 -51 -46h-29c15 65 51 101 101 101c22 0 46 -6 70 -18l24 -12c18 -9 38 -15 52 -15c23 0 36 12 54 50z" />
    <glyph glyph-name="odieresis" unicode="&#xf6;" horiz-adv-x="500" 
d="M250 460c128 0 220 -94 220 -226c0 -139 -96 -244 -222 -244s-219 100 -219 236c0 138 90 234 221 234zM237 432c-72 0 -118 -62 -118 -157c0 -71 16 -141 44 -193c21 -40 58 -64 97 -64c75 0 120 67 120 181c0 137 -59 233 -143 233zM150 623c27 0 50 -23 50 -50
c0 -28 -23 -50 -50 -50s-48 22 -48 51c0 26 22 49 48 49zM349 623c27 0 50 -23 50 -50c0 -28 -23 -50 -50 -50s-48 22 -48 51c0 26 22 49 48 49z" />
    <glyph glyph-name="divide" unicode="&#xf7;" horiz-adv-x="564" 
d="M528 280h-491v53h491v-53zM282 563c27 0 50 -23 50 -51c0 -25 -23 -47 -50 -47c-26 0 -48 22 -48 48c0 27 22 50 48 50zM282 148c27 0 50 -23 50 -51c0 -26 -23 -47 -50 -47c-26 0 -48 22 -48 48c0 27 22 50 48 50z" />
    <glyph glyph-name="oslash" unicode="&#xf8;" horiz-adv-x="500" 
d="M437 551l-65 -125c31 -22 44 -34 60 -58c24 -37 38 -86 38 -134c0 -139 -96 -244 -223 -244c-35 0 -58 5 -93 21l-65 -123h-37l73 140c-34 27 -47 42 -63 69c-21 38 -33 84 -33 130c0 136 91 233 220 233c33 0 57 -5 92 -18l57 109h39zM340 366l-161 -306
c25 -30 48 -42 82 -42c75 0 119 68 119 185c0 64 -11 109 -40 163zM158 92l159 304c-27 26 -49 36 -80 36c-71 0 -118 -62 -118 -156c0 -69 12 -126 39 -184z" />
    <glyph glyph-name="ugrave" unicode="&#xf9;" horiz-adv-x="500" 
d="M479 50v-14c-51 -14 -87 -25 -137 -45l-4 2v83l-43 -43c-27 -27 -66 -43 -103 -43c-73 0 -121 51 -121 130v252c-1 48 -15 62 -62 64v14h146v-326c0 -42 32 -76 71 -76c30 0 61 12 88 34c14 11 19 25 19 53v235c0 50 -12 60 -74 63v17h158v-343c1 -47 8 -55 57 -57h5z
M327 507h-40l-154 97c-19 12 -29 27 -29 43c0 19 13 31 34 31c15 0 24 -5 42 -23z" />
    <glyph glyph-name="uacute" unicode="&#xfa;" horiz-adv-x="500" 
d="M479 50v-14c-51 -14 -87 -25 -137 -45l-4 2v83l-43 -43c-27 -27 -66 -43 -103 -43c-73 0 -121 51 -121 130v252c-1 48 -15 62 -62 64v14h146v-326c0 -42 32 -76 71 -76c30 0 61 12 88 34c14 11 19 25 19 53v235c0 50 -12 60 -74 63v17h158v-343c1 -47 8 -55 57 -57h5z
M226 507h-40l147 148c18 18 27 23 42 23c22 0 35 -12 35 -32c0 -16 -9 -29 -30 -42z" />
    <glyph glyph-name="ucircumflex" unicode="&#xfb;" horiz-adv-x="500" 
d="M479 50v-14c-51 -14 -87 -25 -137 -45l-4 2v83l-43 -43c-27 -27 -66 -43 -103 -43c-73 0 -121 51 -121 130v252c-1 48 -15 62 -62 64v14h146v-326c0 -42 32 -76 71 -76c30 0 61 12 88 34c14 11 19 25 19 53v235c0 50 -12 60 -74 63v17h158v-343c1 -47 8 -55 57 -57h5z
M384 507h-34l-122 103l-121 -103h-34l124 167h62z" />
    <glyph glyph-name="udieresis" unicode="&#xfc;" horiz-adv-x="500" 
d="M479 50v-14c-51 -14 -87 -25 -137 -45l-4 2v83l-43 -43c-27 -27 -66 -43 -103 -43c-73 0 -121 51 -121 130v252c-1 48 -15 62 -62 64v14h146v-326c0 -42 32 -76 71 -76c30 0 61 12 88 34c14 11 19 25 19 53v235c0 50 -12 60 -74 63v17h158v-343c1 -47 8 -55 57 -57h5z
M130 623c27 0 50 -23 50 -50c0 -28 -23 -50 -50 -50s-48 22 -48 51c0 26 22 49 48 49zM329 623c27 0 50 -23 50 -50c0 -28 -23 -50 -50 -50s-48 22 -48 51c0 26 22 49 48 49z" />
    <glyph glyph-name="yacute" unicode="&#xfd;" horiz-adv-x="500" 
d="M475 450v-15c-24 -3 -35 -13 -48 -45l-154 -408c-55 -145 -101 -200 -169 -200c-43 0 -74 25 -74 58c0 25 19 44 43 44c16 0 34 -4 52 -11c11 -5 20 -7 26 -7c14 0 35 19 50 44c17 31 40 92 40 108c0 15 -16 52 -44 102c-5 10 -6 11 -18 38l-114 246c-8 17 -25 28 -51 32
v14h206v-15c-43 -2 -58 -9 -58 -27c0 -10 4 -24 10 -38l115 -253l97 276c3 7 4 13 4 17c0 16 -16 25 -48 25v15h135zM243 507h-40l147 148c18 18 27 23 42 23c22 0 35 -12 35 -32c0 -16 -9 -29 -30 -42z" />
    <glyph glyph-name="thorn" unicode="&#xfe;" horiz-adv-x="500" 
d="M5 -217v18c59 5 70 15 70 68v704c0 42 -8 51 -49 51c-7 0 -11 0 -17 -1v16c69 19 97 27 145 44l5 -3v-298c45 54 89 78 144 78c97 0 167 -89 167 -213c0 -145 -91 -257 -210 -257c-42 0 -65 10 -101 43v-157c1 -64 13 -74 88 -75v-18h-242zM159 334v-246
c0 -30 57 -66 104 -66c72 0 121 75 121 185c0 117 -49 193 -123 193c-46 0 -102 -36 -102 -66z" />
    <glyph glyph-name="ydieresis" unicode="&#xff;" horiz-adv-x="500" 
d="M475 450v-15c-24 -3 -35 -13 -48 -45l-154 -408c-55 -145 -101 -200 -169 -200c-43 0 -74 25 -74 58c0 25 19 44 43 44c16 0 34 -4 52 -11c11 -5 20 -7 26 -7c14 0 35 19 50 44c17 31 40 92 40 108c0 15 -16 52 -44 102c-5 10 -6 11 -18 38l-114 246c-8 17 -25 28 -51 32
v14h206v-15c-43 -2 -58 -9 -58 -27c0 -10 4 -24 10 -38l115 -253l97 276c3 7 4 13 4 17c0 16 -16 25 -48 25v15h135zM165 623c27 0 50 -23 50 -50c0 -28 -23 -50 -50 -50s-48 22 -48 51c0 26 22 49 48 49zM364 623c27 0 50 -23 50 -50c0 -28 -23 -50 -50 -50s-48 22 -48 51
c0 26 22 49 48 49z" />
    <glyph glyph-name="Amacron" unicode="&#x100;" 
d="M706 19v-19h-255v19c53 1 70 9 70 34c0 14 -7 40 -19 67l-41 96h-262l-46 -117c-5 -13 -8 -27 -8 -39c0 -29 20 -41 68 -41v-19h-198v19c48 2 60 18 124 164l208 491h20l249 -568c35 -74 45 -84 90 -87zM216 257h231l-116 275zM206 813h311v-54h-311v54z" />
    <glyph glyph-name="amacron" unicode="&#x101;" horiz-adv-x="444" 
d="M442 66v-26c-35 -38 -56 -50 -90 -50c-41 0 -59 20 -64 73c-61 -52 -102 -73 -146 -73c-61 0 -105 44 -105 107c0 33 14 67 36 87c43 38 60 46 214 108v61c0 54 -27 83 -76 83c-40 0 -72 -22 -72 -49c0 -7 1 -15 3 -24c1 -7 2 -12 2 -16c0 -22 -21 -42 -45 -42
s-43 20 -43 43c0 63 74 112 168 112c59 0 102 -19 124 -55c15 -24 20 -53 20 -105v-195c0 -44 7 -58 30 -58c15 0 27 5 44 19zM287 123v145c-117 -41 -161 -79 -162 -139v-4c0 -43 28 -77 63 -77c21 0 48 8 73 22c21 12 26 23 26 53zM67 601h311v-54h-311v54z" />
    <glyph glyph-name="Abreve" unicode="&#x102;" 
d="M706 19v-19h-255v19c53 1 70 9 70 34c0 14 -7 40 -19 67l-41 96h-262l-46 -117c-5 -13 -8 -27 -8 -39c0 -29 20 -41 68 -41v-19h-198v19c48 2 60 18 124 164l208 491h20l249 -568c35 -74 45 -84 90 -87zM216 257h231l-116 275zM473 876h29c-13 -106 -59 -157 -142 -157
c-48 0 -87 19 -112 54c-20 28 -26 52 -27 103h29c13 -67 47 -97 112 -97c58 0 82 21 111 97z" />
    <glyph glyph-name="abreve" unicode="&#x103;" horiz-adv-x="444" 
d="M442 66v-26c-35 -38 -56 -50 -90 -50c-41 0 -59 20 -64 73c-61 -52 -102 -73 -146 -73c-61 0 -105 44 -105 107c0 33 14 67 36 87c43 38 60 46 214 108v61c0 54 -27 83 -76 83c-40 0 -72 -22 -72 -49c0 -7 1 -15 3 -24c1 -7 2 -12 2 -16c0 -22 -21 -42 -45 -42
s-43 20 -43 43c0 63 74 112 168 112c59 0 102 -19 124 -55c15 -24 20 -53 20 -105v-195c0 -44 7 -58 30 -58c15 0 27 5 44 19zM287 123v145c-117 -41 -161 -79 -162 -139v-4c0 -43 28 -77 63 -77c21 0 48 8 73 22c21 12 26 23 26 53zM334 664h29
c-13 -106 -59 -157 -142 -157c-48 0 -87 19 -112 54c-20 28 -26 52 -27 103h29c13 -67 47 -97 112 -97c58 0 82 21 111 97z" />
    <glyph glyph-name="Aogonek" unicode="&#x104;" 
d="M706 19v-19c-22 -5 -49 -43 -49 -69c0 -24 16 -40 38 -40c21 0 40 9 71 36l20 -16c-37 -53 -71 -76 -112 -76c-42 0 -73 33 -73 75c0 34 14 58 54 90h-204v19c53 1 70 9 70 34c0 14 -7 40 -19 67l-41 96h-262l-46 -117c-5 -13 -8 -27 -8 -39c0 -29 20 -41 68 -41v-19
h-198v19c48 2 60 18 124 164l208 491h20l249 -568c35 -74 45 -84 90 -87zM216 257h231l-116 275z" />
    <glyph glyph-name="aogonek" unicode="&#x105;" horiz-adv-x="444" 
d="M442 66v-26c-35 -38 -46 -44 -87 -51c-24 -5 -40 -27 -40 -55c0 -26 15 -43 38 -43c21 0 40 9 71 36l20 -16c-37 -53 -71 -76 -112 -76c-42 0 -73 33 -73 75c0 33 16 60 54 90c-16 15 -22 30 -25 63c-61 -52 -102 -73 -146 -73c-61 0 -105 44 -105 107c0 33 14 67 36 87
c43 38 60 46 214 108v61c0 54 -27 83 -76 83c-40 0 -72 -22 -72 -49c0 -7 1 -15 3 -24c1 -7 2 -12 2 -16c0 -22 -21 -42 -45 -42s-43 20 -43 43c0 63 74 112 168 112c59 0 102 -19 124 -55c15 -24 20 -53 20 -105v-195c0 -44 7 -58 30 -58c15 0 27 5 44 19zM287 123v145
c-117 -41 -161 -79 -162 -139v-4c0 -43 28 -77 63 -77c21 0 48 8 73 22c21 12 26 23 26 53z" />
    <glyph glyph-name="Cacute" unicode="&#x106;" horiz-adv-x="667" 
d="M620 451h-23c-19 65 -34 93 -66 125c-40 39 -92 60 -149 60c-145 0 -238 -116 -238 -298c0 -111 31 -201 86 -250c43 -38 99 -58 162 -58c83 0 149 30 223 101l18 -18c-60 -81 -160 -127 -273 -127c-199 0 -332 136 -332 340c0 110 38 202 108 264c63 55 145 86 227 86
c47 0 97 -8 146 -25c15 -5 30 -8 39 -8c20 0 36 12 42 33h21zM360 719h-40l147 148c18 18 27 23 42 23c22 0 35 -12 35 -32c0 -16 -9 -29 -30 -42z" />
    <glyph glyph-name="cacute" unicode="&#x107;" horiz-adv-x="444" 
d="M398 156l14 -9c-30 -59 -49 -87 -76 -110c-36 -31 -76 -47 -121 -47c-111 0 -190 93 -190 222c0 80 28 148 78 192c41 36 92 56 141 56c84 0 154 -47 154 -103c0 -23 -21 -42 -47 -42c-22 0 -40 17 -48 46l-6 22c-10 37 -23 48 -59 48c-81 0 -136 -70 -136 -174
c0 -115 63 -195 155 -195c57 0 93 24 141 94zM179 507h-40l147 148c18 18 27 23 42 23c22 0 35 -12 35 -32c0 -16 -9 -29 -30 -42z" />
    <glyph glyph-name="Ccircumflex" unicode="&#x108;" horiz-adv-x="667" 
d="M617 155l17 -11c-64 -95 -162 -151 -267 -151c-184 0 -333 152 -333 338c0 189 152 338 345 338c51 0 101 -10 140 -28c40 -19 41 -19 51 -19c17 0 26 12 30 40h21l6 -223l-18 -2c-7 57 -25 94 -60 129c-43 43 -99 66 -159 66c-142 0 -235 -120 -235 -304
c0 -178 93 -291 238 -291c91 0 164 39 224 118zM542 719h-34l-122 103l-121 -103h-34l124 167h62z" />
    <glyph glyph-name="ccircumflex" unicode="&#x109;" horiz-adv-x="444" 
d="M398 156l14 -9c-30 -59 -49 -87 -76 -110c-36 -31 -76 -47 -121 -47c-111 0 -190 93 -190 222c0 80 28 148 78 192c41 36 92 56 141 56c84 0 154 -47 154 -103c0 -23 -21 -42 -47 -42c-22 0 -40 17 -48 46l-6 22c-10 37 -23 48 -59 48c-81 0 -136 -70 -136 -174
c0 -115 63 -195 155 -195c57 0 93 24 141 94zM389 507h-34l-122 103l-121 -103h-34l124 167h62z" />
    <glyph glyph-name="Cdotaccent" unicode="&#x10a;" horiz-adv-x="667" 
d="M617 155l17 -11c-64 -95 -162 -151 -267 -151c-184 0 -333 152 -333 338c0 189 152 338 345 338c51 0 101 -10 140 -28c40 -19 41 -19 51 -19c17 0 26 12 30 40h21l6 -223l-18 -2c-7 57 -25 94 -60 129c-43 43 -99 66 -159 66c-142 0 -235 -120 -235 -304
c0 -178 93 -291 238 -291c91 0 164 39 224 118zM384 823c29 0 53 -24 53 -53c0 -30 -24 -54 -53 -54c-30 0 -54 24 -54 54c0 29 24 53 54 53z" />
    <glyph glyph-name="cdotaccent" unicode="&#x10b;" horiz-adv-x="444" 
d="M398 156l14 -9c-30 -59 -49 -87 -76 -110c-36 -31 -76 -47 -121 -47c-111 0 -190 93 -190 222c0 80 28 148 78 192c41 36 92 56 141 56c84 0 154 -47 154 -103c0 -23 -21 -42 -47 -42c-22 0 -40 17 -48 46l-6 22c-10 37 -23 48 -59 48c-81 0 -136 -70 -136 -174
c0 -115 63 -195 155 -195c57 0 93 24 141 94zM230 623c27 0 50 -23 50 -50c0 -28 -23 -50 -50 -50s-48 22 -48 51c0 26 22 49 48 49z" />
    <glyph glyph-name="Ccaron" unicode="&#x10c;" horiz-adv-x="667" 
d="M620 451h-23c-19 65 -34 93 -66 125c-40 39 -92 60 -149 60c-145 0 -238 -116 -238 -298c0 -111 31 -201 86 -250c43 -38 99 -58 162 -58c83 0 149 30 223 101l18 -18c-60 -81 -160 -127 -273 -127c-199 0 -332 136 -332 340c0 110 38 202 108 264c63 55 145 86 227 86
c47 0 97 -8 146 -25c15 -5 30 -8 39 -8c20 0 36 12 42 33h21zM528 886l-125 -167h-62l-124 167h34l121 -103l122 103h34z" />
    <glyph glyph-name="ccaron" unicode="&#x10d;" horiz-adv-x="444" 
d="M398 156l14 -9c-30 -59 -49 -87 -76 -110c-36 -31 -76 -47 -121 -47c-111 0 -190 93 -190 222c0 80 28 148 78 192c41 36 92 56 141 56c84 0 154 -47 154 -103c0 -23 -21 -42 -47 -42c-22 0 -40 17 -48 46l-6 22c-10 37 -23 48 -59 48c-81 0 -136 -70 -136 -174
c0 -115 63 -195 155 -195c57 0 93 24 141 94zM398 674l-125 -167h-62l-124 167h34l121 -103l122 103h34z" />
    <glyph glyph-name="Dcaron" unicode="&#x10e;" 
d="M16 0v19c75 5 87 17 88 90v444c-1 75 -9 83 -88 90v19h270c137 0 246 -36 314 -105c56 -55 85 -133 85 -223c0 -97 -37 -186 -102 -245c-62 -56 -167 -89 -283 -89h-284zM206 586v-508c0 -32 12 -41 52 -41c87 0 145 12 196 41c81 47 122 131 122 249
c0 108 -41 194 -119 248c-48 34 -112 50 -199 50c-42 0 -52 -8 -52 -39zM478 886l-125 -167h-62l-124 167h34l121 -103l122 103h34z" />
    <glyph glyph-name="dcaron" unicode="&#x10f;" horiz-adv-x="588" 
d="M510 433l-9 19c54 37 82 73 82 106c0 8 -6 14 -14 14c-1 0 -2 0 -7 -2c-6 -1 -13 -2 -20 -2c-37 0 -59 19 -59 51c0 34 24 57 59 57c45 0 80 -39 80 -89c0 -60 -45 -121 -112 -154zM490 58v-16l-147 -52l-4 3v64c-34 -47 -72 -67 -128 -67c-111 0 -185 87 -185 215
c0 142 93 255 208 255c40 0 67 -11 105 -43v156c0 41 -9 51 -46 51c-8 0 -14 0 -22 -1v16c64 17 99 27 147 44l5 -2v-567c0 -46 8 -57 44 -57c4 0 10 0 23 1zM339 102v230c0 53 -48 100 -102 100c-76 0 -125 -74 -125 -187c0 -123 55 -203 138 -203c29 0 55 10 72 30
c10 11 17 23 17 30z" />
    <glyph glyph-name="Dcroat" unicode="&#x110;" 
d="M16 643v19h270c137 0 246 -36 314 -105c56 -55 85 -133 85 -223c0 -97 -37 -186 -102 -245c-62 -56 -167 -89 -283 -89h-284v19c75 5 87 17 88 90v206h-83v44h83v194c-1 75 -9 83 -88 90zM352 359v-44h-146v-237c0 -32 12 -41 52 -41c87 0 145 12 196 41
c81 47 122 131 122 249c0 108 -41 194 -119 248c-48 34 -112 50 -201 50c-40 0 -50 -8 -50 -39v-227h146z" />
    <glyph glyph-name="dcroat" unicode="&#x111;" horiz-adv-x="500" 
d="M340 527h-121v34h121v12c0 41 -9 51 -46 51c-8 0 -14 0 -22 -1v16c64 17 99 27 147 44l5 -2v-120h76v-34h-76v-413c0 -46 8 -57 44 -57c4 0 10 0 23 1v-16l-147 -52l-4 3v64c-34 -47 -72 -67 -128 -67c-111 0 -185 87 -185 215c0 142 93 255 208 255c40 0 67 -11 105 -43
v110zM340 102v230c0 53 -48 100 -102 100c-76 0 -125 -74 -125 -187c0 -123 55 -203 138 -203c29 0 55 10 72 30c10 11 17 23 17 30z" />
    <glyph glyph-name="Emacron" unicode="&#x112;" horiz-adv-x="611" 
d="M597 169l-45 -169h-540v19c72 4 85 18 87 90v444c-2 72 -14 85 -87 90v19h531l3 -143h-25c-16 89 -36 103 -152 105h-135c-28 0 -32 -4 -33 -34v-222h154c84 2 98 14 110 95h23v-232h-23c-13 82 -26 94 -110 96h-154v-247c0 -39 1 -40 105 -43h27c143 1 188 26 236 132
h28zM150 813h311v-54h-311v54z" />
    <glyph glyph-name="emacron" unicode="&#x113;" horiz-adv-x="444" 
d="M408 164l16 -7c-42 -108 -116 -167 -212 -167c-115 0 -187 86 -187 224c0 82 27 153 74 194c38 34 85 52 135 52c52 0 98 -21 128 -57c25 -32 35 -61 43 -126h-308c2 -62 9 -94 27 -132c29 -57 72 -86 129 -86c64 0 107 29 155 105zM99 309h204c-13 87 -37 115 -98 115
s-95 -36 -106 -115zM67 601h311v-54h-311v54z" />
    <glyph glyph-name="Ebreve" unicode="&#x114;" horiz-adv-x="611" 
d="M597 169l-45 -169h-540v19c72 4 85 18 87 90v444c-2 72 -14 85 -87 90v19h531l3 -143h-25c-16 89 -36 103 -152 105h-135c-28 0 -32 -4 -33 -34v-222h154c84 2 98 14 110 95h23v-232h-23c-13 82 -26 94 -110 96h-154v-247c0 -39 1 -40 105 -43h27c143 1 188 26 236 132
h28zM417 876h29c-12 -106 -58 -157 -142 -157c-48 0 -87 19 -112 54c-19 28 -26 52 -27 103h29c14 -67 48 -97 112 -97c58 0 82 21 111 97z" />
    <glyph glyph-name="ebreve" unicode="&#x115;" horiz-adv-x="444" 
d="M414 164l16 -7c-42 -108 -116 -167 -212 -167c-115 0 -187 86 -187 224c0 82 27 153 74 194c38 34 85 52 135 52c52 0 98 -21 128 -57c25 -32 35 -61 43 -126h-308c2 -62 9 -94 27 -132c29 -57 72 -86 129 -86c64 0 107 29 155 105zM105 309h204c-13 87 -37 115 -98 115
s-95 -36 -106 -115zM351 664h29c-12 -106 -58 -157 -141 -157c-48 0 -87 19 -112 54c-20 28 -26 52 -28 103h29c14 -67 48 -97 112 -97c58 0 83 21 111 97z" />
    <glyph glyph-name="Edotaccent" unicode="&#x116;" horiz-adv-x="611" 
d="M597 169l-45 -169h-540v19c72 4 85 18 87 90v444c-2 72 -14 85 -87 90v19h531l3 -143h-25c-16 89 -36 103 -152 105h-135c-28 0 -32 -4 -33 -34v-222h154c84 2 98 14 110 95h23v-232h-23c-13 82 -26 94 -110 96h-154v-247c0 -39 1 -40 105 -43h27c143 1 188 26 236 132
h28zM305 835c27 0 50 -23 50 -50c0 -28 -23 -50 -50 -50s-48 22 -48 51c0 26 22 49 48 49z" />
    <glyph glyph-name="edotaccent" unicode="&#x117;" horiz-adv-x="444" 
d="M414 164l16 -7c-42 -108 -116 -167 -212 -167c-115 0 -187 86 -187 224c0 82 27 153 74 194c38 34 85 52 135 52c52 0 98 -21 128 -57c25 -32 35 -61 43 -126h-308c2 -62 9 -94 27 -132c29 -57 72 -86 129 -86c64 0 107 29 155 105zM105 309h204c-13 87 -37 115 -98 115
s-95 -36 -106 -115zM228 623c27 0 50 -23 50 -50c0 -28 -23 -50 -50 -50s-48 22 -48 51c0 26 22 49 48 49z" />
    <glyph glyph-name="Eogonek" unicode="&#x118;" horiz-adv-x="611" 
d="M552 0h-6c-30 0 -64 -36 -64 -69c0 -24 16 -40 38 -40c21 0 40 9 71 36l20 -16c-37 -53 -71 -76 -112 -76c-42 0 -73 33 -73 75c0 34 15 59 54 90h-468v19c72 4 85 18 87 90v444c-2 72 -14 85 -87 90v19h531l3 -143h-25c-16 89 -36 103 -152 105h-135
c-28 0 -32 -4 -33 -34v-222h154c84 2 98 14 110 95h23v-232h-23c-13 82 -26 94 -110 96h-154v-247c0 -39 1 -40 105 -43h27c143 1 188 26 236 132h28z" />
    <glyph glyph-name="eogonek" unicode="&#x119;" horiz-adv-x="444" 
d="M415 164l16 -7c-16 -44 -38 -76 -93 -135c-42 -44 -55 -66 -55 -93c0 -22 16 -38 38 -38c21 0 39 9 71 36l20 -16c-37 -53 -71 -76 -112 -76c-42 0 -73 33 -73 75c0 33 15 58 52 89c-22 -7 -38 -9 -59 -9c-116 0 -188 86 -188 224c0 82 27 153 74 194c38 34 85 52 135 52
c52 0 98 -21 128 -57c25 -32 35 -61 43 -126h-308c2 -62 9 -94 27 -132c29 -57 72 -86 129 -86c64 0 107 29 155 105zM106 309h204c-13 87 -37 115 -98 115s-95 -36 -106 -115z" />
    <glyph glyph-name="Ecaron" unicode="&#x11a;" horiz-adv-x="611" 
d="M597 169l-45 -169h-540v19c72 4 85 18 87 90v444c-2 72 -14 85 -87 90v19h531l3 -143h-25c-16 89 -36 103 -152 105h-135c-28 0 -32 -4 -33 -34v-222h154c84 2 98 14 110 95h23v-232h-23c-13 82 -26 94 -110 96h-154v-247c0 -39 1 -40 105 -43h27c143 1 188 26 236 132
h28zM461 886l-125 -167h-62l-124 167h34l121 -103l122 103h34z" />
    <glyph glyph-name="ecaron" unicode="&#x11b;" horiz-adv-x="444" 
d="M417 164l16 -7c-42 -108 -116 -167 -212 -167c-115 0 -187 86 -187 224c0 82 27 153 74 194c38 34 85 52 135 52c52 0 98 -21 128 -57c25 -32 35 -61 43 -126h-308c2 -62 9 -94 27 -132c29 -57 72 -86 129 -86c64 0 107 29 155 105zM108 309h204c-13 87 -37 115 -98 115
s-95 -36 -106 -115zM394 674l-125 -167h-62l-124 167h34l121 -103l122 103h34z" />
    <glyph glyph-name="Gcircumflex" unicode="&#x11c;" 
d="M640 254v-194c-83 -46 -161 -67 -252 -67c-116 0 -199 30 -268 97c-62 61 -92 133 -92 224c0 94 33 182 92 244c65 69 166 111 264 111c51 0 97 -11 150 -35c15 -7 29 -11 38 -11c18 0 29 14 33 39h20l13 -205l-20 -2c-17 56 -31 81 -63 109c-45 41 -102 63 -160 63
c-86 0 -161 -42 -206 -115c-30 -48 -44 -102 -44 -174c0 -96 21 -163 68 -218c48 -56 113 -86 190 -86c56 0 93 12 132 44v176c0 62 -16 82 -69 85h-15v18h275v-18h-17c-53 -3 -69 -23 -69 -85zM541 719h-34l-122 103l-121 -103h-34l124 167h62z" />
    <glyph glyph-name="gcircumflex" unicode="&#x11d;" horiz-adv-x="500" 
d="M470 388h-83c14 -32 19 -55 19 -84c0 -50 -15 -85 -48 -113c-31 -27 -71 -42 -108 -42c-2 0 -21 2 -57 5c-27 -8 -60 -43 -60 -63c0 -16 24 -25 78 -27l129 -6c74 -3 121 -45 121 -107c0 -38 -17 -70 -55 -101c-52 -42 -130 -68 -205 -68c-96 0 -173 44 -173 97
c0 37 26 70 98 122c-42 20 -53 31 -53 53c0 17 6 28 27 50c3 4 15 15 36 35l26 24c-67 33 -93 71 -93 134c0 92 74 163 167 163c26 0 53 -5 80 -15l22 -8c20 -7 34 -10 55 -10h77v-39zM152 338v-3c0 -96 41 -161 103 -161c46 0 74 35 74 91c0 40 -11 85 -30 120
c-16 30 -42 47 -73 47c-46 0 -74 -35 -74 -94zM147 -2c-40 -48 -49 -63 -49 -86c0 -44 57 -73 146 -73c113 0 189 39 189 97c0 36 -33 49 -124 49c-49 0 -128 6 -162 13zM405 507h-34l-122 103l-121 -103h-34l124 167h62z" />
    <glyph glyph-name="Gbreve" unicode="&#x11e;" 
d="M709 354v-18c-57 -4 -68 -16 -70 -77v-203c-40 -35 -164 -70 -251 -70c-110 0 -207 38 -273 107c-56 59 -83 134 -83 232c0 204 143 351 343 351c45 0 91 -8 136 -23c18 -6 34 -10 44 -10c21 0 39 13 45 33h22l8 -211h-23c-25 61 -41 87 -71 116c-38 36 -88 55 -144 55
c-68 0 -130 -27 -174 -76s-72 -140 -72 -234c0 -186 100 -300 263 -300c73 0 133 27 133 59v162c-2 76 -10 84 -88 89v18h255zM493 876h29c-12 -106 -58 -157 -142 -157c-48 0 -87 19 -112 54c-19 28 -26 52 -27 103h29c14 -67 48 -97 112 -97c58 0 82 21 111 97z" />
    <glyph glyph-name="gbreve" unicode="&#x11f;" horiz-adv-x="500" 
d="M470 388h-83c14 -32 19 -55 19 -84c0 -50 -15 -85 -48 -113c-31 -27 -71 -42 -108 -42c-2 0 -21 2 -57 5c-27 -8 -60 -43 -60 -63c0 -16 24 -25 78 -27l129 -6c74 -3 121 -45 121 -107c0 -38 -17 -70 -55 -101c-52 -42 -130 -68 -205 -68c-96 0 -173 44 -173 97
c0 37 26 70 98 122c-42 20 -53 31 -53 53c0 17 6 28 27 50c3 4 15 15 36 35l26 24c-67 33 -93 71 -93 134c0 92 74 163 167 163c26 0 53 -5 80 -15l22 -8c20 -7 34 -10 55 -10h77v-39zM147 -2c-40 -48 -49 -63 -49 -86c0 -44 57 -73 146 -73c113 0 189 39 189 97
c0 36 -33 49 -124 49c-49 0 -128 6 -162 13zM152 338v-3c0 -96 41 -161 103 -161c46 0 74 35 74 91c0 40 -11 85 -30 120c-16 30 -42 47 -73 47c-46 0 -74 -35 -74 -94zM362 664h29c-13 -106 -59 -157 -142 -157c-48 0 -87 19 -112 54c-20 28 -26 52 -27 103h29
c13 -67 47 -97 112 -97c58 0 82 21 111 97z" />
    <glyph glyph-name="Gdotaccent" unicode="&#x120;" 
d="M640 254v-194c-83 -46 -161 -67 -252 -67c-116 0 -199 30 -268 97c-62 61 -92 133 -92 224c0 94 33 182 92 244c65 69 166 111 264 111c51 0 97 -11 150 -35c15 -7 29 -11 38 -11c18 0 29 14 33 39h20l13 -205l-20 -2c-17 56 -31 81 -63 109c-45 41 -102 63 -160 63
c-86 0 -161 -42 -206 -115c-30 -48 -44 -102 -44 -174c0 -96 21 -163 68 -218c48 -56 113 -86 190 -86c56 0 93 12 132 44v176c0 62 -16 82 -69 85h-15v18h275v-18h-17c-53 -3 -69 -23 -69 -85zM390 823c29 0 53 -24 53 -53c0 -30 -24 -54 -53 -54c-30 0 -54 24 -54 54
c0 29 24 53 54 53z" />
    <glyph glyph-name="gdotaccent" unicode="&#x121;" horiz-adv-x="500" 
d="M247 636c28 0 51 -23 51 -51c0 -29 -23 -52 -52 -52c-28 0 -51 23 -51 52c0 28 23 51 52 51zM470 388h-83c14 -32 19 -55 19 -84c0 -50 -15 -85 -48 -113c-31 -27 -71 -42 -108 -42c-2 0 -21 2 -57 5c-27 -8 -60 -43 -60 -63c0 -16 24 -25 78 -27l129 -6
c74 -3 121 -45 121 -107c0 -38 -17 -70 -55 -101c-52 -42 -130 -68 -205 -68c-96 0 -173 44 -173 97c0 37 26 70 98 122c-42 20 -53 31 -53 53c0 17 6 28 27 50c3 4 15 15 36 35l26 24c-67 33 -93 71 -93 134c0 92 74 163 167 163c26 0 53 -5 80 -15l22 -8
c20 -7 34 -10 55 -10h77v-39zM152 338v-3c0 -96 41 -161 103 -161c46 0 74 35 74 91c0 40 -11 85 -30 120c-16 30 -42 47 -73 47c-46 0 -74 -35 -74 -94zM147 -2c-40 -48 -49 -63 -49 -86c0 -44 57 -73 146 -73c113 0 189 39 189 97c0 36 -33 49 -124 49
c-49 0 -128 6 -162 13z" />
    <glyph glyph-name="Gcommaaccent" unicode="&#x122;" 
d="M709 354v-18c-57 -4 -68 -16 -70 -77v-203c-40 -35 -164 -70 -251 -70c-110 0 -207 38 -273 107c-56 59 -83 134 -83 232c0 204 143 351 343 351c45 0 91 -8 136 -23c18 -6 34 -10 44 -10c21 0 39 13 45 33h22l8 -211h-23c-25 61 -41 87 -71 116c-38 36 -88 55 -144 55
c-68 0 -130 -27 -174 -76s-72 -140 -72 -234c0 -186 100 -300 263 -300c73 0 133 27 133 59v162c-2 76 -10 84 -88 89v18h255zM319 -281l-9 19c54 37 82 74 82 106c0 8 -6 14 -14 14c-1 0 -2 0 -7 -2c-6 -1 -13 -2 -20 -2c-37 0 -59 19 -59 51c0 34 24 57 59 57
c45 0 80 -39 80 -89c0 -60 -45 -121 -112 -154z" />
    <glyph glyph-name="gcommaaccent" unicode="&#x123;" horiz-adv-x="500" 
d="M470 388h-83c14 -32 19 -55 19 -84c0 -50 -15 -85 -48 -113c-31 -27 -71 -42 -108 -42c-2 0 -21 2 -57 5c-27 -8 -60 -43 -60 -63c0 -16 24 -25 78 -27l129 -6c74 -3 121 -45 121 -107c0 -38 -17 -70 -55 -101c-52 -42 -130 -68 -205 -68c-96 0 -173 44 -173 97
c0 37 26 70 98 122c-42 20 -53 31 -53 53c0 17 6 28 27 50c3 4 15 15 36 35l26 24c-67 33 -93 71 -93 134c0 92 74 163 167 163c26 0 53 -5 80 -15l22 -8c20 -7 34 -10 55 -10h77v-39zM147 -2c-40 -48 -49 -63 -49 -86c0 -44 57 -73 146 -73c113 0 189 39 189 97
c0 36 -33 49 -124 49c-49 0 -128 6 -162 13zM152 338v-3c0 -96 41 -161 103 -161c46 0 74 35 74 91c0 40 -11 85 -30 120c-16 30 -42 47 -73 47c-46 0 -74 -35 -74 -94zM293 736l9 -19c-54 -37 -82 -73 -82 -106c0 -8 6 -14 14 -14c1 0 2 0 7 2c6 1 13 2 20 2
c37 0 59 -19 59 -51c0 -34 -24 -57 -59 -57c-45 0 -80 39 -80 89c0 60 45 121 112 154z" />
    <glyph glyph-name="Hcircumflex" unicode="&#x124;" 
d="M214 315v-211c0 -64 15 -83 68 -85l22 -1v-18h-286v18l23 1c52 2 68 21 68 85v455c0 63 -16 82 -68 84l-23 1v18h286v-18l-22 -1c-53 -2 -68 -21 -68 -84v-199h295v199c0 63 -16 82 -68 84l-23 1v18h286v-18l-22 -1c-53 -2 -68 -21 -68 -84v-455c0 -64 15 -83 68 -85
l22 -1v-18h-286v18l23 1c52 2 68 21 68 85v211h-295zM517 719h-34l-122 103l-121 -103h-34l124 167h62z" />
    <glyph glyph-name="hcircumflex" unicode="&#x125;" horiz-adv-x="500" 
d="M487 15v-15h-212v15c57 5 66 16 68 87v198c0 70 -25 106 -75 106c-39 0 -69 -17 -111 -63v-241c2 -71 10 -82 68 -87v-15h-216v15c57 7 62 15 64 87v471c0 43 -8 51 -51 51c-5 0 -8 0 -12 -1v16l27 8c56 16 81 24 115 36l5 -3v-304c46 60 88 84 147 84
c82 0 123 -54 123 -159v-199c1 -71 6 -78 60 -87zM310 726h-34l-122 103l-121 -103h-34l124 167h62z" />
    <glyph glyph-name="Hbar" unicode="&#x126;" 
d="M109 465h-91v40h91v53c0 64 -16 83 -69 85l-22 1v18h286v-18l-21 -1c-53 -2 -69 -21 -69 -85v-53h295v53c0 64 -16 83 -68 85l-22 1v18h286v-18l-22 -1c-53 -2 -69 -21 -69 -85v-53h91v-40h-91v-361c0 -64 16 -83 69 -85l22 -1v-18h-286v18l22 1c52 2 68 21 68 85v211
h-295v-211c0 -64 16 -83 69 -85l21 -1v-18h-286v18l22 1c53 2 69 21 69 85v361zM214 465v-105h295v105h-295z" />
    <glyph glyph-name="hbar" unicode="&#x127;" horiz-adv-x="500" 
d="M161 678v-132h117v-36h-117v-132c64 66 100 86 152 86c39 0 76 -23 92 -57c15 -31 20 -62 20 -121v-164c0 -89 7 -103 56 -105h10v-17h-212v17h11c49 2 56 16 56 105v164c0 30 -3 58 -9 74c-8 27 -35 46 -62 46c-35 0 -63 -16 -114 -64v-220c0 -89 8 -104 57 -105h13v-17
h-223v17h17c49 2 57 16 57 105v388h-64v36h64c0 40 -10 55 -37 55c-7 0 -14 -1 -20 -3l-10 -4l-7 14c74 31 84 36 153 70z" />
    <glyph glyph-name="Itilde" unicode="&#x128;" horiz-adv-x="333" 
d="M18 0v19c84 3 96 14 97 90v444c-1 75 -12 85 -97 90v19h297v-19c-83 -3 -96 -15 -98 -90v-444c2 -74 16 -88 98 -90v-19h-297zM302 844h29c-21 -76 -50 -106 -105 -106c-25 0 -40 4 -81 24l-23 11c-15 7 -30 11 -41 11c-23 0 -40 -15 -51 -46h-29c15 65 51 101 101 101
c22 0 47 -6 70 -18l24 -12c19 -10 38 -15 53 -15c23 0 36 12 53 50z" />
    <glyph glyph-name="itilde" unicode="&#x129;" horiz-adv-x="278" 
d="M23 0v15c68 3 77 13 79 87v232c0 44 -9 60 -33 60c-9 0 -22 -1 -34 -3l-8 -1v15l155 55l4 -3v-355c1 -73 8 -82 74 -87v-15h-237zM277 638h29c-21 -76 -50 -106 -105 -106c-25 0 -40 4 -81 24l-23 11c-15 7 -29 11 -41 11c-23 0 -40 -15 -51 -46h-29
c15 65 51 101 101 101c22 0 47 -6 70 -18l24 -12c19 -9 38 -15 53 -15c23 0 36 12 53 50z" />
    <glyph glyph-name="Imacron" unicode="&#x12a;" horiz-adv-x="333" 
d="M18 0v19c84 3 96 14 97 90v444c-1 75 -12 85 -97 90v19h297v-19c-83 -3 -96 -15 -98 -90v-444c2 -74 16 -88 98 -90v-19h-297zM11 813h311v-54h-311v54z" />
    <glyph glyph-name="imacron" unicode="&#x12b;" horiz-adv-x="278" 
d="M16 0v15c68 3 77 13 79 87v232c0 44 -9 60 -33 60c-9 0 -22 -1 -34 -3l-8 -1v15l155 55l4 -3v-355c1 -73 8 -82 74 -87v-15h-237zM-25 601h308v-54h-308v54z" />
    <glyph glyph-name="Ibreve" unicode="&#x12c;" horiz-adv-x="333" 
d="M18 0v19c84 3 96 14 97 90v444c-1 75 -12 85 -97 90v19h297v-19c-83 -3 -96 -15 -98 -90v-444c2 -74 16 -88 98 -90v-19h-297zM278 870h29c-12 -106 -58 -157 -142 -157c-47 0 -87 19 -112 54c-19 28 -26 52 -27 103h29c14 -67 48 -97 112 -97c58 0 82 21 111 97z" />
    <glyph glyph-name="ibreve" unicode="&#x12d;" horiz-adv-x="278" 
d="M182 470v-348c0 -89 8 -103 57 -105h16v-17h-226v17h17c51 3 56 12 57 105v202c0 56 -7 69 -36 69c-8 0 -13 -1 -20 -3l-11 -4l-7 15c74 30 85 35 153 69zM226 640h23c-21 -82 -55 -117 -113 -117c-57 0 -91 35 -113 117h24c17 -35 50 -57 89 -57s73 22 90 57z" />
    <glyph glyph-name="Iogonek" unicode="&#x12e;" horiz-adv-x="333" 
d="M18 662h297v-19c-83 -3 -96 -15 -98 -90v-444c2 -74 16 -88 98 -90v-19c-4 -1 -8 -4 -19 -13c-19 -19 -28 -37 -28 -57c0 -23 16 -39 38 -39c21 0 40 9 71 36l20 -16c-37 -53 -71 -76 -112 -76c-42 0 -73 33 -73 75c0 34 15 59 54 90h-248v19c84 3 96 14 97 90v444
c-1 75 -12 85 -97 90v19z" />
    <glyph glyph-name="iogonek" unicode="&#x12f;" horiz-adv-x="278" 
d="M185 457v-355c1 -73 8 -82 74 -87v-15h-33c-38 0 -71 -33 -71 -70c0 -23 16 -39 38 -39c21 0 40 9 71 36l20 -16c-37 -53 -71 -76 -112 -76c-42 0 -73 33 -73 75c0 34 15 59 54 90h-131v15c68 3 77 13 79 87v232c0 44 -9 60 -33 60c-9 0 -22 -1 -34 -3l-8 -1v15l155 55z
M134 683c29 0 52 -22 52 -51s-22 -51 -52 -51c-28 0 -50 22 -50 51c0 28 23 51 50 51z" />
    <glyph glyph-name="Idotaccent" unicode="&#x130;" horiz-adv-x="333" 
d="M18 0v19c84 3 96 14 97 90v444c-1 75 -12 85 -97 90v19h297v-19c-83 -3 -96 -15 -98 -90v-444c2 -74 16 -88 98 -90v-19h-297zM166 835c27 0 50 -23 50 -50c0 -28 -23 -50 -50 -50s-48 22 -48 51c0 26 22 49 48 49z" />
    <glyph glyph-name="dotlessi" unicode="&#x131;" horiz-adv-x="278" 
d="M16 0v15c68 3 77 13 79 87v232c0 44 -9 60 -33 60c-9 0 -22 -1 -34 -3l-8 -1v15l155 55l4 -3v-355c1 -73 8 -82 74 -87v-15h-237z" />
    <glyph glyph-name="IJ" unicode="&#x132;" horiz-adv-x="708" 
d="M304 18v-18h-286v18l22 1c53 2 69 21 69 84v456c0 63 -16 82 -69 84l-22 1v18h286v-18l-22 -1c-53 -2 -68 -21 -68 -84v-456c0 -63 15 -82 68 -84zM415 644v18h287v-18l-20 -1c-53 -2 -69 -21 -68 -84v-366c0 -122 -66 -200 -170 -200c-62 0 -104 30 -104 74
c0 27 20 46 50 46c29 0 42 -11 64 -55c7 -15 17 -24 28 -24c22 0 29 26 29 110v415c-2 58 -24 84 -74 84z" />
    <glyph glyph-name="ij" unicode="&#x133;" horiz-adv-x="552" 
d="M196 470v-348c0 -89 8 -103 57 -105h16v-17h-226v17h17c51 3 56 12 57 105v202c0 56 -7 69 -36 69c-8 0 -13 -1 -20 -3l-11 -4l-7 15c74 30 85 35 153 69zM151 662c28 0 51 -23 51 -51c0 -29 -23 -52 -51 -52c-29 0 -52 23 -52 52c0 28 23 51 52 51zM453 470v-403
c0 -87 -4 -112 -21 -146c-27 -50 -80 -80 -141 -80c-46 0 -80 22 -80 51c0 21 18 39 41 39c16 0 31 -8 53 -28c14 -14 24 -19 34 -19c26 0 35 28 35 116v324c0 56 -7 69 -36 69c-9 0 -14 -1 -20 -3l-11 -4l-7 15c74 30 84 35 153 69zM407 662c28 0 51 -23 51 -51
c0 -29 -23 -52 -51 -52c-29 0 -52 23 -52 52c0 28 23 51 52 51z" />
    <glyph glyph-name="Jcircumflex" unicode="&#x134;" horiz-adv-x="389" 
d="M376 662v-19c-81 -6 -90 -15 -92 -90v-370c0 -125 -61 -197 -169 -197c-58 0 -99 30 -99 72c0 27 22 50 49 50c26 0 42 -16 52 -51c7 -25 13 -33 27 -33c26 0 38 21 38 66v463c-1 74 -12 84 -93 90v19h287zM394 728h-34l-122 103l-121 -103h-34l124 167h62z" />
    <glyph glyph-name="jcircumflex" unicode="&#x135;" horiz-adv-x="278" 
d="M193 457v-457c0 -79 -22 -147 -58 -179c-27 -25 -67 -39 -111 -39c-55 0 -94 23 -94 55c0 22 18 39 41 39c16 0 30 -9 48 -32c17 -21 27 -28 42 -28c14 0 28 8 34 18c11 20 14 45 14 121v379c0 43 -9 60 -32 60c-10 0 -25 -1 -40 -3l-5 -1v16c59 18 97 31 156 54z
M292 507h-34l-122 103l-121 -103h-34l124 167h62z" />
    <glyph glyph-name="Kcommaaccent" unicode="&#x136;" 
d="M413 643v19h262v-19c-68 -5 -84 -13 -152 -78l-190 -188l233 -250c91 -97 105 -107 157 -108v-19h-305v19c12 1 23 1 28 1c29 1 42 8 42 22c0 24 -54 94 -130 170l-106 105l-26 -21v-187c1 -74 13 -85 90 -90v-19h-282v19c78 5 89 16 90 101v433c-2 73 -13 85 -90 90v19
h284v-19c-81 -6 -91 -15 -92 -90v-205l177 161c55 51 78 81 78 103c0 24 -8 28 -68 31zM319 -281l-9 19c54 37 82 74 82 106c0 8 -6 14 -14 14c-1 0 -2 0 -7 -2c-6 -1 -13 -2 -20 -2c-37 0 -59 19 -59 51c0 34 24 57 59 57c45 0 80 -39 80 -89c0 -60 -45 -121 -112 -154z
" />
    <glyph glyph-name="kcommaaccent" unicode="&#x137;" horiz-adv-x="500" 
d="M7 0v15c71 11 74 14 75 67v482c0 48 -9 61 -43 61c-10 0 -19 -1 -32 -2v16l30 8c58 16 87 24 125 36l4 -2v-420l137 122c14 13 23 26 23 35c0 13 -11 17 -50 18v14h204v-15c-64 2 -91 -14 -216 -126l-29 -27l153 -194c42 -51 73 -70 117 -73v-15h-218v15h19
c12 0 21 6 21 15c0 5 -3 11 -11 21c-3 3 -6 8 -10 13l-140 187v-184c1 -37 13 -48 55 -51l20 -1v-15h-234zM208 -281l-9 19c54 37 82 74 82 106c0 8 -6 14 -14 14c-1 0 -2 0 -7 -2c-6 -1 -13 -2 -20 -2c-37 0 -59 19 -59 51c0 34 24 57 59 57c45 0 80 -39 80 -89
c0 -60 -45 -121 -112 -154z" />
    <glyph glyph-name="kgreenlandic" unicode="&#x138;" horiz-adv-x="500" 
d="M181 230v-108c-1 -89 7 -104 57 -105h13v-17h-220v17h14c49 2 57 16 57 105v202c0 40 -1 48 -9 58c-5 8 -16 12 -28 12c-5 0 -13 -2 -20 -4l-11 -3l-6 14c73 30 84 35 153 69v-208l117 130c10 11 16 22 16 30c0 11 -9 17 -25 18h-5v17h177v-17l-13 -1
c-48 -4 -68 -16 -113 -65l-90 -97l117 -161c57 -82 80 -99 131 -99v-17h-209v17h10c13 0 20 5 20 15c0 6 -7 20 -17 33z" />
    <glyph glyph-name="Lacute" unicode="&#x139;" horiz-adv-x="611" 
d="M294 662v-19c-78 -4 -91 -17 -93 -90v-473c1 -36 9 -39 86 -41h67c129 4 172 30 219 135h25l-48 -174h-538v19c72 4 85 18 87 90v444c-2 72 -14 85 -87 90v19h282zM151 719h-40l147 148c19 18 27 23 43 23c21 0 34 -12 34 -32c0 -16 -9 -29 -30 -42z" />
    <glyph glyph-name="lacute" unicode="&#x13a;" horiz-adv-x="278" 
d="M21 0v15c62 4 76 18 77 72v477c0 47 -10 61 -42 61c-8 0 -20 -1 -31 -2h-6v16c69 17 107 27 159 44l4 -2v-597c1 -56 12 -66 75 -69v-15h-236zM99 719h-40l147 148c18 18 27 23 42 23c22 0 35 -12 35 -32c0 -16 -9 -29 -30 -42z" />
    <glyph glyph-name="Lcommaaccent" unicode="&#x13b;" horiz-adv-x="611" 
d="M294 662v-19c-78 -4 -91 -17 -93 -90v-473c1 -36 9 -39 86 -41h67c129 4 172 30 219 135h25l-48 -174h-538v19c72 4 85 18 87 90v444c-2 72 -14 85 -87 90v19h282zM263 -281l-9 19c54 37 82 74 82 106c0 8 -6 14 -14 14c-1 0 -2 0 -7 -2c-6 -1 -13 -2 -20 -2
c-37 0 -59 19 -59 51c0 34 24 57 59 57c45 0 80 -39 80 -89c0 -60 -45 -121 -112 -154z" />
    <glyph glyph-name="lcommaaccent" unicode="&#x13c;" horiz-adv-x="278" 
d="M21 0v15c62 4 76 18 77 72v477c0 47 -10 61 -42 61c-8 0 -20 -1 -31 -2h-6v16c69 17 107 27 159 44l4 -2v-597c1 -56 12 -66 75 -69v-15h-236zM97 -281l-9 19c54 37 82 74 82 106c0 8 -6 14 -14 14c-1 0 -2 0 -7 -2c-6 -1 -13 -2 -20 -2c-37 0 -59 19 -59 51
c0 34 24 57 59 57c45 0 80 -39 80 -89c0 -60 -45 -121 -112 -154z" />
    <glyph glyph-name="Lcaron" unicode="&#x13d;" horiz-adv-x="611" 
d="M294 662v-19c-78 -4 -91 -17 -93 -90v-473c1 -36 9 -39 86 -41h67c129 4 172 30 219 135h25l-48 -174h-538v19c72 4 85 18 87 90v444c-2 72 -14 85 -87 90v19h282zM382 433l-9 19c54 37 82 73 82 106c0 8 -6 14 -14 14c-1 0 -2 0 -7 -2c-6 -1 -13 -2 -20 -2
c-37 0 -59 19 -59 51c0 34 24 57 59 57c45 0 80 -39 80 -89c0 -60 -45 -121 -112 -154z" />
    <glyph glyph-name="lcaron" unicode="&#x13e;" horiz-adv-x="344" 
d="M271 433l-9 19c54 37 82 73 82 106c0 8 -6 14 -14 14c-1 0 -2 0 -7 -2c-6 -1 -13 -2 -20 -2c-37 0 -59 19 -59 51c0 34 24 57 59 57c45 0 80 -39 80 -89c0 -60 -45 -121 -112 -154zM19 0v15c62 4 76 18 77 72v477c0 47 -10 61 -42 61c-8 0 -20 -1 -31 -2h-6v16
c69 17 107 27 159 44l4 -2v-597c1 -56 12 -66 75 -69v-15h-236z" />
    <glyph glyph-name="Ldot" unicode="&#x13f;" horiz-adv-x="611" 
d="M294 662v-19c-78 -4 -91 -17 -93 -90v-473c1 -36 9 -39 86 -41h67c129 4 172 30 219 135h25l-48 -174h-538v19c72 4 85 18 87 90v444c-2 72 -14 85 -87 90v19h282zM405 390c30 0 56 -26 56 -57c0 -30 -26 -54 -57 -54c-29 0 -54 25 -54 54c0 32 25 57 55 57z" />
    <glyph glyph-name="ldot" unicode="&#x140;" horiz-adv-x="344" 
d="M309 390c30 0 56 -26 56 -57c0 -30 -26 -54 -57 -54c-29 0 -54 25 -54 54c0 32 25 57 55 57zM21 0v15c62 4 76 18 77 72v477c0 47 -10 61 -42 61c-8 0 -20 -1 -31 -2h-6v16c69 17 107 27 159 44l4 -2v-597c1 -56 12 -66 75 -69v-15h-236z" />
    <glyph glyph-name="Lslash" unicode="&#x141;" horiz-adv-x="611" 
d="M99 325v228c-2 72 -14 85 -87 90v19h282v-19c-78 -4 -91 -17 -93 -90v-169l155 89v-49l-155 -89v-255c1 -36 9 -39 86 -41h67c129 4 172 30 219 135h25l-48 -174h-538v19c72 4 85 18 87 90v167l-87 -50v49z" />
    <glyph glyph-name="lslash" unicode="&#x142;" horiz-adv-x="278" 
d="M98 362v202c0 47 -10 61 -42 61c-8 0 -20 -1 -31 -2h-6v16c69 17 107 27 159 44l4 -2v-262l77 53v-44l-77 -53v-291c1 -56 12 -66 75 -69v-15h-236v15c62 4 76 18 77 72v231l-78 -54v44z" />
    <glyph glyph-name="Nacute" unicode="&#x143;" 
d="M707 662v-19c-79 -7 -92 -24 -95 -128v-526h-17l-442 550v-392c2 -103 17 -124 94 -128v-19h-235v19c82 5 95 22 97 128v441c-40 47 -54 55 -97 55v19h171l385 -484v337c-3 106 -16 123 -96 128v19h235zM328 719h-40l147 148c18 18 27 23 42 23c22 0 35 -12 35 -32
c0 -16 -9 -29 -30 -42z" />
    <glyph glyph-name="nacute" unicode="&#x144;" horiz-adv-x="500" 
d="M18 0v15c50 3 61 16 62 75v248c0 49 -9 64 -37 64c-11 0 -21 -1 -27 -4v17c55 16 89 27 138 45l7 -2v-79c68 64 99 81 145 81c74 0 118 -56 118 -150v-229c1 -49 12 -61 61 -66v-15h-208v15c49 3 61 19 63 84v209c0 66 -24 97 -73 97c-33 0 -56 -12 -103 -57v-281
c0 -36 16 -49 66 -52v-15h-212zM202 507h-40l147 148c19 18 27 23 43 23c21 0 34 -12 34 -32c0 -16 -9 -29 -30 -42z" />
    <glyph glyph-name="Ncommaaccent" unicode="&#x145;" 
d="M707 662v-19c-79 -7 -92 -24 -95 -128v-526h-17l-442 550v-392c2 -103 17 -124 94 -128v-19h-235v19c82 5 95 22 97 128v441c-40 47 -54 55 -97 55v19h171l385 -484v337c-3 106 -16 123 -96 128v19h235zM339 -281l-9 19c54 37 82 74 82 106c0 8 -6 14 -14 14
c-1 0 -2 0 -7 -2c-6 -1 -13 -2 -20 -2c-37 0 -59 19 -59 51c0 34 24 57 59 57c45 0 80 -39 80 -89c0 -60 -44 -121 -112 -154z" />
    <glyph glyph-name="ncommaaccent" unicode="&#x146;" horiz-adv-x="500" 
d="M18 0v15c50 3 61 16 62 75v248c0 49 -9 64 -37 64c-11 0 -21 -1 -27 -4v17c55 16 89 27 138 45l7 -2v-79c68 64 99 81 145 81c74 0 118 -56 118 -150v-229c1 -49 12 -61 61 -66v-15h-208v15c49 3 61 19 63 84v209c0 66 -24 97 -73 97c-33 0 -56 -12 -103 -57v-281
c0 -36 16 -49 66 -52v-15h-212zM208 -281l-9 19c54 37 82 74 82 106c0 8 -6 14 -14 14c-1 0 -2 0 -7 -2c-6 -1 -13 -2 -20 -2c-37 0 -59 19 -59 51c0 34 24 57 59 57c45 0 80 -39 80 -89c0 -60 -45 -121 -112 -154z" />
    <glyph glyph-name="Ncaron" unicode="&#x147;" 
d="M707 662v-19c-79 -7 -92 -24 -95 -128v-526h-17l-442 550v-392c2 -103 17 -124 94 -128v-19h-235v19c82 5 95 22 97 128v441c-40 47 -54 55 -97 55v19h171l385 -484v337c-3 106 -16 123 -96 128v19h235zM517 886l-125 -167h-62l-124 167h34l121 -103l122 103h34z" />
    <glyph glyph-name="ncaron" unicode="&#x148;" horiz-adv-x="500" 
d="M18 0v15c50 3 61 16 62 75v248c0 49 -9 64 -37 64c-11 0 -21 -1 -27 -4v17c55 16 89 27 138 45l7 -2v-79c68 64 99 81 145 81c74 0 118 -56 118 -150v-229c1 -49 12 -61 61 -66v-15h-208v15c49 3 61 19 63 84v209c0 66 -24 97 -73 97c-33 0 -56 -12 -103 -57v-281
c0 -36 16 -49 66 -52v-15h-212zM406 674l-125 -167h-62l-124 167h34l121 -103l122 103h34z" />
    <glyph glyph-name="napostrophe" unicode="&#x149;" horiz-adv-x="604" 
d="M6 453v16c53 17 83 52 85 101c-15 -4 -22 -5 -30 -5c-28 0 -52 25 -52 54c0 30 24 53 55 53c40 0 69 -37 69 -87c0 -68 -49 -120 -127 -132zM122 0v15c50 3 61 16 62 75v248c0 49 -9 64 -37 64c-11 0 -21 -1 -27 -4v17c55 16 89 27 138 45l7 -2v-79c68 64 99 81 145 81
c74 0 118 -56 118 -150v-229c1 -49 12 -61 61 -66v-15h-208v15c49 3 61 19 63 84v209c0 66 -24 97 -73 97c-33 0 -56 -12 -103 -57v-281c0 -36 16 -49 66 -52v-15h-212z" />
    <glyph glyph-name="Eng" unicode="&#x14a;" horiz-adv-x="702" 
d="M206 564v-497c0 -36 16 -49 66 -52v-15h-230v15c50 3 61 16 62 75v464c0 49 -9 64 -37 64c-11 0 -21 -1 -27 -4v17c63 16 101 27 156 45l7 -2v-79c77 61 132 81 226 81c56 0 104 -12 130 -33c32 -25 52 -83 52 -150v-493c0 -78 -22 -147 -58 -180
c-26 -24 -71 -38 -122 -38c-61 0 -101 22 -101 55c0 22 18 39 41 39c16 0 30 -9 48 -32c17 -21 27 -28 42 -28c14 0 28 8 34 18c11 20 14 45 14 121v536c0 89 -46 131 -143 131c-63 0 -109 -17 -160 -58z" />
    <glyph glyph-name="eng" unicode="&#x14b;" horiz-adv-x="495" 
d="M162 348v-281c0 -36 16 -49 66 -52v-15h-212v15c50 3 61 16 62 75v248c0 49 -9 64 -37 64c-11 0 -21 -1 -27 -4v17c55 16 89 27 138 45l7 -2v-79c68 64 99 81 145 81c74 0 118 -56 118 -150v-310c0 -79 -22 -147 -58 -179c-27 -25 -67 -39 -111 -39c-55 0 -94 23 -94 55
c0 22 18 39 41 39c16 0 30 -9 48 -32c17 -21 27 -28 42 -28c14 0 28 8 34 18c11 20 14 45 14 121v353c0 66 -24 97 -73 97c-33 0 -56 -12 -103 -57z" />
    <glyph glyph-name="Omacron" unicode="&#x14c;" 
d="M361 676c96 0 180 -36 243 -105c55 -59 84 -145 84 -244c0 -202 -136 -341 -333 -341c-88 0 -177 39 -235 102c-54 57 -86 149 -86 243c0 202 136 345 327 345zM361 640c-55 0 -104 -22 -143 -65c-42 -47 -70 -144 -70 -246c0 -111 33 -212 84 -258
c36 -31 81 -49 127 -49c53 0 98 18 133 53c23 23 40 48 49 73c20 52 33 121 33 180c0 119 -31 213 -85 262c-36 32 -82 50 -128 50zM206 813h311v-54h-311v54z" />
    <glyph glyph-name="omacron" unicode="&#x14d;" horiz-adv-x="500" 
d="M250 460c128 0 220 -94 220 -226c0 -139 -96 -244 -222 -244s-219 100 -219 236c0 138 90 234 221 234zM237 432c-72 0 -118 -62 -118 -157c0 -71 16 -141 44 -193c21 -40 58 -64 97 -64c75 0 120 67 120 181c0 137 -59 233 -143 233zM95 601h311v-54h-311v54z" />
    <glyph glyph-name="Obreve" unicode="&#x14e;" 
d="M361 676c96 0 180 -36 243 -105c55 -59 84 -145 84 -244c0 -202 -136 -341 -333 -341c-88 0 -177 39 -235 102c-54 57 -86 149 -86 243c0 202 136 345 327 345zM361 640c-55 0 -104 -22 -143 -65c-42 -47 -70 -144 -70 -246c0 -111 33 -212 84 -258
c36 -31 81 -49 127 -49c53 0 98 18 133 53c23 23 40 48 49 73c20 52 33 121 33 180c0 119 -31 213 -85 262c-36 32 -82 50 -128 50zM472 870h29c-12 -106 -58 -157 -141 -157c-48 0 -87 19 -112 54c-20 28 -26 52 -28 103h29c14 -67 48 -97 112 -97c59 0 83 21 111 97z" />
    <glyph glyph-name="obreve" unicode="&#x14f;" horiz-adv-x="500" 
d="M250 460c128 0 220 -94 220 -226c0 -139 -96 -244 -222 -244s-219 100 -219 236c0 138 90 234 221 234zM237 432c-72 0 -118 -62 -118 -157c0 -71 16 -141 44 -193c21 -40 58 -64 97 -64c75 0 120 67 120 181c0 137 -59 233 -143 233zM370 664h29
c-12 -106 -58 -157 -141 -157c-48 0 -87 19 -112 54c-20 28 -26 52 -28 103h29c14 -67 48 -97 112 -97c58 0 83 21 111 97z" />
    <glyph glyph-name="Ohungarumlaut" unicode="&#x150;" 
d="M361 676c96 0 180 -36 243 -105c55 -59 84 -145 84 -244c0 -202 -136 -341 -333 -341c-88 0 -177 39 -235 102c-54 57 -86 149 -86 243c0 202 136 345 327 345zM361 640c-55 0 -104 -22 -143 -65c-42 -47 -70 -144 -70 -246c0 -111 33 -212 84 -258
c36 -31 81 -49 127 -49c53 0 98 18 133 53c23 23 40 48 49 73c20 52 33 121 33 180c0 119 -31 213 -85 262c-36 32 -82 50 -128 50zM428 719h-40l147 148c18 18 27 23 42 23c22 0 35 -12 35 -32c0 -16 -9 -29 -30 -42zM272 719h-40l147 148c18 18 27 23 42 23
c22 0 35 -12 35 -32c0 -16 -9 -29 -30 -42z" />
    <glyph glyph-name="ohungarumlaut" unicode="&#x151;" horiz-adv-x="500" 
d="M250 460c128 0 220 -94 220 -226c0 -139 -96 -244 -222 -244s-219 100 -219 236c0 138 90 234 221 234zM237 432c-72 0 -118 -62 -118 -157c0 -71 16 -141 44 -193c21 -40 58 -64 97 -64c75 0 120 67 120 181c0 137 -59 233 -143 233zM300 507h-40l147 148
c18 18 27 23 43 23c21 0 34 -12 34 -32c0 -16 -9 -29 -30 -42zM144 507h-40l147 148c18 18 27 23 43 23c21 0 34 -12 34 -32c0 -16 -9 -29 -30 -42z" />
    <glyph glyph-name="OE" unicode="&#x152;" horiz-adv-x="889" 
d="M827 521h-23c-11 89 -38 105 -168 105h-51c-61 -2 -65 -3 -65 -24v-236l104 1c106 3 125 17 132 97h21v-234h-21c-7 77 -28 98 -98 100l-138 -1v-245c2 -39 9 -45 56 -46l124 2c63 2 99 33 150 128h24l-44 -168h-350c-40 0 -49 0 -91 -3l-15 -1h-15c-24 -1 -44 -2 -59 -2
c-73 0 -141 27 -191 77c-60 59 -90 143 -90 251c0 115 37 215 100 271c55 49 129 75 212 75c15 0 17 0 65 -3c46 -2 85 -3 105 -3h326v-141zM420 131v396c0 73 -30 105 -99 105c-121 0 -190 -111 -190 -306c0 -192 66 -295 189 -295c71 0 100 29 100 100z" />
    <glyph glyph-name="oe" unicode="&#x153;" 
d="M679 145l11 -6c-52 -108 -101 -149 -179 -149c-62 0 -98 27 -128 95c-38 -69 -79 -95 -147 -95c-121 0 -206 95 -206 228c0 76 29 151 75 194c34 32 77 48 127 48c62 0 102 -20 152 -76c41 56 75 76 130 76c51 0 98 -23 126 -62c23 -31 31 -60 34 -121h-254
c4 -87 13 -124 39 -170c18 -30 53 -50 90 -50c48 0 83 24 130 88zM229 431c-29 0 -53 -11 -75 -33c-20 -21 -34 -75 -34 -127c0 -169 41 -255 120 -255c68 0 103 63 103 183c0 149 -41 232 -114 232zM419 307h160v27c0 56 -33 97 -79 97c-53 0 -80 -41 -81 -124z" />
    <glyph glyph-name="Racute" unicode="&#x154;" horiz-adv-x="667" 
d="M659 19v-19h-161l-238 308l-56 -2v-197c1 -73 13 -85 90 -90v-19h-277v19c75 6 84 16 85 101v433c-1 73 -11 82 -85 90v19h276c94 0 177 -26 215 -67c26 -29 39 -66 39 -109c0 -92 -54 -142 -181 -167l206 -253c29 -34 49 -44 87 -47zM204 589v-246c96 2 131 8 177 34
c36 19 57 61 57 111c0 94 -58 137 -183 137c-40 0 -51 -8 -51 -36zM268 719h-40l147 148c19 18 27 23 43 23c21 0 34 -12 34 -32c0 -16 -9 -29 -30 -42z" />
    <glyph glyph-name="racute" unicode="&#x155;" horiz-adv-x="333" 
d="M5 0v15c63 11 69 17 71 69v250c0 44 -9 60 -34 60c-12 0 -21 -1 -35 -4v16c59 19 95 32 148 54l5 -2v-92c49 72 78 94 120 94c34 0 55 -20 55 -53c0 -28 -15 -45 -39 -45c-13 0 -24 5 -40 20c-11 10 -20 15 -26 15c-28 0 -70 -50 -70 -82v-225c2 -59 18 -73 85 -75v-15
h-240zM156 507h-40l147 148c19 18 27 23 43 23c21 0 34 -12 34 -32c0 -16 -9 -29 -30 -42z" />
    <glyph glyph-name="Rcommaaccent" unicode="&#x156;" horiz-adv-x="667" 
d="M659 19v-19h-161l-238 308l-56 -2v-197c1 -73 13 -85 90 -90v-19h-277v19c75 6 84 16 85 101v433c-1 73 -11 82 -85 90v19h276c94 0 177 -26 215 -67c26 -29 39 -66 39 -109c0 -92 -54 -142 -181 -167l206 -253c29 -34 49 -44 87 -47zM204 589v-246c96 2 131 8 177 34
c36 19 57 61 57 111c0 94 -58 137 -183 137c-40 0 -51 -8 -51 -36zM309 -281l-9 19c54 38 82 74 82 106c0 8 -6 14 -14 14c-1 0 -2 0 -7 -2c-6 -1 -13 -2 -20 -2c-37 0 -59 19 -59 51c0 34 24 57 59 57c45 0 80 -39 80 -89c0 -60 -45 -121 -112 -154z" />
    <glyph glyph-name="rcommaaccent" unicode="&#x157;" horiz-adv-x="333" 
d="M5 0v15c63 11 69 17 71 69v250c0 44 -9 60 -34 60c-12 0 -21 -1 -35 -4v16c59 19 95 32 148 54l5 -2v-92c49 72 78 94 120 94c34 0 55 -20 55 -53c0 -28 -15 -45 -39 -45c-13 0 -24 5 -40 20c-11 10 -20 15 -26 15c-28 0 -70 -50 -70 -82v-225c2 -59 18 -73 85 -75v-15
h-240zM84 -281l-9 19c54 37 82 74 82 106c0 8 -6 14 -14 14c-1 0 -2 0 -7 -2c-6 -1 -13 -2 -20 -2c-37 0 -59 19 -59 51c0 34 24 57 59 57c45 0 80 -39 80 -89c0 -60 -45 -121 -112 -154z" />
    <glyph glyph-name="Rcaron" unicode="&#x158;" horiz-adv-x="667" 
d="M659 19v-19h-161l-238 308l-56 -2v-197c1 -73 13 -85 90 -90v-19h-277v19c75 6 84 16 85 101v433c-1 73 -11 82 -85 90v19h276c94 0 177 -26 215 -67c26 -29 39 -66 39 -109c0 -92 -54 -142 -181 -167l206 -253c29 -34 49 -44 87 -47zM204 589v-246c96 2 131 8 177 34
c36 19 57 61 57 111c0 94 -58 137 -183 137c-40 0 -51 -8 -51 -36zM440 886l-125 -167h-62l-124 167h34l121 -103l122 103h34z" />
    <glyph glyph-name="rcaron" unicode="&#x159;" horiz-adv-x="333" 
d="M5 0v15c63 11 69 17 71 69v250c0 44 -9 60 -34 60c-12 0 -21 -1 -35 -4v16c59 19 95 32 148 54l5 -2v-92c49 72 78 94 120 94c34 0 55 -20 55 -53c0 -28 -15 -45 -39 -45c-13 0 -24 5 -40 20c-11 10 -20 15 -26 15c-28 0 -70 -50 -70 -82v-225c2 -59 18 -73 85 -75v-15
h-240zM322 674l-125 -167h-62l-124 167h34l121 -103l122 103h34z" />
    <glyph glyph-name="Sacute" unicode="&#x15a;" horiz-adv-x="556" 
d="M447 676l22 -213h-25c-16 59 -30 85 -61 117c-35 36 -77 55 -122 55c-62 0 -104 -37 -104 -92s42 -99 147 -156c132 -72 187 -137 187 -219c0 -103 -88 -182 -204 -182c-39 0 -80 8 -118 23c-19 7 -36 11 -47 11c-15 0 -27 -14 -28 -33h-22l-30 212h23
c50 -122 112 -177 202 -177c73 0 123 46 123 112c0 25 -5 46 -14 59c-25 38 -77 78 -149 117c-112 59 -156 115 -156 195c0 52 18 94 53 125c33 29 77 46 119 46c33 0 70 -8 107 -22c17 -8 34 -12 44 -12c17 0 28 11 32 34h21zM245 719h-40l147 148c18 18 27 23 42 23
c22 0 35 -12 35 -32c0 -16 -9 -29 -30 -42z" />
    <glyph glyph-name="sacute" unicode="&#x15b;" horiz-adv-x="389" 
d="M315 314h-15c-23 90 -53 123 -110 123c-46 0 -77 -27 -77 -68c0 -27 15 -52 43 -68l108 -64c61 -36 84 -69 84 -119c0 -70 -63 -128 -141 -128c-20 0 -46 4 -73 10c-23 6 -35 8 -46 8c-12 0 -16 -2 -23 -12h-13v156h16c23 -102 58 -140 127 -140c51 0 83 28 83 72
c0 31 -17 55 -52 75l-58 33c-85 48 -117 88 -117 144c0 72 57 124 136 124c24 0 47 -5 70 -13c11 -5 21 -7 27 -7c5 0 10 3 16 11h11zM154 507h-40l147 148c18 18 27 23 42 23c22 0 35 -12 35 -32c0 -16 -9 -29 -30 -42z" />
    <glyph glyph-name="Scircumflex" unicode="&#x15c;" horiz-adv-x="556" 
d="M105 0h-19v224h20c7 -54 16 -80 37 -111c31 -48 83 -77 135 -77c65 0 115 47 115 107c0 31 -11 55 -39 84c-19 19 -43 37 -64 50l-78 44c-92 54 -130 105 -130 176c0 102 71 172 176 172c30 0 52 -4 91 -17c40 -13 43 -14 52 -14c12 0 20 7 28 24h20v-210h-18
c-23 75 -39 108 -65 135c-24 25 -56 38 -95 38c-60 0 -104 -38 -104 -90c0 -40 35 -82 97 -117l77 -45c102 -59 149 -120 149 -197c0 -107 -82 -183 -196 -183c-39 0 -39 0 -121 26c-15 5 -28 8 -37 8c-16 0 -24 -7 -31 -27zM442 719h-34l-122 103l-121 -103h-34l124 167h62
z" />
    <glyph glyph-name="scircumflex" unicode="&#x15d;" horiz-adv-x="389" 
d="M315 314h-15c-23 90 -53 123 -110 123c-46 0 -77 -27 -77 -68c0 -27 15 -52 43 -68l108 -64c61 -36 84 -69 84 -119c0 -70 -63 -128 -141 -128c-20 0 -46 4 -73 10c-23 6 -35 8 -46 8c-12 0 -16 -2 -23 -12h-13v156h16c23 -102 58 -140 127 -140c51 0 83 28 83 72
c0 31 -17 55 -52 75l-58 33c-85 48 -117 88 -117 144c0 72 57 124 136 124c24 0 47 -5 70 -13c11 -5 21 -7 27 -7c5 0 10 3 16 11h11zM353 507h-34l-122 103l-121 -103h-34l124 167h62z" />
    <glyph glyph-name="Scedilla" unicode="&#x15e;" horiz-adv-x="556" 
d="M280 -14l-19 -51c9 2 16 3 26 3c54 0 86 -25 86 -69c0 -52 -48 -84 -125 -84c-32 0 -56 4 -84 16l14 31c27 -9 44 -12 65 -12c34 0 55 17 55 44c0 26 -15 36 -53 36c-13 0 -20 -1 -28 -4l-7 5l36 88c-28 4 -51 9 -77 20c-19 7 -36 11 -47 11c-15 0 -27 -14 -28 -33h-22
l-30 212h23c50 -122 112 -177 202 -177c73 0 123 46 123 112c0 25 -5 46 -14 59c-25 38 -77 78 -149 117c-112 59 -156 115 -156 195c0 52 18 94 53 125c33 29 77 46 119 46c33 0 70 -8 107 -22c17 -8 34 -12 44 -12c17 0 28 11 32 34h21l22 -213h-25c-16 59 -30 85 -61 117
c-35 36 -77 55 -122 55c-62 0 -104 -37 -104 -92s42 -99 147 -156c132 -72 187 -137 187 -219c0 -102 -88 -182 -202 -182h-9z" />
    <glyph glyph-name="scedilla" unicode="&#x15f;" horiz-adv-x="389" 
d="M198 -10l-21 -55c10 2 16 3 26 3c54 0 86 -25 86 -69c0 -52 -48 -84 -125 -84c-31 0 -55 5 -84 16l14 31c27 -9 44 -12 65 -12c34 0 55 17 55 44c0 26 -15 36 -53 36c-12 0 -20 -1 -28 -4l-7 5l39 93c-13 2 -19 4 -31 6c-24 6 -35 8 -46 8c-12 0 -16 -2 -23 -12h-13v156
h16c23 -102 58 -140 127 -140c51 0 83 28 83 72c0 31 -17 55 -52 75l-58 33c-85 48 -117 88 -117 144c0 72 57 124 136 124c24 0 47 -5 70 -13c11 -5 21 -7 27 -7c5 0 10 3 16 11h11l4 -137h-15c-23 90 -53 123 -110 123c-46 0 -77 -27 -77 -68c0 -27 15 -52 43 -68l108 -64
c61 -36 84 -69 84 -119c0 -70 -63 -128 -139 -128h-11z" />
    <glyph glyph-name="Scaron" unicode="&#x160;" horiz-adv-x="556" 
d="M447 676l22 -213h-25c-16 59 -30 85 -61 117c-35 36 -77 55 -122 55c-62 0 -104 -37 -104 -92s42 -99 147 -156c132 -72 187 -137 187 -219c0 -103 -88 -182 -204 -182c-39 0 -80 8 -118 23c-19 7 -36 11 -47 11c-15 0 -27 -14 -28 -33h-22l-30 212h23
c50 -122 112 -177 202 -177c73 0 123 46 123 112c0 25 -5 46 -14 59c-25 38 -77 78 -149 117c-112 59 -156 115 -156 195c0 52 18 94 53 125c33 29 77 46 119 46c33 0 70 -8 107 -22c17 -8 34 -12 44 -12c17 0 28 11 32 34h21zM434 886l-125 -167h-62l-124 167h34l121 -103
l122 103h34z" />
    <glyph glyph-name="scaron" unicode="&#x161;" horiz-adv-x="389" 
d="M315 314h-15c-23 90 -53 123 -110 123c-46 0 -77 -27 -77 -68c0 -27 15 -52 43 -68l108 -64c61 -36 84 -69 84 -119c0 -70 -63 -128 -141 -128c-20 0 -46 4 -73 10c-23 6 -35 8 -46 8c-12 0 -16 -2 -23 -12h-13v156h16c23 -102 58 -140 127 -140c51 0 83 28 83 72
c0 31 -17 55 -52 75l-58 33c-85 48 -117 88 -117 144c0 72 57 124 136 124c24 0 47 -5 70 -13c11 -5 21 -7 27 -7c5 0 10 3 16 11h11zM350 674l-125 -167h-62l-124 167h34l121 -103l122 103h34z" />
    <glyph glyph-name="Tcommaaccent" unicode="&#x162;" horiz-adv-x="611" 
d="M452 19v-19h-292v19c84 5 93 15 94 101v500h-54c-115 -2 -136 -19 -159 -128h-24l6 170h564l6 -170h-24c-22 109 -43 126 -159 128h-54v-511c1 -73 14 -86 96 -90zM263 -281l-9 19c54 37 82 74 82 106c0 8 -6 14 -14 14c-1 0 -2 0 -7 -2c-6 -1 -13 -2 -20 -2
c-37 0 -59 19 -59 51c0 34 24 57 59 57c45 0 80 -39 80 -89c0 -60 -45 -121 -112 -154z" />
    <glyph glyph-name="tcommaaccent" unicode="&#x163;" horiz-adv-x="278" 
d="M255 450v-32h-101v-286c0 -63 15 -90 52 -90c22 0 38 9 60 35l13 -11c-33 -52 -71 -76 -120 -76c-59 0 -89 43 -89 127v301h-53c-3 2 -4 4 -4 7c0 6 6 12 17 19c29 17 59 51 117 135c5 0 7 -3 7 -13v-116h101zM106 -281l-9 19c54 37 82 73 82 106c0 8 -6 14 -14 14
c-1 0 -2 0 -7 -2c-6 -1 -13 -2 -20 -2c-37 0 -59 19 -59 51c0 34 24 57 59 57c45 0 80 -39 80 -89c0 -60 -45 -121 -112 -154z" />
    <glyph glyph-name="Tcaron" unicode="&#x164;" horiz-adv-x="611" 
d="M452 19v-19h-292v19c84 5 93 15 94 101v500h-54c-115 -2 -136 -19 -159 -128h-24l6 170h564l6 -170h-24c-22 109 -43 126 -159 128h-54v-511c1 -73 14 -86 96 -90zM461 886l-125 -167h-62l-124 167h34l121 -103l122 103h34z" />
    <glyph glyph-name="tcaron" unicode="&#x165;" horiz-adv-x="326" 
d="M305 429l-10 23c54 37 82 73 82 106c0 8 -6 14 -14 14c-1 0 -2 0 -7 -2c-6 -1 -13 -2 -20 -2c-37 0 -59 19 -59 51c0 34 24 57 59 57c45 0 80 -39 80 -89c0 -49 -30 -98 -82 -137zM257 450v-32h-101v-286c0 -63 15 -90 52 -90c22 0 38 9 60 35l13 -11
c-33 -52 -71 -76 -120 -76c-59 0 -89 43 -89 127v301h-53c-3 2 -4 4 -4 7c0 6 6 12 17 19c29 17 59 51 117 135c5 0 7 -3 7 -13v-116h101z" />
    <glyph glyph-name="Tbar" unicode="&#x166;" horiz-adv-x="611" 
d="M254 316h-104v34h104v270h-54c-115 -2 -136 -19 -159 -128h-24l6 170h564l6 -170h-24c-22 109 -43 126 -159 128h-54v-270h105v-34h-105v-207c1 -74 14 -86 96 -90v-19h-292v19c84 5 93 15 94 101v196z" />
    <glyph glyph-name="tbar" unicode="&#x167;" horiz-adv-x="278" 
d="M154 317h124v-34h-124v-151c0 -63 15 -90 52 -90c22 0 38 9 60 35l13 -11c-33 -52 -71 -76 -120 -76c-59 0 -89 43 -89 127v166h-70v34h70v101h-53c-3 2 -4 4 -4 7c0 6 6 12 17 19c29 17 59 51 117 135c5 0 7 -3 7 -13v-116h101v-32h-101v-101z" />
    <glyph glyph-name="Utilde" unicode="&#x168;" 
d="M705 662v-19c-81 -9 -92 -23 -94 -128v-261c0 -77 -9 -123 -33 -165c-39 -68 -114 -103 -223 -103c-170 0 -251 82 -251 255v312c-1 74 -11 84 -90 90v19h283v-19c-80 -7 -90 -17 -91 -90v-320c0 -63 7 -100 25 -132c27 -47 76 -71 147 -71c75 0 139 31 166 79
c16 30 23 68 23 136v270c-2 103 -17 123 -94 128v19h232zM527 848h29c-20 -77 -50 -106 -105 -106c-25 0 -41 5 -81 24l-23 11c-14 7 -30 11 -40 11c-24 0 -40 -15 -52 -46h-29c15 65 51 101 102 101c21 0 46 -7 69 -18l24 -12c19 -10 38 -15 53 -15c23 0 36 12 53 50z" />
    <glyph glyph-name="utilde" unicode="&#x169;" horiz-adv-x="500" 
d="M412 457v-282c0 -97 6 -116 40 -116c8 0 15 1 27 4l6 -17c-73 -23 -83 -27 -152 -56v94c-30 -33 -35 -38 -50 -52c-27 -25 -61 -39 -96 -39c-45 0 -78 21 -95 61c-12 28 -16 57 -16 111v169c0 90 -8 104 -57 106h-14v17h150v-289c0 -79 19 -109 69 -109
c35 0 53 10 109 58v217c0 90 -8 104 -57 106h-24v17h160zM372 638h29c-20 -76 -50 -106 -105 -106c-25 0 -39 4 -81 24l-23 11c-14 7 -29 11 -40 11c-24 0 -40 -15 -52 -46h-29c15 65 51 101 102 101c21 0 46 -6 69 -18l24 -12c19 -9 39 -15 53 -15c23 0 36 12 53 50z" />
    <glyph glyph-name="Umacron" unicode="&#x16a;" 
d="M705 662v-19c-81 -9 -92 -23 -94 -128v-261c0 -77 -9 -123 -33 -165c-39 -68 -114 -103 -223 -103c-170 0 -251 82 -251 255v312c-1 74 -11 84 -90 90v19h283v-19c-80 -7 -90 -17 -91 -90v-320c0 -63 7 -100 25 -132c27 -47 76 -71 147 -71c75 0 139 31 166 79
c16 30 23 68 23 136v270c-2 103 -17 123 -94 128v19h232zM226 813h311v-54h-311v54z" />
    <glyph glyph-name="umacron" unicode="&#x16b;" horiz-adv-x="500" 
d="M479 50v-14c-51 -14 -87 -25 -137 -45l-4 2v83l-43 -43c-27 -27 -66 -43 -103 -43c-73 0 -121 51 -121 130v252c-1 48 -15 62 -62 64v14h146v-326c0 -42 32 -76 71 -76c30 0 61 12 88 34c14 11 19 25 19 53v235c0 50 -12 60 -74 63v17h158v-343c1 -47 8 -55 57 -57h5z
M74 601h311v-54h-311v54z" />
    <glyph glyph-name="Ubreve" unicode="&#x16c;" 
d="M705 662v-19c-81 -9 -92 -23 -94 -128v-261c0 -77 -9 -123 -33 -165c-39 -68 -114 -103 -223 -103c-170 0 -251 82 -251 255v312c-1 74 -11 84 -90 90v19h283v-19c-80 -7 -90 -17 -91 -90v-320c0 -63 7 -100 25 -132c27 -47 76 -71 147 -71c75 0 139 31 166 79
c16 30 23 68 23 136v270c-2 103 -17 123 -94 128v19h232zM498 875h29c-13 -106 -59 -157 -142 -157c-48 0 -87 19 -112 54c-20 28 -26 52 -27 103h29c13 -67 47 -97 112 -97c58 0 82 21 111 97z" />
    <glyph glyph-name="ubreve" unicode="&#x16d;" horiz-adv-x="500" 
d="M412 457v-282c0 -97 6 -116 40 -116c8 0 15 1 27 4l6 -17c-73 -23 -83 -27 -152 -56v94c-30 -33 -35 -38 -50 -52c-27 -25 -61 -39 -96 -39c-45 0 -78 21 -95 61c-12 28 -16 57 -16 111v169c0 90 -8 104 -57 106h-14v17h150v-289c0 -79 19 -109 69 -109
c35 0 53 10 109 58v217c0 90 -8 104 -57 106h-24v17h160zM333 640h24c-9 -33 -15 -47 -25 -65c-20 -32 -58 -52 -98 -52s-78 20 -98 52c-11 18 -17 32 -25 65h23c17 -34 56 -57 100 -57c43 0 83 23 99 57z" />
    <glyph glyph-name="Uring" unicode="&#x16e;" 
d="M705 662v-19c-81 -9 -92 -23 -94 -128v-261c0 -77 -9 -123 -33 -165c-39 -68 -114 -103 -223 -103c-170 0 -251 82 -251 255v312c-1 74 -11 84 -90 90v19h283v-19c-80 -7 -90 -17 -91 -90v-320c0 -63 7 -100 25 -132c27 -47 76 -71 147 -71c75 0 139 31 166 79
c16 30 23 68 23 136v270c-2 103 -17 123 -94 128v19h232zM381 923c55 0 100 -45 100 -100s-45 -99 -100 -99c-56 0 -99 44 -99 100c0 54 45 99 99 99zM382 889c-36 0 -66 -29 -66 -65c0 -37 29 -66 64 -66c38 0 67 29 67 65s-30 66 -65 66z" />
    <glyph glyph-name="uring" unicode="&#x16f;" horiz-adv-x="500" 
d="M479 50v-14c-51 -14 -87 -25 -137 -45l-4 2v83l-43 -43c-27 -27 -66 -43 -103 -43c-73 0 -121 51 -121 130v252c-1 48 -15 62 -62 64v14h146v-326c0 -42 32 -76 71 -76c30 0 61 12 88 34c14 11 19 25 19 53v235c0 50 -12 60 -74 63v17h158v-343c1 -47 8 -55 57 -57h5z
M235 711c55 0 100 -45 100 -100s-45 -99 -100 -99c-56 0 -99 44 -99 100c0 54 45 99 99 99zM236 677c-36 0 -66 -29 -66 -65c0 -37 29 -66 64 -66c38 0 67 29 67 65s-30 66 -65 66z" />
    <glyph glyph-name="Uhungarumlaut" unicode="&#x170;" 
d="M705 662v-19c-81 -9 -92 -23 -94 -128v-261c0 -77 -9 -123 -33 -165c-39 -68 -114 -103 -223 -103c-170 0 -251 82 -251 255v312c-1 74 -11 84 -90 90v19h283v-19c-80 -7 -90 -17 -91 -90v-320c0 -63 7 -100 25 -132c27 -47 76 -71 147 -71c75 0 139 31 166 79
c16 30 23 68 23 136v270c-2 103 -17 123 -94 128v19h232zM466 719h-40l147 148c18 18 27 23 42 23c22 0 35 -12 35 -32c0 -16 -9 -29 -30 -42zM310 719h-40l147 148c18 18 27 23 42 23c22 0 35 -12 35 -32c0 -16 -9 -29 -30 -42z" />
    <glyph glyph-name="uhungarumlaut" unicode="&#x171;" horiz-adv-x="500" 
d="M479 50v-14c-51 -14 -87 -25 -137 -45l-4 2v83l-43 -43c-27 -27 -66 -43 -103 -43c-73 0 -121 51 -121 130v252c-1 48 -15 62 -62 64v14h146v-326c0 -42 32 -76 71 -76c30 0 61 12 88 34c14 11 19 25 19 53v235c0 50 -12 60 -74 63v17h158v-343c1 -47 8 -55 57 -57h5z
M281 507h-40l147 148c18 18 27 23 42 23c22 0 35 -12 35 -32c0 -16 -9 -29 -30 -42zM125 507h-40l147 148c18 18 27 23 42 23c22 0 35 -12 35 -32c0 -16 -9 -29 -30 -42z" />
    <glyph glyph-name="Uogonek" unicode="&#x172;" 
d="M705 662v-19c-81 -9 -92 -23 -94 -128v-261c-2 -129 -17 -165 -97 -231c-42 -35 -59 -63 -59 -94c0 -22 16 -38 38 -38c21 0 39 9 71 36l20 -16c-37 -53 -71 -76 -112 -76c-42 0 -73 33 -73 75c0 33 15 58 50 87c-33 -7 -62 -11 -96 -11c-168 0 -249 83 -249 255v312
c-1 74 -11 84 -90 90v19h283v-19c-80 -7 -90 -17 -91 -90v-320c0 -63 7 -100 25 -132c27 -47 76 -71 147 -71c75 0 139 31 166 79c16 30 23 68 23 136v270c-2 103 -17 123 -94 128v19h232z" />
    <glyph glyph-name="uogonek" unicode="&#x173;" horiz-adv-x="500" 
d="M479 50v-14c-30 -7 -44 -13 -64 -30c-26 -22 -44 -52 -44 -76c0 -23 16 -39 38 -39c21 0 40 9 71 36l20 -16c-37 -53 -71 -76 -112 -76c-42 0 -73 33 -73 76c0 21 6 37 23 60v105l-43 -43c-27 -27 -66 -43 -103 -43c-73 0 -121 51 -121 130v252c-1 48 -15 62 -62 64v14
h146v-326c0 -42 32 -76 71 -76c30 0 61 12 88 34c14 11 19 25 19 53v235c0 50 -12 60 -74 63v17h158v-343c1 -47 8 -55 57 -57h5z" />
    <glyph glyph-name="Wcircumflex" unicode="&#x174;" horiz-adv-x="944" 
d="M323 -10l-208 562c-26 71 -38 86 -76 92h-7v18h239v-18l-13 -1c-30 -1 -43 -12 -43 -37c0 -11 2 -21 10 -43l129 -363l100 274l-38 103c-20 50 -36 65 -69 67h-14v18h256v-18h-17c-33 -1 -51 -16 -51 -41c0 -15 5 -36 14 -60l131 -343l123 355c8 22 10 31 10 41
c0 30 -15 43 -53 47l-12 1v18h196v-18c-51 1 -74 -30 -117 -160l-167 -494h-11l-154 413l-148 -413h-10zM637 719h-34l-122 103l-121 -103h-34l124 167h62z" />
    <glyph glyph-name="wcircumflex" unicode="&#x175;" 
d="M571 450h123v-15c-20 -7 -23 -12 -41 -54l-138 -346c-16 -40 -21 -49 -28 -49s-9 5 -24 43l-91 236l-112 -240c-12 -27 -20 -39 -25 -39c-6 0 -14 13 -26 44l-135 342c-22 51 -30 61 -53 63v15h180v-15c-35 -4 -46 -12 -46 -33c0 -10 2 -20 6 -30l99 -261l91 199
c-6 18 -13 37 -20 56c-20 54 -32 65 -69 69v15h203v-15c-47 -7 -58 -14 -58 -36c0 -13 0 -13 17 -59l84 -224l90 222c11 26 17 51 17 66c0 17 -10 24 -44 31v15zM519 507h-34l-122 103l-121 -103h-34l124 167h62z" />
    <glyph glyph-name="Ycircumflex" unicode="&#x176;" 
d="M315 282l-163 260c-42 73 -65 93 -115 100l-23 2v18h301v-18h-14c-37 0 -55 -10 -55 -32c0 -16 8 -35 27 -65l130 -205l129 218c17 28 22 42 22 55c0 18 -14 28 -41 28l-21 1v18h223v-18l-11 -1c-53 -3 -87 -33 -137 -119l-144 -242v-179c0 -63 16 -82 69 -84l27 -1v-18
h-298v18l25 1c54 2 69 21 69 84v179zM553 719h-34l-122 103l-121 -103h-34l124 167h62z" />
    <glyph glyph-name="ycircumflex" unicode="&#x177;" horiz-adv-x="500" 
d="M236 16l-106 279c-54 138 -54 139 -88 144l-15 1v17h196v-17h-8c-27 0 -39 -10 -39 -32c0 -11 5 -27 19 -63l87 -218l78 214c14 38 19 57 19 70c0 20 -13 29 -38 29h-5v17h143v-17l-10 -1c-31 -7 -38 -18 -65 -91l-122 -325c-30 -78 -50 -117 -74 -141
c-27 -27 -56 -40 -90 -40c-37 0 -66 22 -66 50c0 25 26 50 52 50c12 0 26 -4 49 -14c6 -3 12 -4 15 -4c22 0 45 30 68 92zM420 507h-34l-122 103l-121 -103h-34l124 167h62z" />
    <glyph glyph-name="Ydieresis" unicode="&#x178;" 
d="M703 662v-19c-51 -4 -77 -26 -138 -114l-148 -226v-194c1 -77 14 -88 103 -90v-19h-306v19c91 4 100 13 101 101v174l-131 192c-100 141 -114 155 -162 157v19h280v-19c-11 -1 -21 -1 -25 -1c-32 -2 -46 -10 -46 -29c0 -11 6 -28 17 -44l148 -222l143 226
c10 15 14 27 14 37c0 24 -17 32 -69 33v19h219zM294 835c27 0 50 -23 50 -50c0 -28 -23 -50 -50 -50s-48 22 -48 51c0 26 22 49 48 49zM493 835c27 0 50 -23 50 -50c0 -28 -23 -50 -50 -50s-48 22 -48 51c0 26 22 49 48 49z" />
    <glyph glyph-name="Zacute" unicode="&#x179;" horiz-adv-x="611" 
d="M574 176h23l-24 -176h-564v15l437 609h-221c-115 -3 -151 -32 -168 -133h-26l20 171h526v-15l-432 -609h257c108 4 142 31 172 138zM290 719h-40l147 148c18 18 27 23 42 23c22 0 35 -12 35 -32c0 -16 -9 -29 -30 -42z" />
    <glyph glyph-name="zacute" unicode="&#x17a;" horiz-adv-x="444" 
d="M418 135l-14 -135h-377v15l266 405h-138c-62 -2 -76 -17 -84 -88h-18l3 118h347v-15l-269 -405h138c96 3 110 15 128 109zM196 507h-40l147 148c18 18 27 23 42 23c22 0 35 -12 35 -32c0 -16 -9 -29 -30 -42z" />
    <glyph glyph-name="Zdotaccent" unicode="&#x17b;" horiz-adv-x="611" 
d="M574 176h23l-24 -176h-564v15l437 609h-221c-115 -3 -151 -32 -168 -133h-26l20 171h526v-15l-432 -609h257c108 4 142 31 172 138zM323 835c27 0 50 -23 50 -50c0 -28 -23 -50 -50 -50s-48 22 -48 51c0 26 22 49 48 49z" />
    <glyph glyph-name="zdotaccent" unicode="&#x17c;" horiz-adv-x="444" 
d="M418 135l-14 -135h-377v15l266 405h-138c-62 -2 -76 -17 -84 -88h-18l3 118h347v-15l-269 -405h138c96 3 110 15 128 109zM233 623c27 0 50 -23 50 -50c0 -28 -23 -50 -50 -50s-48 22 -48 51c0 26 22 49 48 49z" />
    <glyph glyph-name="Zcaron" unicode="&#x17d;" horiz-adv-x="611" 
d="M574 176h23l-24 -176h-564v15l437 609h-221c-115 -3 -151 -32 -168 -133h-26l20 171h526v-15l-432 -609h257c108 4 142 31 172 138zM479 886l-125 -167h-62l-124 167h34l121 -103l122 103h34z" />
    <glyph glyph-name="zcaron" unicode="&#x17e;" horiz-adv-x="444" 
d="M418 135l-14 -135h-377v15l266 405h-138c-62 -2 -76 -17 -84 -88h-18l3 118h347v-15l-269 -405h138c96 3 110 15 128 109zM383 674l-125 -167h-62l-124 167h34l121 -103l122 103h34z" />
    <glyph glyph-name="longs" unicode="&#x17f;" horiz-adv-x="278" 
d="M252 15v-15h-260v15c71 3 81 14 83 89v314h-45v32h45c1 80 9 116 35 160c26 46 79 73 141 73c60 0 104 -26 104 -62c0 -23 -18 -41 -41 -41c-18 0 -30 10 -46 36c-18 29 -31 39 -53 39c-37 0 -56 -31 -56 -89v-462c0 -75 11 -85 93 -89z" />
    <glyph glyph-name="florin" unicode="&#x192;" horiz-adv-x="500" 
d="M195 410h-93l10 40h93c36 110 63 162 104 201c30 28 63 41 104 41c54 0 88 -26 88 -66c0 -28 -17 -45 -43 -45c-24 0 -42 17 -42 38c0 6 1 11 4 19c3 9 3 10 3 13c0 8 -8 13 -18 13c-41 0 -79 -55 -99 -145l-15 -69h109l-9 -40h-112l-56 -259c-25 -115 -58 -213 -93 -274
c-33 -57 -81 -88 -135 -88c-49 0 -83 26 -83 65c0 26 17 43 43 43c22 0 42 -17 42 -37c0 -7 -2 -13 -6 -23c-2 -4 -3 -7 -3 -10c0 -5 7 -10 15 -10c21 0 45 17 59 42c29 52 29 52 72 264c27 136 29 142 42 200z" />
    <glyph glyph-name="Aringacute" unicode="&#x1fa;" 
d="M706 19v-19h-255v19c53 1 70 9 70 34c0 14 -7 40 -19 67l-41 96h-262l-46 -117c-5 -13 -8 -27 -8 -39c0 -29 20 -41 68 -41v-19h-198v19c48 2 60 18 124 164l208 491h20l249 -568c35 -74 45 -84 90 -87zM216 257h231l-116 275zM351 881c55 0 100 -45 100 -100
s-45 -99 -100 -99c-56 0 -99 44 -99 100c0 54 45 99 99 99zM352 847c-36 0 -66 -29 -66 -65c0 -37 29 -66 64 -66c38 0 67 29 67 65s-30 66 -65 66zM297 882h-40l147 148c19 18 27 23 43 23c21 0 34 -12 34 -32c0 -16 -9 -29 -30 -42z" />
    <glyph glyph-name="aringacute" unicode="&#x1fb;" horiz-adv-x="444" 
d="M442 66v-26c-35 -38 -56 -50 -90 -50c-41 0 -59 20 -64 73c-61 -52 -102 -73 -146 -73c-61 0 -105 44 -105 107c0 33 14 67 36 87c43 38 60 46 214 108v61c0 54 -27 83 -76 83c-40 0 -72 -22 -72 -49c0 -7 1 -15 3 -24c1 -7 2 -12 2 -16c0 -22 -21 -42 -45 -42
s-43 20 -43 43c0 63 74 112 168 112c59 0 102 -19 124 -55c15 -24 20 -53 20 -105v-195c0 -44 7 -58 30 -58c15 0 27 5 44 19zM287 123v145c-117 -41 -161 -79 -162 -139v-4c0 -43 28 -77 63 -77c21 0 48 8 73 22c21 12 26 23 26 53zM222 722c55 0 100 -45 100 -100
s-45 -99 -100 -99c-56 0 -99 44 -99 100c0 54 45 99 99 99zM223 688c-36 0 -66 -29 -66 -65c0 -37 29 -66 64 -66c38 0 67 29 67 65s-30 66 -65 66zM171 756h-40l147 148c18 18 27 23 42 23c22 0 35 -12 35 -32c0 -16 -9 -29 -30 -42z" />
    <glyph glyph-name="AEacute" unicode="&#x1fc;" horiz-adv-x="889" 
d="M816 521h-23c-12 91 -37 105 -182 105h-87c-20 0 -26 -7 -27 -30v-230h111c105 2 125 17 132 97h21v-234h-21c-7 77 -27 98 -98 100h-145v-238c0 -24 3 -41 8 -44c4 -5 30 -9 61 -9h76c112 2 139 20 197 130h24l-44 -168h-510v19l17 2c63 9 70 18 72 87v152h-176l-28 -53
c-41 -78 -64 -136 -64 -158c0 -15 25 -26 68 -30h1v-19h-199v19c43 6 55 17 88 78l245 484c6 11 9 22 9 28c0 22 -25 31 -90 33v20h564v-141zM239 299h159v319zM441 731h-40l147 148c18 18 27 23 42 23c22 0 35 -12 35 -32c0 -16 -9 -29 -30 -42z" />
    <glyph glyph-name="aeacute" unicode="&#x1fd;" horiz-adv-x="667" 
d="M620 154l12 -5c-28 -59 -46 -87 -74 -111c-35 -32 -77 -48 -123 -48c-58 0 -95 21 -129 73c-68 -57 -102 -73 -152 -73c-68 0 -116 45 -116 110c0 60 42 101 149 145l86 36l2 63c0 23 -5 54 -12 70c-7 14 -26 22 -50 22c-43 0 -66 -17 -68 -50v-6l1 -11c1 -6 1 -13 1 -17
c0 -31 -15 -48 -43 -48c-27 0 -44 18 -44 48c0 61 69 108 159 108c50 0 79 -11 118 -45c45 35 72 45 119 45c101 0 148 -54 160 -183h-262c0 -100 5 -131 27 -170c16 -30 54 -50 95 -50c57 0 96 26 144 97zM274 201l-1 52c-121 -44 -148 -68 -148 -128c0 -48 30 -87 67 -87
c36 0 101 32 101 50c0 1 0 2 -1 3c-11 36 -17 73 -18 110zM355 307h166c-2 88 -25 124 -79 124c-57 0 -82 -36 -87 -124zM302 507h-40l147 148c18 18 27 23 42 23c22 0 35 -12 35 -32c0 -16 -9 -29 -30 -42z" />
    <glyph glyph-name="Oslashacute" unicode="&#x1fe;" 
d="M658 734l-88 -130c41 -38 58 -58 76 -93c27 -50 42 -115 42 -179c0 -205 -134 -346 -329 -346c-67 0 -113 13 -175 50l-79 -116h-49l95 139c-42 38 -58 58 -76 93c-26 50 -41 114 -41 178c0 203 135 346 328 346c66 0 111 -13 175 -49l72 107h49zM527 540l-308 -452
c43 -47 84 -66 142 -66c132 0 213 117 213 308c0 89 -13 145 -47 210zM194 123l308 452c-44 46 -85 65 -141 65c-131 0 -213 -119 -213 -310c0 -88 12 -143 46 -207zM328 728h-40l147 148c18 18 27 23 42 23c22 0 35 -12 35 -32c0 -16 -9 -29 -30 -42z" />
    <glyph glyph-name="oslashacute" unicode="&#x1ff;" horiz-adv-x="500" 
d="M437 551l-65 -125c31 -22 44 -34 60 -58c24 -37 38 -86 38 -134c0 -139 -96 -244 -223 -244c-35 0 -58 5 -93 21l-65 -123h-37l73 140c-34 27 -47 42 -63 69c-21 38 -33 84 -33 130c0 136 91 233 220 233c33 0 57 -5 92 -18l57 109h39zM340 366l-161 -306
c25 -30 48 -42 82 -42c75 0 119 68 119 185c0 64 -11 109 -40 163zM158 92l159 304c-27 26 -49 36 -80 36c-71 0 -118 -62 -118 -156c0 -69 12 -126 39 -184zM198 507h-40l147 148c18 18 27 23 42 23c22 0 35 -12 35 -32c0 -16 -9 -29 -30 -42z" />
    <glyph glyph-name="Scommaaccent" unicode="&#x218;" horiz-adv-x="556" 
d="M479 464h-27c-17 56 -31 83 -57 110c-37 40 -76 58 -125 58c-64 0 -104 -36 -104 -93c0 -47 22 -72 108 -124l55 -33c66 -39 82 -50 106 -72c46 -39 66 -81 66 -134c0 -110 -89 -189 -212 -189c-39 0 -75 8 -128 28c-16 6 -20 7 -29 7c-19 0 -26 -7 -29 -31h-24l-30 214
h24c18 -48 33 -74 55 -101c39 -47 95 -74 151 -74c68 0 117 46 117 110c0 57 -36 103 -116 148l-52 29c-35 20 -73 46 -94 66c-35 30 -56 79 -56 126c0 97 78 166 189 166c36 0 64 -6 96 -19c27 -11 29 -12 38 -12c17 0 18 2 33 31h23zM227 -309l-12 18c47 28 81 72 81 104
c0 10 -7 17 -17 17c-4 0 -5 0 -13 -2c-5 -1 -11 -2 -15 -2c-28 0 -52 25 -52 54c0 32 27 57 62 57c44 0 78 -41 78 -97c0 -58 -39 -110 -112 -149z" />
    <glyph glyph-name="scommaaccent" unicode="&#x219;" horiz-adv-x="389" 
d="M321 449v-137h-19c-17 77 -55 119 -109 119c-42 0 -74 -27 -74 -62c0 -36 23 -58 109 -106c97 -54 124 -86 124 -144c0 -75 -61 -130 -145 -130c-24 0 -37 3 -74 16c-18 6 -27 8 -39 8c-13 0 -20 -4 -24 -14h-15v155h19c11 -49 23 -76 46 -99c24 -25 52 -37 82 -37
c46 0 79 28 79 67c0 37 -24 63 -92 100c-105 57 -136 91 -136 151c0 71 60 123 142 123c22 0 38 -4 62 -14c15 -7 24 -9 32 -9c9 0 12 2 17 13h15zM145 -309l-11 18c46 28 81 72 81 104c0 10 -7 17 -17 17c-4 0 -5 0 -13 -2c-5 -1 -11 -2 -15 -2c-28 0 -52 25 -52 54
c0 32 27 57 62 57c44 0 78 -41 78 -97c0 -58 -39 -110 -113 -149z" />
    <glyph glyph-name="uni021A" unicode="&#x21a;" horiz-adv-x="611" 
d="M452 19v-19h-292v19c84 5 93 15 94 101v500h-54c-115 -2 -136 -19 -159 -128h-24l6 170h564l6 -170h-24c-22 109 -43 126 -159 128h-54v-511c1 -73 14 -86 96 -90zM263 -281l-9 19c54 37 82 74 82 106c0 8 -6 14 -14 14c-1 0 -2 0 -7 -2c-6 -1 -13 -2 -20 -2
c-37 0 -59 19 -59 51c0 34 24 57 59 57c45 0 80 -39 80 -89c0 -60 -45 -121 -112 -154z" />
    <glyph glyph-name="uni021B" unicode="&#x21b;" horiz-adv-x="278" 
d="M255 450v-32h-101v-286c0 -63 15 -90 52 -90c22 0 38 9 60 35l13 -11c-33 -52 -71 -76 -120 -76c-59 0 -89 43 -89 127v301h-53c-3 2 -4 4 -4 7c0 6 6 12 17 19c29 17 59 51 117 135c5 0 7 -3 7 -13v-116h101zM106 -281l-9 19c54 37 82 73 82 106c0 8 -6 14 -14 14
c-1 0 -2 0 -7 -2c-6 -1 -13 -2 -20 -2c-37 0 -59 19 -59 51c0 34 24 57 59 57c45 0 80 -39 80 -89c0 -60 -45 -121 -112 -154z" />
    <glyph glyph-name="circumflex" unicode="&#x2c6;" horiz-adv-x="333" 
d="M322 507h-34l-122 103l-121 -103h-34l124 167h62z" />
    <glyph glyph-name="caron" unicode="&#x2c7;" horiz-adv-x="333" 
d="M322 674l-125 -167h-62l-124 167h34l121 -103l122 103h34z" />
    <glyph glyph-name="uni02C9" unicode="&#x2c9;" horiz-adv-x="333" 
d="M16 594h300v-49h-300v49z" />
    <glyph glyph-name="breve" unicode="&#x2d8;" horiz-adv-x="333" 
d="M278 664h29c-12 -106 -58 -157 -142 -157c-48 0 -87 19 -112 54c-19 28 -26 52 -27 103h29c14 -67 48 -97 112 -97c58 0 82 21 111 97z" />
    <glyph glyph-name="dotaccent" unicode="&#x2d9;" horiz-adv-x="333" 
d="M166 623c27 0 50 -23 50 -50c0 -28 -23 -50 -50 -50s-48 22 -48 51c0 26 22 49 48 49z" />
    <glyph glyph-name="ring" unicode="&#x2da;" horiz-adv-x="333" 
d="M166 711c55 0 100 -45 100 -100s-45 -99 -100 -99c-56 0 -99 44 -99 100c0 54 45 99 99 99zM167 677c-36 0 -66 -29 -66 -65c0 -37 29 -66 64 -66c38 0 67 29 67 65s-30 66 -65 66z" />
    <glyph glyph-name="ogonek" unicode="&#x2db;" horiz-adv-x="333" 
d="M229 -73l20 -16c-37 -53 -71 -76 -112 -76c-42 0 -73 33 -73 75c0 33 16 60 54 90h46c-31 -25 -44 -46 -44 -69c0 -24 16 -40 38 -40c21 0 40 9 71 36z" />
    <glyph glyph-name="tilde" unicode="&#x2dc;" horiz-adv-x="333" 
d="M302 638h29c-21 -76 -50 -106 -105 -106c-25 0 -40 4 -81 24l-23 11c-15 7 -29 11 -41 11c-23 0 -40 -15 -51 -46h-29c15 65 51 101 101 101c22 0 47 -6 70 -18l24 -12c19 -9 38 -15 53 -15c23 0 36 12 53 50z" />
    <glyph glyph-name="hungarumlaut" unicode="&#x2dd;" horiz-adv-x="333" 
d="M186 507h-40l147 148c18 18 27 23 42 23c22 0 35 -12 35 -32c0 -16 -9 -29 -30 -42zM30 507h-40l147 148c18 18 27 23 42 23c22 0 35 -12 35 -32c0 -16 -9 -29 -30 -42z" />
    <glyph glyph-name="tonos" unicode="&#x384;" horiz-adv-x="333" 
d="M154 503l-10 40c-13 51 -14 57 -14 76c0 33 13 50 37 50s37 -17 37 -50c0 -20 -1 -23 -14 -76l-10 -40h-26z" />
    <glyph glyph-name="dieresistonos" unicode="&#x385;" horiz-adv-x="333" 
d="M154 593l-12 38c-6 20 -11 45 -11 58c0 26 14 44 35 44c23 0 35 -16 35 -48c0 -14 -3 -29 -11 -54l-11 -38h-25zM91 582c23 0 43 -20 43 -44s-20 -44 -44 -44s-44 20 -44 44c0 25 20 44 45 44zM243 582c23 0 43 -20 43 -44s-20 -44 -44 -44s-44 20 -44 44
c0 25 20 44 45 44z" />
    <glyph glyph-name="Alphatonos" unicode="&#x386;" 
d="M371 669l228 -534c36 -88 62 -117 107 -117h13v-18h-278v19h16c36 0 55 13 55 37c0 15 -4 31 -17 64l-38 97h-242l-42 -105c-10 -25 -17 -49 -17 -56c0 -23 23 -37 59 -37h12v-19h-221v18c66 2 77 12 117 106l236 545h12zM234 258h207l-107 238zM153 487l-11 44
c-14 57 -15 62 -15 82c0 37 14 56 41 56c26 0 40 -19 40 -55c0 -20 -1 -28 -16 -83l-10 -44h-29z" />
    <glyph glyph-name="uni0387" unicode="&#x387;" horiz-adv-x="250" 
d="M125 310c30 0 56 -26 56 -57c0 -30 -26 -54 -57 -54c-29 0 -54 25 -54 54c0 32 25 57 55 57z" />
    <glyph glyph-name="Epsilontonos" unicode="&#x388;" horiz-adv-x="694" 
d="M25 487l-11 44c-14 55 -15 62 -15 83c0 36 14 55 41 55c26 0 40 -19 40 -55c0 -21 -1 -28 -16 -83l-10 -44h-29zM310 329v-213c0 -63 6 -72 54 -71h119c105 2 145 30 185 129l17 -7l-57 -167h-514v18l23 1c53 2 68 21 68 85v455c0 63 -15 82 -68 84l-23 1v18h504l10 -150
l-17 -1c-12 90 -44 114 -148 112h-153v-249h167c56 -1 78 26 76 99h18v-241h-18c2 70 -18 96 -76 97h-167z" />
    <glyph glyph-name="Etatonos" unicode="&#x389;" horiz-adv-x="808" 
d="M22 487l-11 44c-14 55 -15 62 -15 83c0 36 14 55 41 55c26 0 40 -19 40 -55c0 -21 -1 -28 -16 -83l-10 -44h-29zM309 315v-211c0 -64 16 -83 68 -85l23 -1v-18h-287v18l23 1c53 2 68 21 68 85v455c0 63 -15 82 -68 84l-23 1v18h287v-18l-23 -1c-53 -2 -68 -21 -68 -84
v-199h296v199c0 63 -15 82 -68 84l-23 1v18h287v-18l-23 -1c-53 -2 -68 -21 -68 -84v-455c0 -64 16 -83 68 -85l23 -1v-18h-287v18l23 1c53 2 68 21 68 85v211h-296z" />
    <glyph glyph-name="Iotatonos" unicode="&#x38a;" horiz-adv-x="411" 
d="M24 487l-11 44c-14 55 -15 62 -15 83c0 36 14 55 41 55c26 0 40 -19 40 -55c0 -21 -1 -28 -16 -83l-10 -44h-29zM113 644v18h287v-18l-23 -1c-53 -2 -68 -21 -68 -84v-456c0 -63 15 -82 68 -84l23 -1v-18h-287v18l23 1c53 2 68 21 68 84v456c0 63 -15 82 -68 84z" />
    <glyph glyph-name="Omicrontonos" unicode="&#x38c;" 
d="M22 487l-11 44c-14 55 -15 62 -15 83c0 36 14 55 41 55c26 0 40 -19 40 -55c0 -21 -1 -28 -16 -83l-10 -44h-29zM375 669c183 0 319 -144 319 -337c0 -97 -33 -183 -94 -247c-61 -62 -132 -92 -225 -92c-180 0 -315 145 -315 338s135 338 315 338zM374 630
c-118 0 -197 -121 -197 -299c0 -177 80 -299 197 -299c123 0 203 119 203 300c0 177 -83 298 -203 298z" />
    <glyph glyph-name="Upsilontonos" unicode="&#x38e;" horiz-adv-x="816" 
d="M49 487l-11 44c-14 55 -15 62 -15 83c0 36 14 55 41 55c26 0 40 -19 40 -55c0 -21 -1 -28 -16 -83l-10 -44h-29zM424 282l-163 260c-42 73 -66 93 -115 100l-23 2v18h301v-18h-14c-37 0 -55 -10 -55 -32c0 -16 8 -35 27 -65l130 -205l129 218c17 28 22 42 22 55
c0 18 -14 28 -41 28l-21 1v18h223v-18l-11 -1c-53 -3 -87 -33 -137 -119l-144 -242v-179c0 -63 15 -82 69 -84l27 -1v-18h-298v18l25 1c53 2 69 21 69 84v179z" />
    <glyph glyph-name="Omegatonos" unicode="&#x38f;" horiz-adv-x="743" 
d="M30 487l-11 44c-14 55 -15 62 -15 83c0 36 14 55 41 55c26 0 40 -19 40 -55c0 -21 -1 -28 -16 -83l-10 -44h-29zM744 168l-37 -168h-253v74c83 38 135 148 135 287c0 158 -82 269 -198 269s-198 -112 -198 -271c0 -82 18 -153 53 -208c25 -41 44 -58 82 -77v-74h-253
l-38 168l17 3c29 -76 57 -97 132 -99h103c-42 17 -78 42 -116 79c-61 59 -93 133 -93 215c0 168 138 303 311 303c174 0 311 -134 311 -304c0 -126 -79 -236 -210 -293h104c74 2 102 23 131 99z" />
    <glyph glyph-name="iotadieresistonos" unicode="&#x390;" horiz-adv-x="269" 
d="M173 467v-333c0 -64 8 -81 39 -81c11 0 17 2 30 10l6 -14l-103 -54c-5 -3 -10 -5 -13 -5c-4 0 -11 6 -19 15c-16 18 -19 30 -19 65v252c0 55 -7 69 -34 69c-7 0 -14 -1 -22 -3l-6 -2l-6 15c70 28 80 33 147 66zM122 593l-12 38c-6 20 -11 45 -11 58c0 26 14 44 35 44
c23 0 35 -16 35 -48c0 -14 -3 -29 -11 -54l-11 -38h-25zM59 582c23 0 43 -20 43 -44s-20 -44 -44 -44s-44 20 -44 44c0 25 20 44 45 44zM211 582c23 0 43 -20 43 -44s-20 -44 -44 -44s-44 20 -44 44c0 25 20 44 45 44z" />
    <glyph glyph-name="Alpha" unicode="&#x391;" 
d="M371 669l228 -534c36 -88 62 -117 107 -117h13v-18h-278v19h16c36 0 55 13 55 37c0 15 -4 31 -17 64l-38 97h-242l-42 -105c-10 -25 -17 -49 -17 -56c0 -23 23 -37 59 -37h12v-19h-221v18c66 2 77 12 117 106l236 545h12zM234 258h207l-107 238z" />
    <glyph glyph-name="Beta" unicode="&#x392;" horiz-adv-x="667" 
d="M55 662h242c96 0 130 -6 173 -29c59 -31 95 -84 95 -140c0 -38 -17 -80 -43 -108c-16 -16 -30 -26 -63 -41c90 -31 133 -83 133 -161c0 -68 -40 -128 -104 -158c-48 -22 -76 -25 -232 -25h-201v18l23 1c52 2 68 21 68 84v456c0 63 -16 82 -68 84l-23 1v18zM251 620v-251
c25 -5 36 -6 54 -6c89 0 143 48 143 129c0 80 -60 132 -153 132c-14 0 -24 -1 -44 -4zM251 318v-268c29 -7 42 -9 66 -9c90 0 152 58 152 142c0 87 -64 142 -165 142c-18 0 -29 -1 -53 -7z" />
    <glyph glyph-name="Gamma" unicode="&#x393;" horiz-adv-x="578" 
d="M277 20v-20h-282v20c74 6 89 21 89 88v446c0 67 -15 82 -89 88v20h537l49 -175h-28c-38 94 -89 129 -192 132h-113c-48 -4 -62 -17 -60 -57v-454c0 -67 15 -82 89 -88z" />
    <glyph glyph-name="uni0394" unicode="&#x394;" horiz-adv-x="643" 
d="M325 669l295 -669h-596l292 669h9zM478 76l-183 426l-162 -374c-7 -15 -11 -30 -11 -37c0 -11 9 -15 33 -15h323z" />
    <glyph glyph-name="Epsilon" unicode="&#x395;" horiz-adv-x="611" 
d="M218 329v-213c0 -63 6 -72 53 -71h119c105 2 145 30 185 129l16 -7l-57 -167h-512v18l23 1c52 2 68 21 68 85v455c0 63 -16 82 -68 84l-23 1v18h502l10 -150l-17 -1c-11 89 -43 114 -146 112h-153v-249h166c56 -1 77 26 76 99h18v-241h-18c2 70 -18 96 -76 97h-166z" />
    <glyph glyph-name="Zeta" unicode="&#x396;" horiz-adv-x="611" 
d="M424 617h-187c-113 2 -137 -18 -152 -130l-19 2l19 173h495l-416 -617h231c107 -4 156 34 178 139l19 -2l-36 -182h-550z" />
    <glyph glyph-name="Eta" unicode="&#x397;" 
d="M214 315v-211c0 -64 15 -83 68 -85l22 -1v-18h-286v18l23 1c52 2 68 21 68 85v455c0 63 -16 82 -68 84l-23 1v18h286v-18l-22 -1c-53 -2 -68 -21 -68 -84v-199h295v199c0 63 -16 82 -68 84l-23 1v18h286v-18l-22 -1c-53 -2 -68 -21 -68 -84v-455c0 -64 15 -83 68 -85
l22 -1v-18h-286v18l23 1c52 2 68 21 68 85v211h-295z" />
    <glyph glyph-name="Theta" unicode="&#x398;" 
d="M255 434h31c5 -48 26 -68 75 -68c48 0 69 20 74 68h31v-198h-31c0 47 -25 71 -74 71c-50 0 -75 -24 -75 -71h-31v198zM364 675c186 0 324 -147 324 -345c0 -199 -138 -343 -328 -343c-189 0 -327 145 -327 343c0 202 137 345 331 345zM355 637
c-130 0 -206 -112 -206 -302c0 -187 86 -310 216 -310c48 0 94 17 124 45c53 50 83 141 83 253c0 120 -34 215 -96 268c-34 30 -77 46 -121 46z" />
    <glyph glyph-name="Iota" unicode="&#x399;" horiz-adv-x="333" 
d="M24 644v18h286v-18l-22 -1c-53 -2 -68 -21 -68 -84v-456c0 -63 15 -82 68 -84l22 -1v-18h-286v18l23 1c52 2 68 21 68 84v456c0 63 -16 82 -68 84z" />
    <glyph glyph-name="Kappa" unicode="&#x39a;" 
d="M233 320v-217c-1 -63 15 -82 69 -84l23 -1v-18h-288v18l23 1c52 2 68 21 68 84v456c0 63 -16 82 -68 84l-23 1v18h288v-18l-19 -1c-58 -1 -73 -19 -73 -85v-212c137 122 234 235 234 271c0 20 -11 25 -58 26v19h243v-19l-14 -1c-57 -7 -80 -22 -147 -98
c-21 -23 -87 -94 -100 -107c-15 -16 -30 -32 -45 -47c-7 -8 -14 -15 -20 -22l228 -236c85 -87 128 -113 189 -114v-18h-318v18l16 1c27 1 42 10 42 25s-19 39 -69 90z" />
    <glyph glyph-name="Lambda" unicode="&#x39b;" horiz-adv-x="725" 
d="M373 669l228 -533c36 -89 62 -117 107 -118h13v-18h-278v19h16c36 0 55 13 55 38c0 17 -5 35 -17 63l-161 373l-161 -381c-8 -20 -17 -48 -17 -56c0 -23 23 -37 59 -37h12v-19h-221v18c66 3 77 12 117 106l236 545h12z" />
    <glyph glyph-name="Mu" unicode="&#x39c;" horiz-adv-x="889" 
d="M410 0l-238 525v-422c0 -63 15 -82 68 -84l24 -1v-18h-232v18l23 1c52 2 68 21 68 84v456c0 63 -16 82 -68 84l-23 1v18h191l224 -491l215 491h195v-18l-22 -1c-53 -2 -68 -21 -68 -84v-456c0 -63 15 -82 68 -84l22 -1v-18h-283v18l19 1c53 2 69 21 69 84v428l-236 -531
h-16z" />
    <glyph glyph-name="Nu" unicode="&#x39d;" 
d="M606 0l-445 515v-412c0 -63 15 -82 68 -84l23 -1v-18h-231v18l23 1c53 2 68 21 68 84v471c-59 61 -72 68 -127 70v18h196l392 -457v354c0 63 -15 82 -68 84l-23 1v18h231v-18l-23 -1c-53 -2 -68 -21 -68 -84v-559h-16z" />
    <glyph glyph-name="Xi" unicode="&#x39e;" horiz-adv-x="643" 
d="M148 231v241h18c-2 -57 19 -78 76 -77h159c57 -1 77 20 76 77h18v-241h-18c2 63 -17 85 -76 86h-159c-59 -1 -78 -23 -76 -86h-18zM95 510l-17 2l10 150h466l10 -150l-17 -2c-9 62 -34 78 -114 77h-224c-80 1 -105 -15 -114 -77zM92 0l-41 169l17 4
c29 -71 58 -90 135 -92h238c76 2 105 22 135 92l17 -4l-41 -169h-460z" />
    <glyph glyph-name="Omicron" unicode="&#x39f;" 
d="M359 669c183 0 319 -144 319 -337c0 -97 -33 -183 -94 -247c-60 -62 -132 -92 -225 -92c-180 0 -315 145 -315 338s135 338 315 338zM358 630c-117 0 -197 -121 -197 -299c0 -177 80 -299 197 -299c123 0 203 119 203 300c0 177 -83 298 -203 298z" />
    <glyph glyph-name="Pi" unicode="&#x3a0;" 
d="M704 662v-18l-22 -1c-53 -2 -68 -21 -68 -84v-456c0 -63 15 -82 68 -84l22 -1v-18h-286v18l23 1c52 2 68 21 68 84v442c0 63 -16 83 -68 85h-159c-52 -2 -68 -22 -68 -85v-442c0 -63 15 -82 68 -84l22 -1v-18h-286v18l23 1c52 2 68 21 68 84v456c0 63 -16 82 -68 84
l-23 1v18h686z" />
    <glyph glyph-name="Rho" unicode="&#x3a1;" horiz-adv-x="556" 
d="M217 316v-213c0 -63 15 -82 68 -84l24 -1v-18h-288v18l23 1c52 2 68 21 68 84v456c0 63 -16 82 -68 84l-23 1v18h214c126 -1 146 -3 187 -21c74 -34 111 -87 111 -164c0 -53 -20 -99 -55 -127c-41 -33 -100 -52 -161 -52c-35 0 -62 5 -100 18zM217 614v-260
c25 -10 43 -14 66 -14c80 0 133 55 133 140c0 86 -56 144 -141 144c-22 0 -36 -2 -58 -10z" />
    <glyph glyph-name="Sigma" unicode="&#x3a3;" horiz-adv-x="582" 
d="M536 662v-205h-31c-9 117 -75 168 -212 164h-112l147 -287l-141 -281h115c129 -2 198 45 252 173h31l-49 -226h-491l170 310l-170 352h491z" />
    <glyph glyph-name="Tau" unicode="&#x3a4;" horiz-adv-x="611" 
d="M162 0v18l22 1c54 2 69 21 69 85v510h-89c-85 1 -118 -30 -122 -114l-19 2l10 160h545l10 -160l-19 -2c-4 84 -37 115 -122 114h-89v-510c0 -64 15 -83 69 -85l22 -1v-18h-287z" />
    <glyph glyph-name="Upsilon" unicode="&#x3a5;" 
d="M315 282l-163 260c-42 73 -65 93 -115 100l-23 2v18h301v-18h-14c-37 0 -55 -10 -55 -32c0 -16 8 -35 27 -65l130 -205l129 218c17 28 22 42 22 55c0 18 -14 28 -41 28l-21 1v18h223v-18l-11 -1c-53 -3 -87 -33 -137 -119l-144 -242v-179c0 -63 16 -82 69 -84l27 -1v-18
h-298v18l25 1c54 2 69 21 69 84v179z" />
    <glyph glyph-name="Phi" unicode="&#x3a6;" horiz-adv-x="731" 
d="M314 590v12c1 57 -10 69 -68 71l-23 1v18h285v-18l-23 -1c-58 -2 -69 -14 -68 -71v-12c173 -20 287 -123 287 -259s-119 -243 -287 -259v-12c-1 -57 10 -69 68 -71l23 -1v-18h-285v18l23 1c58 2 69 14 68 71v12c-168 16 -287 123 -287 259s116 241 287 259zM314 100v463
c-106 -21 -170 -108 -170 -232s62 -209 170 -231zM417 562v-463c106 22 170 109 170 232s-62 207 -170 231z" />
    <glyph glyph-name="Chi" unicode="&#x3a7;" 
d="M319 324l-139 208c-57 83 -80 103 -125 109l-22 3v18h296v-18c-25 -1 -31 -2 -39 -4c-13 -4 -22 -18 -22 -34c0 -12 6 -27 16 -42l103 -154l121 159c17 22 22 32 22 42c0 21 -17 33 -48 33h-16v18h223v-18l-12 -1c-53 -4 -60 -9 -133 -103l-130 -171l159 -233
c61 -90 86 -112 126 -116l21 -2v-18h-291v18c46 1 61 9 61 33c0 15 -7 33 -24 57l-118 173l-142 -186c-18 -24 -23 -34 -23 -46c0 -16 16 -27 41 -29l21 -2v-18h-244v18c80 1 100 15 182 125z" />
    <glyph glyph-name="Psi" unicode="&#x3a8;" horiz-adv-x="738" 
d="M226 662h287v-18l-23 -1c-53 -2 -68 -21 -68 -84v-306c44 10 61 19 90 47c40 44 50 80 53 184c1 79 4 102 15 127c16 39 45 58 88 58c24 0 47 -5 72 -14l-8 -21c-10 5 -16 6 -24 6c-18 0 -29 -8 -33 -27c-3 -9 -3 -9 -7 -106c-1 -116 -26 -173 -98 -233
c-44 -33 -83 -46 -148 -52v-119c0 -63 15 -82 68 -84l23 -1v-18h-287v18l23 1c53 2 68 21 68 84v119c-82 7 -136 32 -184 86c-54 69 -60 92 -65 253c-3 67 -8 79 -37 79c-9 0 -14 -1 -25 -6l-7 21c25 9 48 14 72 14c46 0 76 -22 91 -67c8 -23 11 -46 12 -118
c3 -104 13 -140 53 -184c29 -28 46 -37 90 -47v306c0 63 -15 82 -68 84l-23 1v18z" />
    <glyph glyph-name="uni03A9" unicode="&#x3a9;" horiz-adv-x="743" 
d="M302 142l15 -142h-295v163h17c12 -50 23 -60 71 -60h148v14c-63 18 -102 39 -135 70c-51 48 -82 125 -82 201c0 80 36 160 97 212c57 49 139 75 234 75c94 0 176 -26 233 -75c61 -52 97 -132 97 -212c0 -83 -37 -165 -95 -213c-31 -25 -67 -42 -122 -58v-14h148
c48 0 60 10 71 60h17v-163h-295l15 142c43 16 65 31 87 59c35 47 54 111 54 188c0 84 -22 151 -64 197c-33 36 -83 55 -146 55c-64 0 -114 -19 -147 -55c-42 -46 -64 -114 -64 -196c0 -77 19 -142 54 -189c22 -28 44 -43 87 -59z" />
    <glyph glyph-name="Iotadieresis" unicode="&#x3aa;" horiz-adv-x="333" 
d="M23 644v18h287v-18l-23 -1c-53 -2 -68 -21 -68 -84v-456c0 -63 15 -82 68 -84l23 -1v-18h-287v18l23 1c53 2 68 21 68 84v456c0 63 -15 82 -68 84zM74 821c28 0 51 -23 51 -51c0 -29 -23 -52 -52 -52c-28 0 -51 23 -51 52c0 28 23 51 52 51zM259 821c28 0 51 -23 51 -51
c0 -29 -23 -52 -52 -52c-28 0 -51 23 -51 52c0 28 23 51 52 51z" />
    <glyph glyph-name="Upsilondieresis" unicode="&#x3ab;" 
d="M315 282l-163 260c-42 73 -65 93 -115 100l-23 2v18h301v-18h-14c-37 0 -55 -10 -55 -32c0 -16 8 -35 27 -65l130 -205l129 218c17 28 22 42 22 55c0 18 -14 28 -41 28l-21 1v18h223v-18l-11 -1c-53 -3 -87 -33 -137 -119l-144 -242v-179c0 -63 16 -82 69 -84l27 -1v-18
h-298v18l25 1c54 2 69 21 69 84v179zM308 821c28 0 51 -24 51 -51c0 -29 -23 -52 -52 -52c-28 0 -51 23 -51 52c0 28 23 51 52 51zM494 821c28 0 51 -24 51 -51c0 -29 -23 -52 -52 -52c-28 0 -51 23 -51 52c0 28 23 51 52 51z" />
    <glyph glyph-name="alphatonos" unicode="&#x3ac;" horiz-adv-x="524" 
d="M220 503l-9 40c-14 53 -15 57 -15 76c0 33 13 50 37 50s37 -17 37 -50c0 -19 -1 -26 -14 -76l-10 -40h-26zM519 452l-98 -283c17 -75 46 -112 86 -112c10 0 18 2 35 9v-36l-91 -41c-7 -3 -12 -5 -15 -5c-7 0 -18 9 -29 26c-16 23 -23 43 -29 81
c-42 -72 -99 -107 -174 -107c-103 0 -175 90 -175 218c0 149 93 270 208 270c49 0 87 -24 112 -70c9 -18 14 -32 29 -80l39 131zM334 187l22 73c-21 78 -29 103 -43 126c-20 34 -43 49 -72 49c-67 0 -108 -85 -108 -223c0 -117 35 -197 86 -197c41 0 78 55 115 172z" />
    <glyph glyph-name="epsilontonos" unicode="&#x3ad;" horiz-adv-x="420" 
d="M368 445l-13 -75c-45 19 -82 27 -126 27c-64 0 -100 -27 -100 -75c0 -22 7 -39 24 -54c35 13 57 18 83 18c35 0 58 -13 58 -33s-19 -33 -49 -33c-31 0 -60 7 -92 21c-23 -31 -31 -52 -31 -81c0 -68 51 -118 118 -118s115 41 140 119l19 -3c-20 -104 -90 -165 -190 -165
c-97 0 -167 57 -167 137c0 53 22 85 86 126c-50 29 -71 57 -71 94c0 64 75 113 171 113c45 0 93 -6 140 -18zM216 503l-9 40c-13 52 -14 57 -14 75c0 34 13 51 36 51c24 0 37 -18 37 -50c0 -19 -1 -26 -14 -76l-9 -40h-27z" />
    <glyph glyph-name="etatonos" unicode="&#x3ae;" horiz-adv-x="523" 
d="M177 467v-88c57 59 104 84 152 84c41 0 78 -22 93 -57c14 -30 18 -57 18 -123v-462h-79v464c0 92 -15 117 -70 117c-36 0 -63 -14 -114 -59v-343h-79v320c0 57 -7 70 -36 70c-8 0 -14 -1 -21 -3l-10 -4l-7 14c73 31 84 36 153 70zM248 503l-9 40c-14 54 -14 57 -14 76
c0 33 13 50 37 50s37 -17 37 -50c0 -19 -1 -25 -15 -76l-9 -40h-27z" />
    <glyph glyph-name="iotatonos" unicode="&#x3af;" horiz-adv-x="269" 
d="M174 467v-333c0 -64 8 -81 38 -81c11 0 18 2 31 10l6 -14l-103 -54c-6 -3 -10 -5 -13 -5c-4 0 -11 6 -20 15c-15 18 -18 30 -18 65v252c0 55 -7 69 -34 69c-7 0 -15 -1 -22 -3l-7 -2l-5 15c69 28 80 33 147 66zM121 503l-9 40c-14 54 -14 56 -14 75c0 34 12 51 37 51
c24 0 37 -17 37 -50c0 -19 -1 -25 -15 -76l-9 -40h-27z" />
    <glyph glyph-name="upsilondieresistonos" unicode="&#x3b0;" horiz-adv-x="495" 
d="M33 396l-6 14l103 54c4 2 8 3 11 3c7 0 17 -8 27 -22s13 -26 13 -56v-209c0 -48 4 -72 15 -90c12 -19 36 -30 64 -30c80 0 138 71 138 168c0 33 -6 64 -18 87c-8 17 -14 24 -41 48c-22 20 -32 36 -32 55c0 24 20 45 45 45c50 0 88 -86 88 -201c0 -83 -20 -145 -61 -194
c-42 -49 -93 -75 -147 -75c-82 0 -130 54 -130 147v184c0 65 -8 82 -39 82c-11 0 -18 -2 -30 -10zM235 593l-11 38c-8 25 -12 45 -12 58c0 26 14 44 35 44c24 0 36 -16 36 -48c0 -14 -3 -27 -11 -54l-12 -38h-25zM173 582c23 0 43 -20 43 -44s-20 -44 -44 -44
c-25 0 -44 20 -44 44c0 25 20 44 45 44zM325 582c23 0 43 -20 43 -44s-20 -44 -44 -44s-44 20 -44 44c0 25 20 44 45 44z" />
    <glyph glyph-name="alpha" unicode="&#x3b1;" horiz-adv-x="524" 
d="M519 452l-98 -283c17 -75 46 -112 86 -112c10 0 18 2 35 9v-36l-91 -41c-7 -3 -12 -5 -15 -5c-7 0 -18 9 -29 26c-16 23 -23 43 -29 81c-42 -72 -99 -107 -174 -107c-103 0 -175 90 -175 218c0 149 93 270 208 270c49 0 87 -24 112 -70c9 -18 14 -32 29 -80l39 131z
M334 187l22 73c-21 78 -29 103 -43 126c-20 34 -43 49 -72 49c-67 0 -108 -85 -108 -223c0 -117 35 -197 86 -197c41 0 78 55 115 172z" />
    <glyph glyph-name="beta" unicode="&#x3b2;" horiz-adv-x="509" 
d="M157 50v-229h-79v565c0 106 9 147 41 194c40 58 101 89 176 89c81 0 135 -44 135 -110c0 -49 -26 -89 -83 -129c75 -38 116 -110 116 -203c0 -130 -86 -234 -194 -234c-44 0 -72 14 -112 57zM157 404v-316c37 -45 61 -59 98 -59c74 0 127 79 127 190
c0 80 -19 134 -68 189c-36 -20 -60 -28 -82 -28c-19 0 -33 12 -33 26c0 24 30 40 74 40c14 0 24 -2 41 -7c37 44 47 66 47 105c0 52 -36 90 -86 90c-42 0 -78 -27 -99 -74c-13 -31 -19 -78 -19 -156z" />
    <glyph glyph-name="gamma" unicode="&#x3b3;" horiz-adv-x="442" 
d="M-14 389l-8 13l79 60c5 3 8 5 9 5c10 1 42 -37 63 -72c37 -66 91 -221 112 -323l68 142c37 76 41 87 41 118c0 16 -1 19 -16 60c-4 9 -6 20 -6 27c0 25 21 44 47 44c31 0 53 -25 53 -59c0 -25 -8 -55 -22 -86c-8 -17 -17 -35 -28 -55c-14 -24 -23 -41 -26 -48l-99 -198
c9 -42 13 -72 13 -100c0 -61 -22 -102 -55 -102c-28 0 -51 36 -51 81c0 35 7 64 30 128c-15 70 -47 161 -92 261c-34 76 -63 112 -90 112c-7 0 -12 -2 -22 -8z" />
    <glyph glyph-name="delta" unicode="&#x3b4;" horiz-adv-x="471" 
d="M399 630v-60c-91 46 -179 74 -236 74c-26 0 -41 -8 -41 -22s13 -28 45 -50l72 -51c77 -53 89 -63 121 -91c70 -62 96 -115 96 -194c0 -139 -99 -247 -225 -247c-124 0 -215 96 -215 228c0 121 77 219 190 239l-88 67c-44 33 -59 54 -59 82c0 42 42 70 105 70
c59 0 132 -14 235 -45zM222 426c-71 0 -113 -63 -113 -170c0 -70 18 -140 48 -184c21 -31 57 -50 94 -50c71 0 112 63 112 172c0 137 -58 232 -141 232z" />
    <glyph glyph-name="epsilon" unicode="&#x3b5;" horiz-adv-x="420" 
d="M368 445l-13 -75c-45 19 -82 27 -126 27c-64 0 -100 -27 -100 -75c0 -22 7 -39 24 -54c35 13 57 18 83 18c35 0 58 -13 58 -33s-19 -33 -49 -33c-31 0 -60 7 -92 21c-23 -31 -31 -52 -31 -81c0 -68 51 -118 118 -118s115 41 140 119l19 -3c-20 -104 -90 -165 -190 -165
c-97 0 -167 57 -167 137c0 53 22 85 86 126c-50 29 -71 57 -71 94c0 64 75 113 171 113c45 0 93 -6 140 -18z" />
    <glyph glyph-name="zeta" unicode="&#x3b6;" horiz-adv-x="414" 
d="M122 682l16 -8c-12 -14 -17 -24 -17 -34c0 -27 34 -55 96 -78c62 54 108 79 151 79c22 0 41 -14 41 -30c0 -41 -76 -82 -150 -82c-11 0 -20 0 -33 1c-77 -112 -113 -217 -113 -332c0 -81 37 -127 104 -127c15 0 41 2 67 4c16 2 31 3 38 3c50 0 78 -30 78 -82
c0 -79 -65 -152 -137 -152c-32 0 -55 18 -55 43c0 21 16 37 38 37c9 0 18 -2 33 -7c12 -4 17 -5 24 -5c32 0 58 25 58 56c0 22 -14 36 -38 36c-7 0 -18 -1 -29 -2c-40 -4 -56 -5 -77 -5c-55 0 -94 14 -128 45c-38 36 -55 80 -55 145c0 125 53 240 160 350
c-70 22 -128 61 -128 86c0 3 2 7 4 10z" />
    <glyph glyph-name="eta" unicode="&#x3b7;" horiz-adv-x="523" 
d="M181 467v-88c57 59 104 84 152 84c41 0 78 -22 93 -57c14 -30 18 -57 18 -123v-462h-79v464c0 92 -15 117 -70 117c-36 0 -63 -14 -114 -59v-343h-79v320c0 57 -7 70 -36 70c-8 0 -14 -1 -21 -3l-10 -4l-7 14c73 31 84 36 153 70z" />
    <glyph glyph-name="theta" unicode="&#x3b8;" horiz-adv-x="479" 
d="M244 669c116 0 202 -141 202 -330c0 -194 -92 -346 -210 -346c-61 0 -114 36 -149 102c-35 64 -54 145 -54 229c0 96 24 186 67 253c39 62 86 92 144 92zM123 383h231c-13 161 -57 251 -123 251c-62 0 -100 -89 -108 -251zM356 346h-234c0 -196 48 -318 125 -318
c67 0 110 109 110 279c0 13 0 23 -1 39z" />
    <glyph glyph-name="iota" unicode="&#x3b9;" horiz-adv-x="269" 
d="M174 467v-333c0 -64 8 -81 38 -81c11 0 18 2 31 10l6 -14l-103 -54c-6 -3 -10 -5 -13 -5c-4 0 -11 6 -20 15c-15 18 -18 30 -18 65v252c0 55 -7 69 -34 69c-7 0 -15 -1 -22 -3l-7 -2l-5 15c69 28 80 33 147 66z" />
    <glyph glyph-name="kappa" unicode="&#x3ba;" horiz-adv-x="504" 
d="M181 467v-208l6 8c127 157 170 196 219 196c27 0 47 -18 47 -43c0 -26 -21 -50 -44 -50c-4 0 -12 1 -22 3c-7 1 -13 1 -19 1c-34 0 -52 -14 -124 -97l109 -149c9 -13 34 -40 49 -56c13 -12 26 -19 40 -19c8 0 15 2 28 7l6 -15l-97 -50c-6 -3 -11 -5 -14 -5
c-5 0 -10 4 -16 12l-168 234v-236h-79v322c0 56 -7 69 -36 69c-7 0 -13 -1 -20 -3l-11 -4l-7 14c73 30 84 35 153 69z" />
    <glyph glyph-name="lambda" unicode="&#x3bb;" horiz-adv-x="485" 
d="M454 64l7 -14l-83 -59c-2 -1 -5 -2 -7 -2c-13 0 -32 38 -53 109l-71 236l-139 -334h-85l190 437c-15 52 -25 80 -36 98c-12 22 -32 35 -52 35c-4 0 -11 -1 -19 -3c-7 -1 -15 -2 -20 -2c-26 0 -47 22 -47 50s20 47 49 47c31 0 64 -19 91 -52c25 -29 44 -71 70 -153
l94 -287c27 -84 49 -115 81 -115c9 0 17 2 30 9z" />
    <glyph glyph-name="uni03BC" unicode="&#x3bc;" horiz-adv-x="536" 
d="M431 450v-318c0 -65 8 -82 39 -82c11 0 18 3 30 11l6 -14l-103 -52c-6 -3 -11 -5 -13 -5c-4 0 -11 5 -19 15c-16 17 -19 28 -19 62v17c-30 -34 -35 -39 -50 -52c-27 -25 -62 -39 -95 -39c-47 0 -77 25 -96 79c2 -65 4 -82 23 -163c4 -16 6 -33 6 -44
c0 -30 -16 -50 -40 -50c-26 0 -44 22 -44 54c0 15 0 15 15 111c18 130 21 164 23 327v143h79v-282c0 -78 20 -109 70 -109c34 0 53 10 109 58v333h79z" />
    <glyph glyph-name="nu" unicode="&#x3bd;" horiz-adv-x="452" 
d="M252 111l61 128c20 41 28 68 28 91c0 15 -1 19 -10 55c-2 8 -3 18 -3 25c0 30 20 53 47 53s47 -24 47 -58c0 -27 -11 -64 -32 -105l-157 -310h-25l-101 316c-18 55 -18 55 -25 68c-6 12 -19 20 -32 20c-9 0 -15 -2 -27 -8l-7 13l81 63c4 3 8 5 12 5c16 0 42 -35 54 -74z
" />
    <glyph glyph-name="xi" unicode="&#x3be;" horiz-adv-x="446" 
d="M152 716l10 -8c-8 -12 -12 -23 -12 -33c0 -18 15 -27 77 -50c56 30 102 44 142 44c33 0 58 -14 58 -33c0 -31 -51 -55 -117 -55c-29 0 -49 3 -88 12c-36 -33 -50 -62 -50 -102c0 -35 10 -58 38 -84c54 38 98 57 132 57c29 0 50 -13 50 -31c0 -34 -60 -64 -129 -64
c-17 0 -29 1 -50 5c-54 -53 -80 -112 -80 -179c0 -78 39 -124 104 -124c15 0 41 2 67 4c16 2 31 3 38 3c50 0 78 -30 78 -82c0 -79 -65 -152 -137 -152c-32 0 -55 18 -55 43c0 21 16 37 38 37c9 0 18 -2 33 -7c12 -4 17 -5 24 -5c32 0 58 25 58 56c0 22 -14 36 -38 36
c-7 0 -18 -1 -29 -2c-40 -4 -56 -5 -77 -5c-55 0 -94 14 -128 45c-35 33 -55 80 -55 132c0 79 39 144 126 209c-51 20 -75 51 -75 99c0 47 25 82 84 121c-61 19 -99 40 -99 53c0 4 4 10 9 15z" />
    <glyph glyph-name="omicron" unicode="&#x3bf;" horiz-adv-x="500" 
d="M255 461c122 0 211 -96 211 -228c0 -136 -97 -243 -219 -243s-214 99 -214 230c0 67 25 131 70 177c44 44 90 64 152 64zM242 426c-76 0 -120 -71 -120 -194s55 -207 136 -207c72 0 119 70 119 177c0 133 -55 224 -135 224z" />
    <glyph glyph-name="pi" unicode="&#x3c0;" horiz-adv-x="505" 
d="M528 448v-63h-121c-11 -31 -12 -41 -11 -132v-127c0 -40 0 -40 1 -45c4 -15 22 -29 38 -29c4 0 19 5 46 14l4 -21l-108 -47c-11 -4 -13 -5 -15 -5c-9 0 -26 19 -34 38c-7 19 -8 28 -8 70v151c1 59 16 91 60 133h-206l-6 -85c0 -10 -1 -33 -3 -66
c-8 -188 -28 -241 -88 -241c-29 0 -46 17 -46 46c0 26 5 34 46 72c34 31 45 79 63 274c-71 1 -101 -10 -161 -57l-17 20l84 74c26 22 37 26 83 26h399z" />
    <glyph glyph-name="rho" unicode="&#x3c1;" horiz-adv-x="499" 
d="M152 -182h-79v394c0 93 11 143 38 180c33 44 88 69 150 69c119 0 198 -92 198 -232c0 -136 -87 -239 -202 -239c-42 0 -70 12 -105 44v-216zM152 284v-206c38 -37 65 -51 101 -51c72 0 118 74 118 191c0 129 -47 208 -122 208c-33 0 -62 -17 -78 -47
c-14 -23 -19 -50 -19 -95z" />
    <glyph glyph-name="uni03C2" unicode="&#x3c2;" horiz-adv-x="396" 
d="M311 78c47 0 73 -29 73 -81c0 -79 -65 -153 -133 -153c-36 0 -59 17 -59 42c0 22 16 36 40 36c7 0 15 -2 27 -6c14 -5 20 -6 29 -6c30 0 57 29 57 63c0 19 -13 31 -36 31c-5 0 -27 -2 -53 -5c-13 -1 -26 -2 -40 -2c-59 0 -99 13 -129 43c-34 34 -52 83 -52 142
c0 155 121 281 270 281c51 0 83 -20 83 -52c0 -24 -18 -42 -44 -42c-16 0 -25 3 -52 17c-21 11 -35 15 -50 15c-32 0 -73 -21 -100 -51c-30 -32 -45 -78 -45 -136c0 -92 43 -143 120 -143c10 0 29 1 47 3c28 3 37 4 47 4z" />
    <glyph glyph-name="sigma" unicode="&#x3c3;" horiz-adv-x="539" 
d="M536 459v-59l-164 21c32 -20 46 -32 61 -52c25 -34 40 -83 40 -133c0 -139 -99 -247 -225 -247c-124 0 -215 96 -215 228c0 99 56 189 140 225c34 15 49 17 118 17h245zM237 426c-69 0 -111 -64 -111 -169c0 -71 18 -140 48 -185c21 -31 57 -50 94 -50
c70 0 112 63 112 169c0 142 -57 235 -143 235z" />
    <glyph glyph-name="tau" unicode="&#x3c4;" horiz-adv-x="402" 
d="M424 450v-63h-150c-17 -22 -22 -44 -24 -104v-134c0 -59 13 -86 40 -86c12 0 23 3 50 15v-39l-122 -43c-19 -10 -19 -10 -22 -10c-19 0 -35 44 -35 97v144c2 66 10 98 43 160h-15c-87 1 -122 -15 -165 -76l-41 23l55 77c23 32 41 38 104 39h282z" />
    <glyph glyph-name="upsilon" unicode="&#x3c5;" horiz-adv-x="495" 
d="M33 396l-6 14l103 54c4 2 8 3 11 3c7 0 17 -8 27 -22s13 -26 13 -56v-209c0 -48 4 -72 15 -90c12 -19 36 -30 64 -30c80 0 138 71 138 168c0 33 -6 64 -18 87c-8 17 -14 24 -41 48c-22 20 -32 36 -32 55c0 24 20 45 45 45c50 0 88 -86 88 -201c0 -83 -20 -145 -61 -194
c-42 -49 -93 -75 -147 -75c-82 0 -130 54 -130 147v184c0 65 -8 82 -39 82c-11 0 -18 -2 -30 -10z" />
    <glyph glyph-name="phi" unicode="&#x3c6;" horiz-adv-x="577" 
d="M228 460v-17c-25 -7 -37 -13 -50 -24c-40 -33 -60 -91 -60 -174c0 -89 22 -152 66 -190c17 -15 31 -22 64 -32v278c0 62 5 92 21 113c20 29 54 46 92 46c47 0 93 -21 130 -61c41 -42 60 -93 60 -156c0 -82 -35 -154 -95 -199c-38 -29 -74 -41 -141 -48v-197h-67v197
c-139 15 -221 105 -221 244c0 128 76 212 201 220zM315 307v-284c43 8 63 15 86 31c47 33 70 87 70 166c0 100 -50 184 -111 184c-17 0 -30 -8 -37 -23c-7 -12 -8 -26 -8 -74z" />
    <glyph glyph-name="chi" unicode="&#x3c7;" horiz-adv-x="444" 
d="M259 148l40 -106c31 -81 40 -100 61 -129c18 -26 40 -39 65 -39c10 0 18 2 31 7l6 -15l-79 -48c-5 -3 -9 -4 -12 -4c-19 0 -54 62 -94 165l-47 123l-157 -281h-91l216 363l-39 94c-33 76 -55 93 -117 90c-28 0 -51 20 -51 45c0 26 21 45 51 45c60 0 116 -57 155 -158
l28 -72l127 223h90z" />
    <glyph glyph-name="psi" unicode="&#x3c8;" horiz-adv-x="626" 
d="M294 450h75v-388c53 7 79 16 105 38c35 29 56 80 56 136c0 31 -6 57 -19 78c-10 16 -10 16 -47 51c-19 18 -27 33 -27 49c0 23 21 43 46 43c49 0 87 -84 87 -192c0 -144 -74 -245 -201 -274v-170h-75v172c-129 10 -197 76 -194 190v135c0 63 -9 80 -40 80
c-11 0 -18 -2 -31 -10l-6 13l101 51c6 3 11 5 13 5c6 0 16 -8 25 -22s11 -24 11 -54v-178c-4 -89 31 -129 121 -137v384z" />
    <glyph glyph-name="omega" unicode="&#x3c9;" horiz-adv-x="658" 
d="M181 462l19 -13c-42 -60 -63 -130 -63 -214c0 -112 34 -177 92 -177c35 0 65 24 91 76c-18 46 -25 79 -25 124c0 54 16 85 44 85c24 0 38 -28 38 -78c0 -42 -7 -77 -25 -129c25 -54 54 -77 97 -77c67 0 116 69 116 161c0 44 -10 84 -28 110c-15 23 -20 26 -70 45
c-16 6 -28 25 -28 44c0 25 18 43 44 43c70 0 119 -92 119 -226c0 -137 -65 -243 -149 -243c-48 0 -87 35 -119 105c-32 -69 -78 -105 -132 -105c-84 0 -146 93 -146 218c0 103 43 190 125 251z" />
    <glyph glyph-name="iotadieresis" unicode="&#x3ca;" horiz-adv-x="269" 
d="M173 467v-333c0 -64 8 -81 39 -81c11 0 17 2 30 10l6 -14l-103 -54c-5 -3 -10 -5 -13 -5c-4 0 -11 6 -19 15c-16 18 -19 30 -19 65v252c0 55 -7 69 -34 69c-7 0 -14 -1 -22 -3l-6 -2l-6 15c70 28 80 33 147 66zM59 636c28 0 51 -23 51 -51c0 -29 -23 -52 -52 -52
c-28 0 -51 23 -51 52c0 28 23 51 52 51zM211 636c28 0 51 -23 51 -51c0 -29 -23 -52 -52 -52c-28 0 -51 23 -51 52c0 28 23 51 52 51z" />
    <glyph glyph-name="upsilondieresis" unicode="&#x3cb;" horiz-adv-x="495" 
d="M33 396l-6 14l103 54c4 2 8 3 11 3c7 0 17 -8 27 -22s13 -26 13 -56v-209c0 -48 4 -72 15 -90c12 -19 36 -30 64 -30c80 0 138 71 138 168c0 33 -6 64 -18 87c-8 17 -14 24 -41 48c-22 20 -32 36 -32 55c0 24 20 45 45 45c50 0 88 -86 88 -201c0 -83 -20 -145 -61 -194
c-42 -49 -93 -75 -147 -75c-82 0 -130 54 -130 147v184c0 65 -8 82 -39 82c-11 0 -18 -2 -30 -10zM172 636c28 0 51 -23 51 -51c0 -29 -23 -52 -52 -52c-28 0 -51 23 -51 52c0 28 23 51 52 51zM324 636c28 0 51 -23 51 -51c0 -29 -23 -52 -52 -52c-28 0 -51 23 -51 52
c0 28 23 51 52 51z" />
    <glyph glyph-name="omicrontonos" unicode="&#x3cc;" horiz-adv-x="500" 
d="M255 461c122 0 211 -96 211 -228c0 -136 -97 -243 -219 -243s-214 99 -214 230c0 67 25 131 70 177c44 44 90 64 152 64zM242 426c-76 0 -120 -71 -120 -194s55 -207 136 -207c72 0 119 70 119 177c0 133 -55 224 -135 224zM236 503l-9 40c-13 53 -14 56 -14 75
c0 34 13 51 36 51c24 0 37 -18 37 -50c0 -20 -1 -26 -14 -76l-9 -40h-27z" />
    <glyph glyph-name="upsilontonos" unicode="&#x3cd;" horiz-adv-x="495" 
d="M33 396l-6 14l103 54c4 2 8 3 11 3c7 0 17 -8 27 -22s13 -26 13 -56v-209c0 -48 4 -72 15 -90c12 -19 36 -30 64 -30c80 0 138 71 138 168c0 33 -6 64 -18 87c-8 17 -14 24 -41 48c-22 20 -32 36 -32 55c0 24 20 45 45 45c50 0 88 -86 88 -201c0 -83 -20 -145 -61 -194
c-42 -49 -93 -75 -147 -75c-82 0 -130 54 -130 147v184c0 65 -8 82 -39 82c-11 0 -18 -2 -30 -10zM234 503l-9 40c-13 50 -14 57 -14 76c0 33 13 50 37 50s37 -17 37 -50c0 -19 -1 -23 -15 -76l-9 -40h-27z" />
    <glyph glyph-name="omegatonos" unicode="&#x3ce;" horiz-adv-x="658" 
d="M181 463l19 -13c-42 -59 -63 -130 -63 -214c0 -113 34 -178 91 -178c36 0 66 24 92 76c-18 47 -25 80 -25 125c0 54 16 85 44 85c24 0 38 -28 38 -78c0 -42 -7 -77 -25 -129c25 -55 54 -78 97 -78c67 0 116 69 116 162c0 44 -10 84 -28 111c-15 23 -20 26 -70 45
c-16 6 -28 25 -28 44c0 25 18 43 43 43c71 0 120 -93 120 -227c0 -137 -65 -244 -149 -244c-48 0 -87 35 -119 106c-32 -70 -78 -106 -132 -106c-84 0 -146 93 -146 219c0 103 43 191 125 251zM319 503l-9 40c-13 53 -14 57 -14 76c0 33 13 50 37 50c23 0 36 -18 36 -50
c0 -20 -1 -26 -14 -76l-9 -40h-27z" />
    <glyph glyph-name="theta1" unicode="&#x3d1;" horiz-adv-x="495" 
d="M507 390v-70h-14l-39 -1h-12c-4 -198 -94 -326 -229 -326c-83 0 -139 53 -139 131v76c0 58 -10 76 -41 76c-11 0 -18 -2 -30 -10l-7 14l104 54c4 2 8 3 10 3c7 0 14 -7 23 -23c9 -13 11 -25 11 -55v-113c0 -64 37 -106 95 -106c84 0 123 88 126 283
c-96 13 -146 25 -195 48c-76 36 -116 86 -116 147c0 84 80 155 174 155c76 0 143 -47 180 -125c21 -46 30 -89 33 -159h14l39 1h13zM364 393c-5 78 -14 120 -35 158c-26 51 -68 79 -116 79c-56 0 -100 -40 -100 -91c0 -48 35 -86 101 -112c41 -16 83 -25 150 -34z" />
    <glyph glyph-name="phi1" unicode="&#x3d5;" horiz-adv-x="526" 
d="M305 -15l1 -170h-89l2 169c-123 6 -202 100 -202 238c0 137 85 240 207 251c-2 31 -5 60 -12 97c-6 34 -7 38 -7 52c0 39 23 64 58 64c34 0 57 -25 57 -64c0 -17 -1 -21 -11 -78c-5 -26 -7 -45 -9 -71c125 -5 208 -99 208 -236c0 -135 -85 -241 -203 -252zM219 10l4 438
c-70 -16 -120 -107 -120 -219c0 -120 47 -209 116 -219zM301 449l4 -439c72 20 117 103 117 216c0 122 -48 210 -121 223z" />
    <glyph glyph-name="omega1" unicode="&#x3d6;" horiz-adv-x="658" 
d="M114 450h110c113 0 151 -4 205 -20c102 -31 157 -108 157 -219c0 -56 -13 -109 -38 -152c-26 -44 -61 -66 -109 -66c-52 0 -91 31 -119 95c-26 -65 -62 -95 -110 -95c-81 0 -138 87 -138 209c0 107 35 171 119 216c-61 -2 -72 -3 -117 -12zM312 129c-10 47 -10 50 -10 72
c0 45 12 73 32 73c14 0 28 -17 28 -36c0 -12 -1 -15 -10 -43c-3 -8 -6 -38 -6 -53c0 -49 36 -86 83 -86s75 48 75 129c0 75 -25 140 -67 177c-46 40 -99 55 -207 56c-51 -41 -75 -106 -75 -203c0 -100 31 -157 85 -157c30 0 52 21 72 71z" />
    <glyph glyph-name="uni0400" unicode="&#x400;" horiz-adv-x="611" 
d="M597 169l-45 -169h-540v19c72 4 85 18 87 90v444c-2 72 -14 85 -87 90v19h531l3 -143h-25c-16 89 -36 103 -152 105h-135c-28 0 -32 -4 -33 -34v-222h154c84 2 98 14 110 95h23v-232h-23c-13 82 -26 94 -110 96h-154v-247c0 -39 1 -40 105 -43h27c143 1 188 26 236 132
h28zM382 719h-40l-154 97c-19 11 -29 27 -29 43c0 19 13 31 34 31c15 0 23 -5 42 -23z" />
    <glyph glyph-name="afii10023" unicode="&#x401;" horiz-adv-x="611" 
d="M217 329v-213c0 -63 6 -72 53 -71h119c105 2 145 30 185 129l16 -7l-57 -167h-512v18l23 1c52 2 68 21 68 85v455c0 63 -16 82 -68 84l-23 1v18h502l10 -150l-17 -1c-11 89 -43 114 -146 112h-153v-249h166c56 -1 77 26 76 99h18v-241h-18c2 70 -18 96 -76 97h-166z
M206 835c27 0 50 -23 50 -50c0 -28 -23 -50 -51 -50c-27 0 -47 22 -47 51c0 26 22 49 48 49zM405 835c27 0 50 -23 50 -50c0 -28 -23 -50 -51 -50c-27 0 -47 22 -47 51c0 26 22 49 48 49z" />
    <glyph glyph-name="afii10051" unicode="&#x402;" horiz-adv-x="752" 
d="M322 614v-266c57 25 96 34 149 34c135 0 224 -77 224 -195c0 -59 -24 -118 -63 -158c-33 -34 -77 -51 -134 -51c-72 0 -116 27 -116 72c0 30 20 51 49 51c25 0 43 -17 43 -40c0 -3 0 -6 -1 -10c-1 -6 -1 -8 -1 -13c0 -20 11 -30 33 -30c46 0 73 57 73 153
c0 122 -42 178 -134 178c-37 0 -62 -6 -122 -30v-309h-196v18c75 0 91 15 91 86v510h-36c-85 1 -118 -30 -122 -114l-19 2l10 160h541l9 -160l-19 -2c-3 84 -37 115 -122 114h-137z" />
    <glyph glyph-name="afii10052" unicode="&#x403;" horiz-adv-x="578" 
d="M225 617v-515c1 -70 20 -84 110 -84v-18h-306v18c74 0 90 15 91 85v456c-1 70 -17 85 -91 85v18h503l10 -161l-19 -1c-4 87 -37 118 -122 117h-176zM260 719h-40l147 148c18 18 27 23 43 23c22 0 35 -12 35 -32c0 -16 -9 -29 -31 -42z" />
    <glyph glyph-name="afii10053" unicode="&#x404;" horiz-adv-x="660" 
d="M465 218h-18c2 71 -17 96 -76 97h-220c3 -71 14 -118 40 -163c41 -74 112 -115 198 -115c91 0 164 38 224 118l17 -11c-67 -101 -157 -151 -268 -151c-183 0 -332 152 -332 338c0 189 152 338 346 338c50 0 100 -10 139 -28c40 -19 41 -19 51 -19c17 0 26 12 30 40h21
l6 -223l-18 -2c-7 57 -24 94 -60 129c-43 42 -99 66 -159 66c-134 0 -224 -104 -234 -272h219c57 -1 77 26 76 99h18v-241z" />
    <glyph glyph-name="afii10054" unicode="&#x405;" horiz-adv-x="556" 
d="M105 0h-19v224h20c7 -54 16 -80 37 -111c31 -48 83 -77 135 -77c65 0 115 47 115 107c0 31 -11 55 -39 84c-19 19 -43 37 -64 50l-78 44c-92 54 -130 105 -130 176c0 102 71 172 176 172c30 0 52 -4 91 -17c40 -13 43 -14 52 -14c12 0 20 7 28 24h20v-210h-18
c-23 75 -39 108 -65 135c-24 25 -56 38 -95 38c-60 0 -104 -38 -104 -90c0 -40 35 -82 97 -117l77 -45c102 -59 149 -120 149 -197c0 -107 -82 -183 -196 -183c-39 0 -39 0 -121 26c-15 5 -28 8 -37 8c-16 0 -24 -7 -31 -27z" />
    <glyph glyph-name="afii10055" unicode="&#x406;" horiz-adv-x="333" 
d="M24 644v18h286v-18l-22 -1c-53 -2 -68 -21 -68 -84v-456c0 -63 15 -82 68 -84l22 -1v-18h-286v18l23 1c52 2 68 21 68 84v456c0 63 -16 82 -68 84z" />
    <glyph glyph-name="afii10056" unicode="&#x407;" horiz-adv-x="333" 
d="M23 644v18h287v-18c-75 0 -90 -15 -91 -85v-456c1 -70 16 -85 91 -85v-18h-287v18c75 0 90 15 91 85v456c-1 70 -16 85 -91 85zM66 835c27 0 50 -23 50 -50c0 -28 -23 -50 -50 -50s-48 22 -48 51c0 26 22 49 48 49zM265 835c27 0 50 -23 50 -50c0 -28 -23 -50 -50 -50
s-48 22 -48 51c0 26 22 49 48 49z" />
    <glyph glyph-name="afii10057" unicode="&#x408;" horiz-adv-x="389" 
d="M80 644v18h287v-18l-20 -1c-53 -2 -68 -21 -68 -84v-366c0 -122 -66 -200 -169 -200c-62 0 -105 30 -105 74c0 27 21 46 50 46s42 -11 64 -55c7 -15 17 -24 28 -24c22 0 29 26 29 110v415c-2 58 -24 84 -74 84z" />
    <glyph glyph-name="afii10058" unicode="&#x409;" horiz-adv-x="872" 
d="M92 662h520v-18c-75 0 -90 -15 -91 -85v-180c30 4 51 6 82 6c165 0 260 -71 260 -194c0 -124 -88 -191 -251 -191h-287v18c75 0 91 14 91 85v514h-191v-293c0 -120 -8 -180 -29 -231c-29 -68 -75 -102 -138 -102c-47 0 -78 23 -78 58c0 29 20 50 46 50c16 0 26 -4 53 -24
c9 -6 19 -10 27 -10c20 0 39 18 52 49c18 42 25 105 25 212v233c-1 70 -16 85 -91 85v18zM521 339v-290c30 -9 50 -12 74 -12c89 0 151 62 151 150c0 95 -64 159 -159 159c-20 0 -41 -2 -66 -7z" />
    <glyph glyph-name="afii10059" unicode="&#x40a;" horiz-adv-x="872" 
d="M440 315h-253v-212c0 -71 14 -85 83 -85v-18h-264v18c69 0 83 14 84 85v456c-1 70 -15 85 -84 85v18h264v-18c-68 0 -83 -15 -83 -85v-199h253v199c0 69 -16 85 -84 85v18h264v-18c-68 0 -83 -15 -83 -85v-199c121 0 147 -2 190 -16c84 -27 126 -80 126 -160
c0 -119 -83 -184 -233 -184h-264v18h1c25 0 31 1 46 4c10 4 12 5 17 9c15 13 19 30 20 72v212zM537 315v-266c26 -9 46 -12 68 -12c81 0 140 59 140 141c0 58 -32 107 -80 124c-33 12 -42 13 -128 13z" />
    <glyph glyph-name="afii10060" unicode="&#x40b;" horiz-adv-x="741" 
d="M179 614h-36c-85 1 -118 -30 -122 -114l-19 2l10 160h567l10 -160l-19 -2c-4 84 -38 115 -122 114h-164v-267c66 26 111 35 178 35c88 0 143 -21 171 -65c19 -29 24 -52 24 -111v-103c1 -71 16 -85 91 -85v-18h-286v18c74 0 89 15 90 85v103c0 107 -25 136 -119 136
c-55 0 -71 -5 -149 -46v-192c0 -71 16 -86 90 -86v-18h-286v18c75 0 91 15 91 86v510z" />
    <glyph glyph-name="afii10061" unicode="&#x40c;" horiz-adv-x="667" 
d="M205 320v-217c0 -71 16 -85 92 -85v-18h-288v18c74 0 90 15 91 85v456c-1 70 -17 85 -91 85v18h288v-18c-8 -1 -17 -1 -19 -1c-57 -1 -73 -19 -73 -85v-212c137 122 234 235 234 271c0 20 -11 25 -58 26v19h243v-19c-66 -4 -91 -19 -161 -99c-20 -22 -87 -94 -100 -107
c-15 -16 -30 -32 -45 -47c-4 -6 -11 -13 -20 -22l228 -236c85 -87 128 -113 189 -114v-18h-318v18c43 2 58 8 58 24s-18 40 -69 92zM338 719h-40l147 148c18 18 27 23 42 23c22 0 35 -12 35 -32c0 -16 -10 -29 -30 -42z" />
    <glyph glyph-name="uni040D" unicode="&#x40d;" 
d="M214 181l295 379c-1 70 -17 84 -91 84v18h286v-18c-74 0 -90 -15 -90 -85v-456c0 -70 16 -85 90 -85v-18h-286v18c74 0 90 15 91 85v384l-295 -378v-6c0 -70 16 -85 90 -85v-18h-286v18c74 0 90 15 91 85v456c-1 70 -17 85 -91 85v18h286v-18c-74 0 -90 -15 -90 -85v-378
zM424 719h-40l-154 97c-19 12 -29 27 -29 43c0 19 13 31 33 31c16 0 25 -5 43 -23z" />
    <glyph glyph-name="afii10062" unicode="&#x40e;" horiz-adv-x="708" 
d="M3 662h301v-18h-13c-38 0 -56 -10 -56 -31c0 -13 9 -40 23 -66l138 -270l130 283l8 22c9 25 9 25 9 32c0 23 -13 29 -62 30v18h223v-18c-63 -2 -101 -34 -144 -120l-182 -385c-32 -68 -41 -81 -63 -103c-29 -29 -69 -45 -112 -45c-51 0 -83 23 -83 59c0 27 22 45 54 45
c17 0 28 -4 48 -18c19 -14 28 -18 40 -18c25 0 38 17 79 101l-199 382c-46 79 -74 101 -139 102v18zM487 856c28 0 47 -19 47 -46c0 -54 -63 -95 -147 -95s-147 41 -147 95c0 27 19 46 47 46c25 0 42 -16 42 -39c0 -7 -1 -12 -5 -27c-1 -5 -2 -9 -2 -12c0 -18 32 -35 66 -35
c32 0 64 17 64 34c0 5 0 7 -4 22c-2 6 -3 12 -3 18c0 23 17 39 42 39z" />
    <glyph glyph-name="afii10145" unicode="&#x40f;" 
d="M709 0h-207c-83 7 -128 -56 -134 -187h-16c-7 132 -51 194 -133 187h-207v18c74 0 90 15 91 85v456c-1 70 -17 85 -91 85v18h286v-18c-74 0 -90 -15 -90 -85v-514h306v514c-1 70 -17 85 -91 85v18h286v-18c-74 0 -90 -15 -90 -85v-456c0 -70 16 -85 90 -85v-18z" />
    <glyph glyph-name="afii10017" unicode="&#x410;" 
d="M371 669l228 -534c36 -88 62 -117 107 -117h13v-18h-278v19h16c36 0 55 13 55 38c0 14 -4 31 -17 63l-38 97h-242l-42 -105c-10 -25 -17 -48 -17 -57c-1 -21 23 -36 59 -36h12v-19h-221v18c66 2 77 12 117 106l236 545h12zM234 258h207l-105 241z" />
    <glyph glyph-name="afii10018" unicode="&#x411;" horiz-adv-x="574" 
d="M11 662h469l10 -150l-17 -2c-11 86 -43 109 -147 107h-119v-238c29 4 51 6 82 6c165 0 260 -71 260 -194c0 -124 -89 -191 -251 -191h-287v18c75 0 90 14 91 85v455c-1 71 -17 86 -91 86v18zM207 339v-290c35 -9 51 -12 72 -12c90 0 153 61 153 150
c0 95 -64 159 -159 159c-20 0 -39 -2 -66 -7z" />
    <glyph glyph-name="afii10019" unicode="&#x412;" horiz-adv-x="667" 
d="M55 662h242c96 0 130 -6 173 -29c59 -31 95 -84 95 -140c0 -38 -17 -80 -43 -108c-16 -16 -30 -26 -63 -41c90 -31 133 -83 133 -161c0 -68 -40 -128 -104 -158c-48 -22 -76 -25 -232 -25h-201v18c74 0 90 15 91 85v456c-1 71 -16 85 -91 85v18zM251 620v-251
c25 -5 36 -6 54 -6c89 0 143 48 143 129c0 80 -60 132 -153 132c-14 0 -24 -1 -44 -4zM251 318v-268c29 -7 42 -9 66 -9c90 0 152 58 152 142c0 87 -64 142 -165 142c-18 0 -29 -1 -53 -7z" />
    <glyph glyph-name="afii10020" unicode="&#x413;" horiz-adv-x="578" 
d="M228 617v-515c1 -70 20 -84 110 -84v-18h-306v18c74 0 90 15 91 85v456c-1 70 -17 85 -91 85v18h503l10 -161l-19 -1c-4 87 -37 118 -122 117h-176z" />
    <glyph glyph-name="afii10021" unicode="&#x414;" horiz-adv-x="682" 
d="M113 662h532v-18l-23 -1c-53 -2 -68 -21 -68 -84v-442c1 -72 16 -87 91 -87l7 -192h-18c-23 124 -69 163 -190 162h-233c-115 1 -165 -43 -185 -162h-18l7 192h33c36 0 67 23 94 69c38 66 62 239 62 447c0 77 -13 96 -69 97l-22 1v18zM449 617h-196v-62
c0 -121 -4 -206 -12 -280c-14 -124 -34 -180 -82 -230h290v572z" />
    <glyph glyph-name="afii10022" unicode="&#x415;" horiz-adv-x="611" 
d="M218 329v-213c0 -63 5 -71 53 -71h119c105 2 145 30 185 129l16 -7l-57 -167h-512v18c74 0 90 15 91 86v455c-1 70 -17 85 -91 85v18h502l10 -150l-17 -1c-11 89 -43 114 -146 112h-153v-249h166c56 -1 77 26 76 99h18v-241h-18c2 70 -18 96 -76 97h-166z" />
    <glyph glyph-name="afii10024" unicode="&#x416;" horiz-adv-x="896" 
d="M404 320h-26l-130 -186c-47 -63 -54 -75 -54 -90c0 -18 11 -24 45 -26v-18h-253v18c48 1 82 27 151 114l182 236c-5 7 -11 14 -16 22c-12 15 -24 31 -36 47c-15 19 -58 77 -80 107c-56 80 -76 95 -129 99v19h194v-19c-35 -1 -46 -7 -46 -23c0 -37 74 -147 177 -263h21
v202c0 70 -13 85 -72 85v18h229v-18c-60 0 -73 -15 -73 -85v-202h21c103 116 177 226 177 263c0 16 -11 22 -46 23v19h194v-19c-53 -4 -73 -19 -129 -99c-36 -49 -80 -107 -132 -176l182 -236c68 -86 103 -113 151 -114v-18h-253v18c34 2 45 8 45 26c0 15 -8 28 -54 90
l-130 186h-26v-217c0 -63 12 -82 54 -84l19 -1v-18h-229v18l18 1c42 2 54 21 54 84v217z" />
    <glyph glyph-name="afii10025" unicode="&#x417;" horiz-adv-x="501" 
d="M45 487l5 179h16c3 -19 13 -28 34 -28c11 0 21 3 44 11c41 16 69 22 106 22c112 0 188 -61 188 -150c0 -48 -22 -93 -59 -123c-23 -18 -44 -27 -92 -40c56 -7 84 -17 114 -42c40 -31 62 -80 62 -135c0 -111 -96 -190 -231 -190c-67 0 -122 21 -167 63
c-25 22 -38 40 -60 84l22 13c44 -78 100 -115 173 -115c87 0 145 60 145 149c0 55 -23 100 -64 125c-24 15 -63 22 -121 22h-15v45c12 -1 24 -1 28 -1c102 0 155 45 155 132c0 73 -46 117 -121 117c-83 0 -132 -47 -143 -138h-19z" />
    <glyph glyph-name="afii10026" unicode="&#x418;" 
d="M214 181l295 379c-1 70 -17 84 -91 84v18h286v-18c-74 0 -90 -15 -90 -85v-456c0 -70 16 -85 90 -85v-18h-286v18c74 0 90 15 91 85v384l-295 -378v-6c0 -70 16 -85 90 -85v-18h-286v18c74 0 90 15 91 85v456c-1 70 -17 85 -91 85v18h286v-18c-74 0 -90 -15 -90 -85v-378
z" />
    <glyph glyph-name="afii10027" unicode="&#x419;" 
d="M461 856c28 0 48 -19 48 -46c0 -54 -63 -95 -148 -95c-84 0 -147 41 -147 95c0 27 19 46 47 46c25 0 43 -16 43 -39c0 -8 -1 -11 -6 -27c-2 -5 -2 -9 -2 -12c0 -18 31 -35 66 -35c33 0 65 17 65 34c0 5 -1 7 -5 22c-2 5 -3 12 -3 18c0 23 17 39 42 39zM214 181l295 379
c-1 70 -17 84 -91 84v18h286v-18c-74 0 -90 -15 -90 -85v-456c0 -70 16 -85 90 -85v-18h-286v18c74 0 90 15 91 85v384l-295 -378v-6c0 -70 16 -85 90 -85v-18h-286v18c74 0 90 15 91 85v456c-1 70 -17 85 -91 85v18h286v-18c-74 0 -90 -15 -90 -85v-378z" />
    <glyph glyph-name="afii10028" unicode="&#x41a;" horiz-adv-x="667" 
d="M205 320v-217c0 -71 16 -85 92 -85v-18h-288v18c74 0 90 15 91 85v456c-1 70 -17 85 -91 85v18h288v-18c-8 -1 -17 -1 -19 -1c-57 -1 -73 -19 -73 -85v-212c137 122 234 235 234 271c0 20 -11 25 -58 26v19h243v-19c-66 -4 -91 -19 -161 -99c-20 -22 -87 -94 -100 -107
c-15 -16 -30 -32 -45 -47c-4 -6 -11 -13 -20 -22l228 -236c85 -87 128 -113 189 -114v-18h-318v18c43 2 58 8 58 24s-18 40 -69 92z" />
    <glyph glyph-name="afii10029" unicode="&#x41b;" horiz-adv-x="678" 
d="M123 662h520v-18c-75 0 -90 -15 -91 -86v-455c1 -70 16 -85 91 -85v-18h-287v18c75 0 91 15 91 85v514h-191v-293c0 -126 -7 -178 -31 -235c-28 -67 -71 -98 -134 -98c-49 0 -80 23 -80 59c0 28 20 50 46 50c14 0 27 -5 44 -18c18 -13 25 -16 35 -16c50 0 78 93 78 260
v233c-1 70 -16 85 -91 85v18z" />
    <glyph glyph-name="afii10030" unicode="&#x41c;" horiz-adv-x="889" 
d="M410 0l-238 525v-422c0 -71 16 -85 92 -85v-18h-232v18c74 0 90 15 91 85v456c-1 70 -17 85 -91 85v18h191l224 -491l215 491h195v-18c-74 0 -90 -15 -90 -85v-456c0 -70 16 -85 90 -85v-18h-283v18c72 0 87 16 88 85v428l-236 -531h-16z" />
    <glyph glyph-name="afii10031" unicode="&#x41d;" 
d="M214 315v-211c0 -71 16 -86 90 -86v-18h-286v18c74 0 90 15 91 86v455c-1 70 -17 85 -91 85v18h286v-18c-74 0 -90 -15 -90 -85v-199h295v199c-1 70 -17 85 -91 85v18h286v-18c-74 0 -90 -15 -90 -85v-455c0 -71 16 -86 90 -86v-18h-286v18c74 0 90 15 91 86v211h-295z
" />
    <glyph glyph-name="afii10032" unicode="&#x41e;" 
d="M359 669c183 0 319 -144 319 -337c0 -97 -33 -183 -94 -247c-60 -62 -132 -92 -225 -92c-180 0 -315 145 -315 338s135 338 315 338zM358 630c-117 0 -197 -121 -197 -299c0 -177 80 -299 197 -299c123 0 203 119 203 300c0 177 -83 298 -203 298z" />
    <glyph glyph-name="afii10033" unicode="&#x41f;" 
d="M12 662h697v-18c-74 0 -90 -15 -90 -85v-456c0 -70 16 -85 90 -85v-18h-286v18c74 0 90 15 91 85v514h-306v-514c0 -70 16 -85 90 -85v-18h-286v18c74 0 90 15 91 85v456c-1 70 -17 85 -91 85v18z" />
    <glyph glyph-name="afii10034" unicode="&#x420;" horiz-adv-x="556" 
d="M217 316v-213c0 -71 16 -85 92 -85v-18h-288v18c74 0 90 15 91 85v456c-1 70 -17 85 -91 85v18h214c126 -1 146 -3 187 -21c74 -34 111 -87 111 -164c0 -53 -20 -99 -55 -127c-41 -33 -100 -52 -161 -52c-35 0 -62 5 -100 18zM217 614v-260c28 -11 43 -14 66 -14
c80 0 133 55 133 140c0 86 -56 144 -141 144c-22 0 -36 -2 -58 -10z" />
    <glyph glyph-name="afii10035" unicode="&#x421;" horiz-adv-x="667" 
d="M617 155l17 -11c-64 -95 -162 -151 -267 -151c-184 0 -333 152 -333 338c0 189 152 338 345 338c51 0 101 -10 140 -28c40 -19 41 -19 51 -19c17 0 26 12 30 40h21l6 -223l-18 -2c-7 57 -25 94 -60 129c-43 43 -99 66 -159 66c-142 0 -235 -120 -235 -304
c0 -178 93 -291 238 -291c91 0 164 39 224 118z" />
    <glyph glyph-name="afii10036" unicode="&#x422;" horiz-adv-x="611" 
d="M162 0v18c75 0 91 15 91 86v510h-89c-85 1 -118 -30 -122 -114l-19 2l10 160h545l10 -160l-19 -2c-4 84 -37 115 -122 114h-89v-510c0 -71 16 -86 91 -86v-18h-287z" />
    <glyph glyph-name="afii10037" unicode="&#x423;" horiz-adv-x="708" 
d="M3 662h301v-18h-13c-38 0 -56 -10 -56 -31c0 -13 9 -40 23 -66l138 -270l130 283l8 22c9 25 9 25 9 32c0 23 -13 29 -62 30v18h223v-18c-63 -2 -101 -34 -144 -120l-182 -385c-32 -68 -41 -81 -63 -103c-29 -29 -69 -45 -112 -45c-51 0 -83 23 -83 59c0 27 22 45 54 45
c17 0 28 -4 48 -18c19 -14 28 -18 40 -18c25 0 38 17 79 101l-199 382c-46 79 -74 101 -139 102v18z" />
    <glyph glyph-name="afii10038" unicode="&#x424;" horiz-adv-x="790" 
d="M342 590v12c1 57 -10 69 -68 71l-23 1v18h287v-18l-23 -1c-58 -2 -69 -14 -68 -71v-12c191 -20 317 -123 317 -259s-131 -243 -317 -259v-12c-1 -57 10 -69 68 -71l23 -1v-18h-287v18l23 1c58 2 69 14 68 71v12c-185 16 -317 123 -317 259s128 241 317 259zM342 100v463
c-125 -21 -200 -108 -200 -232c0 -85 39 -158 105 -198c28 -17 53 -26 95 -33zM447 562v-463c125 22 200 109 200 232s-73 207 -200 231z" />
    <glyph glyph-name="afii10039" unicode="&#x425;" 
d="M319 324l-139 208c-64 93 -83 107 -147 112v18h296v-18c-25 -1 -31 -2 -39 -4c-13 -4 -22 -18 -22 -34c0 -12 6 -27 16 -42l103 -154l121 159c17 22 22 32 22 42c0 14 -11 27 -26 31c-7 1 -11 2 -38 2v18h223v-18c-64 -3 -69 -7 -145 -104l-130 -171l159 -233
c69 -100 88 -116 147 -118v-18h-291v18c46 1 61 9 61 33c0 15 -7 33 -24 57l-118 173l-142 -186c-18 -24 -23 -34 -23 -46c0 -20 15 -28 62 -31v-18h-244v18c80 1 100 15 182 125z" />
    <glyph glyph-name="afii10040" unicode="&#x426;" 
d="M714 -162h-19c-22 123 -67 162 -185 162h-501v18c74 0 90 15 91 85v456c-1 70 -17 85 -91 85v18h286v-18c-74 0 -90 -15 -90 -85v-514h306v514c-1 70 -17 85 -91 85v18h286v-18c-74 0 -90 -15 -90 -85v-442c0 -72 16 -87 90 -87z" />
    <glyph glyph-name="afii10041" unicode="&#x427;" horiz-adv-x="650" 
d="M456 328v231c-1 70 -16 85 -91 85v18h286v-18c-74 0 -90 -15 -90 -85v-456c0 -70 16 -85 90 -85v-18h-286v18c75 0 90 15 91 85v186c-126 -24 -139 -26 -184 -26c-129 0 -189 57 -189 180v116c-1 70 -17 85 -91 85v18h286v-18c-74 0 -90 -15 -90 -85v-116
c0 -99 35 -136 128 -136c35 0 64 4 140 21z" />
    <glyph glyph-name="afii10042" unicode="&#x428;" horiz-adv-x="1009" 
d="M803 45v514c-1 70 -17 85 -91 85v18h286v-18c-74 0 -90 -15 -90 -85v-456c0 -70 16 -85 90 -85v-18h-988v18c74 0 90 15 91 85v456c-1 70 -17 85 -91 85v18h286v-18c-74 0 -90 -15 -90 -85v-514h246v514c-1 70 -17 85 -91 85v18h286v-18c-74 0 -90 -15 -90 -85v-514h246z
" />
    <glyph glyph-name="afii10043" unicode="&#x429;" horiz-adv-x="1009" 
d="M1000 -162h-18c-22 123 -67 162 -185 162h-788v18c74 0 90 15 91 85v456c-1 70 -17 85 -91 85v18h286v-18c-74 0 -90 -15 -90 -85v-514h246v514c-1 70 -17 85 -91 85v18h286v-18c-74 0 -90 -15 -90 -85v-514h246v514c-1 70 -17 85 -91 85v18h286v-18
c-74 0 -90 -15 -90 -85v-460c2 -59 15 -70 86 -69z" />
    <glyph glyph-name="afii10044" unicode="&#x42a;" horiz-adv-x="706" 
d="M220 617h-63c-85 1 -118 -30 -122 -117l-19 1l10 161h390v-18c-74 0 -90 -15 -91 -85v-180c29 4 51 6 82 6c165 0 260 -71 260 -194c0 -124 -88 -191 -251 -191h-287v18c75 0 90 14 91 85v514zM325 339v-290c35 -9 51 -12 72 -12c91 0 153 61 153 150
c0 95 -64 159 -159 159c-20 0 -39 -2 -66 -7z" />
    <glyph glyph-name="afii10045" unicode="&#x42b;" horiz-adv-x="872" 
d="M314 662v-18c-74 0 -90 -15 -90 -85v-180c29 4 51 6 82 6c165 0 260 -71 260 -194c0 -124 -89 -191 -251 -191h-287v18c75 0 90 14 91 85v455c-1 71 -17 86 -91 86v18h286zM224 339v-290c35 -9 51 -12 72 -12c90 0 153 61 153 150c0 95 -64 159 -159 159
c-20 0 -40 -2 -66 -7zM557 644v18h286v-18c-74 0 -90 -15 -90 -85v-456c0 -70 16 -85 90 -85v-18h-286v18c74 0 90 15 91 85v456c-1 70 -17 85 -91 85z" />
    <glyph glyph-name="afii10046" unicode="&#x42c;" horiz-adv-x="574" 
d="M301 662v-18c-74 0 -90 -15 -90 -85v-180c29 4 51 6 82 6c165 0 260 -71 260 -194c0 -124 -89 -191 -251 -191h-287v18c75 0 90 14 91 85v455c-1 71 -17 86 -91 86v18h286zM211 339v-290c35 -9 51 -12 72 -12c90 0 153 61 153 150c0 95 -64 159 -159 159
c-20 0 -40 -2 -66 -7z" />
    <glyph glyph-name="afii10047" unicode="&#x42d;" horiz-adv-x="660" 
d="M509 315h-220c-59 -1 -78 -27 -76 -97h-18v241h18c-2 -73 19 -100 75 -99h220c-12 169 -100 272 -235 272c-64 0 -125 -28 -168 -76c-29 -34 -44 -67 -50 -119l-19 2l7 223h20c5 -28 14 -40 31 -40c10 0 11 0 50 19c40 18 90 28 140 28c193 0 346 -149 346 -338
c0 -187 -149 -338 -333 -338c-105 0 -204 56 -267 151l17 11c60 -80 132 -118 224 -118c142 0 231 104 238 278z" />
    <glyph glyph-name="afii10048" unicode="&#x42e;" horiz-adv-x="1028" 
d="M228 360h119c16 183 144 309 314 309c183 0 319 -144 319 -338c0 -193 -135 -338 -314 -338s-310 132 -319 322h-119v-211c0 -71 16 -86 90 -86v-18h-286v18c74 0 90 15 91 86v455c-1 70 -17 85 -91 85v18h286v-18c-74 0 -90 -15 -90 -85v-199zM660 630
c-118 0 -197 -120 -197 -299c0 -177 80 -299 197 -299c122 0 203 119 203 300c0 177 -83 298 -203 298z" />
    <glyph glyph-name="afii10049" unicode="&#x42f;" horiz-adv-x="667" 
d="M441 311h-52l-236 -311h-173v19c60 -1 71 7 144 100l153 201c-50 14 -72 25 -98 48c-35 32 -56 78 -56 125c0 75 48 137 122 158c26 8 58 11 116 11h276v-18c-75 0 -91 -15 -91 -86v-454c0 -71 16 -86 91 -86v-18h-284v18c72 1 87 16 88 86v207zM441 346v264
c-27 9 -40 11 -60 11c-84 0 -141 -55 -141 -135c0 -87 69 -140 183 -140h18z" />
    <glyph glyph-name="afii10065" unicode="&#x430;" horiz-adv-x="444" 
d="M425 73l12 -11c-31 -47 -65 -69 -104 -69c-32 0 -51 24 -57 70c-56 -50 -95 -70 -140 -70c-56 0 -100 48 -100 110c0 52 27 92 83 122c38 21 65 33 157 67v21c0 52 -2 65 -11 84c-11 21 -33 32 -61 32c-33 0 -57 -14 -66 -38c-5 -13 -5 -15 -5 -52c0 -23 -18 -42 -40 -42
c-23 0 -43 22 -43 48c0 60 77 112 168 112c50 0 92 -15 114 -39c18 -21 27 -53 27 -101v-218c0 -39 4 -49 20 -49c14 0 29 8 46 23zM276 98v162c-126 -51 -156 -76 -156 -131c0 -44 29 -75 71 -75c31 0 57 14 85 44z" />
    <glyph glyph-name="afii10066" unicode="&#x431;" horiz-adv-x="509" 
d="M280 561h-16c-58 0 -103 -32 -130 -92c-12 -25 -17 -46 -28 -122c43 76 91 110 158 110c112 0 192 -94 192 -225c0 -133 -88 -239 -199 -239c-65 0 -125 34 -157 90c-26 46 -40 113 -40 196c0 110 23 216 58 271c36 54 88 82 155 82h23c13 -1 24 -1 30 -1
c58 0 76 6 83 27h13c-13 -71 -47 -98 -124 -98c-3 0 -10 0 -18 1zM251 422c-36 0 -63 -18 -83 -55c-16 -31 -22 -64 -22 -122c0 -134 47 -217 122 -217c60 0 99 68 99 174c0 132 -47 220 -116 220z" />
    <glyph glyph-name="afii10067" unicode="&#x432;" horiz-adv-x="472" 
d="M30 450h185c68 0 92 -4 122 -19c42 -22 67 -58 67 -96c0 -26 -12 -54 -31 -73c-12 -12 -22 -18 -47 -29c67 -21 97 -55 97 -109c0 -46 -28 -87 -73 -107c-34 -15 -53 -17 -163 -17h-157v17h17c51 3 56 11 57 104v208c-2 93 -6 101 -57 104h-17v17zM183 421v-170
c17 -3 25 -4 37 -4c62 0 98 32 98 88c0 54 -41 89 -104 89c-10 0 -17 -1 -31 -3zM183 216v-182c20 -5 30 -6 46 -6c62 0 105 39 105 96c0 60 -44 97 -114 97c-13 0 -20 -1 -37 -5z" />
    <glyph glyph-name="afii10068" unicode="&#x433;" horiz-adv-x="410" 
d="M181 411v-291c0 -87 8 -102 57 -103h16v-17h-226v17h17c51 3 56 12 57 103v210c-1 92 -6 100 -57 103h-17v17h348l16 -139h-17c-11 71 -43 100 -111 100h-83z" />
    <glyph glyph-name="afii10069" unicode="&#x434;" horiz-adv-x="509" 
d="M482 450v-17h-16c-49 -1 -57 -15 -57 -103v-265c0 -32 4 -36 33 -35h36l9 -141h-17c-8 77 -42 111 -108 111h-224c-67 1 -99 -32 -108 -111h-17l9 141h27c41 0 70 23 84 68c15 46 28 160 28 243c0 69 -14 92 -56 92h-14v17h391zM330 39v372h-133
c0 -237 -16 -340 -56 -372h189z" />
    <glyph glyph-name="afii10070" unicode="&#x435;" horiz-adv-x="444" 
d="M396 185l18 -8c-18 -56 -31 -85 -49 -109c-34 -48 -85 -75 -139 -75c-105 0 -184 100 -184 232c0 133 81 232 190 232c98 0 161 -71 164 -186h-280c3 -117 60 -197 139 -197c57 0 105 38 141 111zM117 310h176c-3 66 -33 104 -84 104c-50 0 -84 -38 -92 -104z" />
    <glyph glyph-name="afii10072" unicode="&#x436;" horiz-adv-x="691" 
d="M307 210h-28l-124 -157c-7 -9 -10 -16 -10 -23c0 -8 7 -13 18 -13h18v-17h-199v17h8c34 0 63 19 102 68l133 166l-110 123c-38 43 -72 60 -117 59v17h183v-17h-9c-19 0 -30 -8 -30 -22c0 -10 4 -18 13 -29l125 -141h27v89c-2 91 -7 100 -57 103h-18v17h227v-17h-18
c-50 -3 -55 -12 -56 -103v-89h26l125 141c10 11 14 20 14 29c0 13 -12 22 -31 22h-9v17h183v-17c-45 1 -78 -16 -117 -59l-109 -123l133 -166c39 -50 67 -68 103 -68h6v-17h-199v17h18c12 0 19 5 19 13c0 7 -3 14 -11 23l-123 157h-28v-89c1 -92 6 -101 56 -104h18v-17h-227
v17h18c50 3 55 12 57 104v89z" />
    <glyph glyph-name="afii10073" unicode="&#x437;" horiz-adv-x="395" 
d="M53 313h-17l8 142h14c1 -10 8 -16 21 -16c8 0 18 2 38 8c32 8 45 10 73 10c94 0 148 -37 148 -101c0 -33 -15 -64 -41 -84c-12 -9 -24 -15 -51 -24c38 -8 57 -15 76 -33c24 -22 38 -54 38 -88c0 -77 -76 -134 -176 -134c-80 0 -131 31 -181 109l18 12
c46 -55 87 -78 142 -78c64 0 108 40 108 97c0 27 -11 53 -30 71c-18 17 -42 24 -84 24c-7 0 -10 0 -17 -2v38h32c51 0 87 33 87 81c0 51 -35 84 -91 84c-64 0 -103 -40 -115 -116z" />
    <glyph glyph-name="afii10074" unicode="&#x438;" horiz-adv-x="535" 
d="M296 450h226v-17h-16c-49 -1 -57 -16 -57 -104v-208c0 -88 8 -103 57 -104h16v-17h-226v17h17c51 3 56 12 57 104v211l-201 -265c3 -37 18 -50 55 -50h16v-17h-226v17h17c51 3 56 12 57 104v208c-1 92 -6 101 -57 104h-17v17h226v-17h-16c-49 -1 -57 -16 -57 -104v-214
l201 268c-2 35 -18 51 -55 50h-17v17z" />
    <glyph glyph-name="afii10075" unicode="&#x439;" horiz-adv-x="535" 
d="M369 625c21 0 36 -15 36 -38c0 -53 -57 -92 -135 -92c-80 0 -139 39 -139 92c0 23 15 38 36 38c19 0 33 -15 33 -35c0 -7 -1 -12 -4 -18c-2 -6 -3 -10 -3 -14c0 -23 33 -40 76 -40c39 0 74 16 74 34c0 3 -1 9 -3 17c-3 12 -4 15 -4 21c0 20 14 35 33 35zM296 450h226v-17
h-16c-49 -1 -57 -16 -57 -104v-208c0 -88 8 -103 57 -104h16v-17h-226v17h17c51 3 56 12 57 104v211l-201 -265c3 -37 18 -50 55 -50h16v-17h-226v17h17c51 3 56 12 57 104v208c-1 92 -6 101 -57 104h-17v17h226v-17h-16c-49 -1 -57 -16 -57 -104v-214l201 268
c-2 35 -18 51 -55 50h-17v17z" />
    <glyph glyph-name="afii10076" unicode="&#x43a;" horiz-adv-x="486" 
d="M159 216v-95c0 -88 8 -102 57 -104h16v-17h-226v17h17c51 3 55 12 57 104v209c-2 92 -6 100 -57 103h-17v17h226v-17h-16c-49 -1 -57 -16 -57 -103v-98l171 153c12 11 16 17 16 24c0 17 -10 24 -31 24h-12v17h191v-17c-42 -3 -68 -13 -99 -41l-165 -142l202 -195
c26 -25 50 -38 70 -38h7v-17h-206v17h9c24 0 29 2 29 12c0 7 -3 12 -16 25l-162 162h-4z" />
    <glyph glyph-name="afii10077" unicode="&#x43b;" horiz-adv-x="499" 
d="M68 450h398v-17h-16c-49 -1 -57 -15 -57 -103v-209c0 -88 8 -103 57 -104h16v-17h-226v17h17c51 3 56 12 57 104v290h-134c1 -62 1 -78 1 -95c0 -234 -37 -327 -131 -327c-38 0 -62 18 -62 47c0 22 19 41 43 41c9 0 18 -3 31 -10c11 -6 18 -9 25 -9c40 0 61 92 61 268
c0 87 -13 107 -68 107h-12v17z" />
    <glyph glyph-name="afii10078" unicode="&#x43c;" horiz-adv-x="633" 
d="M462 359l-159 -362h-16l-157 360v-271c-2 -51 12 -68 57 -69h9v-17h-176v17h10c52 1 70 19 69 69v274c1 53 -17 72 -69 73h-10v17h160l141 -338l147 338h145v-17h-15c-50 -1 -58 -16 -57 -104v-208c-1 -88 7 -103 57 -104h15v-17h-226v17h18c50 3 55 12 57 104v238z" />
    <glyph glyph-name="afii10079" unicode="&#x43d;" horiz-adv-x="535" 
d="M160 254h215v76c-1 91 -6 100 -57 103h-17v17h226v-17h-16c-49 -1 -57 -16 -57 -103v-209c0 -88 8 -103 57 -104h16v-17h-226v17h17c51 3 56 12 57 104v97h-215v-97c0 -88 8 -103 57 -104h16v-17h-226v17h17c51 3 56 12 57 104v209c-1 91 -6 100 -57 103h-17v17h226v-17
h-16c-49 -1 -57 -16 -57 -103v-76z" />
    <glyph glyph-name="afii10080" unicode="&#x43e;" horiz-adv-x="500" 
d="M255 457c122 0 211 -95 211 -225c0 -133 -97 -239 -220 -239c-121 0 -213 97 -213 226c0 67 25 130 70 174c44 45 91 64 152 64zM242 422c-76 0 -120 -70 -120 -191c0 -120 55 -203 136 -203c72 0 119 69 119 174c0 131 -55 220 -135 220z" />
    <glyph glyph-name="afii10081" unicode="&#x43f;" horiz-adv-x="535" 
d="M14 450h508v-17h-16c-49 -1 -57 -15 -57 -103v-209c0 -88 8 -103 57 -104h16v-17h-226v17h17c51 3 56 12 57 104v290h-203v-290c0 -88 8 -103 57 -104h16v-17h-226v17h17c51 3 56 12 57 104v209c-1 92 -6 100 -57 103h-17v17z" />
    <glyph glyph-name="afii10082" unicode="&#x440;" horiz-adv-x="500" 
d="M166 25v-64c1 -88 10 -103 59 -104h12v-17h-227v17h18c31 0 44 8 52 31c2 7 2 7 4 35l3 38v358c0 52 -10 69 -38 69c-7 0 -13 -1 -20 -4l-10 -3l-6 14c73 30 84 34 153 68v-94c56 67 90 88 139 88c90 0 165 -101 165 -223c0 -130 -97 -241 -209 -241c-33 0 -56 8 -95 32z
M166 322v-165c0 -51 3 -71 17 -91c16 -23 46 -38 77 -38c71 0 120 73 120 177c0 109 -47 180 -118 180c-37 0 -53 -11 -96 -63z" />
    <glyph glyph-name="afii10083" unicode="&#x441;" horiz-adv-x="444" 
d="M397 181l17 -8c-36 -118 -99 -180 -185 -180c-53 0 -108 28 -143 73c-31 40 -48 93 -48 155c0 138 87 236 210 236c82 0 150 -46 150 -103c0 -25 -20 -43 -49 -43c-31 0 -48 17 -53 51c-6 42 -23 58 -61 58c-69 0 -114 -66 -114 -168c0 -109 53 -178 137 -178
c65 0 114 38 139 107z" />
    <glyph glyph-name="afii10084" unicode="&#x442;" horiz-adv-x="437" 
d="M259 411v-290c0 -88 8 -103 57 -104h16v-17h-226v17h17c51 3 56 12 57 104v290h-26c-80 -1 -109 -25 -122 -100h-16l13 139h380l12 -139h-15c-14 73 -45 101 -110 100h-37z" />
    <glyph glyph-name="afii10085" unicode="&#x443;" horiz-adv-x="500" 
d="M236 16l-106 274c-54 137 -54 137 -88 142l-15 1v17h196v-17h-8c-27 1 -39 -10 -39 -31c0 -11 1 -15 19 -62l84 -221l81 217c14 38 19 56 19 69c0 19 -13 29 -38 28h-5v17h143v-17l-10 -1c-31 -7 -38 -17 -65 -89l-122 -320c-30 -78 -50 -116 -74 -139
c-26 -27 -56 -40 -91 -40c-37 0 -65 22 -65 52c0 25 23 47 51 47c11 0 24 -4 39 -10c14 -7 17 -8 23 -8c25 0 46 27 71 91z" />
    <glyph glyph-name="afii10086" unicode="&#x444;" horiz-adv-x="648" 
d="M435 -160h-227v17h18c31 0 44 8 52 31c3 6 3 8 5 35l2 38v44c-31 -8 -59 -12 -77 -12c-101 0 -180 100 -180 227c0 123 83 234 174 234c20 0 33 -2 83 -14v84c0 39 -1 46 -9 57c-5 6 -16 11 -27 11c-10 0 -17 -1 -32 -7l-6 14c73 30 84 35 152 69v-223c46 8 61 10 81 10
c101 0 175 -94 175 -223s-85 -239 -184 -239c-18 0 -38 4 -72 14v-46c1 -88 10 -103 59 -104h13v-17zM363 403v-345c31 -23 48 -30 72 -30c59 0 95 65 95 174c0 136 -43 220 -113 220c-20 0 -32 -4 -54 -19zM285 46v342c-30 26 -47 34 -72 34c-35 0 -59 -18 -74 -55
c-14 -35 -22 -83 -22 -135c0 -124 44 -204 112 -204c20 0 34 5 56 18z" />
    <glyph glyph-name="afii10087" unicode="&#x445;" horiz-adv-x="500" 
d="M316 321l-39 -58c139 -224 155 -244 199 -246h7v-17h-206v17h8c22 0 33 7 33 20c0 9 -6 24 -18 42l-68 110l-67 -109c-20 -32 -22 -37 -22 -45c0 -12 11 -18 31 -18h11v-17h-166v16l19 1c38 5 50 17 105 104l68 106l-45 73c-80 129 -81 130 -126 134h-8v16h200v-16h-7
c-17 0 -30 -7 -30 -17s10 -34 23 -53l40 -64l57 82c8 12 13 24 13 32c1 12 -14 20 -35 20h-8v16h161v-16h-5c-48 -5 -57 -13 -125 -113z" />
    <glyph glyph-name="afii10088" unicode="&#x446;" horiz-adv-x="535" 
d="M522 -111h-17c-10 79 -38 108 -108 111h-384v17h17c51 3 56 11 57 103v209c-1 92 -6 101 -57 104h-17v17h226v-17h-16c-49 -1 -57 -16 -57 -104v-290h202v290c-1 92 -6 101 -57 104h-17v17h226v-17h-16c-49 -1 -57 -16 -57 -104v-197c0 -88 7 -103 51 -103c2 0 8 0 14 1z
" />
    <glyph glyph-name="afii10089" unicode="&#x447;" horiz-adv-x="503" 
d="M332 121v75c-52 -13 -87 -18 -126 -18c-57 0 -96 16 -115 46c-11 18 -14 36 -14 78v27c-1 92 -6 101 -57 104h-17v17h219v-17h-9c-49 -1 -57 -16 -57 -104v-27c0 -66 26 -95 86 -95c27 0 57 5 90 14v108c-1 92 -6 101 -57 104h-11v17h220v-17h-16
c-49 -1 -57 -16 -57 -104v-208c0 -88 8 -103 57 -104h16v-17h-240v17h31c51 3 56 12 57 104z" />
    <glyph glyph-name="afii10090" unicode="&#x448;" horiz-adv-x="770" 
d="M754 0h-738v17h17c51 2 56 11 57 103v209c-1 92 -6 101 -57 104h-17v17h213v-17h-9c-44 -3 -51 -19 -51 -104v-289h178v289c-1 92 -6 101 -57 104h-11v17h213v-17h-9c-49 -1 -57 -16 -57 -104v-289h176v289c-2 90 -6 99 -50 104h-11v17h213v-17h-16
c-49 -1 -57 -16 -57 -107v-206c0 -88 8 -102 57 -103h16v-17z" />
    <glyph glyph-name="afii10091" unicode="&#x449;" horiz-adv-x="770" 
d="M756 -111h-17c-10 85 -43 114 -127 111h-598v17h17c51 2 56 11 57 103v209c-1 92 -6 101 -57 104h-17v17h213v-17h-9c-44 -3 -51 -19 -51 -104v-289h178v289c-1 92 -6 101 -57 104h-11v17h213v-17h-9c-49 -1 -57 -16 -57 -104v-289h176v289c-2 90 -6 99 -50 104h-11v17
h213v-17h-16c-49 -1 -57 -16 -57 -107v-225c0 -61 7 -70 57 -72h12z" />
    <glyph glyph-name="afii10092" unicode="&#x44a;" horiz-adv-x="517" 
d="M313 450v-17h-16c-50 -1 -57 -15 -57 -103v-74c35 3 50 4 70 4c113 0 188 -51 188 -128c0 -82 -72 -132 -188 -132h-224v17h18c50 3 55 12 57 104v290h-27c-67 1 -94 -24 -112 -100h-16l13 139h294zM240 228v-188c26 -5 38 -7 54 -7c71 0 115 36 115 93
c0 66 -48 104 -131 104c-13 0 -21 0 -38 -2z" />
    <glyph glyph-name="afii10093" unicode="&#x44b;" horiz-adv-x="672" 
d="M21 450h226v-17h-16c-49 -1 -57 -15 -57 -103v-74c35 3 50 4 69 4c114 0 189 -51 189 -128c0 -82 -71 -132 -187 -132h-224v17h17c51 3 56 12 57 104v209c-1 91 -6 100 -57 103h-17v17zM174 228v-188c26 -5 38 -7 54 -7c71 0 115 36 115 93c0 66 -48 104 -130 104
c-14 0 -21 0 -39 -2zM652 17v-17h-226v17h17c51 3 56 12 57 104v208c-1 92 -6 101 -57 104h-17v17h226v-17h-16c-49 -1 -57 -16 -57 -104v-208c0 -88 8 -103 57 -104h16z" />
    <glyph glyph-name="afii10094" unicode="&#x44c;" horiz-adv-x="456" 
d="M20 450h226v-17h-16c-49 -1 -57 -15 -57 -103v-74c35 3 50 4 69 4c114 0 189 -51 189 -128c0 -82 -71 -132 -187 -132h-224v17h17c51 3 56 12 57 104v209c-1 91 -6 100 -57 103h-17v17zM173 228v-188c26 -5 38 -7 54 -7c71 0 115 36 115 93c0 66 -48 104 -130 104
c-14 0 -21 0 -39 -2z" />
    <glyph glyph-name="afii10095" unicode="&#x44d;" horiz-adv-x="429" 
d="M29 299l7 151h12c5 -12 11 -16 21 -16s10 0 50 12c26 8 46 11 71 11c130 0 220 -94 220 -231c0 -132 -96 -233 -221 -233c-77 0 -128 30 -184 110l17 13c48 -56 90 -79 149 -79c53 0 94 24 121 70c19 32 25 59 26 112h-188v36h188c-4 116 -49 175 -133 175
c-75 0 -123 -46 -140 -131h-16z" />
    <glyph glyph-name="afii10096" unicode="&#x44e;" horiz-adv-x="747" 
d="M274 218h-98v-97c0 -88 8 -103 57 -104h16v-17h-226v17h17c51 3 56 12 57 104v209c-1 91 -6 100 -57 103h-17v17h226v-17h-16c-49 -1 -57 -16 -57 -103v-76h100c19 121 106 203 217 203c125 0 214 -93 214 -224c0 -134 -97 -240 -220 -240c-121 0 -210 94 -213 225z
M483 422c-76 0 -120 -70 -120 -191c0 -120 55 -203 136 -203c72 0 119 69 119 175c0 130 -55 219 -135 219z" />
    <glyph glyph-name="afii10097" unicode="&#x44f;" horiz-adv-x="460" 
d="M301 121v83c-12 1 -17 1 -21 1c-28 0 -43 -10 -67 -43l-113 -162h-115v17h8c19 -1 40 11 54 30l75 108c20 28 36 38 70 46c-101 9 -146 46 -146 119c0 46 20 82 57 106c25 15 70 24 120 24h230v-17h-16c-49 -1 -57 -16 -57 -104v-208c0 -88 8 -103 57 -104h16v-17h-227
v17h18c51 3 55 12 57 104zM301 231v184c-26 5 -38 7 -55 7c-69 0 -114 -40 -114 -103c0 -58 45 -94 119 -94c17 0 27 1 50 6z" />
    </font>
</defs>
</svg>
