<?xml version="1.0" standalone="no"?>
<!DOCTYPE svg PUBLIC "-//W3C//DTD SVG 1.1//EN" "http://www.w3.org/Graphics/SVG/1.1/DTD/svg11.dtd" >
<svg xmlns="http://www.w3.org/2000/svg" xmlns:xlink="http://www.w3.org/1999/xlink" version="1.1">
<metadata>
Created by FontForge 20190801 at Tue Aug 11 16:08:06 2015
 By Unknown
Copyright (URW)++,Copyright 2014 by (URW)++ Design &#38; Development
</metadata>
<defs>
<font id="NimbusRomNo9L-Med" horiz-adv-x="500" >
  <font-face 
    font-family="Nimbus Roman No9 L"
    font-weight="500"
    font-stretch="normal"
    units-per-em="1000"
    panose-1="0 0 6 0 0 0 0 0 0 0"
    ascent="662"
    descent="-338"
    x-height="452"
    cap-height="662"
    bbox="-165 -334 1079 1044"
    underline-thickness="67"
    underline-position="-100"
    stemh="31"
    stemv="138"
    unicode-range="U+0020-FB04"
  />
<missing-glyph horiz-adv-x="250" 
 />
    <glyph glyph-name="ff" unicode="ff" horiz-adv-x="632" 
d="M96 447v41c0 68 10 102 39 132c32 33 79 49 142 49c69 0 111 -16 136 -51c36 36 76 51 139 51c90 0 143 -36 143 -96c0 -37 -23 -61 -59 -61c-32 0 -56 21 -56 50c0 12 1 15 13 40c3 6 5 12 5 16c0 13 -13 23 -31 23c-38 0 -51 -23 -51 -88v-106h85v-45h-85v-292
c-2 -73 4 -84 43 -88v-22h-222v22c37 4 42 15 41 88v292h-144v-292c-2 -74 3 -84 42 -88v-22h-222v22c38 4 44 15 42 88v292h-54v45h54zM379 513l-14 -1c-30 0 -54 22 -54 50c0 12 2 17 13 40c3 6 5 12 5 17c0 12 -17 22 -37 22c-44 0 -58 -22 -58 -88v-106h144v41
c0 14 0 15 1 25z" />
    <glyph glyph-name="fi" unicode="fi" horiz-adv-x="556" 
d="M505 447v-337c-2 -73 4 -84 44 -88v-22h-225v22c39 4 45 15 43 88v204c2 74 -3 84 -43 88h-106v-292c-2 -73 4 -84 42 -88v-22h-222v22c38 4 44 15 42 88v292h-54v45h54v41c0 69 12 103 45 132c38 33 90 49 162 49c120 0 191 -36 191 -98c0 -35 -25 -59 -63 -59
c-35 0 -60 22 -60 54c0 10 2 19 8 32c4 10 5 11 5 15c0 14 -36 28 -74 28c-56 0 -76 -23 -76 -88v-106h287z" />
    <glyph glyph-name="fl" unicode="fl" horiz-adv-x="556" 
d="M349 662h146v-552c-2 -74 4 -84 53 -88v-22h-245v22c49 4 56 15 54 88v405c-9 -2 -18 -3 -23 -3c-29 0 -53 22 -53 49c0 13 1 17 13 41c3 6 5 12 5 16c0 13 -13 23 -31 23c-37 0 -50 -23 -50 -88v-106h84v-45h-84v-292c-2 -73 3 -84 42 -88v-22h-222v22c38 4 44 15 42 88
v292h-54v45h54v41c0 68 10 102 38 132c32 34 75 49 142 49c35 0 63 -2 89 -7z" />
    <glyph glyph-name="ffi" unicode="ffi" horiz-adv-x="856" 
d="M798 447v-337c-1 -77 2 -83 50 -88v-22h-232v22c41 4 45 14 44 88v204c2 73 -3 84 -43 88h-101v-292c-2 -73 4 -84 43 -88v-22h-223v22c38 4 44 15 42 88v292h-145v-292c-1 -74 4 -84 43 -88v-22h-229v22c44 4 50 15 48 88v292h-60v45h60v41c0 69 10 102 39 132
c33 34 79 49 146 49c69 0 112 -14 138 -46c45 34 87 46 161 46c121 0 190 -36 190 -99c0 -35 -24 -58 -61 -58s-65 22 -65 51c0 9 2 18 6 38c1 5 2 9 2 12c0 17 -23 28 -56 28c-60 0 -79 -21 -79 -88v-106h282zM233 447h145v41v24c-39 2 -60 19 -60 49c0 13 2 18 14 41
c3 6 5 12 5 16c0 13 -17 23 -40 23c-49 0 -64 -20 -64 -88v-106z" />
    <glyph glyph-name=".notdef" horiz-adv-x="250" 
 />
    <glyph glyph-name="space" unicode=" " horiz-adv-x="250" 
 />
    <glyph glyph-name="exclam" unicode="!" horiz-adv-x="333" 
d="M167 153c45 0 83 -38 83 -84s-37 -82 -84 -82s-82 36 -82 83c0 45 38 83 83 83zM180 229h-28c-13 120 -23 170 -51 262c-15 45 -18 63 -18 88c0 62 31 98 83 98c53 0 83 -36 83 -100c0 -23 -4 -42 -18 -86c-29 -93 -38 -142 -51 -262z" />
    <glyph glyph-name="quotedbl" unicode="&#x22;" horiz-adv-x="555" 
d="M170 396h-40c-5 21 -9 40 -11 47c-20 83 -32 143 -32 165c0 42 25 69 62 69s64 -28 64 -66c0 -22 -9 -67 -43 -215zM425 396h-40c-5 21 -10 40 -11 47c-20 83 -32 143 -32 165c0 41 25 69 62 69s64 -28 64 -66c0 -22 -10 -72 -43 -215z" />
    <glyph glyph-name="numbersign" unicode="#" 
d="M463 278v-72h-96l-29 -206h-76l28 206h-111l-28 -206h-77l29 206h-94v72h105l17 131h-94v71h104l29 206h76l-28 -206h111l29 206h76l-29 -206h86v-71h-96l-17 -131h85zM319 409h-111l-18 -131h111z" />
    <glyph glyph-name="dollar" unicode="$" 
d="M425 471h-21c-28 98 -66 141 -135 157v-210c95 -49 125 -70 159 -108c26 -28 40 -71 40 -118c0 -55 -17 -99 -49 -131c-31 -30 -70 -46 -150 -61v-97h-54v97c-60 3 -85 9 -164 42v153l20 -2c32 -106 70 -150 143 -164v246c-131 66 -180 124 -180 211c0 62 30 114 85 145
c29 16 51 23 96 28v76h54v-74c77 -13 110 -23 156 -51v-139zM269 245v-216c62 12 91 45 91 103c0 53 -13 69 -91 113zM214 445v186c-62 -15 -87 -41 -87 -88c0 -45 28 -77 87 -98z" />
    <glyph glyph-name="percent" unicode="%" horiz-adv-x="1000" 
d="M723 678l-386 -686h-54l387 686h53zM718 322c97 0 166 -72 166 -173s-70 -176 -166 -176c-94 0 -164 74 -164 175c0 102 68 174 164 174zM719 297c-31 0 -42 -37 -42 -138c0 -119 11 -159 42 -159c29 0 42 45 42 148c0 107 -12 149 -42 149zM284 652
c-32 0 -43 -37 -43 -141c0 -113 11 -153 42 -153c30 0 42 40 42 144c0 107 -12 150 -41 150zM284 677c95 0 164 -72 164 -171c0 -100 -69 -172 -167 -172c-96 0 -162 69 -162 168c0 102 68 175 165 175z" />
    <glyph glyph-name="ampersand" unicode="&#x26;" horiz-adv-x="833" 
d="M573 410h202v-23c-42 -5 -53 -11 -71 -40l-27 -43c-29 -45 -33 -52 -91 -132c55 -70 80 -89 117 -89c24 0 40 11 57 37l19 -11l-16 -26c-25 -41 -36 -56 -53 -68c-23 -19 -60 -31 -91 -31c-51 0 -87 21 -145 86c-81 -60 -145 -85 -218 -85c-110 0 -187 71 -187 172
c0 93 53 154 192 223c-40 67 -51 98 -51 141c0 96 73 156 191 156c100 0 164 -47 164 -119c0 -63 -45 -106 -149 -144l148 -209c57 70 74 102 74 141c0 29 -7 33 -65 41v23zM325 280l-47 70c-55 -32 -73 -55 -73 -92c0 -51 28 -114 71 -158c24 -26 57 -41 87 -41
c25 0 50 11 88 39c-31 41 -53 73 -126 182zM397 442c50 17 69 40 69 80c0 66 -42 123 -90 123c-32 0 -51 -21 -51 -55c0 -41 21 -83 72 -148z" />
    <glyph glyph-name="quotesingle" unicode="'" horiz-adv-x="278" 
d="M159 396h-40c-5 21 -9 40 -11 47c-20 83 -32 143 -32 165c0 42 25 69 62 69s64 -28 64 -66c0 -22 -10 -71 -43 -215z" />
    <glyph glyph-name="parenleft" unicode="(" horiz-adv-x="333" 
d="M304 680v-27c-59 -39 -83 -64 -103 -108c-27 -58 -41 -157 -41 -293c0 -133 14 -224 43 -285c21 -43 45 -68 101 -104v-28c-96 58 -139 97 -183 168c-47 75 -72 161 -72 251c0 126 45 243 129 332c38 41 65 61 126 94z" />
    <glyph glyph-name="parenright" unicode=")" horiz-adv-x="333" 
d="M30 -165v27c59 39 83 65 103 108c27 58 41 158 41 292s-14 225 -43 286c-21 43 -45 69 -101 104v28c96 -58 139 -97 183 -168c47 -75 72 -161 72 -251c0 -126 -45 -242 -129 -332c-38 -41 -66 -61 -126 -94z" />
    <glyph glyph-name="asterisk" unicode="*" 
d="M277 466v-8c36 -16 50 -20 95 -24c52 -4 71 -17 71 -50c0 -28 -20 -49 -48 -49c-27 0 -41 12 -74 60c-19 28 -27 35 -55 50l-7 -5c4 -43 9 -58 29 -98c10 -20 13 -29 13 -41c0 -29 -21 -51 -50 -51c-28 0 -47 22 -47 56c0 16 3 24 15 45c19 34 21 44 22 89l-7 5
c-37 -27 -45 -35 -71 -74c-21 -30 -33 -39 -53 -39c-28 0 -49 21 -49 49c0 36 28 55 83 55c41 1 52 5 82 26l1 7c-40 18 -56 22 -100 26c-51 3 -67 15 -67 50c0 30 19 49 47 49c26 0 41 -11 61 -44c24 -39 31 -45 68 -66l7 3c-1 40 -4 51 -24 89c-14 25 -18 35 -18 52
c0 28 21 49 50 49s48 -22 48 -54c0 -15 -3 -24 -16 -47c-17 -28 -22 -45 -22 -71c0 -3 0 -11 1 -18l8 -3c36 29 43 37 69 75c20 30 31 38 53 38c26 0 51 -24 51 -49c0 -18 -16 -40 -35 -48c-12 -6 -21 -7 -45 -7c-42 -2 -54 -6 -86 -27z" />
    <glyph glyph-name="plus" unicode="+" horiz-adv-x="570" 
d="M242 344v205h86v-205h204v-86h-204v-205h-86v205h-204v86h204z" />
    <glyph glyph-name="comma" unicode="," horiz-adv-x="250" 
d="M59 -176l-11 21c73 52 106 92 106 130c0 12 -8 21 -19 21c-1 0 -4 0 -7 -1c-5 -1 -11 -1 -16 -1c-42 0 -71 31 -71 77c0 49 32 81 81 81c59 0 99 -46 99 -114c0 -84 -49 -149 -162 -214z" />
    <glyph glyph-name="hyphen" unicode="-" horiz-adv-x="333" 
d="M285 281v-114h-238v114h238z" />
    <glyph glyph-name="period" unicode="." horiz-adv-x="250" 
d="M125 153c46 0 84 -38 84 -84s-37 -82 -84 -82s-82 36 -82 83c0 45 38 83 82 83z" />
    <glyph glyph-name="slash" unicode="/" horiz-adv-x="278" 
d="M298 676l-231 -695h-88l231 695h88z" />
    <glyph glyph-name="zero" unicode="0" 
d="M251 674c125 0 221 -148 221 -344c0 -198 -94 -343 -221 -343c-130 0 -222 143 -222 346c0 81 21 174 53 227c41 71 105 114 169 114zM317 217v225c0 144 -20 205 -67 205c-48 0 -66 -56 -66 -205v-225c0 -145 19 -203 67 -203c23 0 39 14 49 43c9 26 17 102 17 160z" />
    <glyph glyph-name="one" unicode="1" 
d="M438 24v-24h-367v24c96 0 117 18 117 97v378c0 45 -12 67 -35 67c-14 0 -38 -6 -64 -17c-5 -2 -11 -4 -20 -7v25l247 107h17v-558c0 -76 17 -91 105 -92z" />
    <glyph glyph-name="two" unicode="2" 
d="M474 206l-45 -206h-407v22c142 153 177 194 227 271c32 48 50 101 50 145c0 23 -7 49 -20 70c-21 36 -53 54 -97 54c-52 0 -88 -27 -119 -88h-27c27 74 47 107 85 145c35 36 81 55 130 55c106 0 181 -74 181 -179c0 -75 -35 -141 -111 -214l-159 -151h148
c101 1 112 7 140 76h24z" />
    <glyph glyph-name="three" unicode="3" 
d="M62 512l-20 12c53 101 126 150 224 150c100 0 159 -50 159 -135c0 -57 -19 -85 -81 -124c40 -17 56 -29 77 -53c28 -34 43 -75 43 -121c0 -143 -129 -255 -293 -255c-91 0 -150 35 -150 88c0 34 26 57 63 57c31 0 60 -16 98 -53c32 -32 51 -43 74 -43c59 0 96 45 96 115
c0 48 -17 92 -48 120c-36 34 -67 50 -149 79v16c93 30 127 64 127 129c0 62 -38 101 -100 101c-50 0 -82 -22 -120 -83z" />
    <glyph glyph-name="four" unicode="4" 
d="M409 250h62v-109h-62v-141h-142v141h-243v111c60 95 121 180 249 346l58 76h78v-424zM269 250v291l-205 -291h205z" />
    <glyph glyph-name="five" unicode="5" 
d="M151 538l-21 -79c81 -5 110 -9 148 -20c107 -31 169 -108 169 -211c0 -138 -115 -236 -276 -236c-87 0 -144 34 -144 86c0 34 25 59 60 59c27 0 56 -13 98 -44c39 -29 65 -41 88 -41c55 0 98 43 98 98c0 65 -52 121 -139 148c-44 14 -82 20 -177 26l95 338h316l-42 -124
h-273z" />
    <glyph glyph-name="six" unicode="6" 
d="M466 674v-26c-143 -29 -225 -108 -261 -252c30 12 51 16 83 16c111 0 183 -76 183 -195c0 -133 -89 -230 -211 -230c-137 0 -227 111 -227 280c0 131 58 240 168 316c73 51 135 72 265 91zM234 368c-14 0 -28 -4 -35 -10c-7 -5 -13 -60 -13 -121c0 -92 10 -163 26 -195
c11 -20 27 -29 51 -29c47 0 59 29 59 146c0 155 -22 209 -88 209z" />
    <glyph glyph-name="seven" unicode="7" 
d="M473 662l-231 -662h-93l196 528h-203c-51 1 -79 -23 -96 -83h-24l43 217h408z" />
    <glyph glyph-name="eight" unicode="8" 
d="M180 317c-97 58 -136 111 -136 185c0 104 87 172 219 172c117 0 191 -55 191 -142c0 -63 -39 -103 -133 -136c105 -67 147 -128 147 -213c0 -118 -91 -196 -227 -196c-125 0 -208 67 -208 167c0 43 15 80 43 107c25 25 49 38 104 56zM297 413c32 44 40 66 40 114
c0 75 -32 119 -85 119c-47 0 -82 -35 -82 -82c0 -54 46 -109 127 -151zM201 300c-39 -59 -49 -88 -49 -143c0 -87 35 -139 95 -139c53 0 85 40 85 106c0 73 -23 104 -131 176z" />
    <glyph glyph-name="nine" unicode="9" 
d="M36 -13v26c141 28 220 105 262 254c-26 -13 -50 -18 -89 -18c-106 0 -178 78 -178 194c0 134 88 231 211 231c137 0 227 -111 227 -280c0 -125 -53 -230 -153 -305c-77 -58 -143 -82 -280 -102zM240 648c-48 0 -60 -29 -60 -143c0 -155 23 -212 84 -212c14 0 32 4 39 8
c3 2 5 8 6 21c0 4 1 12 2 25c3 45 5 77 5 103c0 68 -10 137 -24 165c-11 23 -28 33 -52 33z" />
    <glyph glyph-name="colon" unicode=":" horiz-adv-x="333" 
d="M166 153c46 0 84 -38 84 -84s-37 -82 -84 -82s-82 36 -82 83c0 45 38 83 82 83zM166 463c47 0 84 -37 84 -83s-37 -83 -83 -83c-47 0 -83 36 -83 84c0 45 37 82 82 82z" />
    <glyph glyph-name="semicolon" unicode=";" horiz-adv-x="333" 
d="M102 -176l-11 21c73 52 106 92 106 130c0 12 -8 21 -17 21h-7l-11 -1c-4 -1 -7 -1 -8 -1c-40 0 -70 33 -70 77c0 49 32 81 81 81c59 0 99 -46 99 -114c0 -84 -49 -149 -162 -214zM166 463c47 0 84 -37 84 -83s-37 -83 -83 -83c-47 0 -83 36 -83 84c0 45 37 82 82 82z" />
    <glyph glyph-name="less" unicode="&#x3c;" horiz-adv-x="570" 
d="M534 42l-498 218v82l498 219v-94l-377 -166l377 -165v-94z" />
    <glyph glyph-name="equal" unicode="=" horiz-adv-x="570" 
d="M532 444v-86h-494v86h494zM532 244v-86h-494v86h494z" />
    <glyph glyph-name="greater" unicode="&#x3e;" horiz-adv-x="570" 
d="M43 47v94l377 165l-377 166v94l498 -218v-83z" />
    <glyph glyph-name="question" unicode="?" 
d="M253 226h-29c-2 30 -2 33 -2 45c0 28 7 50 31 96c32 61 42 94 42 145c0 81 -30 128 -83 128c-35 0 -59 -16 -59 -39c0 -10 3 -16 15 -29c16 -19 21 -30 21 -50c0 -38 -24 -63 -61 -63c-39 0 -67 31 -67 74c0 83 77 142 184 142c118 0 196 -65 196 -163
c0 -67 -29 -107 -119 -162c-61 -39 -69 -52 -69 -124zM239 153c45 0 82 -38 82 -84s-36 -82 -82 -82c-47 0 -83 36 -83 83c0 45 38 83 83 83z" />
    <glyph glyph-name="at" unicode="@" horiz-adv-x="930" 
d="M601 384l12 49h76l-71 -322c-1 -6 -2 -15 -2 -22c0 -40 14 -60 40 -60c33 0 62 21 88 63c29 49 50 127 50 191c0 181 -142 331 -313 331c-187 0 -323 -171 -323 -405c0 -216 141 -369 341 -369c73 0 126 15 212 61l14 -44c-104 -57 -160 -74 -238 -74
c-229 0 -407 189 -407 432c0 249 178 447 403 447c204 0 361 -163 361 -373c0 -166 -93 -306 -203 -306c-53 0 -93 37 -100 93c-39 -57 -88 -91 -134 -91c-57 0 -101 62 -101 143c0 92 34 188 90 256c34 41 81 65 128 65c38 0 53 -13 77 -65zM538 390c-27 2 -64 -23 -95 -63
c-34 -46 -54 -113 -54 -179c0 -64 25 -105 64 -105c31 0 63 31 87 84c22 50 42 137 42 183c0 52 -14 78 -44 80z" />
    <glyph glyph-name="A" unicode="A" horiz-adv-x="722" 
d="M682 24v-24h-317v24c14 2 26 3 31 3c34 3 47 12 47 32c0 22 -12 58 -45 134h-220l-15 -39c-20 -49 -28 -76 -28 -89c0 -26 22 -37 80 -41v-24h-199v24c47 9 59 23 96 115l217 537h28l218 -515c53 -123 64 -137 107 -137zM192 231h191l-99 238z" />
    <glyph glyph-name="B" unicode="B" horiz-adv-x="667" 
d="M23 0v24c69 7 84 19 86 70v474c-2 52 -20 67 -86 70v24h303c164 0 254 -55 254 -156c0 -75 -42 -115 -155 -149c68 -14 101 -28 136 -58c35 -31 53 -70 53 -115c0 -111 -109 -184 -276 -184h-315zM266 336v-245c0 -44 16 -60 60 -60c79 0 119 49 119 145
c0 107 -49 160 -150 160h-29zM266 585v-220c120 3 152 31 152 133c0 93 -31 135 -100 135c-38 0 -52 -13 -52 -48z" />
    <glyph glyph-name="C" unicode="C" horiz-adv-x="722" 
d="M650 149l30 -25c-99 -108 -166 -143 -278 -143c-204 0 -347 142 -347 344s146 352 341 352c47 0 95 -11 151 -35c22 -9 36 -13 45 -13c20 0 29 10 44 45h26v-229h-24c-34 74 -57 107 -100 145c-42 37 -84 55 -130 55c-118 0 -180 -107 -180 -311c0 -99 13 -169 42 -221
c29 -51 90 -85 155 -85c28 0 59 6 88 17c49 20 80 43 137 104z" />
    <glyph glyph-name="D" unicode="D" horiz-adv-x="722" 
d="M21 0v24c55 1 81 21 81 65v483c-1 46 -20 61 -81 66v24h299c227 0 363 -122 363 -325c0 -202 -141 -337 -352 -337h-310zM261 595v-504c0 -44 13 -57 57 -57c64 0 111 22 144 68c32 44 51 128 51 221c0 83 -14 155 -40 206c-34 68 -84 100 -154 100
c-39 0 -58 -11 -58 -34z" />
    <glyph glyph-name="E" unicode="E" horiz-adv-x="667" 
d="M23 638v24h565v-197h-24c-25 130 -73 164 -232 164c-51 0 -64 -9 -64 -46v-228c105 -1 144 35 159 147h25v-332h-25c-12 114 -52 152 -159 152v-237c0 -43 18 -55 81 -55c75 0 128 16 173 52c35 28 55 56 86 122h27l-39 -204h-573v24c70 6 84 18 86 70v474
c-2 52 -20 67 -86 70z" />
    <glyph glyph-name="F" unicode="F" horiz-adv-x="611" 
d="M22 638v24h555v-197h-23c-14 63 -25 88 -46 113c-30 34 -88 51 -178 51c-50 0 -63 -9 -63 -46v-227c98 0 132 34 150 146h24v-332h-24c-14 113 -50 151 -150 152v-228c2 -55 20 -67 108 -70v-24h-353v24c70 7 84 18 86 70v474c-1 52 -20 67 -86 70z" />
    <glyph glyph-name="G" unicode="G" horiz-adv-x="778" 
d="M747 281v-25c-71 -6 -82 -18 -84 -90v-124c-64 -37 -169 -61 -270 -61c-206 0 -349 141 -349 343c0 203 146 353 341 353c47 0 95 -11 151 -35c22 -9 36 -13 45 -13c20 0 29 10 44 45h26v-229h-24c-34 74 -57 107 -100 145c-42 37 -84 55 -130 55
c-118 0 -180 -108 -180 -314c0 -119 21 -202 63 -257c33 -43 74 -61 136 -61c66 0 94 22 94 72v103c-2 54 -16 65 -99 68v25h336z" />
    <glyph glyph-name="H" unicode="H" horiz-adv-x="778" 
d="M752 24v-24h-333v24c70 7 86 20 88 70v225h-236v-225c1 -50 18 -63 88 -70v-24h-330v24c67 8 82 21 83 70v474c-2 50 -20 65 -83 70v24h330v-24c-66 -4 -86 -20 -88 -70v-203h236v203c-2 51 -22 66 -88 70v24h333v-24c-64 -4 -85 -20 -86 -70v-474c1 -49 17 -62 86 -70z
" />
    <glyph glyph-name="I" unicode="I" horiz-adv-x="389" 
d="M367 24v-24h-343v24c71 6 90 20 91 70v474c-2 51 -22 66 -91 70v24h343v-24c-71 -2 -92 -18 -93 -70v-474c1 -51 20 -66 93 -70z" />
    <glyph glyph-name="J" unicode="J" 
d="M474 662v-24c-71 -4 -85 -18 -87 -91v-349c0 -140 -73 -214 -210 -214c-39 0 -79 9 -103 23c-39 22 -66 66 -66 107c0 37 32 70 68 70c39 0 72 -34 72 -74c0 -15 -3 -23 -15 -38c-9 -11 -11 -16 -11 -25c0 -19 17 -31 44 -31c44 0 62 25 62 85v467c-2 54 -21 68 -99 70
v24h345z" />
    <glyph glyph-name="K" unicode="K" horiz-adv-x="778" 
d="M761 24v-24h-329v24c14 1 26 2 31 2c33 1 46 7 46 19c0 11 -5 20 -23 43l-179 222l-26 -24v-192c1 -49 17 -62 86 -70v-24h-330v24c68 7 84 19 85 70v474c-1 52 -20 67 -85 70v24h331v-24c-70 -4 -85 -20 -87 -91v-209l213 213c31 31 35 38 35 54c0 24 -5 26 -83 33v24
h283v-24c-95 -8 -130 -32 -315 -223l299 -370c12 -15 24 -20 48 -21z" />
    <glyph glyph-name="L" unicode="L" horiz-adv-x="667" 
d="M631 222l-40 -222h-566v24c69 8 83 19 84 70v474c-1 51 -20 66 -84 70v24h342v-24c-83 -3 -97 -15 -99 -91v-462c0 -42 18 -55 77 -55c77 0 132 17 172 54c34 31 53 62 86 138h28z" />
    <glyph glyph-name="M" unicode="M" horiz-adv-x="944" 
d="M911 24v-24h-325v24c72 6 85 18 87 74v498l-247 -596h-26l-247 581v-460c1 -72 20 -91 99 -97v-24h-229v24c75 8 88 20 89 79v465c-1 51 -17 64 -87 70v24h248l195 -462l196 462h247v-24c-70 -4 -84 -19 -86 -91v-432c2 -71 11 -81 86 -91z" />
    <glyph glyph-name="N" unicode="N" horiz-adv-x="722" 
d="M23 0v24c70 8 85 21 86 79v464c-46 56 -64 71 -83 71v24h206l343 -421v300c0 69 -20 90 -91 97v24h210v-24c-63 -10 -76 -23 -76 -79v-577h-27l-439 534v-395c1 -70 19 -88 93 -97v-24h-222z" />
    <glyph glyph-name="O" unicode="O" horiz-adv-x="778" 
d="M392 677c198 0 343 -148 343 -348c0 -204 -144 -348 -346 -348c-203 0 -347 144 -347 347c0 204 145 349 350 349zM391 645c-115 0 -176 -114 -176 -326c0 -199 61 -306 173 -306c114 0 174 107 174 309c0 204 -63 323 -171 323z" />
    <glyph glyph-name="P" unicode="P" horiz-adv-x="611" 
d="M22 0v24c10 2 20 4 23 4c44 5 58 26 59 87v433c-2 70 -15 85 -82 90v24h315c165 0 257 -64 257 -177c0 -77 -43 -136 -122 -167c-43 -17 -76 -20 -209 -21v-182c2 -73 10 -82 86 -91v-24h-327zM263 594v-263c70 0 102 7 125 27c27 22 38 59 38 122
c0 105 -33 148 -114 148c-33 0 -49 -11 -49 -34z" />
    <glyph glyph-name="Q" unicode="Q" horiz-adv-x="778" 
d="M723 -115l6 -23c-75 -26 -116 -34 -176 -34c-87 0 -168 31 -223 86c-23 23 -34 41 -55 84c-74 27 -106 47 -146 92c-57 63 -87 145 -87 234c0 204 146 353 347 353s346 -146 346 -350c0 -95 -32 -179 -92 -243c-42 -45 -76 -64 -155 -90c17 -36 27 -51 46 -69
c33 -33 77 -51 123 -51c20 0 34 2 66 11zM390 645c-112 0 -175 -115 -175 -320c0 -204 60 -311 173 -311c114 0 174 107 174 310c0 204 -63 321 -172 321z" />
    <glyph glyph-name="R" unicode="R" horiz-adv-x="722" 
d="M708 24v-24h-201l-203 307h-26v-192c2 -71 11 -81 86 -91v-24h-331v24c75 8 84 18 86 91v433c-2 72 -16 86 -86 90v24h316c180 0 276 -61 276 -174c0 -44 -16 -84 -44 -110c-27 -25 -52 -37 -110 -56l197 -279c9 -13 22 -19 40 -19zM278 588v-250c75 1 108 7 134 24
c32 21 46 59 46 122c0 103 -37 145 -127 145c-25 0 -40 -5 -46 -15c-3 -6 -7 -20 -7 -26z" />
    <glyph glyph-name="S" unicode="S" horiz-adv-x="556" 
d="M480 465h-27c-21 64 -36 93 -69 127c-35 36 -76 55 -121 55c-66 0 -107 -37 -107 -98c0 -48 22 -72 101 -111l144 -72c63 -31 107 -105 107 -178c0 -124 -98 -207 -243 -207c-43 0 -80 7 -127 24c-21 7 -32 10 -40 10c-16 0 -23 -8 -30 -34h-28v242h28
c17 -68 30 -101 58 -137c36 -48 84 -73 142 -73c75 0 123 44 123 111c0 52 -24 79 -109 119l-66 31c-116 56 -167 118 -167 203c0 124 81 200 214 200c39 0 70 -6 115 -22c21 -7 32 -10 41 -10c18 0 24 7 32 33h29v-213z" />
    <glyph glyph-name="T" unicode="T" horiz-adv-x="667" 
d="M509 24v-24h-350v24c82 6 93 16 95 91v516c-121 -4 -173 -49 -189 -166h-28l2 197h589l1 -197h-28c-16 117 -68 162 -188 166v-516c2 -76 13 -86 96 -91z" />
    <glyph glyph-name="U" unicode="U" horiz-adv-x="722" 
d="M694 662v-24c-61 -9 -75 -25 -76 -84v-312c0 -92 -25 -166 -70 -203c-42 -37 -110 -58 -183 -58c-72 0 -135 18 -181 52c-60 43 -81 91 -81 187v327c-2 72 -13 85 -80 91v24h331v-24c-79 -3 -93 -16 -95 -91v-327c0 -133 43 -191 144 -191c117 0 172 68 172 213v299
c0 71 -21 92 -96 97v24h215z" />
    <glyph glyph-name="V" unicode="V" horiz-adv-x="722" 
d="M694 662v-24c-51 -8 -64 -20 -88 -81l-224 -575h-26l-251 587c-24 54 -33 61 -82 69v24h329v-24c-14 -2 -27 -2 -32 -3c-37 -2 -52 -12 -52 -35c0 -14 4 -26 22 -70l136 -327l124 322c18 48 20 53 20 69c0 31 -14 39 -85 44v24h209z" />
    <glyph glyph-name="W" unicode="W" horiz-adv-x="1000" 
d="M971 662v-24c-32 -4 -54 -24 -67 -63l-196 -590h-27l-167 468l-182 -468h-28l-207 590c-18 48 -27 56 -68 63v24h288v-24c-51 -5 -63 -13 -63 -42c0 -8 1 -14 7 -32l118 -356l115 301l-34 94c-11 23 -30 33 -71 35v24h306v-24c-6 -1 -11 -1 -13 -2
c-42 -2 -57 -11 -57 -34c0 -10 4 -26 13 -56l106 -329l110 336c4 14 7 30 7 41c0 31 -14 40 -68 44v24h178z" />
    <glyph glyph-name="X" unicode="X" horiz-adv-x="722" 
d="M681 662v-24c-73 -7 -98 -26 -184 -143l-78 -109l178 -277c47 -71 61 -83 95 -85v-24h-333v24c12 1 23 2 28 2c33 2 50 11 50 28c0 11 -9 34 -20 53l-99 158l-37 -50c-73 -97 -92 -128 -92 -150c0 -25 19 -35 79 -41v-24h-245v24c49 7 72 19 102 55l171 217l-194 285
c-30 44 -43 53 -78 57v24h339v-24c-13 -2 -26 -3 -30 -3c-35 -1 -47 -9 -47 -30c0 -12 2 -17 14 -36l95 -147c23 32 45 63 55 76c46 63 57 82 57 103c0 27 -8 31 -71 37v24h245z" />
    <glyph glyph-name="Y" unicode="Y" horiz-adv-x="722" 
d="M692 662v-24c-34 -6 -52 -16 -66 -39l-187 -304v-180c1 -74 11 -84 90 -91v-24h-340v24c78 7 89 17 91 91v144l-180 325c-19 33 -45 51 -78 54v24h328v-24c-11 -1 -21 -1 -25 -1c-39 0 -54 -8 -54 -30c0 -11 4 -22 17 -46l6 -12l118 -227l109 181c24 41 38 74 38 93
c0 29 -16 37 -82 42v24h215z" />
    <glyph glyph-name="Z" unicode="Z" horiz-adv-x="667" 
d="M628 236l-26 -236h-568v16l374 612c-36 -2 -69 -3 -81 -3c-145 2 -188 -29 -235 -165h-28l21 202h513v-16l-371 -612h73c204 3 258 39 302 202h26z" />
    <glyph glyph-name="bracketleft" unicode="[" horiz-adv-x="333" 
d="M298 664v-32h-61c-57 -1 -65 -10 -66 -69v-625c-1 -41 8 -51 49 -52h78v-32h-229v810h229z" />
    <glyph glyph-name="backslash" unicode="\" horiz-adv-x="278" 
d="M209 -19l-231 695h91l230 -695h-90z" />
    <glyph glyph-name="bracketright" unicode="]" horiz-adv-x="333" 
d="M35 -146v32h78c42 1 50 10 49 52v625c-1 59 -9 68 -66 69h-61v32h229v-810h-229z" />
    <glyph glyph-name="asciicircum" unicode="^" horiz-adv-x="581" 
d="M165 305h-87l174 357h79l174 -357h-87l-126 266z" />
    <glyph glyph-name="underscore" unicode="_" 
d="M495 -134h-490v67h490v-67z" />
    <glyph glyph-name="grave" unicode="`" horiz-adv-x="333" 
d="M244 517h-55l-139 86c-29 18 -39 32 -39 51c0 24 20 44 46 44c19 0 38 -10 53 -27z" />
    <glyph glyph-name="a" unicode="a" 
d="M469 63l15 -21c-37 -41 -67 -56 -110 -56c-48 0 -70 19 -80 69c-54 -49 -99 -69 -155 -69c-64 0 -109 44 -109 104c0 42 20 75 63 105c36 25 84 44 201 79v72c0 60 -25 86 -82 86c-35 0 -62 -16 -62 -36c0 -6 3 -12 11 -22c13 -16 18 -28 18 -42c0 -34 -27 -57 -67 -57
s-63 24 -63 65c0 73 74 123 185 123c120 0 194 -51 194 -134v-256c0 -16 7 -24 21 -24c5 0 7 1 10 4zM293 98v142c-79 -21 -120 -62 -120 -118c0 -39 20 -66 50 -66c24 0 43 11 70 42z" />
    <glyph glyph-name="b" unicode="b" horiz-adv-x="556" 
d="M22 639v23h190v-254c37 39 72 55 119 55c110 0 185 -94 185 -229c0 -147 -91 -248 -222 -248c-49 0 -84 15 -129 56l-77 -55h-12v595c-1 39 -10 49 -54 57zM212 353v-258c0 -47 26 -78 67 -78c63 0 93 63 93 199c0 129 -31 194 -92 194c-32 0 -51 -16 -68 -57z" />
    <glyph glyph-name="c" unicode="c" horiz-adv-x="444" 
d="M408 107l18 -18c-57 -73 -112 -103 -187 -103c-123 0 -210 96 -210 232c0 142 98 245 232 245c85 0 151 -47 151 -107c0 -39 -25 -62 -66 -62c-38 0 -55 22 -55 70c0 41 -1 41 -6 50c-6 12 -20 19 -36 19c-51 0 -82 -62 -82 -162c0 -134 54 -219 139 -219
c40 0 66 14 102 55z" />
    <glyph glyph-name="d" unicode="d" horiz-adv-x="556" 
d="M529 42v-22l-61 -8c-60 -7 -85 -12 -130 -25v64c-46 -49 -78 -65 -130 -65c-104 0 -178 96 -178 230c0 142 80 247 188 247c45 0 75 -15 117 -60v179c-2 46 -10 53 -74 57v23h210v-563c0 -41 13 -54 58 -57zM335 110v238c-13 36 -44 60 -77 60c-57 0 -83 -58 -83 -184
c0 -125 24 -183 76 -183c23 0 43 11 63 33c11 13 21 30 21 36z" />
    <glyph glyph-name="e" unicode="e" horiz-adv-x="444" 
d="M398 122l24 -13c-64 -92 -112 -123 -191 -123c-122 0 -202 94 -202 237s83 240 204 240c55 0 100 -20 132 -57c31 -38 46 -84 52 -166h-247c4 -67 11 -100 30 -131c20 -35 49 -52 87 -52c42 0 72 18 111 65zM165 276h131v15c-1 51 -4 77 -8 96c-8 31 -26 46 -54 46
c-49 0 -66 -39 -69 -157z" />
    <glyph glyph-name="f" unicode="f" horiz-adv-x="333" 
d="M17 0v24c44 4 55 15 56 58v327h-56v43h56c0 85 7 125 28 159c27 42 78 66 143 66c83 0 140 -40 140 -98c0 -36 -24 -61 -61 -61c-33 0 -58 23 -58 54c0 11 4 21 13 36c6 10 8 16 8 21c0 11 -11 18 -28 18c-35 0 -49 -22 -49 -76v-119h85v-43h-85v-308
c1 -65 12 -76 80 -77v-24h-272z" />
    <glyph glyph-name="g" unicode="g" 
d="M478 390h-79c27 -28 39 -57 39 -96c0 -88 -66 -143 -170 -143c-64 0 -64 0 -76 -5c-23 -11 -35 -27 -35 -46c0 -27 15 -32 98 -33l63 -1c105 -2 161 -44 161 -120c0 -97 -85 -148 -249 -148c-124 0 -197 33 -197 90c0 40 32 66 94 73c-63 23 -80 41 -80 81
c0 50 39 88 117 115c-46 19 -65 31 -86 56c-24 27 -36 58 -36 93c0 93 82 157 199 157c39 0 67 -5 110 -21h127v-52zM323 -51h-169c-28 -22 -35 -34 -35 -54c0 -43 45 -66 132 -66c97 0 151 25 151 71c0 33 -26 49 -79 49zM241 433c-47 0 -65 -36 -65 -128s18 -127 65 -127
s65 35 65 126c0 92 -19 129 -65 129z" />
    <glyph glyph-name="h" unicode="h" horiz-adv-x="556" 
d="M528 24v-24h-230v24c32 3 45 18 46 55v237c0 54 -17 81 -51 81c-22 0 -46 -12 -67 -33c-10 -10 -17 -20 -17 -23v-262c0 -36 13 -51 48 -55v-24h-236v24c43 7 51 16 52 58v500c-1 42 -7 48 -52 57v23h188v-275c51 57 87 76 139 76c80 0 132 -54 132 -138v-243
c0 -40 14 -57 48 -58z" />
    <glyph glyph-name="i" unicode="i" horiz-adv-x="278" 
d="M253 24v-24h-234v24c44 9 51 17 52 58v289c-1 40 -9 50 -52 58v23h188v-373c0 -37 12 -52 46 -55zM138 677c42 0 76 -34 76 -77s-33 -75 -77 -75c-43 0 -75 33 -75 76c0 42 34 76 76 76z" />
    <glyph glyph-name="j" unicode="j" horiz-adv-x="333" 
d="M259 452v-450c0 -57 -8 -95 -26 -127c-27 -48 -80 -74 -148 -74c-80 0 -136 40 -136 98c0 36 24 60 60 60c32 0 58 -24 58 -53c0 -10 -4 -22 -13 -36c-6 -11 -9 -17 -9 -22c0 -10 13 -17 31 -17c33 0 47 23 47 75v465c-1 43 -13 54 -62 58v23h198zM185 677
c43 0 77 -34 77 -77c0 -42 -34 -75 -77 -75c-44 0 -75 32 -75 76c0 42 33 76 75 76z" />
    <glyph glyph-name="k" unicode="k" horiz-adv-x="556" 
d="M508 452v-23c-62 -8 -87 -25 -185 -128l190 -263c9 -12 14 -15 24 -14v-24h-229v24c27 0 41 7 41 18c0 8 -6 20 -23 44l-93 132l-23 -24v-112c0 -46 5 -52 51 -58v-24h-234v24c31 1 46 19 47 58v500c-1 38 -15 55 -47 57v23h183v-422l125 126c11 11 21 28 21 37
c0 6 -3 12 -7 15c-5 3 -22 7 -51 11v23h210z" />
    <glyph glyph-name="l" unicode="l" horiz-adv-x="278" 
d="M253 24v-24h-234v24c31 0 49 21 50 58v500c-1 37 -17 55 -50 57v23h186v-580c0 -39 17 -59 48 -58z" />
    <glyph glyph-name="m" unicode="m" horiz-adv-x="833" 
d="M806 24v-24h-233v24c36 2 49 16 48 55v238c0 58 -15 81 -52 81c-18 0 -34 -7 -55 -23c-13 -10 -29 -29 -29 -34v-262c0 -37 13 -53 46 -55v-24h-229v24c35 2 48 17 47 55v238c0 58 -15 81 -53 81c-17 0 -33 -7 -53 -22c-13 -11 -29 -29 -29 -35v-262c0 -37 12 -52 45 -55
v-24h-235v24c42 6 53 18 54 58v289c-1 41 -12 53 -54 58v23h187v-74c38 60 81 85 144 85c62 0 96 -23 125 -85c51 63 88 85 145 85c81 0 132 -53 132 -137v-247c-1 -40 12 -54 49 -55z" />
    <glyph glyph-name="n" unicode="n" horiz-adv-x="556" 
d="M533 24v-24h-230v24c32 2 45 18 46 55v238c0 54 -17 81 -51 81c-22 0 -46 -12 -67 -34c-10 -9 -17 -19 -17 -23v-262c0 -36 13 -51 48 -55v-24h-236v24c43 7 51 16 52 58v289c-1 42 -9 51 -52 58v23h187v-74c37 59 80 85 140 85c81 0 132 -53 132 -137v-247
c-1 -39 12 -53 48 -55z" />
    <glyph glyph-name="o" unicode="o" 
d="M251 463c127 0 221 -101 221 -239c0 -137 -93 -238 -220 -238c-129 0 -222 100 -222 240c0 134 96 237 221 237zM252 433c-60 0 -78 -51 -78 -223c0 -144 20 -194 78 -194c57 0 76 51 76 202c0 161 -19 215 -76 215z" />
    <glyph glyph-name="p" unicode="p" horiz-adv-x="556" 
d="M291 -180v-21h-267v24c46 7 54 16 55 56v492c-1 41 -10 51 -53 58v23h187v-68c31 57 65 79 124 79c109 0 182 -92 182 -229c0 -145 -78 -247 -189 -247c-43 0 -68 13 -115 59v-138c1 -68 18 -86 76 -88zM215 339v-238c15 -37 43 -60 75 -60c57 0 84 58 84 180
c0 128 -23 187 -75 187c-22 0 -44 -12 -63 -33c-12 -13 -21 -29 -21 -36z" />
    <glyph glyph-name="q" unicode="q" horiz-adv-x="556" 
d="M531 -177v-24h-261v24c62 11 70 20 71 82v136c-40 -40 -74 -55 -121 -55c-106 0 -181 94 -181 228c0 146 90 249 218 249c48 0 79 -13 129 -56l76 55h15v-583c1 -40 10 -49 54 -56zM341 96v258c0 47 -26 78 -66 78c-62 0 -93 -68 -93 -201c0 -129 30 -192 91 -192
c34 0 58 20 68 57z" />
    <glyph glyph-name="r" unicode="r" horiz-adv-x="444" 
d="M293 24v-24h-260v24c42 6 52 18 53 58v289c-1 40 -13 53 -53 58v23h185v-80c47 67 82 91 133 91c46 0 79 -32 79 -76c0 -38 -25 -65 -62 -65c-25 0 -40 9 -59 35c-11 15 -19 22 -28 22c-32 0 -59 -42 -59 -93v-185c0 -62 12 -74 71 -77z" />
    <glyph glyph-name="s" unicode="s" horiz-adv-x="389" 
d="M337 319h-25c-14 43 -25 61 -46 81s-47 31 -73 31c-38 0 -65 -24 -65 -57s27 -58 95 -86c97 -41 135 -83 135 -153c0 -88 -62 -149 -151 -149c-28 0 -77 11 -107 23c-9 4 -16 6 -22 6c-9 0 -15 -6 -25 -28h-25v162h27c21 -86 67 -130 135 -130c44 0 74 25 74 64
c0 31 -27 56 -95 85c-98 42 -139 87 -139 152c0 83 65 143 153 143c24 0 46 -4 77 -14c16 -5 25 -7 31 -7c13 0 19 5 24 19h22v-142z" />
    <glyph glyph-name="t" unicode="t" horiz-adv-x="333" 
d="M302 452v-43h-92v-295c0 -39 11 -56 38 -56c21 0 36 13 56 51l24 -11c-39 -80 -79 -110 -145 -110c-67 0 -109 40 -109 103v318h-51v26c64 55 103 99 162 183h25v-166h92z" />
    <glyph glyph-name="u" unicode="u" horiz-adv-x="556" 
d="M531 42v-22l-61 -7c-63 -7 -87 -11 -129 -26v64c-58 -50 -91 -65 -142 -65c-81 0 -130 51 -130 138v247c-1 41 -8 50 -48 58v23h184v-332c0 -51 15 -70 54 -70c29 0 49 11 81 43v278c-1 43 -13 54 -61 58v23h197v-353c0 -42 13 -55 55 -57z" />
    <glyph glyph-name="v" unicode="v" 
d="M480 452v-23c-30 -4 -38 -11 -56 -54l-157 -389h-26l-117 290c-16 40 -61 138 -64 137c-6 10 -12 12 -34 16v23h245v-23c-8 -1 -15 -2 -18 -2c-24 -3 -34 -9 -34 -24c0 -7 1 -11 9 -30l77 -199l71 178c6 17 10 32 10 44c0 24 -11 31 -53 33v23h147z" />
    <glyph glyph-name="w" unicode="w" horiz-adv-x="722" 
d="M700 452v-23c-26 -5 -34 -13 -49 -50l-152 -393h-22l-101 304l-122 -304h-23l-145 367c-27 65 -30 70 -56 76v23h217v-23c-27 -4 -37 -12 -37 -28c0 -11 4 -25 23 -75l36 -90l24 -63l66 167c-2 9 -5 16 -5 19c-19 65 -20 65 -59 70v23h230v-23c-37 -4 -47 -9 -47 -24
c0 -9 7 -38 26 -104c21 -77 24 -85 33 -125c13 35 21 57 35 92c30 76 43 114 43 127c0 22 -10 29 -47 34v23h132z" />
    <glyph glyph-name="x" unicode="x" 
d="M479 24v-24h-236v24c31 1 44 7 44 19c0 8 -8 26 -18 41c-3 6 -8 14 -14 22c-9 14 -23 35 -41 62c-7 -10 -13 -17 -15 -20c-38 -46 -63 -86 -63 -100c0 -16 13 -23 48 -24v-24h-165v24c18 1 29 4 37 10c19 12 46 43 74 81c9 13 35 46 63 82l-125 193c-20 30 -26 34 -51 39
v23h245v-23c-33 -2 -46 -7 -46 -20c0 -9 11 -30 32 -61c4 -6 17 -23 37 -51c15 21 30 39 36 46c27 30 37 47 37 62c0 18 -3 19 -50 24v23h164v-23c-30 -5 -49 -16 -68 -39l-99 -123l145 -224c7 -10 14 -15 29 -19z" />
    <glyph glyph-name="y" unicode="y" 
d="M475 452v-23c-30 -4 -40 -13 -56 -54l-146 -390c-35 -93 -54 -131 -75 -153c-20 -22 -48 -33 -82 -33c-56 0 -95 32 -95 78c0 36 26 62 62 62c34 0 57 -20 57 -48c0 -5 0 -9 -1 -14c-1 -3 -1 -4 -1 -6c0 -8 8 -16 17 -16c23 0 47 31 64 80l17 52l-117 290
c-17 41 -61 136 -64 136c-6 10 -12 12 -34 16v23h245v-23l-15 -2c-25 -2 -37 -10 -37 -24c0 -8 0 -8 20 -58l70 -181l67 188c8 22 10 33 10 44c0 24 -11 31 -53 33v23h147z" />
    <glyph glyph-name="z" unicode="z" horiz-adv-x="444" 
d="M416 157l-16 -157h-375v24l229 397c-137 0 -163 -15 -187 -108h-25l7 139h363v-25l-226 -396h28c84 2 108 11 142 56c16 22 24 40 32 70h28z" />
    <glyph glyph-name="braceleft" unicode="{" horiz-adv-x="394" 
d="M338 -160v-11c-154 -1 -206 33 -207 138v175c-1 71 -23 94 -105 114c82 19 104 42 105 113v176c2 105 52 139 207 139v-12c-76 -15 -104 -47 -104 -122v-167c-1 -82 -26 -110 -116 -127c91 -18 115 -46 116 -128v-167c1 -75 28 -107 104 -121z" />
    <glyph glyph-name="bar" unicode="|" horiz-adv-x="220" 
d="M97 -155v832h86v-832h-86z" />
    <glyph glyph-name="braceright" unicode="}" horiz-adv-x="394" 
d="M57 -171v11c76 15 103 47 104 122v167c0 82 26 110 116 128c-91 18 -116 45 -116 127v167c-1 75 -29 107 -104 121v12c154 0 205 -34 207 -138v-176c1 -71 23 -94 105 -113c-82 -20 -104 -43 -105 -114v-175c-2 -106 -53 -140 -207 -139z" />
    <glyph glyph-name="asciitilde" unicode="~" horiz-adv-x="520" 
d="M432 302l55 -48c-46 -62 -76 -83 -121 -83c-32 0 -58 8 -103 33c-46 25 -75 34 -109 34c-29 0 -45 -10 -68 -42l-52 46c32 57 69 82 121 82c32 0 64 -10 132 -41c42 -19 62 -26 79 -26c23 0 42 12 66 45z" />
    <glyph glyph-name="uni00A0" unicode="&#xa0;" horiz-adv-x="250" 
 />
    <glyph glyph-name="exclamdown" unicode="&#xa1;" horiz-adv-x="333" 
d="M168 491c47 0 82 -36 82 -83c0 -45 -38 -83 -83 -83c-46 0 -83 38 -83 84s37 82 84 82zM154 249h28c13 -122 22 -169 51 -262c14 -45 18 -63 18 -88c0 -62 -31 -98 -83 -98c-53 0 -83 36 -83 99c0 24 4 42 18 87c28 93 37 140 51 262z" />
    <glyph glyph-name="cent" unicode="&#xa2;" 
d="M425 576l-47 -133c44 -24 62 -50 62 -87s-26 -62 -64 -62c-19 0 -32 6 -44 19l-80 -225c27 -27 48 -36 81 -36c42 0 70 15 103 55l18 -18c-60 -75 -111 -103 -187 -103c-18 0 -31 2 -49 7l-46 -130h-40l50 142c-32 16 -45 25 -63 43c-40 42 -62 101 -62 170
c0 140 97 245 228 245c19 0 34 -2 58 -8l43 121h39zM225 125l95 264v3c0 24 -18 41 -43 41c-50 0 -82 -64 -82 -164c0 -58 9 -99 30 -144z" />
    <glyph glyph-name="sterling" unicode="&#xa3;" 
d="M382 365v-64h-107c2 -17 2 -30 2 -53c0 -49 -4 -71 -19 -117c43 -16 67 -22 93 -22c62 0 85 16 100 70h22c-7 -78 -16 -116 -37 -146c-20 -31 -52 -47 -91 -47c-42 0 -69 14 -123 62c-32 -42 -65 -61 -109 -61c-55 0 -87 30 -87 83c0 58 36 90 103 90c17 0 31 -2 51 -7
c-1 35 -7 56 -36 137l-4 11h-96v64h78c-10 59 -13 83 -13 114c0 62 29 122 75 156c31 23 74 35 123 35c91 0 148 -42 148 -111c0 -43 -26 -70 -67 -70c-36 0 -62 26 -60 60v3l2 43c1 29 -15 46 -43 46c-33 0 -55 -25 -55 -62c0 -21 19 -128 38 -214h112zM183 84
c-26 23 -45 31 -71 31c-34 0 -55 -20 -55 -51c0 -29 22 -48 55 -48c37 0 57 20 71 68z" />
    <glyph glyph-name="currency" unicode="&#xa4;" 
d="M-20 117l96 96c-26 37 -36 71 -36 117c0 45 11 81 36 120l-96 96l57 54l94 -94c39 25 74 35 120 35c45 0 79 -10 119 -35l94 94l57 -54l-96 -96c26 -43 36 -75 36 -120c0 -46 -11 -82 -36 -117l96 -96l-57 -57l-94 96c-41 -26 -77 -37 -120 -37s-78 11 -119 37l-94 -96z
M251 461c-70 0 -125 -57 -125 -131c0 -73 55 -131 124 -131c68 0 125 59 125 129c0 75 -55 133 -124 133z" />
    <glyph glyph-name="yen" unicode="&#xa5;" 
d="M445 286h-128l-4 -11v-65h132v-49h-132v-48c2 -69 17 -83 96 -88v-25h-323v25c81 5 98 20 100 88v48h-132v49h132v56l-11 20h-121v49h97l-128 250c-19 35 -41 49 -81 52v25h294v-25c-58 -2 -74 -8 -74 -29c0 -13 9 -35 45 -107l70 -138l14 -28l116 225c6 11 9 23 9 34
c0 32 -14 39 -77 43v25h201v-25c-33 -4 -50 -14 -63 -37l-141 -265h109v-49z" />
    <glyph glyph-name="brokenbar" unicode="&#xa6;" horiz-adv-x="220" 
d="M67 -150v372h86v-372h-86zM67 314v332h86v-332h-86z" />
    <glyph glyph-name="section" unicode="&#xa7;" 
d="M281 31l-55 45c-139 112 -165 146 -165 211c0 78 42 120 120 120c4 0 11 0 19 -1c-80 71 -98 96 -98 143c0 75 60 128 146 128c76 0 142 -45 142 -98c0 -32 -30 -62 -63 -62c-29 0 -59 29 -59 56c0 14 9 29 27 43c9 7 14 14 14 18c0 11 -25 21 -53 21
c-49 0 -82 -27 -82 -67c0 -34 34 -73 103 -117c64 -42 113 -90 142 -141c13 -21 20 -49 20 -79c0 -35 -13 -66 -37 -85c-21 -17 -48 -24 -101 -25c72 -51 100 -91 100 -144c0 -73 -67 -126 -161 -126c-81 0 -147 44 -147 98c0 35 27 63 62 63s64 -25 64 -54
c0 -17 -8 -28 -30 -41c-11 -7 -15 -11 -15 -14c0 -16 31 -29 67 -29c52 0 77 23 77 69c0 30 -8 45 -37 68zM187 384c-31 0 -53 -23 -53 -54c0 -37 9 -50 68 -102c61 -52 81 -64 111 -64s52 24 52 56c0 28 -10 45 -42 76c-65 61 -106 88 -136 88z" />
    <glyph glyph-name="dieresis" unicode="&#xa8;" horiz-adv-x="333" 
d="M62 653c35 0 63 -29 63 -65c0 -35 -27 -62 -63 -62c-33 0 -61 29 -61 64c0 33 29 63 61 63zM267 653c35 0 64 -29 64 -65c0 -34 -28 -62 -63 -62c-34 0 -61 28 -61 65c0 33 29 62 60 62z" />
    <glyph glyph-name="copyright" unicode="&#xa9;" horiz-adv-x="747" 
d="M374 677c192 0 340 -152 340 -347c0 -201 -147 -349 -344 -349c-188 0 -337 153 -337 347c0 197 149 349 341 349zM374 626c-151 0 -271 -132 -271 -298c0 -162 121 -296 267 -296c154 0 274 130 274 297c0 164 -121 297 -270 297zM548 514v-121h-19
c-15 63 -60 100 -122 100c-37 0 -70 -14 -93 -40c-25 -29 -37 -70 -37 -129c0 -110 45 -170 128 -170c49 0 87 19 129 64v-32c-45 -41 -92 -59 -160 -59c-125 0 -210 76 -210 187c0 115 92 201 217 201c34 0 57 -4 102 -18c15 -5 18 -6 23 -6c13 0 21 8 23 23h19z" />
    <glyph glyph-name="ordfeminine" unicode="&#xaa;" horiz-adv-x="300" 
d="M288 434l9 -12c-23 -24 -42 -33 -71 -33c-31 0 -45 10 -52 40c-35 -29 -63 -40 -100 -40c-43 0 -72 26 -72 65c0 49 38 73 170 107v39c0 37 -14 52 -48 52c-23 0 -41 -9 -41 -21c0 -4 2 -8 8 -14c8 -9 11 -15 11 -22c0 -20 -19 -34 -47 -34c-26 0 -41 15 -41 39
c0 45 49 74 125 74c78 0 126 -30 126 -80v-153c0 -11 3 -15 11 -15c3 0 4 0 6 2zM171 455v86c-49 -15 -73 -39 -73 -72c0 -23 13 -39 31 -39c16 0 28 8 42 25z" />
    <glyph glyph-name="guillemotleft" unicode="&#xab;" 
d="M175 240l-14 -18c15 -21 26 -36 40 -52c49 -59 76 -101 76 -120c0 -9 -4 -15 -11 -15c-6 0 -11 3 -21 9c-2 2 -5 5 -11 10l-4 4l-202 162v4l199 161l6 5c15 12 22 16 30 16s12 -3 12 -11c0 -16 -15 -42 -52 -93c-5 -7 -21 -28 -48 -62zM367 240l-14 -18
c15 -21 26 -36 40 -52c49 -59 76 -101 76 -120c0 -9 -4 -15 -11 -15c-6 0 -11 2 -21 9l-11 10l-4 4l-202 162v4l199 161c23 18 27 21 36 21c8 0 12 -3 12 -11c0 -16 -14 -42 -52 -93c-5 -7 -21 -27 -48 -62z" />
    <glyph glyph-name="logicalnot" unicode="&#xac;" horiz-adv-x="570" 
d="M31 383h504v-270h-66v206h-438v64z" />
    <glyph glyph-name="uni00AD" unicode="&#xad;" horiz-adv-x="333" 
d="M285 281v-114h-238v114h238z" />
    <glyph glyph-name="registered" unicode="&#xae;" horiz-adv-x="747" 
d="M210 503v18h189c68 0 112 -37 112 -94c0 -48 -25 -81 -78 -103l57 -80c29 -41 45 -60 68 -83v-11h-79c-16 0 -30 18 -62 79c-17 34 -27 51 -48 84h-36v-102c0 -40 1 -40 45 -43v-18h-168v18c44 3 45 3 45 43v249c0 40 -1 40 -45 43zM333 499v-164h34c39 0 61 31 61 87
c0 51 -20 77 -60 77h-35zM374 677c192 0 340 -152 340 -347c0 -201 -147 -349 -344 -349c-188 0 -337 153 -337 347c0 197 149 349 341 349zM374 626c-151 0 -271 -132 -271 -298c0 -162 121 -296 267 -296c154 0 274 130 274 297c0 164 -121 297 -270 297z" />
    <glyph glyph-name="macron" unicode="&#xaf;" horiz-adv-x="333" 
d="M37 544v73h260v-73h-260z" />
    <glyph glyph-name="degree" unicode="&#xb0;" horiz-adv-x="400" 
d="M200 674c78 0 140 -62 140 -140c0 -79 -61 -140 -142 -140c-76 0 -138 63 -138 140c0 78 62 140 140 140zM200 639c-55 0 -100 -48 -100 -105s45 -105 99 -105c56 0 101 47 101 105c0 57 -46 105 -100 105z" />
    <glyph glyph-name="plusminus" unicode="&#xb1;" horiz-adv-x="570" 
d="M242 405v205h86v-205h204v-86h-204v-140h-86v140h-204v86h204zM38 53v86h494v-86h-494z" />
    <glyph glyph-name="twosuperior" unicode="&#xb2;" horiz-adv-x="300" 
d="M297 394l-30 -124h-264v14c146 144 180 192 180 248c0 42 -32 75 -74 75c-33 0 -53 -15 -74 -53h-23c33 83 77 120 140 120c69 0 117 -45 117 -108c0 -44 -20 -80 -72 -128l-97 -90h90c66 1 73 4 91 46h16z" />
    <glyph glyph-name="threesuperior" unicode="&#xb3;" horiz-adv-x="300" 
d="M38 578l-19 7c34 60 82 89 146 89c66 0 104 -29 104 -80c0 -34 -13 -52 -53 -74c53 -21 78 -55 78 -104c0 -86 -84 -153 -190 -153c-60 0 -98 20 -98 53c0 18 12 31 39 40c29 -3 37 -7 66 -33c21 -19 32 -25 48 -25c38 0 62 25 62 64c0 56 -34 87 -128 118v10
c61 17 83 38 83 77c0 37 -25 60 -64 60c-30 0 -49 -12 -74 -49z" />
    <glyph glyph-name="acute" unicode="&#xb4;" horiz-adv-x="333" 
d="M88 517l134 154c16 18 33 27 52 27c28 0 47 -17 47 -43c0 -22 -7 -32 -39 -52l-139 -86h-55z" />
    <glyph glyph-name="mu" unicode="&#xb5;" horiz-adv-x="556" 
d="M471 452v-353c0 -26 17 -46 39 -46c7 0 12 1 21 6v-24c-43 -39 -63 -48 -104 -48c-48 0 -78 16 -99 51c-31 -38 -56 -51 -97 -51c-40 0 -68 10 -100 34c4 -32 6 -39 18 -79c10 -33 14 -52 14 -69c0 -48 -22 -75 -61 -75c-41 0 -64 27 -64 75c0 13 3 28 10 57
c16 62 22 102 22 156v366h136v-306c0 -43 23 -73 56 -73c21 0 46 9 73 27v352h136z" />
    <glyph glyph-name="paragraph" unicode="&#xb6;" horiz-adv-x="540" 
d="M293 638v-820h-92v442c-50 2 -75 8 -105 26c-59 34 -90 98 -90 185c0 132 66 191 215 191h293v-24c-11 -1 -21 -2 -25 -2c-49 -6 -54 -11 -54 -49l-1 -10v-37v-722h-92v820h-49zM201 284v354c-46 -12 -66 -24 -83 -52c-16 -25 -24 -65 -24 -113c0 -103 34 -162 107 -189z
" />
    <glyph glyph-name="periodcentered" unicode="&#xb7;" horiz-adv-x="250" 
d="M125 409c46 0 84 -38 84 -84s-37 -82 -84 -82s-82 36 -82 83c0 45 38 83 82 83z" />
    <glyph glyph-name="cedilla" unicode="&#xb8;" horiz-adv-x="333" 
d="M117 -94l42 94h41l-27 -63c12 4 20 5 32 5c54 0 86 -26 86 -69c0 -53 -49 -87 -127 -87c-32 0 -58 5 -94 18l16 36c24 -10 42 -14 57 -14c37 0 57 14 57 40c0 23 -16 36 -45 36c-10 0 -17 -1 -27 -4z" />
    <glyph glyph-name="onesuperior" unicode="&#xb9;" horiz-adv-x="300" 
d="M271 289v-20h-238v20c62 0 75 10 75 58v217c0 27 -7 40 -23 40c-8 0 -26 -5 -54 -14v20l160 64h11v-330c0 -46 11 -55 69 -55z" />
    <glyph glyph-name="ordmasculine" unicode="&#xba;" horiz-adv-x="330" 
d="M165 674c83 0 144 -60 144 -142c0 -84 -60 -143 -146 -143c-81 0 -142 61 -142 142c0 82 61 143 144 143zM165 653c-37 0 -49 -31 -49 -126c0 -87 13 -118 48 -118c37 0 49 29 49 116c0 98 -11 128 -48 128z" />
    <glyph glyph-name="guillemotright" unicode="&#xbb;" 
d="M82 57l-3 -3c-21 -17 -24 -19 -34 -19c-7 0 -11 3 -11 11c0 16 14 42 52 94c5 7 21 27 48 62c5 6 9 12 14 17c-15 22 -27 37 -40 53c-50 59 -76 100 -76 120c0 8 4 14 11 14c9 0 9 0 36 -22l202 -163v-4zM274 57l-3 -3c-21 -17 -24 -19 -34 -19c-7 0 -11 3 -11 11
c0 16 14 42 52 94c4 6 20 26 48 62c4 6 9 11 14 17c-15 21 -26 37 -40 53c-50 58 -76 100 -76 120c0 8 4 14 11 14c9 0 9 0 36 -22l202 -163v-4z" />
    <glyph glyph-name="onequarter" unicode="&#xbc;" horiz-adv-x="750" 
d="M695 150h40v-65h-40v-85h-92v85h-158v66c40 60 69 97 161 209l38 45h51v-255zM604 150v171l-134 -171h134zM610 674h55l-430 -686h-57zM275 289v-20h-238v20c62 0 75 10 75 58v217c0 27 -7 40 -23 40c-8 0 -26 -5 -54 -14v20l160 64h11v-330c0 -46 11 -55 69 -55z" />
    <glyph glyph-name="onehalf" unicode="&#xbd;" horiz-adv-x="750" 
d="M569 674h55l-430 -686h-57zM241 289v-20h-238v20c62 0 75 10 75 58v217c0 27 -7 40 -23 40c-8 0 -26 -5 -54 -14v20l160 64h11v-330c0 -46 11 -55 69 -55zM767 124l-29 -124h-265v14c146 143 181 192 181 248c0 42 -33 75 -74 75c-33 0 -54 -15 -75 -52h-23
c33 82 77 119 141 119c69 0 117 -45 117 -108c0 -44 -19 -78 -73 -128l-91 -85v-5h84c66 1 73 4 91 46h16z" />
    <glyph glyph-name="threequarters" unicode="&#xbe;" horiz-adv-x="750" 
d="M608 674h55l-430 -686h-57zM62 578l-19 7c34 60 82 89 146 89c66 0 104 -29 104 -80c0 -34 -13 -52 -49 -72v-4c49 -20 74 -54 74 -103c0 -85 -84 -152 -190 -152c-60 0 -98 20 -98 53c0 18 12 31 39 40c29 -3 37 -7 66 -33c21 -19 32 -25 48 -25c38 0 62 25 62 64
c0 56 -34 87 -128 118v10c61 17 83 38 83 77c0 37 -25 60 -64 60c-30 0 -49 -12 -74 -49zM685 150h40v-65h-40v-85h-92v85h-157v66c42 63 75 106 160 209l38 45h51v-255zM594 150v171l-133 -171h133z" />
    <glyph glyph-name="questiondown" unicode="&#xbf;" 
d="M247 252h29l1 -14c1 -13 1 -22 1 -32c0 -26 -8 -50 -31 -95c-33 -61 -42 -94 -42 -145c0 -82 30 -128 83 -128c35 0 59 16 59 39c0 10 -3 16 -15 29c-16 19 -21 30 -21 50c0 38 24 63 61 63c39 0 67 -31 67 -74c0 -83 -77 -142 -184 -142c-118 0 -196 64 -196 163
c0 68 28 107 119 162c61 39 69 52 69 124zM263 491c46 0 82 -37 82 -83c0 -45 -38 -83 -83 -83c-46 0 -83 38 -83 84s37 82 84 82z" />
    <glyph glyph-name="Agrave" unicode="&#xc0;" horiz-adv-x="722" 
d="M682 24v-24h-317v24c14 2 26 3 31 3c34 3 47 12 47 32c0 22 -12 58 -45 134h-220l-15 -39c-20 -49 -28 -76 -28 -89c0 -26 22 -37 80 -41v-24h-199v24c47 9 59 23 96 115l217 537h28l218 -515c53 -123 64 -137 107 -137zM192 231h191l-99 238zM432 723h-55l-139 86
c-28 18 -39 32 -39 51c0 24 21 44 46 44c19 0 38 -10 53 -27z" />
    <glyph glyph-name="Aacute" unicode="&#xc1;" horiz-adv-x="722" 
d="M682 24v-24h-317v24c14 2 26 3 31 3c34 3 47 12 47 32c0 22 -12 58 -45 134h-220l-15 -39c-20 -49 -28 -76 -28 -89c0 -26 22 -37 80 -41v-24h-199v24c47 9 59 23 96 115l217 537h28l218 -515c53 -123 64 -137 107 -137zM192 231h191l-99 238zM264 723l134 154
c16 18 33 27 52 27c28 0 47 -17 47 -43c0 -23 -7 -32 -40 -52l-139 -86h-54z" />
    <glyph glyph-name="Acircumflex" unicode="&#xc2;" horiz-adv-x="722" 
d="M682 24v-24h-317v24c14 2 26 3 31 3c34 3 47 12 47 32c0 22 -12 58 -45 134h-220l-15 -39c-20 -49 -28 -76 -28 -89c0 -26 22 -37 80 -41v-24h-199v24c47 9 59 23 96 115l217 537h28l218 -515c53 -123 64 -137 107 -137zM192 231h191l-99 238zM453 723l-109 96l-110 -96
h-55l120 172h90l120 -172h-56z" />
    <glyph glyph-name="Atilde" unicode="&#xc3;" horiz-adv-x="722" 
d="M682 24v-24h-317v24c14 2 26 3 31 3c34 3 47 12 47 32c0 22 -12 58 -45 134h-220l-15 -39c-20 -49 -28 -76 -28 -89c0 -26 22 -37 80 -41v-24h-199v24c47 9 59 23 96 115l217 537h28l218 -515c53 -123 64 -137 107 -137zM192 231h191l-99 238zM213 743h-41
c18 84 54 123 114 123c20 0 43 -6 71 -19l40 -17c23 -11 26 -12 38 -12c26 0 40 13 53 48h42c-23 -86 -59 -125 -115 -125c-19 0 -44 6 -63 14l-28 13c-42 18 -49 21 -63 21c-25 0 -44 -18 -48 -46z" />
    <glyph glyph-name="Adieresis" unicode="&#xc4;" horiz-adv-x="722" 
d="M682 24v-24h-317v24c14 2 26 3 31 3c34 3 47 12 47 32c0 22 -12 58 -45 134h-220l-15 -39c-20 -49 -28 -76 -28 -89c0 -26 22 -37 80 -41v-24h-199v24c47 9 59 23 96 115l217 537h28l218 -515c53 -123 64 -137 107 -137zM192 231h191l-99 238zM238 859
c35 0 63 -29 63 -65c0 -34 -27 -62 -62 -62c-34 0 -62 29 -62 65c0 32 29 62 61 62zM443 859c35 0 64 -29 64 -65c0 -34 -28 -62 -63 -62c-34 0 -61 28 -61 64c0 34 28 63 60 63z" />
    <glyph glyph-name="Aring" unicode="&#xc5;" horiz-adv-x="722" 
d="M682 24v-24h-317v24c14 2 26 3 31 3c34 3 47 12 47 32c0 22 -12 58 -45 134h-220c-38 -97 -43 -113 -43 -128c0 -26 22 -37 80 -41v-24h-199v24c47 9 59 23 96 115l217 537h28l218 -515c53 -123 64 -137 107 -137zM192 231h191l-99 238zM342 929c57 0 104 -48 104 -105
c0 -58 -47 -104 -105 -104s-104 47 -104 106c0 55 48 103 105 103zM341 882c-31 0 -57 -27 -57 -58s26 -57 56 -57c32 0 59 25 59 56c0 32 -27 59 -58 59z" />
    <glyph glyph-name="AE" unicode="&#xc6;" horiz-adv-x="1000" 
d="M347 0v24c71 4 85 18 86 92v181h-186l-98 -184c-11 -22 -15 -33 -15 -45c0 -27 13 -36 65 -42l17 -2v-24h-202v24c38 7 45 14 108 126l208 381c3 5 6 10 7 13c20 33 28 51 28 60c0 24 -20 33 -86 37v21h621v-197h-24c-13 63 -23 87 -43 112c-28 34 -87 51 -176 51
c-53 0 -67 -6 -67 -30v-242c114 10 124 19 152 146h22v-332h-22c-18 122 -43 148 -152 154v-238c0 -42 15 -53 74 -53c83 0 141 19 180 59c33 35 67 86 75 115h22l-40 -207h-554zM268 336h165v284h-7z" />
    <glyph glyph-name="Ccedilla" unicode="&#xc7;" horiz-adv-x="722" 
d="M399 -18l-19 -38c12 3 19 4 32 4c54 0 86 -22 86 -60c0 -46 -49 -75 -127 -75c-33 0 -57 4 -94 16l16 31l5 -2c27 -8 37 -10 53 -10c36 0 56 12 56 34c0 20 -16 31 -44 31c-9 0 -17 -1 -28 -3l-11 7l35 67h-3c-179 19 -301 157 -301 342c0 201 146 351 341 351
c47 0 95 -11 151 -35c22 -9 36 -13 45 -13c20 0 29 10 44 45h26v-229h-24c-34 74 -57 107 -100 145c-42 37 -84 55 -130 55c-118 0 -180 -107 -180 -311c0 -99 13 -169 42 -221c29 -51 90 -85 155 -85c28 0 59 6 88 17c49 20 80 43 137 104l30 -25c-45 -48 -67 -68 -98 -90
c-51 -34 -109 -53 -165 -53c-3 0 -10 0 -18 1z" />
    <glyph glyph-name="Egrave" unicode="&#xc8;" horiz-adv-x="667" 
d="M23 638v24h565v-197h-24c-25 130 -73 164 -232 164c-51 0 -64 -9 -64 -46v-228c105 -1 144 35 159 147h25v-332h-25c-12 114 -52 152 -159 152v-237c0 -43 18 -55 81 -55c75 0 128 16 173 52c35 28 55 56 86 122h27l-39 -204h-573v24c70 6 84 18 86 70v474
c-2 52 -20 67 -86 70zM422 723h-55l-139 86c-29 18 -39 32 -39 51c0 25 20 44 46 44c19 0 38 -10 53 -27z" />
    <glyph glyph-name="Eacute" unicode="&#xc9;" horiz-adv-x="667" 
d="M23 638v24h565v-197h-24c-25 130 -73 164 -232 164c-51 0 -64 -9 -64 -46v-228c105 -1 144 35 159 147h25v-332h-25c-12 114 -52 152 -159 152v-237c0 -43 18 -55 81 -55c75 0 128 16 173 52c35 28 55 56 86 122h27l-39 -204h-573v24c70 6 84 18 86 70v474
c-2 52 -20 67 -86 70zM238 723l134 154c16 18 33 27 52 27c28 0 47 -17 47 -43c0 -23 -7 -32 -39 -52l-139 -86h-55z" />
    <glyph glyph-name="Ecircumflex" unicode="&#xca;" horiz-adv-x="667" 
d="M23 638v24h565v-197h-24c-25 130 -73 164 -232 164c-51 0 -64 -9 -64 -46v-228c105 -1 144 35 159 147h25v-332h-25c-12 114 -52 152 -159 152v-237c0 -43 18 -55 81 -55c75 0 128 16 173 52c35 28 55 56 86 122h27l-39 -204h-573v24c70 6 84 18 86 70v474
c-2 52 -20 67 -86 70zM437 723l-110 96l-110 -96h-54l119 172h90l121 -172h-56z" />
    <glyph glyph-name="Edieresis" unicode="&#xcb;" horiz-adv-x="667" 
d="M23 638v24h565v-197h-24c-25 130 -73 164 -232 164c-51 0 -64 -9 -64 -46v-228c105 -1 144 35 159 147h25v-332h-25c-12 114 -52 152 -159 152v-237c0 -43 18 -55 81 -55c75 0 128 16 173 52c35 28 55 56 86 122h27l-39 -204h-573v24c70 6 84 18 86 70v474
c-2 52 -20 67 -86 70zM224 859c35 0 63 -29 63 -65c0 -34 -27 -62 -62 -62c-34 0 -62 29 -62 65c0 32 29 62 61 62zM428 859c35 0 64 -29 64 -65c0 -34 -28 -62 -63 -62c-34 0 -61 28 -61 64c0 34 28 63 60 63z" />
    <glyph glyph-name="Igrave" unicode="&#xcc;" horiz-adv-x="389" 
d="M367 24v-24h-343v24c71 6 90 20 91 70v474c-2 51 -22 66 -91 70v24h343v-24c-71 -2 -92 -18 -93 -70v-474c1 -51 20 -66 93 -70zM281 723h-55l-139 86c-29 18 -39 32 -39 51c0 25 20 44 46 44c19 0 38 -10 53 -27z" />
    <glyph glyph-name="Iacute" unicode="&#xcd;" horiz-adv-x="389" 
d="M367 24v-24h-343v24c71 6 90 20 91 70v474c-2 51 -22 66 -91 70v24h343v-24c-71 -2 -92 -18 -93 -70v-474c1 -51 20 -66 93 -70zM116 723l134 154c16 18 33 27 52 27c28 0 47 -17 47 -43c0 -22 -7 -32 -39 -52l-139 -86h-55z" />
    <glyph glyph-name="Icircumflex" unicode="&#xce;" horiz-adv-x="389" 
d="M367 24v-24h-343v24c71 6 90 20 91 70v474c-2 51 -22 66 -91 70v24h343v-24c-71 -2 -92 -18 -93 -70v-474c1 -51 20 -66 93 -70zM305 723l-110 96l-110 -96h-55l120 172h90l120 -172h-55z" />
    <glyph glyph-name="Idieresis" unicode="&#xcf;" horiz-adv-x="389" 
d="M367 24v-24h-343v24c71 6 90 20 91 70v474c-2 51 -22 66 -91 70v24h343v-24c-71 -2 -92 -18 -93 -70v-474c1 -51 20 -66 93 -70zM91 859c35 0 63 -29 63 -65c0 -34 -27 -62 -62 -62c-34 0 -62 29 -62 65c0 32 29 62 61 62zM296 859c35 0 64 -29 64 -65
c0 -34 -28 -62 -63 -62c-34 0 -61 28 -61 64c0 34 28 63 60 63z" />
    <glyph glyph-name="Eth" unicode="&#xd0;" horiz-adv-x="722" 
d="M13 319v46h89v207c-1 46 -20 61 -81 66v24h298c228 0 364 -122 364 -325c0 -202 -141 -337 -353 -337h-309v24c55 1 80 21 81 65v230h-89zM372 365v-46h-111v-228c0 -44 13 -57 57 -57c63 0 111 22 144 68c31 43 51 128 51 221c0 194 -71 306 -194 306
c-27 0 -45 -6 -53 -17c-4 -5 -5 -12 -5 -29v-218h111z" />
    <glyph glyph-name="Ntilde" unicode="&#xd1;" horiz-adv-x="722" 
d="M23 0v24c70 8 85 21 86 79v464c-46 56 -64 71 -83 71v24h206l343 -421v300c0 69 -20 90 -91 97v24h210v-24c-63 -10 -76 -23 -76 -79v-577h-27l-439 534v-395c1 -70 19 -88 93 -97v-24h-222zM229 743h-41c17 84 53 123 113 123c21 0 44 -6 72 -19l39 -17
c23 -11 27 -12 38 -12c27 0 41 13 53 48h42c-23 -86 -59 -125 -114 -125c-20 0 -45 6 -63 14l-29 13c-41 18 -49 21 -62 21c-26 0 -45 -18 -48 -46z" />
    <glyph glyph-name="Ograve" unicode="&#xd2;" horiz-adv-x="778" 
d="M392 677c198 0 343 -148 343 -348c0 -204 -144 -348 -346 -348c-203 0 -347 144 -347 347c0 204 145 349 350 349zM391 645c-115 0 -176 -114 -176 -326c0 -199 61 -306 173 -306c114 0 174 107 174 309c0 204 -63 323 -171 323zM472 723h-55l-139 86
c-28 18 -39 32 -39 51c0 25 20 44 46 44c19 0 37 -10 53 -27z" />
    <glyph glyph-name="Oacute" unicode="&#xd3;" horiz-adv-x="778" 
d="M392 677c198 0 343 -148 343 -348c0 -204 -144 -348 -346 -348c-203 0 -347 144 -347 347c0 204 145 349 350 349zM391 645c-115 0 -176 -114 -176 -326c0 -199 61 -306 173 -306c114 0 174 107 174 309c0 204 -63 323 -171 323zM304 723l134 154c16 18 33 27 52 27
c28 0 47 -17 47 -43c0 -23 -7 -32 -40 -52l-139 -86h-54z" />
    <glyph glyph-name="Ocircumflex" unicode="&#xd4;" horiz-adv-x="778" 
d="M392 677c198 0 343 -148 343 -348c0 -204 -144 -348 -346 -348c-203 0 -347 144 -347 347c0 204 145 349 350 349zM391 645c-115 0 -176 -114 -176 -326c0 -199 61 -306 173 -306c114 0 174 107 174 309c0 204 -63 323 -171 323zM497 723l-109 96l-110 -96h-55l120 172
h90l120 -172h-56z" />
    <glyph glyph-name="Otilde" unicode="&#xd5;" horiz-adv-x="778" 
d="M392 677c198 0 343 -148 343 -348c0 -204 -144 -348 -346 -348c-203 0 -347 144 -347 347c0 204 145 349 350 349zM391 645c-115 0 -176 -114 -176 -326c0 -199 61 -306 173 -306c114 0 174 107 174 309c0 204 -63 323 -171 323zM257 743h-42c18 84 54 123 114 123
c20 0 44 -6 72 -19l39 -17c23 -11 27 -12 38 -12c27 0 41 13 53 48h42c-23 -86 -59 -125 -115 -125c-19 0 -44 5 -62 14l-29 13c-40 18 -49 21 -62 21c-26 0 -45 -18 -48 -46z" />
    <glyph glyph-name="Odieresis" unicode="&#xd6;" horiz-adv-x="778" 
d="M392 677c198 0 343 -148 343 -348c0 -204 -144 -348 -346 -348c-203 0 -347 144 -347 347c0 204 145 349 350 349zM391 645c-115 0 -176 -114 -176 -326c0 -199 61 -306 173 -306c114 0 174 107 174 309c0 204 -63 323 -171 323zM295 859c35 0 63 -29 63 -65
c0 -34 -27 -62 -62 -62s-62 29 -62 65c0 32 29 62 61 62zM483 859c35 0 64 -29 64 -65c0 -34 -28 -62 -63 -62c-34 0 -61 28 -61 65c0 33 28 62 60 62z" />
    <glyph glyph-name="multiply" unicode="&#xd7;" horiz-adv-x="570" 
d="M224 301l-171 172l61 60l171 -172l172 172l60 -60l-172 -172l172 -171l-60 -61l-172 172l-171 -172l-61 61z" />
    <glyph glyph-name="Oslash" unicode="&#xd8;" horiz-adv-x="778" 
d="M679 722l-77 -113c47 -39 66 -60 87 -97c30 -54 46 -116 46 -183c0 -203 -144 -347 -347 -347c-70 0 -120 13 -182 47l-70 -101h-49l84 123c-58 50 -81 81 -104 140c-17 43 -25 88 -25 137c0 203 145 349 348 349c67 0 116 -13 178 -46l62 91h49zM237 148l280 409
c-35 63 -71 88 -128 88c-112 0 -174 -116 -174 -324c0 -73 5 -114 22 -173zM537 513l-281 -411c33 -63 71 -88 133 -88c113 0 173 107 173 311c0 78 -6 125 -25 188z" />
    <glyph glyph-name="Ugrave" unicode="&#xd9;" horiz-adv-x="722" 
d="M694 662v-24c-61 -9 -75 -25 -76 -84v-312c0 -92 -25 -166 -70 -203c-42 -37 -110 -58 -183 -58c-72 0 -135 18 -181 52c-60 43 -81 91 -81 187v327c-2 72 -13 85 -80 91v24h331v-24c-79 -3 -93 -16 -95 -91v-327c0 -133 43 -191 144 -191c117 0 172 68 172 213v299
c0 71 -21 92 -96 97v24h215zM456 723h-55l-139 86c-29 18 -39 32 -39 51c0 25 20 44 46 44c19 0 38 -10 53 -27z" />
    <glyph glyph-name="Uacute" unicode="&#xda;" horiz-adv-x="722" 
d="M694 662v-24c-61 -9 -75 -25 -76 -84v-312c0 -92 -25 -166 -70 -203c-42 -37 -110 -58 -183 -58c-72 0 -135 18 -181 52c-60 43 -81 91 -81 187v327c-2 72 -13 85 -80 91v24h331v-24c-79 -3 -93 -16 -95 -91v-327c0 -133 43 -191 144 -191c117 0 172 68 172 213v299
c0 71 -21 92 -96 97v24h215zM337 723l134 154c16 18 33 27 52 27c28 0 47 -17 47 -43c0 -22 -7 -32 -39 -52l-140 -86h-54z" />
    <glyph glyph-name="Ucircumflex" unicode="&#xdb;" horiz-adv-x="722" 
d="M694 662v-24c-61 -9 -75 -25 -76 -84v-312c0 -92 -25 -166 -70 -203c-42 -37 -110 -58 -183 -58c-72 0 -135 18 -181 52c-60 43 -81 91 -81 187v327c-2 72 -13 85 -80 91v24h331v-24c-79 -3 -93 -16 -95 -91v-327c0 -133 43 -191 144 -191c117 0 172 68 172 213v299
c0 71 -21 92 -96 97v24h215zM516 723l-110 96l-110 -96h-54l119 172h90l121 -172h-56z" />
    <glyph glyph-name="Udieresis" unicode="&#xdc;" horiz-adv-x="722" 
d="M694 662v-24c-61 -9 -75 -25 -76 -84v-312c0 -92 -25 -166 -70 -203c-42 -37 -110 -58 -183 -58c-72 0 -135 18 -181 52c-60 43 -81 91 -81 187v327c-2 72 -13 85 -80 91v24h331v-24c-79 -3 -93 -16 -95 -91v-327c0 -133 43 -191 144 -191c117 0 172 68 172 213v299
c0 71 -21 92 -96 97v24h215zM304 859c35 0 63 -29 63 -65c0 -34 -27 -62 -62 -62s-62 29 -62 65c0 32 29 62 61 62zM509 859c35 0 64 -29 64 -65c0 -34 -28 -62 -63 -62c-34 0 -61 28 -61 64c0 34 28 63 60 63z" />
    <glyph glyph-name="Yacute" unicode="&#xdd;" horiz-adv-x="722" 
d="M692 662v-24c-34 -6 -52 -16 -66 -39l-187 -304v-180c1 -74 11 -84 90 -91v-24h-340v24c78 7 89 17 91 91v144l-180 325c-19 33 -45 51 -78 54v24h328v-24c-11 -1 -21 -1 -25 -1c-39 0 -54 -8 -54 -30c0 -11 4 -22 17 -46l6 -12l118 -227l109 181c24 41 38 74 38 93
c0 29 -16 37 -82 42v24h215zM351 723l135 154c16 18 32 27 52 27c28 0 47 -17 47 -43c0 -23 -7 -32 -40 -52l-139 -86h-55z" />
    <glyph glyph-name="Thorn" unicode="&#xde;" horiz-adv-x="611" 
d="M22 0v24c10 2 20 4 23 4c44 5 58 26 59 87v433c-2 70 -15 85 -82 90v24h327v-24c-77 -10 -84 -19 -86 -91v-12h65c176 0 266 -61 266 -179c0 -63 -30 -114 -87 -148c-53 -32 -87 -37 -244 -38v-55c2 -73 10 -82 86 -91v-24h-327zM263 467v-263c69 0 102 7 125 27
c27 22 38 59 38 122c0 105 -33 148 -114 148c-33 0 -49 -11 -49 -34z" />
    <glyph glyph-name="germandbls" unicode="&#xdf;" horiz-adv-x="556" 
d="M24 0v24c42 6 49 15 50 61v412c0 105 84 180 203 180c111 0 194 -64 194 -151c0 -41 -21 -78 -57 -104c-26 -17 -48 -26 -96 -37c80 -23 113 -39 145 -69c32 -31 49 -74 49 -126c0 -112 -82 -202 -185 -202c-18 0 -34 4 -63 15l13 33l11 -6c10 -7 12 -8 21 -8
c46 0 60 39 60 169c0 85 -12 134 -38 156c-14 12 -29 16 -62 18v34c55 1 68 23 68 120c0 93 -20 131 -69 131c-38 0 -58 -27 -58 -76v-574h-186z" />
    <glyph glyph-name="agrave" unicode="&#xe0;" 
d="M469 63l15 -21c-37 -41 -67 -56 -110 -56c-48 0 -70 19 -80 69c-54 -49 -99 -69 -155 -69c-64 0 -109 44 -109 104c0 42 20 75 63 105c36 25 84 44 201 79v72c0 60 -25 86 -82 86c-35 0 -62 -16 -62 -36c0 -6 3 -12 11 -22c13 -16 18 -28 18 -42c0 -34 -27 -57 -67 -57
s-63 24 -63 65c0 73 74 123 185 123c120 0 194 -51 194 -134v-256c0 -16 7 -24 21 -24c5 0 7 1 10 4zM293 98v142c-79 -21 -120 -62 -120 -118c0 -39 20 -66 50 -66c24 0 43 11 70 42zM340 517h-55l-139 86c-29 18 -39 32 -39 51c0 24 20 44 46 44c19 0 37 -10 53 -27z" />
    <glyph glyph-name="aacute" unicode="&#xe1;" 
d="M469 63l15 -21c-37 -41 -67 -56 -110 -56c-48 0 -70 19 -80 69c-54 -49 -99 -69 -155 -69c-64 0 -109 44 -109 104c0 42 20 75 63 105c36 25 84 44 201 79v72c0 60 -25 86 -82 86c-35 0 -62 -16 -62 -36c0 -6 3 -12 11 -22c13 -16 18 -28 18 -42c0 -34 -27 -57 -67 -57
s-63 24 -63 65c0 73 74 123 185 123c120 0 194 -51 194 -134v-256c0 -16 7 -24 21 -24c5 0 7 1 10 4zM293 98v142c-79 -21 -120 -62 -120 -118c0 -39 20 -66 50 -66c24 0 43 11 70 42zM156 517l134 154c16 18 33 27 52 27c28 0 47 -17 47 -43c0 -22 -8 -32 -39 -52l-139 -86
h-55z" />
    <glyph glyph-name="acircumflex" unicode="&#xe2;" 
d="M469 63l15 -21c-37 -41 -67 -56 -110 -56c-48 0 -70 19 -80 69c-54 -49 -99 -69 -155 -69c-64 0 -109 44 -109 104c0 42 20 75 63 105c36 25 84 44 201 79v72c0 60 -25 86 -82 86c-35 0 -62 -16 -62 -36c0 -6 3 -12 11 -22c13 -16 18 -28 18 -42c0 -34 -27 -57 -67 -57
s-63 24 -63 65c0 73 74 123 185 123c120 0 194 -51 194 -134v-256c0 -16 7 -24 21 -24c5 0 7 1 10 4zM293 98v142c-79 -21 -120 -62 -120 -118c0 -39 20 -66 50 -66c24 0 43 11 70 42zM360 517l-110 96l-110 -96h-55l120 173h90l120 -173h-55z" />
    <glyph glyph-name="atilde" unicode="&#xe3;" 
d="M469 63l15 -21c-37 -41 -67 -56 -110 -56c-48 0 -70 19 -80 69c-54 -49 -99 -69 -155 -69c-64 0 -109 44 -109 104c0 42 20 75 63 105c36 25 84 44 201 79v72c0 60 -25 86 -82 86c-35 0 -62 -16 -62 -36c0 -6 3 -12 11 -22c13 -16 18 -28 18 -42c0 -34 -27 -57 -67 -57
s-63 24 -63 65c0 73 74 123 185 123c120 0 194 -51 194 -134v-256c0 -16 7 -24 21 -24c5 0 7 1 10 4zM293 98v142c-79 -21 -120 -62 -120 -118c0 -39 20 -66 50 -66c24 0 43 11 70 42zM113 538h-41c17 84 53 122 113 122c21 0 44 -6 72 -19l39 -17c25 -12 27 -12 38 -12
c27 0 41 12 53 48h42c-23 -85 -58 -124 -115 -124c-18 0 -44 6 -62 14l-29 12c-42 19 -49 22 -62 22c-25 0 -45 -18 -48 -46z" />
    <glyph glyph-name="adieresis" unicode="&#xe4;" 
d="M469 63l15 -21c-37 -41 -67 -56 -110 -56c-48 0 -70 19 -80 69c-54 -49 -99 -69 -155 -69c-64 0 -109 44 -109 104c0 42 20 75 63 105c36 25 84 44 201 79v72c0 60 -25 86 -82 86c-35 0 -62 -16 -62 -36c0 -6 3 -12 11 -22c13 -16 18 -28 18 -42c0 -34 -27 -57 -67 -57
s-63 24 -63 65c0 73 74 123 185 123c120 0 194 -51 194 -134v-256c0 -16 7 -24 21 -24c5 0 7 1 10 4zM293 98v142c-79 -21 -120 -62 -120 -118c0 -39 20 -66 50 -66c24 0 43 11 70 42zM141 653c35 0 63 -29 63 -65c0 -35 -27 -62 -63 -62c-33 0 -61 29 -61 64
c0 33 29 63 61 63zM346 653c35 0 64 -29 64 -65c0 -34 -28 -62 -63 -62c-34 0 -61 28 -61 64c0 33 28 63 60 63z" />
    <glyph glyph-name="aring" unicode="&#xe5;" 
d="M469 63l15 -21c-37 -41 -67 -56 -110 -56c-48 0 -70 19 -80 69c-54 -49 -99 -69 -155 -69c-64 0 -109 44 -109 104c0 42 20 75 63 105c36 25 84 44 201 79v72c0 60 -25 86 -82 86c-35 0 -62 -16 -62 -36c0 -6 3 -12 11 -22c13 -16 18 -28 18 -42c0 -34 -27 -57 -67 -57
s-63 24 -63 65c0 73 74 123 185 123c120 0 194 -51 194 -134v-256c0 -16 7 -24 21 -24c5 0 7 1 10 4zM293 98v142c-79 -21 -120 -62 -120 -118c0 -39 20 -66 50 -66c24 0 43 11 70 42zM240 735c57 0 104 -47 104 -105s-46 -104 -105 -104c-57 0 -103 47 -103 106
c0 55 48 103 104 103zM239 688c-30 0 -56 -27 -56 -58s25 -57 56 -57c32 0 58 25 58 56c0 32 -26 59 -58 59z" />
    <glyph glyph-name="ae" unicode="&#xe6;" horiz-adv-x="722" 
d="M666 125l21 -14c-58 -89 -112 -120 -205 -120c-69 0 -106 21 -144 82l-6 -5c-57 -57 -112 -82 -176 -82c-76 0 -116 37 -116 105c0 44 18 76 55 103c33 22 78 40 203 80v79c0 56 -22 79 -76 79c-38 0 -64 -14 -64 -34c0 -7 2 -12 11 -22c13 -14 17 -23 17 -42
c0 -36 -22 -56 -62 -56s-67 25 -67 62c0 71 76 123 179 123c64 0 102 -14 138 -50c37 36 73 50 125 50c72 0 132 -36 161 -96c17 -34 22 -63 22 -124h-249v-23c0 -112 34 -160 112 -160c49 0 84 19 121 65zM298 79v164c-87 -31 -117 -63 -117 -125c0 -46 19 -70 56 -70
c23 0 37 7 61 31zM433 279h130v32c0 92 -15 123 -61 123c-51 0 -68 -39 -69 -155z" />
    <glyph glyph-name="ccedilla" unicode="&#xe7;" horiz-adv-x="444" 
d="M264 -12l-22 -51c12 4 19 5 32 5c54 0 86 -26 86 -69c0 -53 -49 -87 -127 -87c-33 0 -58 5 -94 18l15 36l6 -2c30 -10 37 -12 52 -12c37 0 57 14 57 40c0 23 -16 36 -45 36c-10 0 -17 -1 -27 -4l-11 8l36 81c-117 12 -193 102 -193 231c0 142 98 245 232 245
c85 0 151 -47 151 -107c0 -39 -25 -62 -66 -62c-38 0 -55 22 -55 70c0 41 -1 41 -6 50c-6 12 -20 19 -36 19c-51 0 -82 -62 -82 -162c0 -134 54 -219 139 -219c40 0 66 14 102 55l18 -18c-46 -62 -94 -92 -162 -101z" />
    <glyph glyph-name="egrave" unicode="&#xe8;" horiz-adv-x="444" 
d="M398 122l24 -13c-64 -92 -112 -123 -191 -123c-122 0 -202 94 -202 237s83 240 204 240c55 0 100 -20 132 -57c31 -38 46 -84 52 -166h-247c4 -67 11 -100 30 -131c20 -35 49 -52 87 -52c42 0 72 18 111 65zM165 276h131v15c-1 51 -4 77 -8 96c-8 31 -26 46 -54 46
c-49 0 -66 -39 -69 -157zM319 517h-55l-139 86c-28 18 -39 32 -39 51c0 24 20 44 46 44c19 0 38 -10 53 -27z" />
    <glyph glyph-name="eacute" unicode="&#xe9;" horiz-adv-x="444" 
d="M398 122l24 -13c-64 -92 -112 -123 -191 -123c-122 0 -202 94 -202 237s83 240 204 240c55 0 100 -20 132 -57c31 -38 46 -84 52 -166h-247c4 -67 11 -100 30 -131c20 -35 49 -52 87 -52c42 0 72 18 111 65zM165 276h131v15c-1 51 -4 77 -8 96c-8 31 -26 46 -54 46
c-49 0 -66 -39 -69 -157zM160 517l135 154c16 18 32 27 51 27c28 0 47 -17 47 -43c0 -22 -8 -33 -39 -52l-139 -86h-55z" />
    <glyph glyph-name="ecircumflex" unicode="&#xea;" horiz-adv-x="444" 
d="M398 122l24 -13c-64 -92 -112 -123 -191 -123c-122 0 -202 94 -202 237s83 240 204 240c55 0 100 -20 132 -57c31 -38 46 -84 52 -166h-247c4 -67 11 -100 30 -131c20 -35 49 -52 87 -52c42 0 72 18 111 65zM165 276h131v15c-1 51 -4 77 -8 96c-8 31 -26 46 -54 46
c-49 0 -66 -39 -69 -157zM345 517l-110 96l-109 -96h-55l119 173h90l121 -173h-56z" />
    <glyph glyph-name="edieresis" unicode="&#xeb;" horiz-adv-x="444" 
d="M398 122l24 -13c-64 -92 -112 -123 -191 -123c-122 0 -202 94 -202 237s83 240 204 240c55 0 100 -20 132 -57c31 -38 46 -84 52 -166h-247c4 -67 11 -100 30 -131c20 -35 49 -52 87 -52c42 0 72 18 111 65zM165 276h131v15c-1 51 -4 77 -8 96c-8 31 -26 46 -54 46
c-49 0 -66 -39 -69 -157zM131 653c35 0 63 -29 63 -65c0 -35 -27 -62 -63 -62c-33 0 -61 29 -61 64c0 33 29 63 61 63zM335 653c35 0 64 -29 64 -65c0 -34 -28 -62 -63 -62c-34 0 -61 28 -61 65c0 33 29 62 60 62z" />
    <glyph glyph-name="igrave" unicode="&#xec;" horiz-adv-x="278" 
d="M252 24v-24h-234v24c44 9 51 17 52 58v289c-1 40 -9 50 -52 58v23h188v-373c0 -37 12 -52 46 -55zM210 517h-55l-139 86c-29 18 -39 32 -39 51c0 24 20 44 46 44c19 0 38 -10 53 -27z" />
    <glyph glyph-name="iacute" unicode="&#xed;" horiz-adv-x="278" 
d="M253 24v-24h-234v24c44 9 51 17 52 58v289c-1 40 -9 50 -52 58v23h188v-373c0 -37 12 -52 46 -55zM54 517l134 154c17 18 33 27 52 27c28 0 47 -17 47 -43c0 -22 -8 -33 -39 -52l-139 -86h-55z" />
    <glyph glyph-name="icircumflex" unicode="&#xee;" horiz-adv-x="278" 
d="M253 24v-24h-234v24c44 9 51 17 52 58v289c-1 40 -9 50 -52 58v23h188v-373c0 -37 12 -52 46 -55zM236 517l-109 96l-110 -96h-55l119 173h91l120 -173h-56z" />
    <glyph glyph-name="idieresis" unicode="&#xef;" horiz-adv-x="278" 
d="M253 24v-24h-234v24c44 9 51 17 52 58v289c-1 40 -9 50 -52 58v23h188v-373c0 -37 12 -52 46 -55zM29 653c35 0 63 -29 63 -65c0 -35 -27 -62 -63 -62c-33 0 -61 29 -61 64c0 33 29 63 61 63zM234 653c35 0 64 -29 64 -65c0 -34 -28 -62 -63 -62c-34 0 -61 28 -61 65
c0 33 29 62 60 62z" />
    <glyph glyph-name="eth" unicode="&#xf0;" 
d="M256 562l-107 -55l-47 31l114 58c-42 30 -82 47 -130 56l45 25c60 -6 107 -19 157 -45l88 45l48 -30l-90 -46c59 -49 84 -80 107 -140c21 -50 31 -108 31 -174c0 -190 -81 -301 -220 -301c-128 0 -222 101 -222 238c0 136 95 239 220 239c41 0 63 -10 89 -40l2 3
c-20 56 -45 97 -85 136zM252 433c-59 0 -78 -52 -78 -216c0 -94 6 -140 22 -168c12 -22 31 -33 56 -33c58 0 76 51 76 211c0 153 -20 206 -76 206z" />
    <glyph glyph-name="ntilde" unicode="&#xf1;" horiz-adv-x="556" 
d="M533 24v-24h-230v24c32 2 45 18 46 55v238c0 54 -17 81 -51 81c-22 0 -46 -12 -67 -34c-10 -9 -17 -19 -17 -23v-262c0 -36 13 -51 48 -55v-24h-236v24c43 7 51 16 52 58v289c-1 42 -9 51 -52 58v23h187v-74c37 59 80 85 140 85c81 0 132 -53 132 -137v-247
c-1 -39 12 -53 48 -55zM140 538h-41c17 84 53 122 113 122c21 0 44 -6 72 -19l39 -17c26 -12 27 -12 38 -12c27 0 41 12 53 48h42c-22 -85 -58 -124 -114 -124c-19 0 -45 6 -63 14l-28 12c-43 20 -50 22 -63 22c-25 0 -44 -18 -48 -46z" />
    <glyph glyph-name="ograve" unicode="&#xf2;" 
d="M251 463c127 0 221 -101 221 -239c0 -137 -93 -238 -220 -238c-129 0 -222 100 -222 240c0 134 96 237 221 237zM252 433c-60 0 -78 -51 -78 -223c0 -144 20 -194 78 -194c57 0 76 51 76 202c0 161 -19 215 -76 215zM343 517h-55l-139 86c-28 18 -39 32 -39 51
c0 24 20 44 46 44c19 0 37 -10 53 -27z" />
    <glyph glyph-name="oacute" unicode="&#xf3;" 
d="M251 463c127 0 221 -101 221 -239c0 -137 -93 -238 -220 -238c-129 0 -222 100 -222 240c0 134 96 237 221 237zM252 433c-60 0 -78 -51 -78 -223c0 -144 20 -194 78 -194c57 0 76 51 76 202c0 161 -19 215 -76 215zM172 517l134 154c16 18 33 27 52 27
c28 0 47 -17 47 -43c0 -23 -7 -32 -39 -52l-140 -86h-54z" />
    <glyph glyph-name="ocircumflex" unicode="&#xf4;" 
d="M251 463c127 0 221 -101 221 -239c0 -137 -93 -238 -220 -238c-129 0 -222 100 -222 240c0 134 96 237 221 237zM252 433c-60 0 -78 -51 -78 -223c0 -144 20 -194 78 -194c57 0 76 51 76 202c0 161 -19 215 -76 215zM360 517l-110 96l-110 -96h-55l120 173h90l120 -173
h-55z" />
    <glyph glyph-name="otilde" unicode="&#xf5;" 
d="M251 463c127 0 221 -101 221 -239c0 -137 -93 -238 -220 -238c-129 0 -222 100 -222 240c0 134 96 237 221 237zM252 433c-60 0 -78 -51 -78 -223c0 -144 20 -194 78 -194c57 0 76 51 76 202c0 161 -19 215 -76 215zM113 538h-41c17 84 53 122 113 122c21 0 44 -6 72 -19
l39 -17c25 -12 27 -12 38 -12c27 0 41 12 53 48h42c-23 -85 -58 -124 -115 -124c-18 0 -44 6 -62 14l-29 12c-42 19 -49 22 -62 22c-25 0 -45 -18 -48 -46z" />
    <glyph glyph-name="odieresis" unicode="&#xf6;" 
d="M251 463c127 0 221 -101 221 -239c0 -137 -93 -238 -220 -238c-129 0 -222 100 -222 240c0 134 96 237 221 237zM252 433c-60 0 -78 -51 -78 -223c0 -144 20 -194 78 -194c57 0 76 51 76 202c0 161 -19 215 -76 215zM146 653c34 0 63 -29 63 -65c0 -35 -27 -62 -63 -62
c-33 0 -61 29 -61 64c0 33 29 63 61 63zM351 653c35 0 64 -29 64 -65c0 -34 -28 -62 -63 -62c-34 0 -61 28 -61 65c0 32 29 62 60 62z" />
    <glyph glyph-name="divide" unicode="&#xf7;" horiz-adv-x="570" 
d="M532 258h-494v86h494v-86zM285 579c40 0 75 -35 75 -75c0 -39 -36 -75 -75 -75c-41 0 -75 34 -75 75c0 40 35 75 75 75zM285 173c40 0 75 -34 75 -74c0 -39 -36 -76 -75 -76c-41 0 -75 35 -75 76c0 40 34 74 75 74z" />
    <glyph glyph-name="oslash" unicode="&#xf8;" 
d="M457 538l-71 -121c60 -54 86 -112 86 -193c0 -137 -94 -238 -220 -238c-39 0 -69 8 -105 27l-62 -103h-46l74 125c-58 55 -83 111 -83 189c0 137 95 239 222 239c38 0 67 -7 101 -24l59 99h45zM175 137l140 237c-13 43 -30 59 -63 59c-61 0 -78 -51 -78 -228
c0 -24 0 -46 1 -68zM326 318l-141 -240c13 -45 32 -62 67 -62c56 0 76 51 76 199c0 31 -1 57 -2 103z" />
    <glyph glyph-name="ugrave" unicode="&#xf9;" horiz-adv-x="556" 
d="M531 42v-22l-61 -7c-63 -7 -87 -11 -129 -26v64c-58 -50 -91 -65 -142 -65c-81 0 -130 51 -130 138v247c-1 41 -8 50 -48 58v23h184v-332c0 -51 15 -70 54 -70c29 0 49 11 81 43v278c-1 43 -13 54 -61 58v23h197v-353c0 -42 13 -55 55 -57zM356 517h-55l-139 86
c-30 18 -40 32 -40 51c0 25 20 44 46 44c19 0 38 -10 53 -27z" />
    <glyph glyph-name="uacute" unicode="&#xfa;" horiz-adv-x="556" 
d="M531 42v-22l-61 -7c-63 -7 -87 -11 -129 -26v64c-58 -50 -91 -65 -142 -65c-81 0 -130 51 -130 138v247c-1 41 -8 50 -48 58v23h184v-332c0 -51 15 -70 54 -70c29 0 49 11 81 43v278c-1 43 -13 54 -61 58v23h197v-353c0 -42 13 -55 55 -57zM187 517l134 154
c16 18 33 27 52 27c28 0 47 -17 47 -43c0 -22 -7 -32 -39 -52l-139 -86h-55z" />
    <glyph glyph-name="ucircumflex" unicode="&#xfb;" horiz-adv-x="556" 
d="M531 42v-22l-61 -7c-63 -7 -87 -11 -129 -26v64c-58 -50 -91 -65 -142 -65c-81 0 -130 51 -130 138v247c-1 41 -8 50 -48 58v23h184v-332c0 -51 15 -70 54 -70c29 0 49 11 81 43v278c-1 43 -13 54 -61 58v23h197v-353c0 -42 13 -55 55 -57zM375 517l-110 96l-110 -96h-55
l120 173h90l120 -173h-55z" />
    <glyph glyph-name="udieresis" unicode="&#xfc;" horiz-adv-x="556" 
d="M531 42v-22l-61 -7c-63 -7 -87 -11 -129 -26v64c-58 -50 -91 -65 -142 -65c-81 0 -130 51 -130 138v247c-1 41 -8 50 -48 58v23h184v-332c0 -51 15 -70 54 -70c29 0 49 11 81 43v278c-1 43 -13 54 -61 58v23h197v-353c0 -42 13 -55 55 -57zM160 653c35 0 63 -29 63 -65
c0 -35 -27 -62 -63 -62c-33 0 -61 29 -61 64c0 33 29 63 61 63zM365 653c35 0 64 -29 64 -65c0 -34 -28 -62 -63 -62c-34 0 -61 28 -61 65c0 32 29 62 60 62z" />
    <glyph glyph-name="yacute" unicode="&#xfd;" 
d="M475 452v-23c-30 -4 -40 -13 -56 -54l-146 -390c-35 -93 -54 -131 -75 -153c-20 -22 -48 -33 -82 -33c-56 0 -95 32 -95 78c0 36 26 62 62 62c34 0 57 -20 57 -48c0 -5 0 -9 -1 -14c-1 -3 -1 -4 -1 -6c0 -8 8 -16 17 -16c23 0 47 31 64 80l17 52l-117 290
c-17 41 -61 136 -64 136c-6 10 -12 12 -34 16v23h245v-23l-15 -2c-25 -2 -37 -10 -37 -24c0 -8 0 -8 20 -58l70 -181l67 188c8 22 10 33 10 44c0 24 -11 31 -53 33v23h147zM219 517l134 154c16 18 33 27 52 27c28 0 47 -17 47 -43c0 -22 -7 -32 -40 -52l-139 -86h-54z" />
    <glyph glyph-name="thorn" unicode="&#xfe;" horiz-adv-x="556" 
d="M291 -180v-21h-267v24c46 7 54 16 55 56v703c-1 40 -10 49 -54 57v23h190v-279c28 57 63 80 122 80c108 0 182 -92 182 -229c0 -145 -78 -247 -189 -247c-43 0 -68 13 -115 59v-138c1 -68 18 -86 76 -88zM215 339v-238c18 -40 44 -60 77 -60c55 0 82 59 82 180
c0 128 -24 186 -75 186c-22 0 -44 -11 -63 -33c-12 -13 -21 -28 -21 -35z" />
    <glyph glyph-name="ydieresis" unicode="&#xff;" 
d="M475 452v-23c-30 -4 -40 -13 -56 -54l-146 -390c-35 -93 -54 -131 -75 -153c-20 -22 -48 -33 -82 -33c-56 0 -95 32 -95 78c0 36 26 62 62 62c34 0 57 -20 57 -48c0 -5 0 -9 -1 -14c-1 -3 -1 -4 -1 -6c0 -8 8 -16 17 -16c23 0 47 31 64 80l17 52l-117 290
c-17 41 -61 136 -64 136c-6 10 -12 12 -34 16v23h245v-23l-15 -2c-25 -2 -37 -10 -37 -24c0 -8 0 -8 20 -58l70 -181l67 188c8 22 10 33 10 44c0 24 -11 31 -53 33v23h147zM162 653c35 0 63 -29 63 -65c0 -35 -27 -62 -63 -62c-33 0 -61 29 -61 64c0 33 29 63 61 63z
M366 653c35 0 64 -29 64 -65c0 -34 -28 -62 -63 -62c-34 0 -61 28 -61 65c0 33 29 62 60 62z" />
    <glyph glyph-name="Amacron" unicode="&#x100;" horiz-adv-x="722" 
d="M682 24v-24h-317v24c14 2 26 3 31 3c34 3 47 12 47 32c0 22 -12 58 -45 134h-220l-15 -39c-20 -49 -28 -76 -28 -89c0 -26 22 -37 80 -41v-24h-199v24c47 9 59 23 96 115l217 537h28l218 -515c53 -123 64 -137 107 -137zM192 231h191l-99 238zM513 830v-71h-323v71h323z
" />
    <glyph glyph-name="amacron" unicode="&#x101;" 
d="M469 63l15 -21c-37 -41 -67 -56 -110 -56c-48 0 -70 19 -80 69c-54 -49 -99 -69 -155 -69c-64 0 -109 44 -109 104c0 42 20 75 63 105c36 25 84 44 201 79v72c0 60 -25 86 -82 86c-35 0 -62 -16 -62 -36c0 -6 3 -12 11 -22c13 -16 18 -28 18 -42c0 -34 -27 -57 -67 -57
s-63 24 -63 65c0 73 74 123 185 123c120 0 194 -51 194 -134v-256c0 -16 7 -24 21 -24c5 0 7 1 10 4zM293 98v142c-79 -21 -120 -62 -120 -118c0 -39 20 -66 50 -66c24 0 43 11 70 42zM412 624v-71h-324v71h324z" />
    <glyph glyph-name="Abreve" unicode="&#x102;" horiz-adv-x="722" 
d="M682 24v-24h-317v24c14 2 26 3 31 3c34 3 47 12 47 32c0 22 -12 58 -45 134h-220l-15 -39c-20 -49 -28 -76 -28 -89c0 -26 22 -37 80 -41v-24h-199v24c47 9 59 23 96 115l217 537h28l218 -515c53 -123 64 -137 107 -137zM192 231h191l-99 238zM450 883h44
c-6 -50 -13 -74 -30 -100c-25 -40 -65 -60 -119 -60c-53 0 -93 18 -118 53c-21 29 -28 53 -30 107h43c11 -60 42 -86 104 -86c61 0 90 23 106 86z" />
    <glyph glyph-name="abreve" unicode="&#x103;" 
d="M469 63l15 -21c-37 -41 -67 -56 -110 -56c-48 0 -70 19 -80 69c-54 -49 -99 -69 -155 -69c-64 0 -109 44 -109 104c0 42 20 75 63 105c36 25 84 44 201 79v72c0 60 -25 86 -82 86c-35 0 -62 -16 -62 -36c0 -6 3 -12 11 -22c13 -16 18 -28 18 -42c0 -34 -27 -57 -67 -57
s-63 24 -63 65c0 73 74 123 185 123c120 0 194 -51 194 -134v-256c0 -16 7 -24 21 -24c5 0 7 1 10 4zM293 98v142c-79 -21 -120 -62 -120 -118c0 -39 20 -66 50 -66c24 0 43 11 70 42zM356 676h43c-6 -50 -13 -74 -29 -100c-26 -40 -66 -60 -120 -60c-53 0 -93 18 -118 53
c-20 29 -27 53 -30 107h43c12 -61 42 -86 104 -86c61 0 90 23 107 86z" />
    <glyph glyph-name="Aogonek" unicode="&#x104;" horiz-adv-x="722" 
d="M682 24v-24c-9 -10 -12 -20 -12 -38c0 -42 21 -64 62 -64c15 0 25 3 45 13c8 4 9 5 14 7l21 -14c-24 -46 -71 -74 -120 -74c-60 0 -104 33 -104 79c0 28 8 46 42 91h-265v24c14 2 26 3 31 3c34 3 47 12 47 32c0 22 -12 58 -45 134h-220l-15 -39c-20 -49 -28 -76 -28 -89
c0 -26 22 -37 80 -41v-24h-199v24c47 9 59 23 96 115l217 537h28l218 -515c53 -123 64 -137 107 -137zM192 231h191l-99 238z" />
    <glyph glyph-name="aogonek" unicode="&#x105;" 
d="M469 63l15 -21c-36 -38 -40 -41 -96 -58c-20 -6 -35 -24 -35 -43c0 -24 28 -43 63 -43c15 0 25 3 44 13c8 4 9 5 14 7l22 -14c-25 -45 -72 -74 -121 -74c-60 0 -104 33 -104 79c0 28 9 47 46 96c-12 12 -18 23 -23 50c-54 -49 -99 -69 -155 -69c-64 0 -109 44 -109 104
c0 42 20 75 63 105c36 25 84 44 201 79v72c0 60 -25 86 -82 86c-35 0 -62 -16 -62 -36c0 -6 3 -12 11 -22c13 -16 18 -28 18 -42c0 -34 -27 -57 -67 -57s-63 24 -63 65c0 73 74 123 185 123c120 0 194 -51 194 -134v-256c0 -16 7 -24 21 -24c5 0 7 1 10 4zM293 98v142
c-79 -21 -120 -62 -120 -118c0 -39 20 -66 50 -66c24 0 43 11 70 42z" />
    <glyph glyph-name="Cacute" unicode="&#x106;" horiz-adv-x="722" 
d="M650 149l30 -25c-99 -108 -166 -143 -278 -143c-204 0 -347 142 -347 344s146 352 341 352c47 0 95 -11 151 -35c22 -9 36 -13 45 -13c20 0 29 10 44 45h26v-229h-24c-34 74 -57 107 -100 145c-42 37 -84 55 -130 55c-118 0 -180 -107 -180 -311c0 -99 13 -169 42 -221
c29 -51 90 -85 155 -85c28 0 59 6 88 17c49 20 80 43 137 104zM321 723l134 154c16 18 33 27 52 27c28 0 47 -17 47 -43c0 -22 -7 -32 -39 -52l-139 -86h-55z" />
    <glyph glyph-name="cacute" unicode="&#x107;" horiz-adv-x="444" 
d="M408 107l18 -18c-57 -73 -112 -103 -187 -103c-123 0 -210 96 -210 232c0 142 98 245 232 245c85 0 151 -47 151 -107c0 -39 -25 -62 -66 -62c-38 0 -55 22 -55 70c0 41 -1 41 -6 50c-6 12 -20 19 -36 19c-51 0 -82 -62 -82 -162c0 -134 54 -219 139 -219
c40 0 66 14 102 55zM182 517l135 154c16 18 32 27 51 27c28 0 47 -17 47 -43c0 -22 -8 -33 -39 -52l-139 -86h-55z" />
    <glyph glyph-name="Ccircumflex" unicode="&#x108;" horiz-adv-x="722" 
d="M650 149l30 -25c-99 -108 -166 -143 -278 -143c-204 0 -347 142 -347 344s146 352 341 352c47 0 95 -11 151 -35c22 -9 36 -13 45 -13c20 0 29 10 44 45h26v-229h-24c-34 74 -57 107 -100 145c-42 37 -84 55 -130 55c-118 0 -180 -107 -180 -311c0 -99 13 -169 42 -221
c29 -51 90 -85 155 -85c28 0 59 6 88 17c49 20 80 43 137 104zM564 723h-56l-110 97l-110 -97h-54l119 172h90z" />
    <glyph glyph-name="ccircumflex" unicode="&#x109;" horiz-adv-x="444" 
d="M408 107l18 -18c-57 -73 -112 -103 -187 -103c-123 0 -210 96 -210 232c0 142 98 245 232 245c85 0 151 -47 151 -107c0 -39 -25 -62 -66 -62c-38 0 -55 22 -55 70c0 41 -1 41 -6 50c-6 12 -20 19 -36 19c-51 0 -82 -62 -82 -162c0 -134 54 -219 139 -219
c40 0 66 14 102 55zM361 517l-110 96l-110 -96h-55l120 173h90l120 -173h-55z" />
    <glyph glyph-name="Cdotaccent" unicode="&#x10a;" horiz-adv-x="722" 
d="M400 858c36 0 67 -31 67 -68s-31 -68 -68 -68c-38 0 -68 31 -68 68c0 38 31 68 69 68zM650 149l30 -25c-99 -108 -166 -143 -278 -143c-204 0 -347 142 -347 344s146 352 341 352c47 0 95 -11 151 -35c22 -9 36 -13 45 -13c20 0 29 10 44 45h26v-229h-24
c-34 74 -57 107 -100 145c-42 37 -84 55 -130 55c-118 0 -180 -107 -180 -311c0 -99 13 -169 42 -221c29 -51 90 -85 155 -85c28 0 59 6 88 17c49 20 80 43 137 104z" />
    <glyph glyph-name="cdotaccent" unicode="&#x10b;" horiz-adv-x="444" 
d="M408 107l18 -18c-57 -73 -112 -103 -187 -103c-123 0 -210 96 -210 232c0 142 98 245 232 245c85 0 151 -47 151 -107c0 -39 -25 -62 -66 -62c-38 0 -55 22 -55 70c0 41 -1 41 -6 50c-6 12 -20 19 -36 19c-51 0 -82 -62 -82 -162c0 -134 54 -219 139 -219
c40 0 66 14 102 55zM249 653c35 0 64 -29 64 -65c0 -34 -28 -62 -63 -62c-34 0 -61 28 -61 64c0 33 28 63 60 63z" />
    <glyph glyph-name="Ccaron" unicode="&#x10c;" horiz-adv-x="722" 
d="M650 149l30 -25c-99 -108 -166 -143 -278 -143c-204 0 -347 142 -347 344s146 352 341 352c47 0 95 -11 151 -35c22 -9 36 -13 45 -13c20 0 29 10 44 45h26v-229h-24c-34 74 -57 107 -100 145c-42 37 -84 55 -130 55c-118 0 -180 -107 -180 -311c0 -99 13 -169 42 -221
c29 -51 90 -85 155 -85c28 0 59 6 88 17c49 20 80 43 137 104zM565 895l-121 -172h-90l-119 172h55l109 -97l110 97h56z" />
    <glyph glyph-name="ccaron" unicode="&#x10d;" horiz-adv-x="444" 
d="M408 107l18 -18c-57 -73 -112 -103 -187 -103c-123 0 -210 96 -210 232c0 142 98 245 232 245c85 0 151 -47 151 -107c0 -39 -25 -62 -66 -62c-38 0 -55 22 -55 70c0 41 -1 41 -6 50c-6 12 -20 19 -36 19c-51 0 -82 -62 -82 -162c0 -134 54 -219 139 -219
c40 0 66 14 102 55zM416 690l-120 -173h-90l-120 173h55l110 -98l110 98h55z" />
    <glyph glyph-name="Dcaron" unicode="&#x10e;" horiz-adv-x="722" 
d="M21 0v24c55 1 81 21 81 65v483c-1 46 -20 61 -81 66v24h299c227 0 363 -122 363 -325c0 -202 -141 -337 -352 -337h-310zM261 595v-504c0 -44 13 -57 57 -57c64 0 111 22 144 68c32 44 51 128 51 221c0 83 -14 155 -40 206c-34 68 -84 100 -154 100
c-39 0 -58 -11 -58 -34zM464 895l-121 -172h-90l-119 172h55l109 -97l110 97h56z" />
    <glyph glyph-name="dcaron" unicode="&#x10f;" horiz-adv-x="672" 
d="M547 382l-10 19c67 47 96 83 96 117c0 11 -7 19 -17 19c-1 0 -3 0 -6 -1c-5 -1 -10 -1 -14 -1c-40 0 -65 27 -65 70c0 44 29 72 73 72c53 0 89 -41 89 -103c0 -76 -44 -134 -146 -192zM530 42v-22l-61 -8c-60 -7 -85 -12 -130 -25v64c-46 -49 -78 -65 -130 -65
c-104 0 -178 96 -178 230c0 142 80 247 188 247c45 0 75 -15 117 -60v179c-2 46 -10 53 -74 57v23h210v-563c0 -41 13 -54 58 -57zM336 110v238c-13 36 -44 60 -77 60c-57 0 -83 -58 -83 -184c0 -125 24 -183 76 -183c23 0 43 11 63 33c11 13 21 30 21 36z" />
    <glyph glyph-name="Dcroat" unicode="&#x110;" horiz-adv-x="722" 
d="M13 319v46h89v207c-1 46 -20 61 -81 66v24h298c228 0 364 -122 364 -325c0 -202 -141 -337 -353 -337h-309v24c55 1 80 21 81 65v230h-89zM372 365v-46h-111v-228c0 -44 13 -57 57 -57c63 0 111 22 144 68c31 43 51 128 51 221c0 194 -71 306 -194 306
c-27 0 -45 -6 -53 -17c-4 -5 -5 -12 -5 -29v-218h111z" />
    <glyph glyph-name="dcroat" unicode="&#x111;" horiz-adv-x="556" 
d="M335 534h-90v43h90v5c-1 46 -10 53 -74 57v23h210v-85h58v-43h-58v-435c0 -41 13 -54 58 -57v-22l-61 -8c-60 -7 -85 -12 -130 -25v64c-46 -49 -78 -65 -130 -65c-104 0 -178 96 -178 230c0 142 80 247 188 247c45 0 75 -15 117 -60v131zM335 110v238
c-13 36 -44 60 -77 60c-57 0 -83 -58 -83 -184c0 -125 24 -183 76 -183c23 0 43 11 63 33c11 13 21 30 21 36z" />
    <glyph glyph-name="Emacron" unicode="&#x112;" horiz-adv-x="667" 
d="M23 638v24h565v-197h-24c-25 130 -73 164 -232 164c-51 0 -64 -9 -64 -46v-228c105 -1 144 35 159 147h25v-332h-25c-12 114 -52 152 -159 152v-237c0 -43 18 -55 81 -55c75 0 128 16 173 52c35 28 55 56 86 122h27l-39 -204h-573v24c70 6 84 18 86 70v474
c-2 52 -20 67 -86 70zM495 830v-71h-323v71h323z" />
    <glyph glyph-name="emacron" unicode="&#x113;" horiz-adv-x="444" 
d="M398 122l24 -13c-64 -92 -112 -123 -191 -123c-122 0 -202 94 -202 237s83 240 204 240c55 0 100 -20 132 -57c31 -38 46 -84 52 -166h-247c4 -67 11 -100 30 -131c20 -35 49 -52 87 -52c42 0 72 18 111 65zM165 276h131v15c-1 51 -4 77 -8 96c-8 31 -26 46 -54 46
c-49 0 -66 -39 -69 -157zM383 624v-71h-323v71h323z" />
    <glyph glyph-name="Ebreve" unicode="&#x114;" horiz-adv-x="667" 
d="M23 638v24h565v-197h-24c-25 130 -73 164 -232 164c-51 0 -64 -9 -64 -46v-228c105 -1 144 35 159 147h25v-332h-25c-12 114 -52 152 -159 152v-237c0 -43 18 -55 81 -55c75 0 128 16 173 52c35 28 55 56 86 122h27l-39 -204h-573v24c70 6 84 18 86 70v474
c-2 52 -20 67 -86 70zM439 883h43c-5 -50 -12 -74 -29 -100c-25 -40 -65 -60 -120 -60c-52 0 -92 18 -117 53c-21 29 -28 53 -30 107h43c11 -60 42 -86 104 -86c61 0 90 23 106 86z" />
    <glyph glyph-name="ebreve" unicode="&#x115;" horiz-adv-x="444" 
d="M398 122l24 -13c-64 -92 -112 -123 -191 -123c-122 0 -202 94 -202 237s83 240 204 240c55 0 100 -20 132 -57c31 -38 46 -84 52 -166h-247c4 -67 11 -100 30 -131c20 -35 49 -52 87 -52c42 0 72 18 111 65zM165 276h131v15c-1 51 -4 77 -8 96c-8 31 -26 46 -54 46
c-49 0 -66 -39 -69 -157zM337 676h43c-5 -50 -12 -74 -29 -100c-26 -40 -65 -60 -120 -60c-52 0 -92 18 -118 53c-20 29 -27 53 -30 107h43c12 -61 43 -86 105 -86c61 0 89 23 106 86z" />
    <glyph glyph-name="Edotaccent" unicode="&#x116;" horiz-adv-x="667" 
d="M23 638v24h565v-197h-24c-25 130 -73 164 -232 164c-51 0 -64 -9 -64 -46v-228c105 -1 144 35 159 147h25v-332h-25c-12 114 -52 152 -159 152v-237c0 -43 18 -55 81 -55c75 0 128 16 173 52c35 28 55 56 86 122h27l-39 -204h-573v24c70 6 84 18 86 70v474
c-2 52 -20 67 -86 70zM332 859c35 0 64 -29 64 -64s-28 -63 -63 -63c-34 0 -61 28 -61 64c0 33 28 63 60 63z" />
    <glyph glyph-name="edotaccent" unicode="&#x117;" horiz-adv-x="444" 
d="M398 122l24 -13c-64 -92 -112 -123 -191 -123c-122 0 -202 94 -202 237s83 240 204 240c55 0 100 -20 132 -57c31 -38 46 -84 52 -166h-247c4 -67 11 -100 30 -131c20 -35 49 -52 87 -52c42 0 72 18 111 65zM165 276h131v15c-1 51 -4 77 -8 96c-8 31 -26 46 -54 46
c-49 0 -66 -39 -69 -157zM220 653c35 0 64 -29 64 -65c0 -34 -28 -62 -63 -62c-34 0 -61 28 -61 65c0 32 29 62 60 62z" />
    <glyph glyph-name="Eogonek" unicode="&#x118;" horiz-adv-x="667" 
d="M452 502v-332h-25c-12 114 -52 152 -159 152v-237c0 -43 18 -55 81 -55c75 0 128 16 173 52c35 28 55 56 86 122h27l-33 -172c-15 -67 -15 -67 -15 -78c0 -34 24 -56 62 -56c15 0 25 3 45 13c7 4 9 5 13 7l22 -14c-24 -45 -71 -74 -120 -74c-61 0 -104 33 -104 80
c0 27 10 47 42 90h-524v24c70 6 84 18 86 70v474c-2 52 -20 67 -86 70v24h565v-197h-24c-25 130 -73 164 -232 164c-51 0 -64 -9 -64 -46v-228c105 -1 144 35 159 147h25z" />
    <glyph glyph-name="eogonek" unicode="&#x119;" horiz-adv-x="444" 
d="M417 240h-247c4 -67 11 -100 30 -131c20 -35 49 -52 87 -52c42 0 72 18 111 65l24 -13c-36 -52 -57 -74 -101 -105c-19 -13 -24 -21 -24 -41c0 -43 21 -65 62 -65c15 0 25 3 45 13c8 4 9 5 14 7l21 -14c-24 -46 -71 -74 -120 -74c-60 0 -104 33 -104 80c0 25 7 41 32 77
c-8 -1 -15 -1 -18 -1c-120 0 -200 95 -200 237c0 143 83 240 204 240c55 0 100 -20 132 -57c31 -38 46 -84 52 -166zM165 276h131v15c-1 51 -4 77 -8 96c-8 31 -26 46 -54 46c-49 0 -66 -39 -69 -157z" />
    <glyph glyph-name="Ecaron" unicode="&#x11a;" horiz-adv-x="667" 
d="M23 638v24h565v-197h-24c-25 130 -73 164 -232 164c-51 0 -64 -9 -64 -46v-228c105 -1 144 35 159 147h25v-332h-25c-12 114 -52 152 -159 152v-237c0 -43 18 -55 81 -55c75 0 128 16 173 52c35 28 55 56 86 122h27l-39 -204h-573v24c70 6 84 18 86 70v474
c-2 52 -20 67 -86 70zM499 895l-120 -172h-91l-119 172h55l110 -97l109 97h56z" />
    <glyph glyph-name="ecaron" unicode="&#x11b;" horiz-adv-x="444" 
d="M398 122l24 -13c-64 -92 -112 -123 -191 -123c-122 0 -202 94 -202 237s83 240 204 240c55 0 100 -20 132 -57c31 -38 46 -84 52 -166h-247c4 -67 11 -100 30 -131c20 -35 49 -52 87 -52c42 0 72 18 111 65zM165 276h131v15c-1 51 -4 77 -8 96c-8 31 -26 46 -54 46
c-49 0 -66 -39 -69 -157zM399 690l-121 -173h-90l-119 173h55l109 -98l110 98h56z" />
    <glyph glyph-name="Gcircumflex" unicode="&#x11c;" horiz-adv-x="778" 
d="M755 281v-25c-71 -6 -82 -18 -84 -90v-124c-64 -37 -169 -61 -270 -61c-206 0 -349 141 -349 343c0 203 146 353 341 353c47 0 95 -11 151 -35c22 -9 36 -13 45 -13c20 0 29 10 44 45h26v-229h-24c-34 74 -57 107 -100 145c-42 37 -84 55 -130 55
c-118 0 -180 -108 -180 -314c0 -119 21 -202 63 -257c33 -43 74 -61 136 -61c66 0 94 22 94 72v103c-2 54 -16 65 -99 68v25h336zM515 723l-109 96l-110 -96h-55l120 172h90l120 -172h-56z" />
    <glyph glyph-name="gcircumflex" unicode="&#x11d;" 
d="M448 441v-55h-67c25 -41 31 -58 31 -89c0 -83 -77 -145 -180 -145c-3 0 -9 0 -15 1h-15c-27 0 -48 -15 -48 -34c0 -15 9 -27 24 -31c8 -2 10 -2 50 -2c104 0 123 -2 151 -12c46 -18 71 -52 71 -96c0 -40 -23 -78 -60 -102c-37 -23 -85 -34 -149 -34
c-122 0 -192 31 -192 85c0 27 20 45 62 59c-27 16 -45 44 -45 74c0 46 28 80 88 108c-64 31 -101 82 -101 141c0 85 74 148 172 148c31 0 53 -4 82 -16h141zM238 424c-20 0 -39 -16 -47 -39c-6 -20 -9 -43 -9 -86c0 -76 17 -112 53 -112c39 0 56 35 56 114
c0 48 -7 86 -18 102c-10 13 -22 21 -35 21zM231 -26c-40 0 -61 -2 -76 -7c-15 -6 -25 -19 -25 -34c0 -33 45 -54 117 -54c74 0 125 23 125 57c0 27 -40 38 -141 38zM366 517l-110 96l-110 -96h-55l120 173h90l121 -173h-56z" />
    <glyph glyph-name="Gbreve" unicode="&#x11e;" horiz-adv-x="778" 
d="M747 281v-25c-71 -6 -82 -18 -84 -90v-124c-64 -37 -169 -61 -270 -61c-206 0 -349 141 -349 343c0 203 146 353 341 353c47 0 95 -11 151 -35c22 -9 36 -13 45 -13c20 0 29 10 44 45h26v-229h-24c-34 74 -57 107 -100 145c-42 37 -84 55 -130 55
c-118 0 -180 -108 -180 -314c0 -119 21 -202 63 -257c33 -43 74 -61 136 -61c66 0 94 22 94 72v103c-2 54 -16 65 -99 68v25h336zM494 883h43c-5 -50 -12 -74 -29 -100c-25 -40 -65 -60 -120 -60c-52 0 -92 18 -118 53c-20 29 -27 53 -30 107h44c11 -60 42 -86 104 -86
c61 0 90 23 106 86z" />
    <glyph glyph-name="gbreve" unicode="&#x11f;" 
d="M478 390h-79c27 -28 39 -57 39 -96c0 -88 -66 -143 -170 -143c-64 0 -64 0 -76 -5c-23 -11 -35 -27 -35 -46c0 -27 15 -32 98 -33l63 -1c105 -2 161 -44 161 -120c0 -97 -85 -148 -249 -148c-124 0 -197 33 -197 90c0 40 32 66 94 73c-63 23 -80 41 -80 81
c0 50 39 88 117 115c-46 19 -65 31 -86 56c-24 27 -36 58 -36 93c0 93 82 157 199 157c39 0 67 -5 110 -21h127v-52zM323 -51h-169c-28 -22 -35 -34 -35 -54c0 -43 45 -66 132 -66c97 0 151 25 151 71c0 33 -26 49 -79 49zM241 433c-47 0 -65 -36 -65 -128s18 -127 65 -127
s65 35 65 126c0 92 -19 129 -65 129zM356 676h43c-6 -50 -13 -74 -29 -100c-26 -40 -65 -60 -120 -60c-53 0 -93 18 -118 53c-20 29 -27 53 -30 107h43c11 -60 42 -86 105 -86c60 0 89 23 106 86z" />
    <glyph glyph-name="Gdotaccent" unicode="&#x120;" horiz-adv-x="778" 
d="M403 862c36 0 67 -31 67 -68s-31 -68 -68 -68c-38 0 -68 31 -68 68c0 38 31 68 69 68zM747 281v-25c-71 -6 -82 -18 -84 -90v-124c-64 -37 -169 -61 -270 -61c-206 0 -349 141 -349 343c0 203 146 353 341 353c47 0 95 -11 151 -35c22 -9 36 -13 45 -13c20 0 29 10 44 45
h26v-229h-24c-34 74 -57 107 -100 145c-42 37 -84 55 -130 55c-118 0 -180 -108 -180 -314c0 -119 21 -202 63 -257c33 -43 74 -61 136 -61c66 0 94 22 94 72v103c-2 54 -16 65 -99 68v25h336z" />
    <glyph glyph-name="gdotaccent" unicode="&#x121;" 
d="M254 649c31 0 57 -26 57 -57c0 -32 -26 -58 -58 -58c-31 0 -57 26 -57 58s26 57 58 57zM478 390h-79c27 -28 39 -57 39 -96c0 -88 -66 -143 -170 -143c-64 0 -64 0 -76 -5c-23 -11 -35 -27 -35 -46c0 -27 15 -32 98 -33l63 -1c105 -2 161 -44 161 -120
c0 -97 -85 -148 -249 -148c-124 0 -197 33 -197 90c0 40 32 66 94 73c-63 23 -80 41 -80 81c0 50 39 88 117 115c-46 19 -65 31 -86 56c-24 27 -36 58 -36 93c0 93 82 157 199 157c39 0 67 -5 110 -21h127v-52zM241 433c-47 0 -65 -36 -65 -128s18 -127 65 -127
s65 35 65 126c0 92 -19 129 -65 129zM323 -51h-169c-28 -22 -35 -34 -35 -54c0 -43 45 -66 132 -66c97 0 151 25 151 71c0 33 -26 49 -79 49z" />
    <glyph glyph-name="Gcommaaccent" unicode="&#x122;" horiz-adv-x="778" 
d="M747 281v-25c-71 -6 -82 -18 -84 -90v-124c-64 -37 -169 -61 -270 -61c-206 0 -349 141 -349 343c0 203 146 353 341 353c47 0 95 -11 151 -35c22 -9 36 -13 45 -13c20 0 29 10 44 45h26v-229h-24c-34 74 -57 107 -100 145c-42 37 -84 55 -130 55
c-118 0 -180 -108 -180 -314c0 -119 21 -202 63 -257c33 -43 74 -61 136 -61c66 0 94 22 94 72v103c-2 54 -16 65 -99 68v25h336zM324 -334l-10 19c67 47 96 83 96 117c0 11 -7 19 -17 19c-1 0 -4 0 -6 -1c-6 -1 -11 -1 -14 -1c-40 0 -65 27 -65 70c0 44 29 72 73 72
c53 0 89 -41 89 -103c0 -76 -44 -134 -146 -192z" />
    <glyph glyph-name="gcommaaccent" unicode="&#x123;" 
d="M478 390h-79c27 -28 39 -57 39 -96c0 -88 -66 -143 -170 -143c-64 0 -64 0 -76 -5c-23 -11 -35 -27 -35 -46c0 -27 15 -32 98 -33l63 -1c105 -2 161 -44 161 -120c0 -97 -85 -148 -249 -148c-124 0 -197 33 -197 90c0 40 32 66 94 73c-63 23 -80 41 -80 81
c0 50 39 88 117 115c-46 19 -65 31 -86 56c-24 27 -36 58 -36 93c0 93 82 157 199 157c39 0 67 -5 110 -21h127v-52zM323 -51h-169c-28 -22 -35 -34 -35 -54c0 -43 45 -66 132 -66c97 0 151 25 151 71c0 33 -26 49 -79 49zM241 433c-47 0 -65 -36 -65 -128s18 -127 65 -127
s65 35 65 126c0 92 -19 129 -65 129zM316 794l9 -19c-66 -46 -95 -83 -95 -117c0 -11 7 -19 17 -19c1 0 3 0 6 1c5 1 10 1 13 1c40 0 65 -27 65 -70c0 -44 -29 -72 -73 -72c-53 0 -88 41 -88 103c0 76 44 134 146 192z" />
    <glyph glyph-name="Hcircumflex" unicode="&#x124;" horiz-adv-x="778" 
d="M752 24v-24h-333v24c70 7 86 20 88 70v225h-236v-225c1 -50 18 -63 88 -70v-24h-330v24c67 8 82 21 83 70v474c-2 50 -20 65 -83 70v24h330v-24c-66 -4 -86 -20 -88 -70v-203h236v203c-2 51 -22 66 -88 70v24h333v-24c-64 -4 -85 -20 -86 -70v-474c1 -49 17 -62 86 -70z
M503 723l-110 96l-110 -96h-55l120 172h90l120 -172h-55z" />
    <glyph glyph-name="hcircumflex" unicode="&#x125;" horiz-adv-x="556" 
d="M529 24v-24h-230v24c32 3 45 18 46 55v237c0 54 -17 81 -51 81c-23 0 -47 -12 -68 -33c-10 -10 -17 -20 -17 -23v-262c0 -36 13 -51 48 -55v-24h-236v24c43 7 51 16 52 58v500c-1 42 -7 48 -52 57v23h188v-275c52 57 87 76 140 76c80 0 132 -54 132 -138v-243
c0 -40 14 -57 48 -58zM286 740l-109 96l-110 -96h-55l119 172h91l120 -172h-56z" />
    <glyph glyph-name="Hbar" unicode="&#x126;" horiz-adv-x="778" 
d="M115 468h-84v40h84v56c2 58 -13 76 -65 79h-19v20h314v-20h-18c-53 -2 -68 -21 -66 -79v-56h255v56c2 58 -13 77 -66 79h-18v20h314v-20h-19c-52 -2 -67 -20 -65 -79v-56h84v-40h-84v-372c-2 -56 13 -73 65 -76h19v-20h-314v20h18c53 3 68 20 66 76v222h-255v-222
c-2 -56 13 -74 66 -76h18v-20h-314v20h19c52 3 67 20 65 76v372zM261 468v-110h255v110h-255z" />
    <glyph glyph-name="hbar" unicode="&#x127;" horiz-adv-x="556" 
d="M91 532h-50v37h50v16c2 34 -14 55 -43 58h-7v20h179v-94h110v-37h-110v-138c41 51 79 74 122 74c73 0 115 -54 115 -150v-239c-2 -37 14 -57 44 -58h8v-21h-219v21c27 5 39 24 38 58v258c0 45 -11 67 -34 67c-28 0 -47 -17 -74 -67v-258c-1 -34 11 -53 38 -58v-21h-217
v21h4c32 1 48 22 46 58v453z" />
    <glyph glyph-name="Itilde" unicode="&#x128;" horiz-adv-x="389" 
d="M367 24v-24h-343v24c71 6 90 20 91 70v474c-2 51 -22 66 -91 70v24h343v-24c-71 -2 -92 -18 -93 -70v-474c1 -51 20 -66 93 -70zM59 732h-41c18 84 53 123 113 123c21 0 44 -6 72 -19l39 -17c23 -11 27 -12 39 -12c26 0 40 13 52 48h43c-23 -86 -59 -125 -115 -125
c-19 0 -45 6 -63 14l-28 13c-40 18 -50 21 -63 21c-25 0 -44 -18 -48 -46z" />
    <glyph glyph-name="itilde" unicode="&#x129;" horiz-adv-x="278" 
d="M253 24v-24h-234v24c44 9 51 17 52 58v289c-1 40 -9 50 -52 58v23h188v-373c0 -37 12 -52 46 -55zM-2 538h-41c18 84 53 122 113 122c21 0 44 -6 72 -19l39 -17c26 -12 27 -12 39 -12c26 0 40 12 52 48h43c-23 -85 -59 -124 -115 -124c-19 0 -45 6 -63 14l-28 12
c-43 19 -50 22 -63 22c-25 0 -44 -18 -48 -46z" />
    <glyph glyph-name="Imacron" unicode="&#x12a;" horiz-adv-x="389" 
d="M367 24v-24h-343v24c71 6 90 20 91 70v474c-2 51 -22 66 -91 70v24h343v-24c-71 -2 -92 -18 -93 -70v-474c1 -51 20 -66 93 -70zM356 830v-71h-323v71h323z" />
    <glyph glyph-name="imacron" unicode="&#x12b;" horiz-adv-x="278" 
d="M253 24v-24h-234v24c44 9 51 17 52 58v289c-1 40 -9 50 -52 58v23h188v-373c0 -37 12 -52 46 -55zM300 624v-71h-323v71h323z" />
    <glyph glyph-name="Ibreve" unicode="&#x12c;" horiz-adv-x="389" 
d="M367 24v-24h-343v24c71 6 90 20 91 70v474c-2 51 -22 66 -91 70v24h343v-24c-71 -2 -92 -18 -93 -70v-474c1 -51 20 -66 93 -70zM303 885h43c-6 -50 -13 -74 -29 -100c-26 -40 -66 -60 -120 -60c-53 0 -93 18 -118 53c-20 29 -27 53 -30 107h43c11 -61 42 -86 104 -86
c61 0 90 23 107 86z" />
    <glyph glyph-name="ibreve" unicode="&#x12d;" horiz-adv-x="278" 
d="M260 24v-24h-234v24c44 9 51 17 52 58v289c-1 40 -9 50 -52 58v23h188v-373c0 -37 12 -52 46 -55zM249 676h43c-6 -50 -13 -74 -29 -100c-26 -40 -66 -60 -120 -60c-53 0 -93 18 -118 53c-20 29 -27 53 -30 107h43c11 -61 42 -86 104 -86c61 0 90 23 107 86z" />
    <glyph glyph-name="Iogonek" unicode="&#x12e;" horiz-adv-x="389" 
d="M367 24v-24c-7 -11 -10 -22 -10 -39c0 -41 21 -63 62 -63c15 0 25 3 45 13c8 4 9 5 14 7l21 -14c-24 -45 -71 -74 -120 -74c-60 0 -104 33 -104 79c0 28 8 46 42 91h-293v24c71 6 90 20 91 70v474c-2 51 -22 66 -91 70v24h343v-24c-71 -2 -92 -18 -93 -70v-474
c1 -51 20 -66 93 -70z" />
    <glyph glyph-name="iogonek" unicode="&#x12f;" horiz-adv-x="278" 
d="M253 24v-24c-9 -10 -12 -20 -12 -39c0 -41 21 -63 62 -63c15 0 25 3 45 13c7 4 9 5 14 7l21 -14c-24 -45 -71 -74 -120 -74c-61 0 -104 33 -104 80c0 27 8 44 42 90h-182v24c44 9 51 17 52 58v289c-1 40 -9 50 -52 58v23h188v-373c0 -37 12 -52 46 -55zM138 677
c42 0 76 -34 76 -77s-33 -75 -77 -75c-43 0 -75 33 -75 76c0 42 34 76 76 76z" />
    <glyph glyph-name="Idotaccent" unicode="&#x130;" horiz-adv-x="389" 
d="M367 24v-24h-343v24c71 6 90 20 91 70v474c-2 51 -22 66 -91 70v24h343v-24c-71 -2 -92 -18 -93 -70v-474c1 -51 20 -66 93 -70zM193 859c35 0 64 -29 64 -64s-28 -63 -63 -63c-34 0 -61 28 -61 64c0 33 28 63 60 63z" />
    <glyph glyph-name="dotlessi" unicode="&#x131;" horiz-adv-x="278" 
d="M253 24v-24h-234v24c44 9 51 17 52 58v289c-1 40 -9 50 -52 58v23h188v-373c0 -37 12 -52 46 -55z" />
    <glyph glyph-name="IJ" unicode="&#x132;" horiz-adv-x="823" 
d="M338 20v-20h-309v20h18c52 3 67 20 65 76v468c2 58 -13 76 -65 79h-18v20h309v-20h-18c-52 -3 -67 -21 -65 -79v-468c-2 -56 13 -73 65 -76h18zM468 643v20h324v-20h-15c-52 -3 -67 -21 -65 -80v-371c0 -71 -6 -99 -31 -132c-35 -47 -100 -77 -170 -77
c-96 0 -172 56 -172 127c0 44 31 80 68 80c36 0 68 -31 68 -67c0 -20 -3 -27 -23 -53c-2 -3 -3 -7 -3 -12c0 -16 23 -29 51 -29c45 0 65 30 65 98v436c2 59 -13 77 -65 80h-32z" />
    <glyph glyph-name="ij" unicode="&#x133;" horiz-adv-x="552" 
d="M231 452v-372c-2 -37 14 -59 44 -59h7v-20h-226v20h6c30 0 46 22 44 59v294c2 36 -14 58 -44 57h-6v21h175zM161 660c37 0 67 -31 67 -68c0 -38 -30 -69 -68 -69s-68 31 -68 69s31 68 69 68zM476 452v-482c0 -87 -52 -139 -140 -139c-68 0 -112 30 -112 76
c0 33 25 60 54 60s51 -24 51 -55l-1 -17c-1 -4 -1 -8 -1 -11c0 -11 4 -19 11 -19c11 0 18 17 18 43c0 6 0 9 -3 67l-2 30v29v339c2 37 -15 59 -44 58h-10v21h179zM401 660c38 0 69 -32 69 -71s-32 -71 -71 -71s-70 32 -70 72c0 39 32 70 72 70z" />
    <glyph glyph-name="Jcircumflex" unicode="&#x134;" 
d="M474 662v-24c-71 -4 -85 -18 -87 -91v-427c0 -140 -73 -214 -210 -214c-39 0 -79 9 -103 23c-39 22 -66 66 -66 107c0 37 32 70 68 70c39 0 72 -34 72 -74c0 -15 -3 -23 -15 -38c-9 -11 -11 -16 -11 -25c0 -19 17 -31 44 -31c44 0 62 25 62 85v545c-2 54 -21 68 -99 70
v24h345zM410 740l-110 96l-110 -96h-54l119 172h90l121 -172h-56z" />
    <glyph glyph-name="jcircumflex" unicode="&#x135;" horiz-adv-x="333" 
d="M258 452v-450c0 -57 -8 -95 -26 -127c-27 -48 -80 -74 -148 -74c-80 0 -136 40 -136 98c0 36 24 60 60 60c32 0 58 -24 58 -53c0 -10 -4 -22 -13 -36c-6 -11 -9 -17 -9 -22c0 -10 13 -17 31 -17c33 0 47 23 47 75v465c-1 43 -13 54 -62 58v23h198zM277 517l-110 96
l-109 -96h-55l119 173h90l121 -173h-56z" />
    <glyph glyph-name="Kcommaaccent" unicode="&#x136;" horiz-adv-x="778" 
d="M761 24v-24h-329v24c14 1 26 2 31 2c33 1 46 7 46 19c0 11 -5 20 -23 43l-179 222l-26 -24v-192c1 -49 17 -62 86 -70v-24h-330v24c68 7 84 19 85 70v474c-1 52 -20 67 -85 70v24h331v-24c-70 -4 -85 -20 -87 -91v-209l213 213c31 31 35 38 35 54c0 24 -5 26 -83 33v24
h283v-24c-95 -8 -130 -32 -315 -223l299 -370c12 -15 24 -20 48 -21zM323 -334l-9 19c66 47 95 83 95 117c0 11 -7 19 -17 19c-1 0 -3 0 -6 -1c-5 -1 -10 -1 -14 -1c-39 0 -64 27 -64 70c0 44 29 72 73 72c53 0 88 -41 88 -103c0 -76 -44 -134 -146 -192z" />
    <glyph glyph-name="kcommaaccent" unicode="&#x137;" horiz-adv-x="556" 
d="M508 452v-23c-62 -8 -87 -25 -185 -128l190 -263c9 -12 14 -15 24 -14v-24h-229v24c27 0 41 7 41 18c0 8 -6 20 -23 44l-93 132l-23 -24v-112c0 -46 5 -52 51 -58v-24h-234v24c31 1 46 19 47 58v500c-1 38 -15 55 -47 57v23h183v-422l125 126c11 11 21 28 21 37
c0 6 -3 12 -7 15c-5 3 -22 7 -51 11v23h210zM213 -334l-10 19c67 47 96 83 96 117c0 11 -7 19 -17 19c-1 0 -4 0 -6 -1c-6 -1 -11 -1 -14 -1c-40 0 -65 27 -65 70c0 44 29 72 73 72c53 0 89 -41 89 -103c0 -76 -44 -134 -146 -192z" />
    <glyph glyph-name="kgreenlandic" unicode="&#x138;" horiz-adv-x="556" 
d="M224 162v-85c-2 -36 14 -57 43 -57h4v-20h-222v20h6c30 0 46 21 44 57v294c2 36 -14 57 -44 57h-6v20h175v-240l107 118c22 24 35 49 35 66c0 20 -17 31 -57 36v20h188v-20c-42 -12 -49 -18 -98 -73l-60 -68l140 -222c24 -39 29 -43 55 -45v-20h-215v20l12 1
c16 2 23 7 23 17c0 9 0 9 -15 32l-82 129z" />
    <glyph glyph-name="Lacute" unicode="&#x139;" horiz-adv-x="667" 
d="M631 222l-40 -222h-566v24c69 8 83 19 84 70v474c-1 51 -20 66 -84 70v24h342v-24c-83 -3 -97 -15 -99 -91v-462c0 -42 18 -55 77 -55c77 0 132 17 172 54c34 31 53 62 86 138h28zM140 723l134 154c16 18 33 27 52 27c28 0 47 -17 47 -43c0 -22 -7 -32 -39 -52l-140 -86
h-54z" />
    <glyph glyph-name="lacute" unicode="&#x13a;" horiz-adv-x="278" 
d="M253 24v-24h-234v24c31 0 49 21 50 58v500c-1 37 -17 55 -50 57v23h186v-580c0 -39 17 -59 48 -58zM61 723l134 154c16 18 33 27 52 27c28 0 47 -17 47 -43c0 -22 -7 -32 -39 -52l-140 -86h-54z" />
    <glyph glyph-name="Lcommaaccent" unicode="&#x13b;" horiz-adv-x="667" 
d="M631 222l-40 -222h-566v24c69 8 83 19 84 70v474c-1 51 -20 66 -84 70v24h342v-24c-83 -3 -97 -15 -99 -91v-462c0 -42 18 -55 77 -55c77 0 132 17 172 54c34 31 53 62 86 138h28zM268 -334l-10 19c67 47 96 83 96 117c0 11 -7 19 -17 19c-1 0 -4 0 -6 -1
c-6 -1 -11 -1 -14 -1c-40 0 -65 27 -65 70c0 44 29 72 73 72c53 0 89 -41 89 -103c0 -76 -44 -134 -146 -192z" />
    <glyph glyph-name="lcommaaccent" unicode="&#x13c;" horiz-adv-x="278" 
d="M253 24v-24h-234v24c31 0 49 21 50 58v500c-1 37 -17 55 -50 57v23h186v-580c0 -39 17 -59 48 -58zM74 -334l-9 19c66 47 95 83 95 117c0 11 -7 19 -17 19c-1 0 -3 0 -6 -1c-5 -1 -10 -1 -14 -1c-39 0 -64 27 -64 70c0 44 28 72 73 72c53 0 88 -41 88 -103
c0 -76 -44 -134 -146 -192z" />
    <glyph glyph-name="Lcaron" unicode="&#x13d;" horiz-adv-x="667" 
d="M631 222l-40 -222h-566v24c69 8 83 19 84 70v474c-1 51 -20 66 -84 70v24h342v-24c-83 -3 -97 -15 -99 -91v-462c0 -42 18 -55 77 -55c77 0 132 17 172 54c34 31 53 62 86 138h28zM429 382l-9 19c66 47 95 83 95 117c0 11 -7 19 -17 19c-1 0 -3 0 -6 -1
c-5 -1 -10 -1 -13 -1c-40 0 -65 27 -65 70c0 44 29 72 73 72c53 0 88 -41 88 -103c0 -76 -44 -134 -146 -192z" />
    <glyph glyph-name="lcaron" unicode="&#x13e;" horiz-adv-x="394" 
d="M282 382l-10 19c67 47 96 83 96 117c0 11 -7 19 -17 19c-1 0 -3 0 -6 -1c-5 -1 -10 -1 -14 -1c-40 0 -65 27 -65 70c0 44 29 72 73 72c53 0 89 -41 89 -103c0 -76 -44 -134 -146 -192zM252 24v-24h-234v24c31 0 49 21 50 58v500c-1 37 -17 55 -50 57v23h186v-580
c0 -39 17 -59 48 -58z" />
    <glyph glyph-name="Ldot" unicode="&#x13f;" horiz-adv-x="667" 
d="M631 222l-40 -222h-566v24c69 8 83 19 84 70v474c-1 51 -20 66 -84 70v24h342v-24c-83 -3 -97 -15 -99 -91v-462c0 -42 18 -55 77 -55c77 0 132 17 172 54c34 31 53 62 86 138h28zM455 409c46 0 84 -38 84 -84s-37 -82 -84 -82s-82 36 -82 83c0 45 38 83 82 83z" />
    <glyph glyph-name="ldot" unicode="&#x140;" horiz-adv-x="396" 
d="M331 409c46 0 84 -38 84 -84s-37 -82 -84 -82s-82 36 -82 83c0 45 37 83 82 83zM253 24v-24h-234v24c31 0 49 21 50 58v500c-1 37 -17 55 -50 57v23h186v-580c0 -39 17 -59 48 -58z" />
    <glyph glyph-name="Lslash" unicode="&#x141;" horiz-adv-x="667" 
d="M631 222l-40 -222h-566v24c69 8 82 19 84 70v186l-79 -48v60l79 48v228c-2 51 -20 67 -84 70v24h341v-24c-83 -3 -96 -15 -98 -91v-114l120 74v-60l-120 -74v-288c0 -42 18 -55 77 -55c76 0 131 17 171 54c35 31 54 62 86 138h29z" />
    <glyph glyph-name="lslash" unicode="&#x142;" horiz-adv-x="278" 
d="M204 392v-310c1 -39 17 -59 48 -58v-24h-234v24c31 0 49 21 50 58v223l-87 -71v49l87 71v228c-1 37 -17 55 -50 57v23h186v-221l95 78v-49z" />
    <glyph glyph-name="Nacute" unicode="&#x143;" horiz-adv-x="722" 
d="M23 0v24c70 8 85 21 86 79v464c-46 56 -64 71 -83 71v24h206l343 -421v300c0 69 -20 90 -91 97v24h210v-24c-63 -10 -76 -23 -76 -79v-577h-27l-439 534v-395c1 -70 19 -88 93 -97v-24h-222zM297 723l134 154c16 18 33 27 52 27c28 0 47 -17 47 -43c0 -22 -7 -32 -39 -52
l-139 -86h-55z" />
    <glyph glyph-name="nacute" unicode="&#x144;" horiz-adv-x="556" 
d="M533 24v-24h-230v24c32 2 45 18 46 55v238c0 54 -17 81 -51 81c-22 0 -46 -12 -67 -34c-10 -9 -17 -19 -17 -23v-262c0 -36 13 -51 48 -55v-24h-236v24c43 7 51 16 52 58v289c-1 42 -9 51 -52 58v23h187v-74c37 59 80 85 140 85c81 0 132 -53 132 -137v-247
c-1 -39 12 -53 48 -55zM199 517l134 154c16 18 33 27 52 27c28 0 47 -17 47 -43c0 -22 -7 -32 -39 -52l-139 -86h-55z" />
    <glyph glyph-name="Ncommaaccent" unicode="&#x145;" horiz-adv-x="722" 
d="M23 0v24c70 8 85 21 86 79v464c-46 56 -64 71 -83 71v24h206l343 -421v300c0 69 -20 90 -91 97v24h210v-24c-63 -10 -76 -23 -76 -79v-577h-27l-439 534v-395c1 -70 19 -88 93 -97v-24h-222zM296 -334l-10 19c67 47 96 82 96 117c0 11 -7 19 -17 19c-1 0 -3 0 -6 -1
c-6 -1 -11 -1 -14 -1c-40 0 -65 27 -65 70c0 44 29 72 73 72c54 0 89 -41 89 -103c0 -76 -44 -135 -146 -192z" />
    <glyph glyph-name="ncommaaccent" unicode="&#x146;" horiz-adv-x="556" 
d="M533 24v-24h-230v24c32 2 45 18 46 55v238c0 54 -17 81 -51 81c-22 0 -46 -12 -67 -34c-10 -9 -17 -19 -17 -23v-262c0 -36 13 -51 48 -55v-24h-236v24c43 7 51 16 52 58v289c-1 42 -9 51 -52 58v23h187v-74c37 59 80 85 140 85c81 0 132 -53 132 -137v-247
c-1 -39 12 -53 48 -55zM212 -334l-9 19c67 47 96 83 96 117c0 11 -7 19 -17 19c-1 0 -4 0 -6 -1c-6 -1 -11 -1 -14 -1c-40 0 -65 27 -65 70c0 44 29 72 73 72c54 0 89 -41 89 -103c0 -76 -44 -134 -147 -192z" />
    <glyph glyph-name="Ncaron" unicode="&#x147;" horiz-adv-x="722" 
d="M23 0v24c70 8 85 21 86 79v464c-46 56 -64 71 -83 71v24h206l343 -421v300c0 69 -20 90 -91 97v24h210v-24c-63 -10 -76 -23 -76 -79v-577h-27l-439 534v-395c1 -70 19 -88 93 -97v-24h-222zM535 895l-121 -172h-90l-119 172h55l109 -97l110 97h56z" />
    <glyph glyph-name="ncaron" unicode="&#x148;" horiz-adv-x="556" 
d="M533 24v-24h-230v24c32 2 45 18 46 55v238c0 54 -17 81 -51 81c-22 0 -46 -12 -67 -34c-10 -9 -17 -19 -17 -23v-262c0 -36 13 -51 48 -55v-24h-236v24c43 7 51 16 52 58v289c-1 42 -9 51 -52 58v23h187v-74c37 59 80 85 140 85c81 0 132 -53 132 -137v-247
c-1 -39 12 -53 48 -55zM443 690l-121 -173h-90l-119 173h55l109 -98l110 98h56z" />
    <glyph glyph-name="napostrophe" unicode="&#x149;" horiz-adv-x="729" 
d="M23 357v22c65 35 100 80 100 129v15c-14 -11 -28 -16 -44 -16c-37 0 -67 33 -67 72c0 43 36 79 79 79c53 0 92 -48 92 -112c0 -52 -22 -102 -60 -137c-26 -25 -50 -37 -100 -52zM707 24v-24h-230v24c32 3 45 18 46 55v238c0 54 -17 81 -51 81c-23 0 -47 -12 -68 -34
c-10 -9 -17 -19 -17 -23v-262c0 -36 13 -51 48 -55v-24h-236v24c43 7 51 16 52 58v289c-1 42 -9 51 -52 58v23h187v-74c37 59 81 85 141 85c81 0 132 -53 132 -137v-247c-1 -39 12 -53 48 -55z" />
    <glyph glyph-name="Eng" unicode="&#x14a;" horiz-adv-x="769" 
d="M265 662v-93c54 74 116 105 208 105c118 0 187 -58 187 -158v-514c0 -141 -57 -201 -190 -201c-87 0 -143 38 -143 98c0 36 24 60 60 60c32 0 58 -24 58 -53c0 -10 -4 -22 -13 -36c-6 -11 -9 -17 -9 -22c0 -10 13 -17 31 -17c33 0 47 22 47 75v601c0 76 -23 102 -87 102
c-41 0 -71 -9 -104 -33c-26 -18 -38 -30 -44 -44v-453c0 -36 13 -51 48 -55v-24h-259v24c43 7 51 16 52 58v499c-1 42 -9 51 -52 58v23h210z" />
    <glyph glyph-name="eng" unicode="&#x14b;" horiz-adv-x="556" 
d="M213 452v-74c37 59 80 85 140 85c81 0 132 -53 132 -137v-324c0 -58 -8 -95 -26 -127c-27 -48 -80 -74 -148 -74c-80 0 -136 40 -136 98c0 35 24 60 60 60c32 0 58 -24 58 -53c0 -10 -4 -22 -13 -36c-6 -11 -9 -17 -9 -22c0 -10 13 -17 31 -17c33 0 47 23 47 75v411
c0 55 -17 81 -51 81c-30 0 -74 -30 -84 -57v-262c0 -36 13 -51 48 -55v-24h-236v24c43 7 51 16 52 58v289c-1 42 -9 51 -52 58v23h187z" />
    <glyph glyph-name="Omacron" unicode="&#x14c;" horiz-adv-x="778" 
d="M392 677c198 0 343 -148 343 -348c0 -204 -144 -348 -346 -348c-203 0 -347 144 -347 347c0 204 145 349 350 349zM391 645c-115 0 -176 -114 -176 -326c0 -199 61 -306 173 -306c114 0 174 107 174 309c0 204 -63 323 -171 323zM550 830v-71h-323v71h323z" />
    <glyph glyph-name="omacron" unicode="&#x14d;" 
d="M251 463c127 0 221 -101 221 -239c0 -137 -93 -238 -220 -238c-129 0 -222 100 -222 240c0 134 96 237 221 237zM252 433c-60 0 -78 -51 -78 -223c0 -144 20 -194 78 -194c57 0 76 51 76 202c0 161 -19 215 -76 215zM412 624v-71h-324v71h324z" />
    <glyph glyph-name="Obreve" unicode="&#x14e;" horiz-adv-x="778" 
d="M392 677c198 0 343 -148 343 -348c0 -204 -144 -348 -346 -348c-203 0 -347 144 -347 347c0 204 145 349 350 349zM391 645c-115 0 -176 -114 -176 -326c0 -199 61 -306 173 -306c114 0 174 107 174 309c0 204 -63 323 -171 323zM496 885h44c-6 -50 -13 -74 -30 -100
c-25 -40 -65 -60 -120 -60c-52 0 -92 18 -117 53c-21 29 -28 53 -30 107h43c11 -61 42 -86 104 -86c61 0 90 23 106 86z" />
    <glyph glyph-name="obreve" unicode="&#x14f;" 
d="M251 463c127 0 221 -101 221 -239c0 -137 -93 -238 -220 -238c-129 0 -222 100 -222 240c0 134 96 237 221 237zM252 433c-60 0 -78 -51 -78 -223c0 -144 20 -194 78 -194c57 0 76 51 76 202c0 161 -19 215 -76 215zM362 676h43c-6 -50 -13 -74 -29 -100
c-26 -40 -66 -60 -120 -60c-53 0 -93 18 -118 53c-20 29 -27 53 -30 107h43c12 -61 42 -86 105 -86c60 0 89 23 106 86z" />
    <glyph glyph-name="Ohungarumlaut" unicode="&#x150;" horiz-adv-x="778" 
d="M392 677c198 0 343 -148 343 -348c0 -204 -144 -348 -346 -348c-203 0 -347 144 -347 347c0 204 145 349 350 349zM391 645c-115 0 -176 -114 -176 -326c0 -199 61 -306 173 -306c114 0 174 107 174 309c0 204 -63 323 -171 323zM222 723l134 154c16 18 33 27 52 27
c28 0 47 -17 47 -43c0 -22 -7 -32 -39 -52l-139 -86h-55zM418 723l134 154c16 18 33 27 52 27c28 0 47 -17 47 -43c0 -22 -7 -32 -39 -52l-139 -86h-55z" />
    <glyph glyph-name="ohungarumlaut" unicode="&#x151;" 
d="M251 463c127 0 221 -101 221 -239c0 -137 -93 -238 -220 -238c-129 0 -222 100 -222 240c0 134 96 237 221 237zM252 433c-60 0 -78 -51 -78 -223c0 -144 20 -194 78 -194c57 0 76 51 76 202c0 161 -19 215 -76 215zM98 517l134 154c17 18 33 27 52 27
c28 0 47 -17 47 -43c0 -22 -8 -32 -39 -52l-139 -86h-55zM294 517l134 154c16 18 33 27 52 27c28 0 47 -17 47 -43c0 -22 -8 -32 -39 -52l-139 -86h-55z" />
    <glyph glyph-name="OE" unicode="&#x152;" horiz-adv-x="1000" 
d="M971 206l-41 -206h-421c-49 0 -82 -1 -104 -3c-14 -1 -29 -2 -43 -2c-88 0 -164 23 -217 67c-72 59 -113 155 -113 265c0 204 136 343 335 343c18 0 39 -1 92 -4l19 -1l47 -3h2h1h403v-197h-25c-14 78 -30 109 -70 135c-29 18 -87 28 -157 28c-42 0 -54 -6 -54 -26v-244
c104 3 122 21 148 145h22v-331h-22c-15 117 -45 148 -148 154v-245c0 -38 14 -47 71 -47c71 0 120 14 161 47c35 28 55 57 88 125h26zM473 207v286c0 70 -4 96 -18 116c-13 20 -39 30 -75 30c-120 0 -181 -110 -181 -325c0 -89 16 -180 39 -221c26 -47 66 -67 131 -67
c43 0 67 8 84 30c16 20 20 54 20 151z" />
    <glyph glyph-name="oe" unicode="&#x153;" horiz-adv-x="722" 
d="M669 122l20 -15c-64 -91 -112 -121 -194 -121c-51 0 -83 13 -113 47c-39 -33 -78 -47 -135 -47c-129 0 -218 97 -218 238c0 139 92 239 221 239c53 0 88 -14 123 -48c47 37 76 48 126 48c72 0 127 -31 157 -88c19 -35 26 -67 30 -135h-244v-17v-3
c0 -110 36 -163 111 -163c46 0 71 14 116 65zM442 276h124c-1 26 -1 45 -2 54c-2 74 -19 104 -58 104c-42 0 -64 -36 -64 -105v-53zM309 146v158c0 95 -19 131 -68 131c-54 0 -70 -45 -70 -194c0 -170 18 -226 74 -226c44 0 64 40 64 131z" />
    <glyph glyph-name="Racute" unicode="&#x154;" horiz-adv-x="722" 
d="M708 24v-24h-201l-203 307h-26v-192c2 -71 11 -81 86 -91v-24h-331v24c75 8 84 18 86 91v433c-2 72 -16 86 -86 90v24h316c180 0 276 -61 276 -174c0 -44 -16 -84 -44 -110c-27 -25 -52 -37 -110 -56l197 -279c9 -13 22 -19 40 -19zM278 588v-250c75 1 108 7 134 24
c32 21 46 59 46 122c0 103 -37 145 -127 145c-25 0 -40 -5 -46 -15c-3 -6 -7 -20 -7 -26zM268 723l134 154c16 18 33 27 52 27c28 0 47 -17 47 -43c0 -22 -7 -32 -39 -52l-140 -86h-54z" />
    <glyph glyph-name="racute" unicode="&#x155;" horiz-adv-x="444" 
d="M293 24v-24h-260v24c42 6 52 18 53 58v289c-1 40 -13 53 -53 58v23h185v-80c47 67 82 91 133 91c46 0 79 -32 79 -76c0 -38 -25 -65 -62 -65c-25 0 -40 9 -59 35c-11 15 -19 22 -28 22c-32 0 -59 -42 -59 -93v-185c0 -62 12 -74 71 -77zM158 517l134 154
c16 18 33 27 52 27c28 0 47 -17 47 -43c0 -22 -8 -32 -39 -52l-139 -86h-55z" />
    <glyph glyph-name="Rcommaaccent" unicode="&#x156;" horiz-adv-x="722" 
d="M708 24v-24h-201l-203 307h-26v-192c2 -71 11 -81 86 -91v-24h-331v24c75 8 84 18 86 91v433c-2 72 -16 86 -86 90v24h316c180 0 276 -61 276 -174c0 -44 -16 -84 -44 -110c-27 -25 -52 -37 -110 -56l197 -279c9 -13 22 -19 40 -19zM278 588v-250c75 1 108 7 134 24
c32 21 46 59 46 122c0 103 -37 145 -127 145c-25 0 -40 -5 -46 -15c-3 -6 -7 -20 -7 -26zM296 -334l-10 19c67 47 96 83 96 117c0 11 -7 19 -17 19c-1 0 -3 0 -6 -1c-6 -1 -11 -1 -14 -1c-40 0 -65 27 -65 70c0 44 29 72 73 72c54 0 89 -41 89 -103
c0 -76 -44 -134 -146 -192z" />
    <glyph glyph-name="rcommaaccent" unicode="&#x157;" horiz-adv-x="444" 
d="M293 24v-24h-260v24c42 6 52 18 53 58v289c-1 40 -13 53 -53 58v23h185v-80c47 67 82 91 133 91c46 0 79 -32 79 -76c0 -38 -25 -65 -62 -65c-25 0 -40 9 -59 35c-11 15 -19 22 -28 22c-32 0 -59 -42 -59 -93v-185c0 -62 12 -74 71 -77zM98 -334l-10 19
c67 47 96 83 96 117c0 11 -7 19 -17 19c-1 0 -4 0 -6 -1c-6 -1 -11 -1 -14 -1c-40 0 -65 27 -65 70c0 44 29 72 73 72c53 0 89 -41 89 -103c0 -76 -44 -134 -146 -192z" />
    <glyph glyph-name="Rcaron" unicode="&#x158;" horiz-adv-x="722" 
d="M708 24v-24h-201l-203 307h-26v-192c2 -71 11 -81 86 -91v-24h-331v24c75 8 84 18 86 91v433c-2 72 -16 86 -86 90v24h316c180 0 276 -61 276 -174c0 -44 -16 -84 -44 -110c-27 -25 -52 -37 -110 -56l197 -279c9 -13 22 -19 40 -19zM278 588v-250c75 1 108 7 134 24
c32 21 46 59 46 122c0 103 -37 145 -127 145c-25 0 -40 -5 -46 -15c-3 -6 -7 -20 -7 -26zM490 895l-120 -172h-90l-120 172h55l110 -97l110 97h55z" />
    <glyph glyph-name="rcaron" unicode="&#x159;" horiz-adv-x="444" 
d="M293 24v-24h-260v24c42 6 52 18 53 58v289c-1 40 -13 53 -53 58v23h185v-80c47 67 82 91 133 91c46 0 79 -32 79 -76c0 -38 -25 -65 -62 -65c-25 0 -40 9 -59 35c-11 15 -19 22 -28 22c-32 0 -59 -42 -59 -93v-185c0 -62 12 -74 71 -77zM387 690l-120 -173h-91l-119 173
h55l109 -98l110 98h56z" />
    <glyph glyph-name="Sacute" unicode="&#x15a;" horiz-adv-x="556" 
d="M480 465h-27c-21 64 -36 93 -69 127c-35 36 -76 55 -121 55c-66 0 -107 -37 -107 -98c0 -48 22 -72 101 -111l144 -72c63 -31 107 -105 107 -178c0 -124 -98 -207 -243 -207c-43 0 -80 7 -127 24c-21 7 -32 10 -40 10c-16 0 -23 -8 -30 -34h-28v242h28
c17 -68 30 -101 58 -137c36 -48 84 -73 142 -73c75 0 123 44 123 111c0 52 -24 79 -109 119l-66 31c-116 56 -167 118 -167 203c0 124 81 200 214 200c39 0 70 -6 115 -22c21 -7 32 -10 41 -10c18 0 24 7 32 33h29v-213zM208 723l134 154c16 18 33 27 52 27
c28 0 47 -17 47 -43c0 -22 -7 -32 -39 -52l-139 -86h-55z" />
    <glyph glyph-name="sacute" unicode="&#x15b;" horiz-adv-x="389" 
d="M337 319h-25c-14 43 -25 61 -46 81s-47 31 -73 31c-38 0 -65 -24 -65 -57s27 -58 95 -86c97 -41 135 -83 135 -153c0 -88 -62 -149 -151 -149c-28 0 -77 11 -107 23c-9 4 -16 6 -22 6c-9 0 -15 -6 -25 -28h-25v162h27c21 -86 67 -130 135 -130c44 0 74 25 74 64
c0 31 -27 56 -95 85c-98 42 -139 87 -139 152c0 83 65 143 153 143c24 0 46 -4 77 -14c16 -5 25 -7 31 -7c13 0 19 5 24 19h22v-142zM115 517l134 154c17 18 33 27 52 27c28 0 47 -17 47 -43c0 -22 -7 -32 -39 -52l-139 -86h-55z" />
    <glyph glyph-name="Scircumflex" unicode="&#x15c;" horiz-adv-x="556" 
d="M400 723l-110 96l-109 -96h-55l119 172h90l121 -172h-56zM480 465h-27c-21 64 -36 93 -69 127c-35 36 -76 55 -121 55c-66 0 -107 -37 -107 -98c0 -48 22 -72 101 -111l144 -72c63 -31 107 -105 107 -178c0 -124 -98 -207 -243 -207c-43 0 -80 7 -127 24
c-21 7 -32 10 -40 10c-16 0 -23 -8 -30 -34h-28v242h28c17 -68 30 -101 58 -137c36 -48 84 -73 142 -73c75 0 123 44 123 111c0 52 -24 79 -109 119l-66 31c-116 56 -167 118 -167 203c0 124 81 200 214 200c39 0 70 -6 115 -22c21 -7 32 -10 41 -10c18 0 24 7 32 33h29
v-213z" />
    <glyph glyph-name="scircumflex" unicode="&#x15d;" horiz-adv-x="389" 
d="M337 319h-25c-14 43 -25 61 -46 81s-47 31 -73 31c-38 0 -65 -24 -65 -57s27 -58 95 -86c97 -41 135 -83 135 -153c0 -88 -62 -149 -151 -149c-28 0 -77 11 -107 23c-9 4 -16 6 -22 6c-9 0 -15 -6 -25 -28h-25v162h27c21 -86 67 -130 135 -130c44 0 74 25 74 64
c0 31 -27 56 -95 85c-98 42 -139 87 -139 152c0 83 65 143 153 143c24 0 46 -4 77 -14c16 -5 25 -7 31 -7c13 0 19 5 24 19h22v-142zM315 517l-110 96l-109 -96h-55l119 173h90l121 -173h-56z" />
    <glyph glyph-name="Scedilla" unicode="&#x15e;" horiz-adv-x="556" 
d="M480 678v-213h-27c-21 64 -36 93 -69 127c-35 36 -76 55 -121 55c-66 0 -107 -37 -107 -98c0 -48 22 -72 101 -111l144 -72c63 -31 107 -104 107 -178c0 -72 -38 -138 -100 -173c-33 -19 -73 -30 -124 -33l-19 -45c12 4 20 5 33 5c53 0 85 -26 85 -69
c0 -53 -49 -87 -126 -87c-33 0 -59 5 -95 18l16 36c24 -10 42 -14 57 -14c37 0 57 14 57 40c0 23 -16 36 -45 36c-9 0 -17 -1 -27 -4l-11 8l34 76c-33 2 -65 9 -105 23c-21 7 -32 10 -40 10c-16 0 -23 -8 -30 -34h-28v242h28c17 -68 30 -101 58 -136c36 -49 84 -73 142 -73
c75 0 123 44 123 111c0 51 -24 77 -109 118l-66 31c-116 56 -167 118 -167 203c0 124 81 200 214 200c39 0 70 -6 115 -22c21 -7 32 -10 41 -10c18 0 24 7 32 33h29z" />
    <glyph glyph-name="scedilla" unicode="&#x15f;" horiz-adv-x="389" 
d="M212 -14l-21 -49c12 4 20 5 33 5c54 0 86 -26 86 -69c0 -53 -49 -87 -127 -87c-33 0 -59 5 -95 18l16 36c23 -9 43 -14 57 -14c38 0 58 14 58 40c0 23 -17 36 -45 36c-10 0 -17 -1 -28 -4l-11 8l37 83c-36 8 -54 13 -72 20c-9 4 -17 6 -22 6c-9 0 -15 -6 -25 -28h-25v162
h27c21 -85 67 -129 135 -129c44 0 74 25 74 63c0 32 -27 56 -95 85c-98 43 -139 87 -139 152c0 83 65 143 153 143c24 0 46 -4 77 -14c16 -5 25 -7 31 -7c13 0 19 5 24 19h22v-142h-25c-14 43 -25 61 -46 81s-47 31 -73 31c-38 0 -65 -24 -65 -57s27 -58 95 -86
c97 -41 135 -83 135 -153c0 -86 -57 -144 -146 -149z" />
    <glyph glyph-name="Scaron" unicode="&#x160;" horiz-adv-x="556" 
d="M480 465h-27c-21 64 -36 93 -69 127c-35 36 -76 55 -121 55c-66 0 -107 -37 -107 -98c0 -48 22 -72 101 -111l144 -72c63 -31 107 -105 107 -178c0 -124 -98 -207 -243 -207c-43 0 -80 7 -127 24c-21 7 -32 10 -40 10c-16 0 -23 -8 -30 -34h-28v242h28
c17 -68 30 -101 58 -137c36 -48 84 -73 142 -73c75 0 123 44 123 111c0 52 -24 79 -109 119l-66 31c-116 56 -167 118 -167 203c0 124 81 200 214 200c39 0 70 -6 115 -22c21 -7 32 -10 41 -10c18 0 24 7 32 33h29v-213zM444 895l-121 -172h-90l-120 172h55l110 -97l110 97
h56z" />
    <glyph glyph-name="scaron" unicode="&#x161;" horiz-adv-x="389" 
d="M337 319h-25c-14 43 -25 61 -46 81s-47 31 -73 31c-38 0 -65 -24 -65 -57s27 -58 95 -86c97 -41 135 -83 135 -153c0 -88 -62 -149 -151 -149c-28 0 -77 11 -107 23c-9 4 -16 6 -22 6c-9 0 -15 -6 -25 -28h-25v162h27c21 -86 67 -130 135 -130c44 0 74 25 74 64
c0 31 -27 56 -95 85c-98 42 -139 87 -139 152c0 83 65 143 153 143c24 0 46 -4 77 -14c16 -5 25 -7 31 -7c13 0 19 5 24 19h22v-142zM359 690l-120 -173h-91l-119 173h55l110 -98l109 98h56z" />
    <glyph glyph-name="Tcommaaccent" unicode="&#x162;" horiz-adv-x="667" 
d="M509 24v-24h-350v24c82 6 93 16 95 91v516c-121 -4 -173 -49 -189 -166h-28l2 197h589l1 -197h-28c-16 117 -68 162 -188 166v-516c2 -76 13 -86 96 -91zM268 -334l-10 19c67 47 96 82 96 117c0 11 -7 19 -17 19c-1 0 -3 0 -6 -1c-6 -1 -11 -1 -14 -1
c-40 0 -65 27 -65 70c0 44 29 72 73 72c54 0 89 -41 89 -103c0 -76 -44 -135 -146 -192z" />
    <glyph glyph-name="tcommaaccent" unicode="&#x163;" horiz-adv-x="333" 
d="M302 452v-43h-92v-295c0 -39 11 -56 38 -56c21 0 36 13 56 51l24 -11c-39 -80 -79 -110 -145 -110c-67 0 -109 40 -109 103v318h-51v26c64 55 103 99 162 183h25v-166h92zM101 -334l-9 19c66 47 95 82 95 117c0 11 -7 19 -17 19c-1 0 -3 0 -6 -1c-5 -1 -10 -1 -14 -1
c-39 0 -64 27 -64 70c0 44 29 72 73 72c53 0 88 -41 88 -103c0 -76 -44 -134 -146 -192z" />
    <glyph glyph-name="Tcaron" unicode="&#x164;" horiz-adv-x="667" 
d="M509 24v-24h-350v24c82 6 93 16 95 91v516c-121 -4 -173 -49 -189 -166h-28l2 197h589l1 -197h-28c-16 117 -68 162 -188 166v-516c2 -76 13 -86 96 -91zM498 895l-120 -172h-90l-120 172h55l110 -97l110 97h55z" />
    <glyph glyph-name="tcaron" unicode="&#x165;" horiz-adv-x="416" 
d="M334 382l-9 19c34 22 41 28 56 44c28 31 40 52 40 73c0 11 -7 19 -17 19c-1 0 -3 0 -6 -1c-5 -1 -10 -1 -14 -1c-40 0 -65 27 -65 70c0 44 29 72 73 72c53 0 89 -41 89 -103c0 -77 -44 -134 -147 -192zM301 452v-43h-92v-295c0 -39 11 -56 38 -56c21 0 36 13 56 51
l24 -11c-39 -80 -79 -110 -145 -110c-67 0 -109 40 -109 103v318h-51v26c64 55 103 99 162 183h25v-166h92z" />
    <glyph glyph-name="Tbar" unicode="&#x166;" horiz-adv-x="667" 
d="M254 308h-83v46h83v277c-121 -4 -172 -49 -189 -166h-28l3 197h587l2 -197h-28c-17 117 -68 162 -188 166v-277h81v-46h-81v-193c2 -76 13 -86 96 -91v-24h-350v24c83 6 93 16 95 91v193z" />
    <glyph glyph-name="tbar" unicode="&#x167;" horiz-adv-x="333" 
d="M210 291h89v-46h-89v-131c0 -40 11 -56 38 -56c21 0 36 14 56 51l24 -11c-40 -81 -79 -110 -145 -110c-67 0 -109 40 -109 103v154h-59v46h59v118h-51v26c64 54 103 98 162 183h25v-166h92v-43h-92v-118z" />
    <glyph glyph-name="Utilde" unicode="&#x168;" horiz-adv-x="722" 
d="M694 662v-24c-61 -9 -75 -25 -76 -84v-312c0 -92 -25 -166 -70 -203c-42 -37 -110 -58 -183 -58c-72 0 -135 18 -181 52c-60 43 -81 91 -81 187v327c-2 72 -13 85 -80 91v24h331v-24c-79 -3 -93 -16 -95 -91v-327c0 -133 43 -191 144 -191c117 0 172 68 172 213v299
c0 71 -21 92 -96 97v24h215zM274 736h-41c18 84 53 123 113 123c21 0 45 -6 72 -19l39 -17c24 -11 27 -12 39 -12c26 0 40 13 52 48h43c-23 -86 -59 -125 -115 -125c-19 0 -44 6 -63 14l-28 13c-40 18 -50 21 -63 21c-25 0 -44 -18 -48 -46z" />
    <glyph glyph-name="utilde" unicode="&#x169;" horiz-adv-x="556" 
d="M531 42v-22l-61 -7c-63 -7 -87 -11 -129 -26v64c-58 -50 -91 -65 -142 -65c-81 0 -130 51 -130 138v247c-1 41 -8 50 -48 58v23h184v-332c0 -51 15 -70 54 -70c29 0 49 11 81 43v278c-1 43 -13 54 -61 58v23h197v-353c0 -42 13 -55 55 -57zM130 538h-41
c17 84 53 122 113 122c20 0 44 -6 72 -19l39 -17c25 -12 27 -12 38 -12c27 0 41 12 53 48h42c-23 -85 -59 -124 -115 -124c-19 0 -44 6 -62 14l-29 12c-42 19 -50 22 -62 22c-26 0 -45 -18 -48 -46z" />
    <glyph glyph-name="Umacron" unicode="&#x16a;" horiz-adv-x="722" 
d="M694 662v-24c-61 -9 -75 -25 -76 -84v-312c0 -92 -25 -166 -70 -203c-42 -37 -110 -58 -183 -58c-72 0 -135 18 -181 52c-60 43 -81 91 -81 187v327c-2 72 -13 85 -80 91v24h331v-24c-79 -3 -93 -16 -95 -91v-327c0 -133 43 -191 144 -191c117 0 172 68 172 213v299
c0 71 -21 92 -96 97v24h215zM554 830v-71h-323v71h323z" />
    <glyph glyph-name="umacron" unicode="&#x16b;" horiz-adv-x="556" 
d="M531 42v-22l-61 -7c-63 -7 -87 -11 -129 -26v64c-58 -50 -91 -65 -142 -65c-81 0 -130 51 -130 138v247c-1 41 -8 50 -48 58v23h184v-332c0 -51 15 -70 54 -70c29 0 49 11 81 43v278c-1 43 -13 54 -61 58v23h197v-353c0 -42 13 -55 55 -57zM430 624v-71h-323v71h323z" />
    <glyph glyph-name="Ubreve" unicode="&#x16c;" horiz-adv-x="722" 
d="M694 662v-24c-61 -9 -75 -25 -76 -84v-312c0 -92 -25 -166 -70 -203c-42 -37 -110 -58 -183 -58c-72 0 -135 18 -181 52c-60 43 -81 91 -81 187v327c-2 72 -13 85 -80 91v24h331v-24c-79 -3 -93 -16 -95 -91v-327c0 -133 43 -191 144 -191c117 0 172 68 172 213v299
c0 71 -21 92 -96 97v24h215zM509 885h43c-5 -50 -12 -74 -29 -100c-25 -40 -65 -60 -120 -60c-52 0 -92 18 -117 53c-21 29 -28 53 -30 107h43c11 -61 42 -86 104 -86c61 0 90 23 106 86z" />
    <glyph glyph-name="ubreve" unicode="&#x16d;" horiz-adv-x="556" 
d="M531 42v-22l-61 -7c-63 -7 -87 -11 -129 -26v64c-58 -50 -91 -65 -142 -65c-81 0 -130 51 -130 138v247c-1 41 -8 50 -48 58v23h184v-332c0 -51 15 -70 54 -70c29 0 49 11 81 43v278c-1 43 -13 54 -61 58v23h197v-353c0 -42 13 -55 55 -57zM379 664h29
c-12 -106 -59 -157 -142 -157c-48 0 -87 19 -112 54c-19 28 -26 52 -27 103h29c14 -67 48 -97 112 -97c58 0 82 21 111 97z" />
    <glyph glyph-name="Uring" unicode="&#x16e;" horiz-adv-x="722" 
d="M694 662v-24c-61 -9 -75 -25 -76 -84v-312c0 -92 -25 -166 -70 -203c-42 -37 -110 -58 -183 -58c-72 0 -135 18 -181 52c-60 43 -81 91 -81 187v327c-2 72 -13 85 -80 91v24h331v-24c-79 -3 -93 -16 -95 -91v-327c0 -133 43 -191 144 -191c117 0 172 68 172 213v299
c0 71 -21 92 -96 97v24h215zM400 940c57 0 104 -47 104 -105c0 -57 -47 -103 -105 -103s-104 46 -104 105c0 56 48 103 105 103zM399 893c-31 0 -57 -27 -57 -58c0 -30 26 -56 56 -56c32 0 59 25 59 55c0 32 -27 59 -58 59z" />
    <glyph glyph-name="uring" unicode="&#x16f;" horiz-adv-x="556" 
d="M531 42v-22l-61 -7c-63 -7 -87 -11 -129 -26v64c-58 -50 -91 -65 -142 -65c-81 0 -130 51 -130 138v247c-1 41 -8 50 -48 58v23h184v-332c0 -51 15 -70 54 -70c29 0 49 11 81 43v278c-1 43 -13 54 -61 58v23h197v-353c0 -42 13 -55 55 -57zM272 735
c57 0 104 -48 104 -105c0 -58 -47 -104 -105 -104s-104 47 -104 106c0 55 48 103 105 103zM271 688c-31 0 -57 -27 -57 -58s26 -57 56 -57c32 0 59 25 59 56c0 32 -26 59 -58 59z" />
    <glyph glyph-name="Uhungarumlaut" unicode="&#x170;" horiz-adv-x="722" 
d="M694 662v-24c-61 -9 -75 -25 -76 -84v-312c0 -92 -25 -166 -70 -203c-42 -37 -110 -58 -183 -58c-72 0 -135 18 -181 52c-60 43 -81 91 -81 187v327c-2 72 -13 85 -80 91v24h331v-24c-79 -3 -93 -16 -95 -91v-327c0 -133 43 -191 144 -191c117 0 172 68 172 213v299
c0 71 -21 92 -96 97v24h215zM244 723l134 154c16 18 33 27 52 27c28 0 47 -17 47 -43c0 -22 -7 -32 -39 -52l-139 -86h-55zM440 723l134 154c16 18 33 27 52 27c28 0 47 -17 47 -43c0 -22 -7 -32 -39 -52l-139 -86h-55z" />
    <glyph glyph-name="uhungarumlaut" unicode="&#x171;" horiz-adv-x="556" 
d="M531 42v-22l-61 -7c-63 -7 -87 -11 -129 -26v64c-58 -50 -91 -65 -142 -65c-81 0 -130 51 -130 138v247c-1 41 -8 50 -48 58v23h184v-332c0 -51 15 -70 54 -70c29 0 49 11 81 43v278c-1 43 -13 54 -61 58v23h197v-353c0 -42 13 -55 55 -57zM117 517l134 154
c16 18 33 27 52 27c28 0 47 -17 47 -43c0 -23 -7 -32 -39 -52l-140 -86h-54zM312 517l135 154c16 18 33 27 52 27c28 0 47 -17 47 -43c0 -23 -7 -31 -40 -52l-139 -86h-55z" />
    <glyph glyph-name="Uogonek" unicode="&#x172;" horiz-adv-x="722" 
d="M694 662v-24c-61 -9 -75 -25 -76 -84v-312c-2 -83 -14 -127 -54 -197c-10 -17 -19 -55 -19 -74c0 -50 19 -73 62 -73c15 0 25 3 45 13c8 4 9 5 14 7l21 -14c-25 -46 -71 -74 -120 -74c-61 0 -104 33 -104 80c0 30 11 50 56 109c-46 -26 -96 -38 -153 -38
c-73 0 -135 18 -182 52c-60 43 -81 91 -81 187v327c-2 72 -13 85 -80 91v24h331v-24c-79 -3 -93 -16 -95 -91v-327c0 -133 43 -191 144 -191c117 0 172 68 172 213v299c0 71 -21 92 -96 97v24h215z" />
    <glyph glyph-name="uogonek" unicode="&#x173;" horiz-adv-x="556" 
d="M531 42v-22l-61 -7c-40 -4 -63 -25 -63 -57c0 -37 22 -58 62 -58c15 0 25 3 45 13c8 4 9 5 14 7l21 -14c-24 -46 -71 -74 -120 -74c-60 0 -104 33 -104 79c0 19 5 34 16 53v89c-58 -50 -91 -65 -142 -65c-81 0 -130 51 -130 138v247c-1 41 -8 50 -48 58v23h184v-332
c0 -51 15 -70 54 -70c29 0 49 11 81 43v278c-1 43 -13 54 -61 58v23h197v-353c0 -42 13 -55 55 -57z" />
    <glyph glyph-name="Wcircumflex" unicode="&#x174;" horiz-adv-x="1000" 
d="M971 662v-24c-32 -4 -54 -24 -67 -63l-196 -590h-27l-167 468l-182 -468h-28l-207 590c-18 48 -27 56 -68 63v24h288v-24c-51 -5 -63 -13 -63 -42c0 -8 1 -14 7 -32l118 -356l115 301l-34 94c-11 23 -30 33 -71 35v24h306v-24c-6 -1 -11 -1 -13 -2
c-42 -2 -57 -11 -57 -34c0 -10 4 -26 13 -56l106 -329l110 336c4 14 7 30 7 41c0 31 -14 40 -68 44v24h178zM649 723l-110 96l-110 -96h-55l120 172h90l120 -172h-55z" />
    <glyph glyph-name="wcircumflex" unicode="&#x175;" horiz-adv-x="722" 
d="M700 452v-23c-26 -5 -34 -13 -49 -50l-152 -393h-22l-101 304l-122 -304h-23l-145 367c-27 65 -30 70 -56 76v23h217v-23c-27 -4 -37 -12 -37 -28c0 -11 4 -25 23 -75l36 -90l24 -63l66 167c-2 9 -5 16 -5 19c-19 65 -20 65 -59 70v23h230v-23c-37 -4 -47 -9 -47 -24
c0 -9 7 -38 26 -104c21 -77 24 -85 33 -125c13 35 21 57 35 92c30 76 43 114 43 127c0 22 -10 29 -47 34v23h132zM495 517l-110 96l-110 -96h-55l120 173h90l121 -173h-56z" />
    <glyph glyph-name="Ycircumflex" unicode="&#x176;" horiz-adv-x="722" 
d="M692 662v-24c-34 -6 -52 -16 -66 -39l-187 -304v-180c1 -74 11 -84 90 -91v-24h-340v24c78 7 89 17 91 91v144l-180 325c-19 33 -45 51 -78 54v24h328v-24c-11 -1 -21 -1 -25 -1c-39 0 -54 -8 -54 -30c0 -11 4 -22 17 -46l6 -12l118 -227l109 181c24 41 38 74 38 93
c0 29 -16 37 -82 42v24h215zM501 723l-110 96l-110 -96h-55l120 172h90l121 -172h-56z" />
    <glyph glyph-name="ycircumflex" unicode="&#x177;" 
d="M475 452v-23c-30 -4 -40 -13 -56 -54l-146 -390c-35 -93 -54 -131 -75 -153c-20 -22 -48 -33 -82 -33c-56 0 -95 32 -95 78c0 36 26 62 62 62c34 0 57 -20 57 -48c0 -5 0 -9 -1 -14c-1 -3 -1 -4 -1 -6c0 -8 8 -16 17 -16c23 0 47 31 64 80l17 52l-117 290
c-17 41 -61 136 -64 136c-6 10 -12 12 -34 16v23h245v-23l-15 -2c-25 -2 -37 -10 -37 -24c0 -8 0 -8 20 -58l70 -181l67 188c8 22 10 33 10 44c0 24 -11 31 -53 33v23h147zM377 517l-110 96l-110 -96h-55l120 173h90l121 -173h-56z" />
    <glyph glyph-name="Ydieresis" unicode="&#x178;" horiz-adv-x="722" 
d="M692 662v-24c-34 -6 -52 -16 -66 -39l-187 -304v-180c1 -74 11 -84 90 -91v-24h-340v24c78 7 89 17 91 91v144l-180 325c-19 33 -45 51 -78 54v24h328v-24c-11 -1 -21 -1 -25 -1c-39 0 -54 -8 -54 -30c0 -11 4 -22 17 -46l6 -12l118 -227l109 181c24 41 38 74 38 93
c0 29 -16 37 -82 42v24h215zM303 859c34 0 63 -29 63 -65c0 -34 -28 -62 -63 -62c-34 0 -61 29 -61 64c0 33 29 63 61 63zM507 859c35 0 64 -29 64 -65c0 -34 -29 -62 -64 -62c-34 0 -60 28 -60 65c0 32 28 62 60 62z" />
    <glyph glyph-name="Zacute" unicode="&#x179;" horiz-adv-x="667" 
d="M628 236l-26 -236h-568v16l374 612c-36 -2 -69 -3 -81 -3c-145 2 -188 -29 -235 -165h-28l21 202h513v-16l-371 -612h73c204 3 258 39 302 202h26zM284 723l134 154c16 18 33 27 52 27c28 0 47 -17 47 -43c0 -22 -7 -32 -39 -52l-139 -86h-55z" />
    <glyph glyph-name="zacute" unicode="&#x17a;" horiz-adv-x="444" 
d="M416 157l-16 -157h-375v24l229 397c-137 0 -163 -15 -187 -108h-25l7 139h363v-25l-226 -396h28c84 2 108 11 142 56c16 22 24 40 32 70h28zM173 517l134 154c16 18 33 27 52 27c28 0 47 -17 47 -43c0 -22 -7 -32 -40 -52l-139 -86h-54z" />
    <glyph glyph-name="Zdotaccent" unicode="&#x17b;" horiz-adv-x="667" 
d="M628 236l-26 -236h-568v16l374 612c-36 -2 -69 -3 -81 -3c-145 2 -188 -29 -235 -165h-28l21 202h513v-16l-371 -612h73c204 3 258 39 302 202h26zM358 859c35 0 64 -29 64 -65c0 -34 -28 -62 -63 -62c-34 0 -61 28 -61 64c0 34 28 63 60 63z" />
    <glyph glyph-name="zdotaccent" unicode="&#x17c;" horiz-adv-x="444" 
d="M416 157l-16 -157h-375v24l229 397c-137 0 -163 -15 -187 -108h-25l7 139h363v-25l-226 -396h28c84 2 108 11 142 56c16 22 24 40 32 70h28zM232 653c35 0 64 -29 64 -65c0 -34 -28 -62 -63 -62c-34 0 -61 28 -61 64c0 33 28 63 60 63z" />
    <glyph glyph-name="Zcaron" unicode="&#x17d;" horiz-adv-x="667" 
d="M628 236l-26 -236h-568v16l374 612c-36 -2 -69 -3 -81 -3c-145 2 -188 -29 -235 -165h-28l21 202h513v-16l-371 -612h73c204 3 258 39 302 202h26zM511 895l-121 -172h-90l-119 172h54l110 -97l110 97h56z" />
    <glyph glyph-name="zcaron" unicode="&#x17e;" horiz-adv-x="444" 
d="M416 157l-16 -157h-375v24l229 397c-137 0 -163 -15 -187 -108h-25l7 139h363v-25l-226 -396h28c84 2 108 11 142 56c16 22 24 40 32 70h28zM406 690l-120 -173h-90l-120 173h55l110 -98l109 98h56z" />
    <glyph glyph-name="longs" unicode="&#x17f;" horiz-adv-x="278" 
d="M-1 0v24c44 4 55 15 56 58v327h-56v43h56c0 85 7 124 28 159c27 42 78 66 143 66c83 0 140 -40 140 -98c0 -36 -24 -61 -61 -61c-33 0 -58 24 -58 54c0 11 4 21 13 36c6 10 8 16 8 21c0 11 -11 18 -28 18c-35 0 -49 -22 -49 -76v-470c1 -65 12 -76 80 -77v-24h-272z" />
    <glyph glyph-name="florin" unicode="&#x192;" 
d="M106 401l12 43h74c30 105 52 150 94 189c34 31 83 50 131 50c58 0 100 -33 100 -79c0 -30 -23 -54 -54 -54c-28 0 -52 22 -52 48c0 9 3 18 8 27c2 5 4 9 4 12c0 5 -6 9 -13 9c-38 0 -58 -41 -102 -202h91l-12 -43h-87l-20 -94c-36 -165 -69 -286 -98 -356
c-39 -98 -105 -151 -186 -151c-58 0 -100 33 -100 79c0 28 26 53 55 53c27 0 50 -21 50 -47c0 -8 -3 -18 -9 -26c-5 -7 -5 -8 -5 -11c0 -6 8 -11 17 -11c22 0 41 18 53 49c19 50 22 60 76 318c10 48 30 132 38 160l11 37h-76z" />
    <glyph glyph-name="Aringacute" unicode="&#x1fa;" horiz-adv-x="722" 
d="M689 25v-25h-324v25c14 1 27 2 32 3c35 2 48 11 48 33s-13 59 -46 136h-225c-39 -100 -44 -115 -44 -131c0 -26 22 -37 82 -41v-25h-203v25c48 9 60 23 98 117l222 548h28l223 -526c53 -125 65 -139 109 -139zM189 236h195l-101 243zM344 914c58 0 106 -48 106 -107
s-47 -106 -107 -106c-59 0 -106 47 -106 108c0 57 49 105 107 105zM343 866c-31 0 -58 -27 -58 -59s26 -58 57 -58c33 0 60 26 60 57c0 32 -27 60 -59 60zM240 915l137 110c16 13 33 19 53 19c29 0 48 -12 48 -30c0 -17 -7 -23 -40 -37l-142 -62h-56z" />
    <glyph glyph-name="aringacute" unicode="&#x1fb;" 
d="M473 64l15 -21c-38 -41 -69 -57 -112 -57c-49 0 -71 19 -82 70c-55 -50 -101 -70 -158 -70c-65 0 -111 45 -111 106c0 43 20 77 64 107c37 25 85 44 205 81v73c0 61 -25 88 -84 88c-36 0 -63 -16 -63 -37c0 -6 3 -12 12 -22c13 -16 18 -29 18 -43c0 -34 -28 -58 -68 -58
c-41 0 -65 24 -65 66c0 75 76 126 189 126c122 0 198 -53 198 -137v-261c0 -17 7 -25 21 -25c5 0 8 1 11 4zM293 100v145c-80 -22 -122 -63 -122 -121c0 -40 21 -67 51 -67c24 0 44 12 71 43zM240 750c58 0 106 -48 106 -107s-47 -106 -107 -106c-59 0 -106 47 -106 108
c0 57 49 105 107 105zM239 702c-31 0 -58 -27 -58 -59s26 -58 57 -58c33 0 60 26 60 57c0 32 -27 60 -59 60zM153 768l137 157c17 19 34 28 53 28c29 0 48 -18 48 -44c0 -23 -7 -33 -40 -53l-142 -88h-56z" />
    <glyph glyph-name="AEacute" unicode="&#x1fc;" horiz-adv-x="1000" 
d="M344 0v25c73 4 87 19 88 94v184h-190l-100 -188c-11 -21 -15 -33 -15 -45c0 -28 14 -37 66 -43l17 -2v-25h-206v25c39 6 46 15 110 128l213 389l7 13c20 33 28 52 28 62c0 24 -20 33 -87 37v22h634v-201h-25c-13 64 -23 88 -44 114c-28 34 -88 52 -178 52
c-56 0 -70 -6 -70 -30v-248c117 11 127 20 155 149h23v-338h-23c-18 124 -44 150 -155 157v-243c0 -43 16 -54 75 -54c86 0 145 19 184 61c35 36 69 87 77 116h23l-41 -211h-566zM264 343h168v290h-7zM477 744l137 157c16 19 33 28 53 28c29 0 48 -18 48 -44
c0 -23 -7 -32 -40 -53l-142 -88h-56z" />
    <glyph glyph-name="aeacute" unicode="&#x1fd;" horiz-adv-x="722" 
d="M672 128l21 -15c-59 -90 -114 -122 -209 -122c-71 0 -109 22 -147 84l-6 -6c-58 -57 -114 -83 -180 -83c-77 0 -118 37 -118 108c0 44 18 77 56 104c33 23 77 40 207 82v80c0 58 -22 81 -78 81c-38 0 -65 -15 -65 -35c0 -7 3 -12 12 -22c13 -14 17 -24 17 -43
c0 -37 -23 -57 -63 -57c-42 0 -69 25 -69 64c0 72 77 125 182 125c66 0 105 -14 142 -51c38 36 74 51 127 51c74 0 135 -36 165 -98c17 -35 22 -65 22 -127h-254v-23c0 -115 34 -164 114 -164c50 0 85 19 124 67zM296 81v167c-88 -32 -119 -65 -119 -127
c0 -48 19 -72 57 -72c24 0 38 7 62 32zM434 285h133v33c0 93 -16 125 -63 125c-52 0 -70 -40 -70 -158zM292 528l137 157c17 19 34 28 53 28c29 0 48 -18 48 -44c0 -23 -7 -33 -40 -53l-142 -88h-56z" />
    <glyph glyph-name="Oslashacute" unicode="&#x1fe;" horiz-adv-x="778" 
d="M685 737l-78 -115c48 -40 67 -61 89 -99c31 -55 47 -119 47 -187c0 -208 -147 -355 -355 -355c-71 0 -122 13 -186 49l-71 -104h-50l86 126c-59 51 -83 83 -107 143c-17 44 -25 90 -25 139c0 208 148 357 355 357c68 0 118 -13 182 -47l63 93h50zM234 151l286 418
c-36 64 -72 89 -131 89c-114 0 -177 -118 -177 -331c0 -74 5 -116 22 -176zM540 524l-287 -420c34 -64 73 -90 136 -90c116 0 177 109 177 317c0 80 -6 128 -26 193zM307 744l137 157c16 19 33 28 53 28c29 0 48 -17 48 -44c0 -23 -7 -32 -40 -53l-142 -88h-56z" />
    <glyph glyph-name="oslashacute" unicode="&#x1ff;" 
d="M461 549l-73 -123c62 -55 88 -115 88 -197c0 -140 -95 -243 -225 -243c-40 0 -70 8 -107 27l-63 -105h-47l76 128c-60 56 -85 113 -85 193c0 140 97 244 227 244c38 0 68 -7 103 -25l60 101h46zM173 140l143 242c-13 43 -31 60 -65 60c-61 0 -79 -52 -79 -233
c0 -25 0 -47 1 -69zM327 324l-144 -244c14 -45 32 -63 68 -63c58 0 78 52 78 202c0 33 -1 59 -2 105zM170 528l137 157c17 19 34 28 53 28c29 0 48 -18 48 -44c0 -23 -8 -33 -40 -53l-142 -88h-56z" />
    <glyph glyph-name="Scommaaccent" unicode="&#x218;" horiz-adv-x="556" 
d="M45 -12v239h26c21 -73 33 -102 56 -131c39 -52 88 -76 150 -76c80 0 133 44 133 109c0 22 -9 45 -23 59c-20 19 -30 24 -116 65c-85 40 -127 64 -160 93c-37 33 -58 82 -58 133c0 115 92 196 223 196c50 0 80 -6 150 -30c9 -3 20 -5 25 -5c15 0 20 8 23 34h26v-211h-23
c-37 117 -107 179 -204 179c-66 0 -109 -38 -109 -97c0 -33 15 -59 48 -81c31 -20 31 -20 142 -67c128 -54 174 -108 174 -204c0 -122 -100 -206 -243 -206c-39 0 -74 6 -126 21c-36 10 -47 12 -59 12c-19 0 -26 -8 -29 -32h-26zM206 -289l-10 15c49 24 80 58 80 86
c0 9 -6 16 -14 16c-2 0 -6 0 -10 -1c-6 -1 -12 -2 -16 -2c-31 0 -55 26 -55 60c0 38 29 65 68 65c46 0 78 -37 78 -90c0 -63 -42 -114 -121 -149z" />
    <glyph glyph-name="scommaaccent" unicode="&#x219;" horiz-adv-x="389" 
d="M28 -13v159h24c32 -82 84 -127 146 -127c41 0 69 25 69 61c0 29 -17 46 -67 70c-67 32 -90 45 -116 64c-37 29 -56 65 -56 107c0 80 72 139 169 139c24 0 41 -2 69 -10c24 -7 29 -8 36 -8c10 0 14 3 22 18h21v-142h-24c-22 73 -63 110 -120 110c-40 0 -66 -22 -66 -55
c0 -16 9 -32 25 -44s16 -12 80 -44c90 -45 122 -85 122 -154c0 -88 -60 -144 -155 -144c-38 0 -56 3 -111 20c-5 1 -10 2 -14 2c-13 0 -20 -5 -30 -22h-24zM120 -289l-10 15c49 24 80 58 80 86c0 9 -6 16 -14 16c-2 0 -6 0 -10 -1c-6 -1 -12 -2 -16 -2c-31 0 -55 26 -55 60
c0 38 29 65 68 65c46 0 78 -37 78 -90c0 -63 -42 -114 -121 -149z" />
    <glyph glyph-name="uni021A" unicode="&#x21a;" horiz-adv-x="667" 
d="M509 24v-24h-350v24c82 6 93 16 95 91v516c-121 -4 -173 -49 -189 -166h-28l2 197h589l1 -197h-28c-16 117 -68 162 -188 166v-516c2 -76 13 -86 96 -91zM268 -334l-10 19c67 47 96 82 96 117c0 11 -7 19 -17 19c-1 0 -3 0 -6 -1c-6 -1 -11 -1 -14 -1
c-40 0 -65 27 -65 70c0 44 29 72 73 72c54 0 89 -41 89 -103c0 -76 -44 -135 -146 -192z" />
    <glyph glyph-name="uni021B" unicode="&#x21b;" horiz-adv-x="333" 
d="M302 452v-43h-92v-295c0 -39 11 -56 38 -56c21 0 36 13 56 51l24 -11c-39 -80 -79 -110 -145 -110c-67 0 -109 40 -109 103v318h-51v26c64 55 103 99 162 183h25v-166h92zM101 -334l-9 19c66 47 95 82 95 117c0 11 -7 19 -17 19c-1 0 -3 0 -6 -1c-5 -1 -10 -1 -14 -1
c-39 0 -64 27 -64 70c0 44 29 72 73 72c53 0 88 -41 88 -103c0 -76 -44 -134 -146 -192z" />
    <glyph glyph-name="circumflex" unicode="&#x2c6;" horiz-adv-x="333" 
d="M275 517l-109 96l-110 -96h-55l119 173h91l120 -173h-56z" />
    <glyph glyph-name="caron" unicode="&#x2c7;" horiz-adv-x="333" 
d="M331 690l-120 -173h-91l-119 173h55l110 -98l109 98h56z" />
    <glyph glyph-name="uni02C9" unicode="&#x2c9;" horiz-adv-x="333" 
d="M37 544v73h260v-73h-260z" />
    <glyph glyph-name="breve" unicode="&#x2d8;" horiz-adv-x="333" 
d="M272 676h43c-6 -50 -13 -74 -29 -100c-26 -40 -66 -60 -120 -60c-53 0 -93 18 -118 53c-20 29 -27 53 -30 107h43c11 -61 42 -86 104 -86c61 0 90 23 107 86z" />
    <glyph glyph-name="dotaccent" unicode="&#x2d9;" horiz-adv-x="333" 
d="M164 653c35 0 64 -29 64 -65c0 -34 -28 -62 -63 -62c-34 0 -61 28 -61 65c0 32 29 62 60 62z" />
    <glyph glyph-name="ring" unicode="&#x2da;" horiz-adv-x="333" 
d="M167 735c57 0 104 -48 104 -105c0 -58 -47 -104 -105 -104s-104 47 -104 106c0 55 48 103 105 103zM166 688c-31 0 -57 -27 -57 -58s26 -57 56 -57c32 0 59 25 59 56c0 32 -26 59 -58 59z" />
    <glyph glyph-name="ogonek" unicode="&#x2db;" horiz-adv-x="333" 
d="M159 31l32 12c-2 -7 -3 -10 -5 -20c-9 -32 -12 -48 -12 -62c0 -41 21 -63 62 -63c15 0 25 3 45 13c8 4 9 5 14 7l21 -14c-24 -45 -71 -74 -120 -74c-61 0 -104 33 -104 80c0 29 12 52 53 103c7 10 8 11 14 18z" />
    <glyph glyph-name="tilde" unicode="&#x2dc;" horiz-adv-x="333" 
d="M29 538h-41c18 84 53 122 113 122c21 0 44 -6 72 -19l39 -17c26 -12 27 -12 39 -12c26 0 40 12 52 48h43c-23 -85 -59 -124 -115 -124c-19 0 -45 6 -63 14l-28 12c-43 19 -50 22 -63 22c-25 0 -44 -18 -48 -46z" />
    <glyph glyph-name="hungarumlaut" unicode="&#x2dd;" horiz-adv-x="333" 
d="M-9 517l134 154c16 18 33 27 52 27c28 0 47 -17 47 -43c0 -22 -7 -32 -39 -52l-139 -86h-55zM187 517l134 154c16 18 33 27 52 27c28 0 47 -17 47 -43c0 -22 -7 -32 -39 -52l-139 -86h-55z" />
    <glyph glyph-name="tonos" unicode="&#x384;" horiz-adv-x="333" 
d="M148 489l-2 8l-5 28c-16 66 -17 71 -17 88c0 25 18 45 43 45c24 0 42 -20 42 -46c0 -16 0 -18 -17 -87c-2 -9 -4 -22 -7 -36h-37z" />
    <glyph glyph-name="dieresistonos" unicode="&#x385;" horiz-adv-x="333" 
d="M79 603c28 0 51 -24 51 -52c0 -29 -23 -52 -52 -52s-52 23 -52 52s24 52 53 52zM256 603c28 0 51 -24 51 -52s-24 -52 -52 -52c-29 0 -52 23 -52 52s23 52 53 52zM149 562l-2 7l-5 27c-16 65 -16 67 -16 83c0 25 17 44 40 44c24 0 41 -19 41 -44c0 -15 0 -17 -16 -83
c0 -1 -3 -13 -7 -34h-35z" />
    <glyph glyph-name="Alphatonos" unicode="&#x386;" horiz-adv-x="722" 
d="M411 213h-185l-38 -106c-8 -22 -11 -35 -11 -44c0 -24 27 -43 62 -43h22v-20h-209v20c39 2 69 35 90 100l205 548h28l257 -604c16 -35 23 -42 47 -44h9v-20h-302v20h25c43 0 61 11 61 37c0 9 -4 21 -12 42zM313 451l-73 -202h157zM193 466h-42c-2 13 -4 23 -6 31l-2 13
c-4 19 -8 37 -12 55c-4 21 -7 42 -7 55c0 30 21 52 48 52c28 0 48 -22 48 -52c0 -20 -1 -24 -19 -110l-6 -34z" />
    <glyph glyph-name="uni0387" unicode="&#x387;" horiz-adv-x="250" 
d="M125 409c46 0 84 -38 84 -84s-37 -82 -84 -82s-82 36 -82 83c0 45 38 83 82 83z" />
    <glyph glyph-name="Epsilontonos" unicode="&#x388;" horiz-adv-x="799" 
d="M105 466h-42c-5 29 -12 62 -20 99c-4 21 -7 42 -7 55c0 30 21 52 48 52c28 0 48 -22 48 -52c0 -20 -1 -25 -19 -110l-6 -34zM399 319v-211c-2 -53 13 -71 58 -71h38c117 -1 189 55 211 166h26l-33 -203h-531v20h18c54 3 69 20 67 76v469c2 57 -13 75 -67 77h-18v20h519
v-182h-22c-9 93 -62 145 -152 148h-114v-271h27c60 2 93 48 102 143h23v-323h-23v8c0 25 -3 43 -12 65c-21 49 -47 69 -90 69h-27z" />
    <glyph glyph-name="Etatonos" unicode="&#x389;" horiz-adv-x="909" 
d="M98 466h-42c-5 29 -12 62 -20 99c-4 21 -7 42 -7 55c0 30 21 52 48 52c28 0 48 -22 48 -52c0 -20 -1 -25 -19 -110l-6 -34zM388 318v-222c-2 -56 13 -73 66 -76h19v-20h-316v20h19c53 3 68 20 66 76v467c2 58 -13 77 -66 79h-19v20h316v-20h-19c-53 -2 -68 -21 -66 -79
v-205h257v205c2 58 -13 77 -66 79h-19v20h316v-20h-19c-53 -2 -68 -21 -66 -79v-467c-2 -56 13 -73 66 -76h19v-20h-316v20h19c53 3 68 20 66 76v222h-257z" />
    <glyph glyph-name="Iotatonos" unicode="&#x38a;" horiz-adv-x="522" 
d="M94 466h-42c-5 29 -12 62 -20 99c-4 21 -7 42 -7 55c0 30 21 52 48 52c28 0 48 -22 48 -52c0 -20 -1 -25 -19 -110l-6 -34zM472 20v-20h-316v20h19c53 3 68 20 66 76v467c2 58 -13 77 -66 79h-19v20h316v-20h-19c-53 -3 -68 -21 -66 -79v-467c-2 -56 13 -73 66 -76h19z
" />
    <glyph glyph-name="Omicrontonos" unicode="&#x38c;" horiz-adv-x="778" 
d="M68 466h-42c-5 29 -12 62 -20 99c-4 21 -7 42 -7 55c0 30 21 52 48 52c28 0 48 -22 48 -52c0 -20 -1 -25 -19 -110l-6 -34zM426 672c103 0 182 -31 246 -96c62 -64 91 -142 91 -247c0 -201 -136 -339 -332 -339c-202 0 -336 136 -336 341c0 113 37 199 111 262
c65 55 131 79 220 79zM429 637c-40 0 -73 -17 -101 -51c-47 -57 -67 -134 -67 -258c0 -105 14 -176 46 -230c26 -46 72 -74 119 -74c45 0 92 27 117 68c36 57 54 141 54 245c0 192 -60 300 -168 300z" />
    <glyph glyph-name="Upsilontonos" unicode="&#x38e;" horiz-adv-x="865" 
d="M126 466h-42c-5 29 -12 62 -20 99c-4 21 -7 42 -7 55c0 30 21 52 48 52c28 0 48 -22 48 -52c0 -20 -1 -25 -19 -110l-6 -34zM561 312l111 223c17 34 22 49 22 66c0 25 -20 41 -52 41h-20v20h190v-20c-46 -6 -57 -17 -94 -92l-135 -274v-180c-2 -56 13 -73 66 -76h29v-20
h-336v20h29c53 3 68 20 66 76v158l-156 302c-29 61 -50 82 -84 86h-11v20h288v-20h-15c-28 0 -44 -9 -44 -25c0 -7 2 -12 12 -34z" />
    <glyph glyph-name="Omegatonos" unicode="&#x38f;" horiz-adv-x="801" 
d="M64 466h-42c-5 29 -12 62 -20 99c-4 21 -7 42 -7 55c0 30 21 52 48 52c28 0 48 -22 48 -52c0 -20 -1 -25 -19 -110l-6 -34zM752 0h-272v106c43 27 62 45 82 75c28 45 46 121 46 199c0 165 -64 257 -179 257c-116 0 -180 -91 -180 -257c0 -91 22 -170 59 -217
c17 -21 34 -35 69 -57v-106h-272l-32 187h26c15 -61 36 -79 94 -79h136c-79 27 -115 48 -156 90c-51 51 -79 117 -79 187c0 75 33 151 88 203c58 56 141 84 243 84c109 0 191 -27 250 -84c56 -53 88 -128 88 -202c0 -65 -25 -128 -70 -178c-43 -47 -82 -71 -165 -100h136
c58 0 79 18 94 79h26z" />
    <glyph glyph-name="iotadieresistonos" unicode="&#x390;" horiz-adv-x="310" 
d="M209 457v-307c0 -80 4 -91 30 -91c7 0 16 2 31 8l7 -22l-125 -50c-9 -3 -16 -5 -21 -5c-9 0 -20 9 -30 26c-15 24 -17 36 -17 88v218c0 44 -11 64 -34 64c-4 0 -9 -1 -17 -4l-5 20zM40 603c28 0 51 -24 51 -52c0 -29 -23 -52 -52 -52s-52 23 -52 52s24 52 53 52zM248 603
c28 0 51 -24 51 -52c0 -29 -23 -52 -52 -52s-52 23 -52 52s24 52 53 52zM125 562l-1 7c-2 9 -4 18 -5 27c-15 63 -16 68 -16 84c0 24 18 43 40 43c24 0 41 -19 41 -44c0 -15 0 -15 -16 -83c-1 -5 -3 -15 -7 -34h-36z" />
    <glyph glyph-name="Alpha" unicode="&#x391;" horiz-adv-x="722" 
d="M411 213h-185l-38 -106c-8 -22 -11 -35 -11 -44c0 -24 27 -43 62 -43h22v-20h-209v20c39 2 69 35 90 100l205 548h28l257 -604c16 -35 23 -42 47 -44h9v-20h-302v20h25c43 0 61 11 61 37c0 9 -4 21 -12 42zM313 451l-73 -202h157z" />
    <glyph glyph-name="Beta" unicode="&#x392;" horiz-adv-x="667" 
d="M46 662h291c72 0 117 -9 160 -32c58 -31 90 -80 90 -135c0 -42 -20 -85 -53 -110c-24 -20 -47 -29 -99 -40c69 -19 88 -27 113 -47c40 -32 60 -72 60 -123c0 -53 -21 -97 -57 -125c-41 -31 -103 -50 -161 -50h-344v20h19c53 3 68 20 66 76v466c2 59 -14 77 -66 80h-19v20
zM277 321v-230c0 -39 13 -53 51 -53c71 0 114 53 114 141c0 95 -46 142 -141 142h-24zM277 623v-262c10 -1 20 -1 24 -1c83 0 130 48 130 133c0 84 -49 130 -136 130h-18z" />
    <glyph glyph-name="Gamma" unicode="&#x393;" horiz-adv-x="636" 
d="M12 662h560l39 -222h-26c-34 76 -56 112 -87 140c-37 33 -89 50 -157 50c-69 0 -93 -22 -93 -86v-413c-2 -87 10 -103 80 -109v-22h-316v22c69 6 81 22 79 109v400c2 87 -10 103 -79 109v22z" />
    <glyph glyph-name="uni0394" unicode="&#x394;" horiz-adv-x="627" 
d="M317 668l303 -668h-600l269 668h28zM418 102l-159 371l-128 -315c-6 -16 -10 -29 -10 -38c0 -14 12 -18 50 -18h247z" />
    <glyph glyph-name="Epsilon" unicode="&#x395;" horiz-adv-x="667" 
d="M284 319v-211c-2 -53 13 -71 58 -71h38c117 -1 188 55 211 166h25l-32 -203h-531v20h18c54 3 69 20 67 76v469c2 57 -13 75 -67 77h-18v20h519v-182h-22c-10 94 -62 144 -152 148h-114v-271h27c60 2 93 49 102 143h23v-323h-23v8c0 25 -4 43 -13 65c-20 49 -46 69 -89 69
h-27z" />
    <glyph glyph-name="Zeta" unicode="&#x396;" horiz-adv-x="667" 
d="M227 40h162c126 -3 203 63 223 190h25l-25 -230h-575l372 624h-119c-104 1 -164 -50 -174 -150h-25l14 188h496z" />
    <glyph glyph-name="Eta" unicode="&#x397;" horiz-adv-x="778" 
d="M262 318v-222c-2 -56 13 -73 66 -76h19v-20h-316v20h19c53 3 68 20 66 76v467c2 58 -13 77 -66 79h-19v20h316v-20h-19c-53 -2 -68 -20 -66 -79v-205h257v205c2 58 -14 77 -66 79h-19v20h315v-20h-18c-53 -2 -68 -21 -66 -79v-467c-2 -56 13 -73 66 -76h18v-20h-315v20
h19c53 3 68 20 66 76v222h-257z" />
    <glyph glyph-name="Theta" unicode="&#x398;" horiz-adv-x="778" 
d="M285 453h30c5 -48 26 -67 74 -67c47 0 68 19 73 67h30v-233h-30c0 46 -25 69 -73 69c-49 0 -73 -23 -74 -69h-30v233zM390 678c86 0 174 -33 233 -89c66 -60 103 -154 103 -257s-37 -196 -103 -257c-58 -55 -148 -89 -232 -89c-92 0 -189 38 -248 98
c-60 61 -93 149 -93 253c0 93 36 187 93 243c62 61 157 98 247 98zM388 645c-51 0 -93 -28 -121 -79c-33 -60 -51 -142 -51 -230c0 -193 67 -317 172 -317c106 0 172 120 172 313s-66 313 -172 313z" />
    <glyph glyph-name="Iota" unicode="&#x399;" horiz-adv-x="389" 
d="M350 20v-20h-316v20h19c53 3 68 20 66 76v467c2 58 -13 76 -66 79h-19v20h316v-20h-19c-53 -3 -68 -21 -66 -79v-467c-2 -56 13 -73 66 -76h19z" />
    <glyph glyph-name="Kappa" unicode="&#x39a;" horiz-adv-x="778" 
d="M314 295v-199c-2 -56 13 -73 66 -76h8v-20h-305v20h19c53 3 68 20 66 76v470c2 56 -13 73 -66 76h-19v20h305v-20h-8c-53 -3 -68 -20 -66 -76v-211l168 205c19 23 26 36 26 50c0 20 -16 32 -43 32h-22v20h235v-20c-72 -1 -106 -23 -184 -120l-65 -81l209 -353
c35 -61 42 -67 76 -68v-20h-295v20h24c29 0 45 8 45 23c0 7 -6 21 -20 45l-134 234z" />
    <glyph glyph-name="Lambda" unicode="&#x39b;" horiz-adv-x="717" 
d="M303 451l-125 -345c-7 -20 -11 -34 -11 -43c0 -24 27 -43 62 -43h22v-20h-209v20c39 2 69 35 90 100l205 548h28l257 -604c16 -36 23 -42 47 -44h9v-20h-302v20h25c43 0 61 11 61 37c0 10 -3 18 -12 42z" />
    <glyph glyph-name="Mu" unicode="&#x39c;" horiz-adv-x="944" 
d="M472 204l199 458h239v-20h-18c-53 -2 -68 -21 -66 -79v-467c-2 -56 13 -73 66 -76h18v-20h-322v20h26c53 3 68 20 66 76v497l-257 -593h-17l-253 618v-522c-3 -58 14 -75 72 -76h13v-20h-203v20h19c53 3 68 20 66 76v467c2 58 -13 76 -66 79h-19v20h253z" />
    <glyph glyph-name="Nu" unicode="&#x39d;" horiz-adv-x="722" 
d="M141 545v-449c-2 -56 13 -73 66 -76h18v-20h-205v20h19c53 3 68 20 66 76v484l-22 27c-25 28 -37 35 -63 35v20h207l349 -426v327c2 59 -13 76 -66 79h-19v20h201v-20h-17c-51 -3 -65 -20 -63 -79v-563h-21z" />
    <glyph glyph-name="Xi" unicode="&#x39e;" horiz-adv-x="677" 
d="M588 0h-498l-33 203h25c23 -72 94 -108 212 -107h90c117 -1 189 35 211 107h26zM589 662v-182h-22c-9 56 -62 86 -152 88h-151c-90 -2 -142 -32 -152 -88h-22v182h499zM489 467h24v-258h-24c2 49 -42 85 -101 83h-101c-59 2 -103 -34 -101 -83h-24v258h24
c8 -56 41 -83 101 -84h101c60 1 93 28 101 84z" />
    <glyph glyph-name="Omicron" unicode="&#x39f;" horiz-adv-x="778" 
d="M387 672c104 0 182 -31 246 -96c62 -64 91 -143 91 -249c0 -199 -136 -337 -332 -337c-201 0 -335 136 -335 341c0 112 37 199 111 262c65 55 131 79 219 79zM391 637c-40 0 -74 -17 -101 -51c-47 -57 -67 -135 -67 -259c0 -105 14 -175 45 -229c27 -46 72 -74 119 -74
c107 0 171 117 171 313c0 192 -60 300 -167 300z" />
    <glyph glyph-name="Pi" unicode="&#x3a0;" horiz-adv-x="778" 
d="M747 662v-20h-18c-53 -2 -68 -21 -66 -79v-467c-2 -56 13 -73 66 -76h18v-20h-315v20h19c53 3 68 20 66 76v447c2 59 -13 77 -66 79h-125c-53 -2 -68 -20 -66 -79v-447c-2 -56 13 -73 66 -76h19v-20h-316v20h19c53 3 68 20 66 76v467c2 58 -13 77 -66 79h-19v20h718z" />
    <glyph glyph-name="Rho" unicode="&#x3a1;" horiz-adv-x="611" 
d="M259 302v-206c-2 -56 13 -73 66 -76h32v-20h-329v20h18c53 3 68 20 67 76v470c2 56 -13 73 -65 76h-20v20h329c66 0 100 -7 140 -27c59 -31 92 -85 92 -152c0 -64 -31 -117 -84 -147c-47 -25 -100 -35 -187 -35c-16 0 -35 0 -59 1zM259 623v-281c16 -1 32 -1 43 -1
c89 0 127 42 127 141c0 60 -16 106 -43 124c-16 12 -42 18 -74 18c-16 0 -33 0 -53 -1z" />
    <glyph glyph-name="Sigma" unicode="&#x3a3;" horiz-adv-x="654" 
d="M560 662v-199h-30c-9 114 -73 163 -208 159h-109l144 -288l-138 -282h112c126 -2 194 44 247 168h30l-48 -220h-526l166 311l-166 351h526z" />
    <glyph glyph-name="Tau" unicode="&#x3a4;" horiz-adv-x="667" 
d="M412 626v-530c-2 -56 13 -73 66 -76h29v-20h-349v20h29c53 3 68 20 66 76v530h-43c-81 3 -129 -47 -134 -139h-29v175h571v-175h-29c-5 92 -53 142 -134 139h-43z" />
    <glyph glyph-name="Upsilon" unicode="&#x3a5;" horiz-adv-x="722" 
d="M412 312l111 223c16 33 22 50 22 66c0 25 -21 41 -53 41h-20v20h191v-20c-46 -6 -57 -17 -95 -92l-134 -274v-180c-3 -56 12 -73 65 -76h30v-20h-337v20h29c53 3 68 20 67 76v158l-156 302c-29 61 -50 82 -84 86h-12v20h289v-20h-16c-27 0 -43 -10 -43 -25
c0 -7 1 -12 12 -34z" />
    <glyph glyph-name="Phi" unicode="&#x3a6;" horiz-adv-x="829" 
d="M343 69h-11c-62 0 -120 11 -165 33c-82 39 -137 130 -137 229s53 186 137 228c40 20 67 27 134 31l42 3v11c2 49 -15 67 -65 69h-24v20h321v-20h-24c-50 -2 -67 -20 -65 -69v-11l18 -1c72 -5 89 -7 119 -17c107 -34 176 -130 176 -244c0 -99 -55 -190 -137 -229
c-44 -21 -103 -33 -164 -33h-12v-10c-2 -50 15 -68 65 -69h24v-20h-321v20h24c50 1 67 19 65 69v10zM486 556v-449c102 6 157 85 157 224c0 140 -55 219 -157 225zM343 107v449c-102 -6 -157 -85 -157 -225c0 -139 55 -218 157 -224z" />
    <glyph glyph-name="Chi" unicode="&#x3a7;" horiz-adv-x="722" 
d="M332 259l-103 -149c-15 -22 -21 -37 -21 -50c0 -25 23 -40 60 -40h19v-20h-229v20h10c40 0 78 31 132 109l113 163l-119 215c-58 104 -86 132 -136 135v20h301v-20h-17c-25 0 -42 -12 -42 -29c0 -9 4 -19 19 -48l80 -146l84 119c16 23 24 42 24 59c0 25 -24 45 -55 45
h-12v20h225v-20c-62 -7 -86 -25 -151 -117l-95 -138l143 -253c44 -79 77 -116 103 -114h12v-20h-293v20h15c27 0 43 11 43 27c0 9 -2 16 -11 31z" />
    <glyph glyph-name="Psi" unicode="&#x3a8;" horiz-adv-x="780" 
d="M457 220v-124c-3 -56 13 -73 66 -76h18v-20h-302v20h19c52 3 68 20 66 76v124c-148 2 -246 105 -248 259l-2 67c-2 47 -2 51 -6 64c-4 10 -14 18 -25 18c-7 0 -12 -1 -26 -7l-7 19c35 22 56 29 89 29c51 0 94 -29 107 -72c5 -20 9 -50 10 -85l3 -96
c0 -88 44 -155 105 -159v306c2 58 -14 77 -66 79h-9v20h282v-20h-8c-53 -2 -69 -21 -66 -79v-306c63 5 105 75 104 170l4 121c2 75 46 121 115 121c31 0 52 -7 90 -29l-8 -19c-11 5 -17 7 -24 7c-21 0 -31 -20 -32 -65l-3 -77c1 -159 -95 -263 -246 -266z" />
    <glyph glyph-name="uni03A9" unicode="&#x3a9;" horiz-adv-x="801" 
d="M535 108l-6 -13c31 4 49 6 80 6h42c53 1 63 11 75 71h61l-37 -172h-312v98c53 19 73 34 95 71c29 46 47 131 47 215c0 105 -21 172 -68 220c-27 27 -68 43 -111 43s-85 -16 -112 -43c-47 -47 -68 -115 -68 -220c0 -98 23 -188 60 -234c20 -25 38 -36 82 -52v-98h-312
l-37 172h61c12 -61 22 -70 75 -71h42c31 0 50 -2 80 -6l-6 13c-59 8 -90 19 -121 43c-55 42 -89 124 -89 215c0 190 136 314 345 314c208 0 344 -124 344 -314c0 -104 -42 -191 -110 -229c-27 -15 -53 -23 -100 -29z" />
    <glyph glyph-name="Iotadieresis" unicode="&#x3aa;" horiz-adv-x="389" 
d="M356 20v-20h-316v20h19c53 3 68 20 66 76v467c2 58 -13 76 -66 79h-19v20h316v-20h-19c-53 -3 -68 -21 -66 -79v-467c-2 -56 13 -73 66 -76h19zM97 859c37 0 68 -32 68 -70s-31 -69 -70 -69c-38 0 -69 31 -69 70c0 38 31 69 71 69zM302 859c37 0 68 -32 68 -70
s-31 -69 -70 -69c-38 0 -69 31 -69 70c0 38 31 69 71 69z" />
    <glyph glyph-name="Upsilondieresis" unicode="&#x3ab;" horiz-adv-x="722" 
d="M431 312l111 223c16 33 22 50 22 66c0 25 -21 41 -53 41h-20v20h191v-20c-46 -6 -57 -17 -95 -92l-134 -274v-180c-3 -56 12 -73 65 -76h30v-20h-337v20h29c53 3 68 20 67 76v158l-156 302c-29 61 -50 82 -84 86h-12v20h289v-20h-16c-27 0 -43 -10 -43 -25
c0 -7 1 -12 12 -34zM291 859c37 0 69 -32 69 -70s-32 -69 -70 -69s-69 31 -69 70c0 38 31 69 70 69zM510 859c37 0 69 -32 69 -70s-32 -69 -70 -69s-69 31 -69 70c0 38 31 69 70 69z" />
    <glyph glyph-name="alphatonos" unicode="&#x3ac;" horiz-adv-x="558" 
d="M297 529h-37c-3 13 -3 15 -5 24l-2 12l-11 43c-4 19 -6 33 -6 44c0 26 18 46 42 46c25 0 43 -20 43 -46c0 -16 -1 -20 -16 -87l-6 -28zM543 451l-104 -283c18 -73 50 -110 92 -110c8 0 14 1 26 5l11 -31l-97 -40c-7 -3 -13 -5 -16 -5c-8 0 -19 10 -30 25
c-16 21 -23 40 -32 80c-41 -69 -105 -106 -184 -106c-114 0 -189 87 -189 221c0 148 94 256 222 256c66 0 98 -22 136 -93l26 81h139zM329 186l18 74c-33 116 -59 157 -99 157c-54 0 -86 -83 -86 -222c0 -111 20 -163 64 -163c17 0 39 12 50 29c18 26 45 89 53 125z" />
    <glyph glyph-name="epsilontonos" unicode="&#x3ad;" horiz-adv-x="427" 
d="M369 151l36 -7c-22 -102 -87 -154 -191 -154c-101 0 -165 50 -165 128c0 53 27 88 90 119c-53 29 -76 60 -76 104c0 70 70 116 179 116c48 0 82 -6 137 -24l-19 -91c-37 22 -66 30 -107 30c-46 0 -78 -26 -78 -63c0 -17 5 -32 18 -53c34 14 58 20 86 20
c34 0 57 -19 57 -47c0 -30 -27 -52 -66 -52c-28 0 -54 9 -84 28c-8 -21 -11 -37 -11 -58c0 -64 35 -108 87 -108c53 0 91 40 107 112zM228 529l-2 8c-2 9 -4 18 -5 28c-16 65 -17 71 -17 88c0 25 18 45 42 45c25 0 43 -20 43 -45c0 -16 -1 -19 -17 -88c0 -1 -2 -14 -7 -36
h-37z" />
    <glyph glyph-name="etatonos" unicode="&#x3ae;" horiz-adv-x="568" 
d="M237 298v-298h-125v322c0 44 -11 64 -35 64c-3 0 -8 -1 -16 -4l-5 20l181 55v-99c36 70 72 99 120 99c62 0 109 -53 109 -124v-508h-125v499c0 48 -10 68 -34 68s-45 -28 -70 -94zM302 529h-37c-3 14 -3 16 -5 24c-1 6 -3 16 -7 29l-6 26c-4 18 -6 33 -6 44
c0 26 18 46 42 46c25 0 43 -20 43 -46c0 -16 -1 -18 -17 -87c0 -1 -3 -14 -7 -36z" />
    <glyph glyph-name="iotatonos" unicode="&#x3af;" horiz-adv-x="310" 
d="M209 457v-307c0 -80 3 -91 30 -91c7 0 16 3 30 8l7 -22l-125 -50c-8 -3 -15 -5 -20 -5c-10 0 -21 9 -31 26c-14 24 -16 36 -16 88v218c0 44 -11 64 -35 64c-3 0 -8 -1 -16 -4l-5 20zM136 529l-1 8c-2 9 -4 18 -6 28c-15 66 -16 71 -16 88c0 25 18 45 42 45s43 -20 43 -46
c0 -16 -1 -19 -17 -87c0 -2 -3 -13 -7 -36h-38z" />
    <glyph glyph-name="upsilondieresistonos" unicode="&#x3b0;" horiz-adv-x="519" 
d="M63 389l-6 20l112 45c4 2 8 3 15 3c33 0 61 -39 61 -84v-196c0 -77 18 -110 62 -110c60 0 101 69 101 167c0 38 -7 64 -20 78c-8 8 -11 10 -40 19c-33 12 -52 35 -52 66c0 36 24 60 61 60c24 0 43 -10 58 -30c22 -29 36 -97 36 -169c0 -161 -77 -268 -193 -268
c-66 0 -115 33 -130 90c-6 22 -9 46 -9 76v121c-1 97 -1 98 -10 108c-4 5 -11 8 -19 8c-6 0 -17 -1 -27 -4zM164 603c28 0 51 -24 51 -52c0 -29 -23 -52 -52 -52s-52 23 -52 52s23 52 53 52zM380 603c28 0 51 -24 51 -52s-24 -52 -52 -52c-29 0 -52 23 -52 52s23 52 53 52z
M253 562l-1 7c-2 9 -4 18 -5 27c-15 63 -16 68 -16 84c0 24 17 43 40 43s40 -19 40 -43c0 -16 -1 -20 -15 -84c-2 -8 -4 -16 -7 -34h-36z" />
    <glyph glyph-name="alpha" unicode="&#x3b1;" horiz-adv-x="558" 
d="M543 451l-104 -283c18 -73 50 -110 92 -110c8 0 14 1 26 5l11 -31l-97 -40c-7 -3 -13 -5 -16 -5c-8 0 -19 10 -30 25c-16 21 -23 40 -32 80c-41 -69 -105 -106 -184 -106c-114 0 -189 87 -189 221c0 148 94 256 222 256c66 0 98 -22 136 -93l26 81h139zM329 186l18 74
c-33 116 -59 157 -99 157c-54 0 -86 -83 -86 -222c0 -111 20 -163 64 -163c17 0 39 12 50 29c18 26 45 89 53 125z" />
    <glyph glyph-name="beta" unicode="&#x3b2;" horiz-adv-x="527" 
d="M203 38v-217h-127v614c0 66 10 108 36 146c38 57 107 91 185 91c92 0 153 -47 153 -118c0 -55 -27 -97 -84 -132c28 -13 40 -21 52 -30c43 -36 68 -98 68 -168c0 -127 -89 -234 -194 -234c-34 0 -60 14 -89 48zM203 449v-364c21 -32 42 -47 65 -47c21 0 42 17 53 42
c14 32 19 66 19 130c0 97 -7 146 -26 182c-21 -17 -35 -23 -54 -23c-22 0 -37 16 -37 39c0 24 20 41 49 41c13 0 23 -3 43 -12c9 32 13 67 13 104c0 54 -24 92 -57 92c-47 0 -68 -58 -68 -184z" />
    <glyph glyph-name="gamma" unicode="&#x3b3;" horiz-adv-x="468" 
d="M19 402l119 53c4 1 7 2 9 2c28 -2 66 -60 93 -141c27 -78 46 -152 55 -217c3 7 6 13 7 15c2 4 8 16 17 33c33 63 55 120 55 142c0 17 0 17 -30 58c-11 15 -18 33 -18 47c0 33 30 63 62 63c35 0 62 -32 62 -76c0 -46 -16 -87 -81 -210c-41 -78 -50 -98 -64 -134
c11 -68 13 -93 13 -127c0 -57 -26 -92 -69 -92c-45 0 -72 32 -72 86c0 40 8 68 35 120c-16 77 -51 186 -80 253c-32 75 -61 114 -83 114c-7 0 -12 -2 -23 -7z" />
    <glyph glyph-name="delta" unicode="&#x3b4;" horiz-adv-x="519" 
d="M434 598v-63c-126 50 -177 64 -228 64c-24 0 -38 -7 -38 -19c0 -14 8 -21 70 -57c109 -65 130 -79 161 -106c51 -47 79 -111 79 -186c0 -141 -93 -244 -221 -244c-130 0 -218 99 -218 245c0 66 18 118 56 161c33 36 62 52 120 66c-64 39 -71 43 -87 56
c-25 20 -36 39 -36 59c0 42 41 64 117 64c67 0 130 -11 225 -40zM257 433c-53 0 -79 -71 -79 -213c0 -131 29 -203 81 -203c51 0 80 72 80 202c0 145 -26 214 -82 214z" />
    <glyph glyph-name="epsilon" unicode="&#x3b5;" horiz-adv-x="427" 
d="M369 151l36 -7c-22 -102 -87 -154 -191 -154c-101 0 -165 50 -165 128c0 53 27 88 90 119c-53 29 -76 60 -76 104c0 70 70 116 179 116c48 0 82 -6 137 -24l-19 -91c-37 22 -66 30 -107 30c-46 0 -78 -26 -78 -63c0 -17 5 -32 18 -53c34 14 58 20 86 20
c34 0 57 -19 57 -47c0 -30 -27 -52 -66 -52c-28 0 -54 9 -84 28c-8 -21 -11 -37 -11 -58c0 -64 35 -108 87 -108c53 0 91 40 107 112z" />
    <glyph glyph-name="zeta" unicode="&#x3b6;" horiz-adv-x="413" 
d="M123 694l23 -13c-12 -12 -16 -20 -16 -32c0 -26 21 -53 68 -87c53 56 96 81 141 81c36 0 60 -23 60 -56c0 -48 -45 -78 -116 -78c-22 0 -37 2 -63 9c-49 -108 -70 -196 -70 -296c0 -82 29 -122 88 -122l29 1c12 1 26 2 32 2c67 0 103 -40 103 -114
c0 -95 -78 -171 -174 -171c-52 0 -84 24 -84 62c0 33 26 56 62 56c19 0 27 -3 60 -23c13 -7 29 -12 43 -12c28 0 51 25 51 57c0 26 -17 41 -47 41c-3 0 -16 -1 -27 -2c-25 -3 -53 -5 -73 -5c-59 0 -102 16 -128 47c-31 36 -48 95 -48 164c0 68 17 137 50 201
c20 41 41 71 88 133c-72 35 -115 71 -115 96c0 4 2 8 7 12z" />
    <glyph glyph-name="eta" unicode="&#x3b7;" horiz-adv-x="568" 
d="M237 298v-298h-125v322c0 44 -11 64 -35 64c-3 0 -8 -1 -16 -4l-5 20l181 55v-99c36 70 72 99 120 99c62 0 109 -53 109 -124v-508h-125v499c0 48 -10 68 -34 68s-45 -28 -70 -94z" />
    <glyph glyph-name="theta" unicode="&#x3b8;" horiz-adv-x="522" 
d="M268 658c43 0 84 -16 112 -44c57 -57 80 -142 80 -291c0 -143 -29 -233 -93 -293c-27 -25 -67 -40 -108 -40s-82 14 -110 39c-60 53 -85 138 -85 291c0 93 14 179 35 223c35 72 98 115 169 115zM184 375h156c0 86 -5 138 -14 176c-11 46 -36 73 -68 73
c-22 0 -46 -21 -54 -46c-13 -38 -19 -100 -20 -203zM340 333h-157c1 -154 4 -203 15 -241c12 -45 35 -68 66 -68c37 0 58 29 68 94c4 32 7 99 8 215z" />
    <glyph glyph-name="iota" unicode="&#x3b9;" horiz-adv-x="310" 
d="M209 457v-307c0 -80 3 -91 30 -91c7 0 16 3 30 8l7 -22l-125 -50c-8 -3 -15 -5 -20 -5c-10 0 -21 9 -31 26c-14 24 -16 36 -16 88v218c0 44 -11 64 -35 64c-3 0 -8 -1 -16 -4l-5 20z" />
    <glyph glyph-name="kappa" unicode="&#x3ba;" horiz-adv-x="555" 
d="M309 298l100 -150c13 -20 25 -39 37 -57c14 -23 26 -33 40 -33c8 0 14 2 26 9l9 -18l-113 -55c-7 -3 -14 -5 -20 -5c-11 0 -18 4 -26 16l-137 211v-216h-125v322c0 44 -11 64 -35 64c-3 0 -8 -1 -16 -4l-5 20l181 55v-225c20 36 52 87 86 136c42 61 85 89 135 89
c41 0 64 -20 64 -56c0 -33 -24 -61 -53 -61c-24 0 -32 5 -62 36c-3 4 -9 6 -13 6c-16 0 -46 -35 -73 -84z" />
    <glyph glyph-name="lambda" unicode="&#x3bb;" horiz-adv-x="491" 
d="M32 0l194 424c-30 117 -42 145 -62 145c-11 0 -13 -4 -18 -33c-4 -24 -18 -37 -38 -37c-29 0 -47 26 -47 67c0 52 29 86 72 86c37 0 64 -22 83 -66c17 -36 19 -44 44 -129l76 -262c33 -113 52 -142 90 -142c7 0 15 2 27 6l7 -16l-76 -50c-3 -2 -7 -3 -10 -3
c-9 0 -18 15 -32 53c-20 54 -48 145 -62 205l-109 -248h-139z" />
    <glyph glyph-name="uni03BC" unicode="&#x3bc;" horiz-adv-x="567" 
d="M103 450h125v-304c0 -54 2 -67 12 -81c7 -8 15 -13 24 -13c26 0 48 28 68 88v310h125v-325c0 -43 11 -63 34 -63c4 0 9 1 17 3l5 -20l-181 -55v82c-32 -55 -70 -82 -115 -82c-26 0 -46 9 -67 30c5 -31 15 -65 28 -101c6 -19 10 -36 10 -46c0 -33 -26 -58 -61 -58
c-37 0 -57 23 -57 63c0 12 2 28 8 61c17 100 24 178 25 292v219z" />
    <glyph glyph-name="nu" unicode="&#x3bd;" horiz-adv-x="447" 
d="M200 392l81 -263c49 102 66 145 66 173c0 18 0 18 -32 55c-10 11 -15 25 -15 40c0 32 28 60 60 60c34 0 59 -30 59 -71c0 -30 -9 -60 -34 -112l-132 -280h-48l-96 302c-25 81 -36 99 -58 99c-3 0 -6 -1 -17 -3l-6 19l106 41c11 4 14 5 23 5c22 0 22 0 43 -65z" />
    <glyph glyph-name="xi" unicode="&#x3be;" horiz-adv-x="446" 
d="M148 727l17 -13c-13 -13 -17 -21 -17 -33c0 -22 14 -42 49 -69c56 32 103 47 149 47c45 0 70 -19 70 -52c0 -39 -39 -61 -108 -61c-43 0 -69 6 -102 22c-19 -40 -25 -62 -25 -97c0 -33 7 -55 26 -83c48 35 99 54 144 54c41 0 67 -20 67 -53c0 -44 -41 -74 -98 -74
c-34 0 -66 8 -115 28c-38 -56 -49 -87 -49 -136c0 -65 30 -105 78 -105c7 0 23 1 37 3c15 2 33 4 42 4c68 0 109 -46 109 -121c0 -93 -70 -166 -159 -166c-43 0 -72 22 -72 54c0 31 26 54 62 54c16 0 28 -4 43 -13c23 -15 27 -16 40 -16c26 0 44 21 44 52
c0 36 -17 54 -51 54c-9 0 -20 -1 -46 -5c-23 -4 -48 -6 -62 -6c-102 0 -172 69 -172 171c0 77 32 128 120 192c-51 27 -77 64 -77 109c0 47 27 90 79 123c-60 35 -88 59 -88 75c0 6 4 13 10 17z" />
    <glyph glyph-name="omicron" unicode="&#x3bf;" 
d="M252 457c114 0 200 -99 200 -229c0 -67 -20 -128 -57 -169c-37 -42 -94 -69 -147 -69c-45 0 -98 23 -133 59c-42 43 -66 105 -66 173c0 135 86 235 203 235zM251 419c-50 0 -66 -56 -66 -239c0 -105 18 -152 59 -152c54 0 72 56 72 223c0 63 -3 97 -13 124
c-9 27 -29 44 -52 44z" />
    <glyph glyph-name="pi" unicode="&#x3c0;" horiz-adv-x="548" 
d="M368 356h-159c-1 -20 -1 -33 -2 -39l-2 -50c-4 -99 -17 -188 -35 -228c-15 -34 -39 -51 -73 -51c-39 0 -65 22 -65 54c0 24 7 38 28 55l13 10c35 25 38 33 57 117c8 41 12 76 14 131c-54 -4 -86 -24 -121 -73l-47 15l62 116c17 30 30 35 101 38h401v-100h-103
c-17 -23 -21 -41 -22 -94v-78c0 -67 2 -85 9 -99c5 -12 16 -19 29 -19c11 0 21 3 48 14v-38l-134 -49c-5 -1 -8 -2 -12 -2c-21 0 -45 19 -56 43c-9 22 -13 37 -13 57v141c-5 60 20 100 82 129z" />
    <glyph glyph-name="rho" unicode="&#x3c1;" horiz-adv-x="535" 
d="M203 30v-205h-122v426c0 47 5 79 17 109c25 60 88 97 167 97c78 0 136 -29 175 -87c26 -39 40 -90 40 -143c0 -131 -86 -237 -193 -237c-34 0 -55 10 -84 40zM203 269v-190c24 -36 42 -50 65 -50c49 0 78 70 78 188c0 139 -25 202 -82 202c-44 0 -61 -43 -61 -150z" />
    <glyph glyph-name="uni03C2" unicode="&#x3c2;" horiz-adv-x="422" 
d="M281 457c66 0 110 -36 110 -90c0 -37 -24 -61 -60 -61c-34 0 -44 10 -64 62c-8 22 -20 31 -39 31c-53 0 -85 -66 -85 -174c0 -95 21 -134 73 -134c11 0 24 1 36 3c16 2 33 3 40 3c53 0 88 -44 88 -111c0 -93 -69 -168 -155 -168c-43 0 -76 26 -76 61c0 31 26 56 60 56
c22 0 29 -3 57 -27c7 -7 16 -10 25 -10c26 0 46 26 46 60c0 28 -15 44 -40 44c-7 0 -21 -1 -37 -4c-16 -2 -33 -3 -50 -3c-54 0 -90 12 -116 39c-35 36 -55 91 -55 151c0 65 22 131 61 181c47 61 107 91 181 91z" />
    <glyph glyph-name="sigma" unicode="&#x3c3;" horiz-adv-x="544" 
d="M269 463h279v-76l-155 32c60 -50 87 -109 87 -189c0 -140 -94 -243 -221 -243c-130 0 -218 99 -218 245c0 140 90 232 228 231zM261 433c-54 0 -81 -70 -81 -211c0 -134 28 -205 81 -205c51 0 80 72 80 203c0 143 -26 213 -80 213z" />
    <glyph glyph-name="tau" unicode="&#x3c4;" horiz-adv-x="461" 
d="M467 451v-100h-151c-17 -24 -21 -41 -22 -94v-78c0 -68 1 -85 8 -99c6 -12 17 -19 29 -19s22 3 49 14v-38l-135 -49c-4 -1 -7 -2 -11 -2c-21 0 -45 18 -56 43c-9 22 -13 37 -13 57v141c5 58 7 67 23 86c18 20 34 31 59 43h-44c-86 1 -120 -14 -162 -74l-48 15l62 116
c17 30 31 35 101 38h311z" />
    <glyph glyph-name="upsilon" unicode="&#x3c5;" horiz-adv-x="519" 
d="M63 389l-6 20l112 45c4 2 8 3 15 3c33 0 61 -39 61 -84v-196c0 -77 18 -110 62 -110c60 0 101 69 101 167c0 38 -7 64 -20 78c-8 8 -11 10 -40 19c-33 12 -52 35 -52 66c0 36 24 60 61 60c24 0 43 -10 58 -30c22 -29 36 -97 36 -169c0 -161 -77 -268 -193 -268
c-66 0 -115 33 -130 90c-6 22 -9 46 -9 76v121c-1 97 -1 98 -10 108c-4 5 -11 8 -19 8c-6 0 -17 -1 -27 -4z" />
    <glyph glyph-name="phi" unicode="&#x3c6;" horiz-adv-x="624" 
d="M357 -190h-100v174c-65 7 -103 23 -142 57c-51 47 -80 114 -80 186c0 79 36 151 98 195c35 25 68 35 122 37v-18c-62 -21 -86 -81 -86 -217c0 -98 18 -163 54 -194c9 -7 17 -11 34 -16v287c0 57 8 92 26 115c21 27 58 43 99 43c49 0 100 -22 141 -62
c45 -44 67 -96 67 -162c0 -140 -98 -246 -233 -251v-174zM357 279v-265c20 5 29 9 39 17c16 12 27 26 33 40c17 40 26 95 26 157c0 60 -8 104 -23 135c-13 25 -31 41 -48 41c-22 0 -27 -23 -27 -125z" />
    <glyph glyph-name="chi" unicode="&#x3c7;" horiz-adv-x="462" 
d="M442 450l-166 -325c57 -181 92 -236 151 -236c10 0 15 1 27 5l8 -22l-85 -50c-4 -2 -8 -4 -11 -4c-20 -1 -76 123 -116 257l-118 -247h-131l193 378c-28 90 -33 105 -46 126c-15 22 -29 34 -43 34c-7 0 -13 -3 -25 -12s-20 -12 -29 -12c-29 0 -52 26 -52 58
c0 35 27 60 66 60c64 0 109 -60 155 -205l91 195h131z" />
    <glyph glyph-name="psi" unicode="&#x3c8;" horiz-adv-x="688" 
d="M414 449l1 -357c42 5 72 15 96 31c37 26 62 79 62 134c0 26 -7 45 -21 62c-11 13 -11 14 -44 28c-25 11 -39 32 -39 57c0 32 21 55 52 55c59 0 95 -65 95 -170c0 -90 -24 -167 -68 -223c-36 -46 -63 -60 -132 -70v-170h-110l1 169c-134 -3 -223 80 -218 205v97
c0 83 -6 101 -30 101c-4 0 -8 -1 -17 -4l-6 21l97 40c7 2 13 4 17 4c26 0 45 -41 45 -98v-136c-5 -92 24 -126 113 -133l1 357h105z" />
    <glyph glyph-name="omega" unicode="&#x3c9;" horiz-adv-x="731" 
d="M189 457l38 -19c-25 -63 -36 -125 -36 -201c0 -115 30 -174 87 -174c32 0 61 21 80 56c-23 48 -36 102 -36 147c0 50 24 82 62 82c35 0 59 -31 59 -79c0 -43 -12 -89 -39 -148c23 -38 50 -55 87 -55c73 0 118 64 118 166c0 44 -7 72 -22 89c-13 13 -14 14 -55 21
c-35 6 -54 27 -54 60c0 32 25 55 59 55c67 0 116 -92 116 -217c0 -147 -64 -250 -156 -250c-52 0 -89 31 -118 101c-42 -72 -83 -101 -142 -101c-92 0 -159 88 -159 211c0 97 41 191 111 256z" />
    <glyph glyph-name="iotadieresis" unicode="&#x3ca;" horiz-adv-x="310" 
d="M209 457v-307c0 -80 4 -91 30 -91c7 0 16 2 31 8l7 -22l-125 -50c-9 -3 -16 -5 -21 -5c-9 0 -20 9 -30 26c-15 24 -17 36 -17 88v218c0 44 -11 64 -34 64c-4 0 -9 -1 -17 -4l-5 20zM77 647c31 0 57 -26 57 -57c0 -32 -26 -58 -57 -58c-32 0 -58 26 -58 58s26 57 58 57z
M234 647c31 0 57 -26 57 -57c0 -32 -26 -58 -57 -58c-32 0 -58 26 -58 58s26 57 58 57z" />
    <glyph glyph-name="upsilondieresis" unicode="&#x3cb;" horiz-adv-x="519" 
d="M185 647c31 0 57 -26 57 -57c0 -32 -26 -58 -57 -58c-32 0 -58 26 -58 58s26 57 58 57zM361 647c31 0 57 -26 57 -57c0 -32 -26 -58 -58 -58c-31 0 -57 26 -57 58s26 57 58 57zM63 389l-6 20l112 45c4 2 8 3 15 3c33 0 61 -39 61 -84v-196c0 -77 18 -110 62 -110
c60 0 101 69 101 167c0 38 -7 64 -20 78c-8 8 -11 10 -40 19c-33 12 -52 35 -52 66c0 36 24 60 61 60c24 0 43 -10 58 -30c22 -29 36 -97 36 -169c0 -161 -77 -268 -193 -268c-66 0 -115 33 -130 90c-6 22 -9 46 -9 76v121c-1 97 -1 98 -10 108c-4 5 -11 8 -19 8
c-6 0 -17 -1 -27 -4z" />
    <glyph glyph-name="omicrontonos" unicode="&#x3cc;" 
d="M252 457c114 0 200 -99 200 -229c0 -67 -20 -128 -57 -169c-37 -42 -94 -69 -147 -69c-45 0 -98 23 -133 59c-42 43 -66 105 -66 173c0 135 86 235 203 235zM251 419c-50 0 -66 -56 -66 -239c0 -105 18 -152 59 -152c54 0 72 56 72 223c0 63 -3 97 -13 124
c-9 27 -29 44 -52 44zM232 529l-2 8c-2 9 -4 18 -5 28c-16 66 -17 71 -17 87c0 26 18 46 43 46c24 0 42 -20 42 -46c0 -16 0 -16 -17 -87c-1 -7 -3 -17 -7 -36h-37z" />
    <glyph glyph-name="upsilontonos" unicode="&#x3cd;" horiz-adv-x="519" 
d="M63 389l-6 20l112 45c4 2 8 3 15 3c33 0 61 -39 61 -84v-196c0 -77 18 -110 62 -110c60 0 101 69 101 167c0 38 -7 64 -20 78c-8 8 -11 10 -40 19c-33 12 -52 35 -52 66c0 36 24 60 61 60c24 0 43 -10 58 -30c22 -29 36 -97 36 -169c0 -161 -77 -268 -193 -268
c-66 0 -115 33 -130 90c-6 22 -9 46 -9 76v121c-1 97 -1 98 -10 108c-4 5 -11 8 -19 8c-6 0 -17 -1 -27 -4zM291 529h-37c-3 13 -3 15 -5 24l-2 12l-11 43c-4 18 -6 33 -6 44c0 26 18 46 42 46c25 0 43 -20 43 -45c0 -17 -1 -20 -17 -88c-2 -12 -4 -24 -7 -36z" />
    <glyph glyph-name="omegatonos" unicode="&#x3ce;" horiz-adv-x="731" 
d="M364 529l-2 8c-2 9 -4 18 -6 28c-15 66 -16 71 -16 88c0 25 18 45 43 45c24 0 42 -20 42 -46c0 -16 0 -17 -17 -87c-1 -7 -3 -17 -7 -36h-37zM189 457l38 -19c-25 -63 -36 -125 -36 -201c0 -115 30 -174 87 -174c32 0 61 21 80 56c-23 48 -36 102 -36 147
c0 50 24 82 62 82c35 0 59 -31 59 -79c0 -43 -12 -89 -39 -148c23 -38 50 -55 87 -55c73 0 118 64 118 166c0 44 -7 72 -22 89c-13 13 -14 14 -55 21c-35 6 -54 27 -54 60c0 32 25 55 59 55c67 0 116 -92 116 -217c0 -147 -64 -250 -156 -250c-52 0 -89 31 -118 101
c-42 -72 -83 -101 -142 -101c-92 0 -159 88 -159 211c0 97 41 191 111 256z" />
    <glyph glyph-name="theta1" unicode="&#x3d1;" horiz-adv-x="599" 
d="M224 214v-56c0 -87 19 -128 61 -128c61 0 83 72 83 275c-86 14 -119 23 -165 43c-76 34 -121 98 -121 172c0 99 78 171 188 171c88 0 163 -48 194 -124c18 -46 25 -80 31 -162h57v-100h-57c-6 -92 -17 -138 -42 -188c-43 -85 -108 -127 -195 -127c-95 0 -154 53 -154 137
v46c0 45 -10 64 -33 64c-4 0 -8 -1 -15 -3l-7 21l72 31c22 9 34 12 47 12c34 0 56 -34 56 -84zM369 414c-4 93 -10 134 -25 171c-18 44 -45 66 -81 66c-47 0 -84 -45 -84 -101c0 -79 50 -115 190 -136z" />
    <glyph glyph-name="phi1" unicode="&#x3d5;" horiz-adv-x="624" 
d="M379 -15l2 -176h-140l3 176c-135 7 -218 97 -218 236c0 142 92 245 222 251c-1 33 -7 75 -17 117c-2 10 -3 19 -3 28c0 44 35 74 85 74c49 0 83 -29 83 -72c0 -17 -1 -23 -13 -81c-4 -18 -6 -39 -8 -66c60 -3 96 -14 133 -41c57 -42 90 -113 90 -194
c0 -88 -39 -168 -104 -213c-34 -23 -66 -34 -115 -39zM244 15l5 429c-51 -19 -85 -105 -85 -211c0 -119 31 -205 80 -218zM375 445l4 -429c50 21 80 99 80 211c0 118 -32 201 -84 218z" />
    <glyph glyph-name="omega1" unicode="&#x3d6;" horiz-adv-x="731" 
d="M68 494l171 7h30c95 0 174 -17 230 -50c74 -43 118 -135 118 -245c0 -51 -19 -108 -52 -155c-30 -43 -62 -61 -106 -61c-52 0 -89 31 -118 101c-42 -72 -83 -101 -142 -101c-92 0 -159 88 -159 211c0 97 40 188 111 256l-116 -6zM366 121c22 -37 50 -55 86 -55
c64 0 109 62 109 149c0 106 -46 178 -140 217c-61 26 -90 30 -191 30c-21 -17 -33 -28 -40 -38c-23 -34 -37 -105 -37 -189c0 -112 30 -172 87 -172c32 0 61 21 80 56c-24 49 -36 101 -36 150c0 46 26 79 62 79s60 -31 60 -79c0 -44 -12 -89 -40 -148z" />
    <glyph glyph-name="uni0400" unicode="&#x400;" horiz-adv-x="667" 
d="M23 638v24h565v-197h-24c-25 130 -73 164 -232 164c-51 0 -64 -9 -64 -46v-228c105 -1 144 35 159 147h25v-332h-25c-12 114 -52 152 -159 152v-237c0 -43 18 -55 81 -55c75 0 128 16 173 52c35 28 55 56 86 122h27l-39 -204h-573v24c70 6 84 18 86 70v474
c-2 52 -20 67 -86 70zM406 723h-55l-139 86c-30 18 -40 32 -40 51c0 25 20 44 46 44c19 0 38 -10 53 -27z" />
    <glyph glyph-name="afii10023" unicode="&#x401;" horiz-adv-x="667" 
d="M284 319v-211c-2 -53 13 -71 58 -71h38c117 -1 188 55 211 166h25l-32 -203h-531v20h18c54 3 69 20 67 76v469c2 57 -13 75 -67 77h-18v20h519v-182h-22c-10 94 -62 144 -152 148h-114v-271h27c60 2 93 49 102 143h23v-323h-23v8c0 25 -4 43 -13 65c-20 49 -46 69 -89 69
h-27zM229 859c39 0 70 -31 70 -70c0 -38 -32 -69 -70 -69s-69 31 -69 70c0 38 31 69 69 69zM448 859c39 0 70 -31 70 -70c0 -38 -32 -69 -70 -69s-69 31 -69 70c0 38 31 69 69 69z" />
    <glyph glyph-name="afii10051" unicode="&#x402;" horiz-adv-x="800" 
d="M386 626v-251c66 25 105 33 157 33c135 0 211 -71 211 -195c0 -135 -84 -226 -207 -226c-73 0 -116 32 -116 87c0 38 23 62 60 62c30 0 51 -21 51 -50c0 -9 -1 -12 -7 -25c-2 -5 -3 -10 -3 -14c0 -10 7 -17 17 -17c30 0 49 63 49 164c0 62 -9 105 -28 131
c-16 22 -37 31 -75 31s-57 -5 -109 -30v-326h-231v20h19c53 3 68 20 66 76v530h-27c-80 3 -128 -47 -133 -139h-29v175h562v-175h-29c-5 92 -54 142 -134 139h-64z" />
    <glyph glyph-name="afii10052" unicode="&#x403;" horiz-adv-x="636" 
d="M582 662v-175h-29c-5 92 -54 142 -134 139h-121v-530c-2 -56 13 -73 66 -76h32v-20h-329v20h19c53 3 68 20 66 76v467c2 58 -14 76 -66 79h-19v20h515zM268 723l134 154c16 18 33 27 52 27c29 0 48 -17 48 -43c0 -22 -7 -31 -40 -52l-139 -86h-55z" />
    <glyph glyph-name="afii10053" unicode="&#x404;" horiz-adv-x="678" 
d="M619 676v-239h-23c-8 57 -21 87 -49 121c-36 45 -92 69 -157 69c-72 0 -123 -29 -157 -89c-27 -47 -37 -92 -40 -181h122c86 1 117 30 121 115h23v-268h-23c-5 86 -36 116 -121 116h-122c2 -106 15 -158 48 -208c35 -52 87 -77 159 -77c98 0 165 41 238 145l35 -23
c-84 -123 -165 -170 -292 -170c-206 0 -351 139 -351 337c0 202 143 351 339 351c48 0 84 -8 127 -27c35 -15 42 -18 54 -18c25 0 40 15 46 46h23z" />
    <glyph glyph-name="afii10054" unicode="&#x405;" horiz-adv-x="556" 
d="M497 671v-208h-23c-9 48 -22 76 -50 106c-40 43 -93 66 -151 66c-75 0 -126 -39 -126 -95c0 -31 18 -62 46 -78c22 -12 22 -12 114 -47c123 -45 123 -45 162 -79c40 -36 62 -88 62 -146c0 -61 -24 -113 -67 -146c-45 -34 -108 -54 -169 -54c-44 0 -88 10 -144 32
c-21 8 -29 10 -39 10c-23 0 -34 -11 -42 -39h-26v238h26c1 -46 19 -85 57 -130c37 -43 103 -70 169 -70c77 0 129 42 129 104c0 36 -20 71 -51 89c-22 13 -22 13 -119 50c-110 42 -111 43 -144 69c-40 32 -64 85 -64 141c0 109 90 188 215 188c49 0 79 -7 161 -38
c6 -3 13 -4 20 -4c20 0 30 13 31 41h23z" />
    <glyph glyph-name="afii10055" unicode="&#x406;" horiz-adv-x="389" 
d="M352 20v-20h-316v20h19c53 3 68 20 66 76v467c2 58 -13 76 -66 79h-19v20h316v-20h-19c-53 -3 -68 -21 -66 -79v-467c-2 -56 13 -73 66 -76h19z" />
    <glyph glyph-name="afii10056" unicode="&#x407;" horiz-adv-x="389" 
d="M354 20v-20h-316v20h19c53 3 68 20 66 76v467c2 58 -13 76 -66 79h-19v20h316v-20h-19c-53 -3 -68 -21 -66 -79v-467c-2 -56 13 -73 66 -76h19zM106 859c39 0 70 -31 70 -70c0 -38 -32 -69 -69 -69c-39 0 -70 31 -70 70c0 38 31 69 69 69zM285 859c39 0 70 -31 70 -70
c0 -38 -32 -69 -69 -69c-39 0 -70 31 -70 70c0 38 31 69 69 69z" />
    <glyph glyph-name="afii10057" unicode="&#x408;" 
d="M146 642v20h331v-20h-16c-53 -3 -68 -21 -66 -80v-371c0 -71 -7 -99 -31 -131c-36 -47 -103 -77 -174 -77c-98 0 -175 56 -175 126c0 44 31 80 69 80c37 0 69 -31 69 -66c0 -20 -3 -27 -23 -54c-2 -2 -3 -7 -3 -11c0 -16 23 -29 52 -29c46 0 66 30 66 98v435
c2 59 -13 77 -66 80h-33z" />
    <glyph glyph-name="afii10058" unicode="&#x409;" horiz-adv-x="1003" 
d="M326 624v-313c0 -107 -9 -168 -31 -224c-27 -65 -74 -100 -133 -100c-60 0 -101 37 -101 92c0 41 23 66 61 66c34 0 58 -22 58 -52v-11c-1 -4 -1 -8 -1 -12c0 -15 9 -24 25 -24c57 0 86 93 86 281v253c0 38 -22 61 -56 62h-27v20h499v-20h-19c-53 -2 -68 -21 -66 -79
v-188c42 3 53 3 75 3c158 0 244 -70 244 -198c0 -117 -80 -180 -226 -180h-324v20h19c53 3 68 20 66 76v528h-149zM621 336v-243c0 -41 13 -55 50 -55c66 0 103 52 103 143c0 102 -41 157 -118 157c-10 0 -19 0 -35 -2z" />
    <glyph glyph-name="afii10059" unicode="&#x40a;" horiz-adv-x="1002" 
d="M510 318h-245v-222c-2 -56 13 -73 66 -76h19v-20h-316v20h19c53 3 68 20 66 76v467c2 58 -13 77 -66 79h-19v20h316v-20h-19c-53 -2 -68 -20 -66 -79v-205h245v205c2 58 -13 76 -66 79h-19v20h316v-20h-19c-53 -2 -68 -21 -66 -79v-188c42 3 52 4 74 4
c158 0 244 -70 244 -199c0 -117 -79 -180 -225 -180h-324v20h19c53 3 68 20 66 76v222zM656 337v-244c0 -41 13 -55 49 -55c66 0 103 52 103 143c0 103 -41 158 -117 158c-11 0 -19 -1 -35 -2z" />
    <glyph glyph-name="afii10060" unicode="&#x40b;" horiz-adv-x="800" 
d="M355 626v-271c66 28 111 38 173 38c122 0 179 -47 179 -147v-150c-2 -56 13 -73 66 -76h13v-20h-302v20h11c53 3 68 20 66 76v126c0 91 -21 120 -86 120c-42 0 -77 -11 -120 -37v-209c-2 -56 13 -73 66 -76h11v-20h-308v20h19c53 3 68 20 66 76v530h-27
c-80 3 -129 -47 -133 -139h-29l5 175h559v-175h-29c-6 92 -54 142 -135 139h-65z" />
    <glyph glyph-name="afii10061" unicode="&#x40c;" horiz-adv-x="725" 
d="M288 295v-199c-2 -56 13 -73 66 -76h8v-20h-305v20h19c53 3 68 20 66 76v470c2 56 -13 73 -66 76h-19v20h305v-20h-8c-53 -3 -68 -20 -66 -76v-211l168 205c19 23 26 36 26 50c0 20 -16 32 -43 32h-22v20h235v-20c-72 -1 -106 -23 -184 -120l-65 -81l209 -353
c35 -61 42 -67 76 -68v-20h-295v20h24c29 0 45 8 45 23c0 7 -6 21 -20 45l-134 234zM341 723l134 154c17 18 33 27 52 27c29 0 48 -17 48 -43c0 -22 -7 -32 -40 -52l-139 -86h-55z" />
    <glyph glyph-name="uni040D" unicode="&#x40d;" horiz-adv-x="778" 
d="M272 159l249 415c2 47 -17 66 -66 68h-19v20h315v-20h-18c-53 -2 -68 -21 -66 -79v-467c-2 -56 13 -73 66 -76h18v-20h-315v20h19c53 3 68 20 66 76v409l-249 -414c-1 -52 14 -68 66 -71h19v-20h-316v20h19c53 3 68 20 66 76v467c2 58 -13 76 -66 79h-19v20h316v-20h-19
c-53 -3 -68 -21 -66 -79v-404zM471 723h-55l-139 86c-29 18 -39 32 -39 51c0 25 20 44 46 44c19 0 37 -10 53 -27z" />
    <glyph glyph-name="afii10062" unicode="&#x40e;" horiz-adv-x="734" 
d="M492 662h206v-20h-11c-34 -2 -44 -10 -69 -64l-220 -468c-24 -51 -35 -68 -52 -85c-26 -25 -60 -38 -99 -38c-65 0 -109 36 -109 89c0 39 27 66 66 66c36 0 58 -23 59 -61c1 -28 8 -37 28 -37c28 0 50 23 73 79l-230 470c-18 36 -38 50 -71 49v20h296v-20h-50
c-15 0 -24 -9 -24 -24c0 -7 4 -20 9 -32l144 -314l137 300c6 12 9 26 9 36c0 22 -14 34 -42 34h-50v20zM495 775l-1 10c-4 14 -5 21 -5 26c0 25 23 44 52 44c33 0 56 -23 56 -56c0 -56 -63 -90 -165 -90c-99 0 -162 35 -162 90c0 33 23 56 55 56c30 0 53 -19 53 -44
c0 -6 -1 -13 -5 -26l-1 -10c0 -16 29 -30 61 -30c33 0 62 14 62 30z" />
    <glyph glyph-name="afii10145" unicode="&#x40f;" horiz-adv-x="778" 
d="M750 0h-231c-65 4 -106 -48 -114 -143h-14h-15c-8 95 -49 146 -114 143h-231v20h19c53 3 68 21 66 79v467c2 56 -13 73 -66 76h-19v20h316v-20h-19c-53 -3 -68 -20 -66 -76v-528h258v528c2 56 -14 73 -66 76h-19v20h315v-20h-18c-53 -3 -68 -20 -66 -76v-467
c-2 -58 13 -77 66 -79h18v-20z" />
    <glyph glyph-name="afii10017" unicode="&#x410;" horiz-adv-x="722" 
d="M411 213h-185l-38 -106c-8 -22 -11 -35 -11 -44c0 -24 27 -43 62 -43h22v-20h-209v20c39 2 69 35 90 100l205 548h28l257 -604c16 -35 23 -42 47 -44h9v-20h-302v20h25c43 0 61 11 61 37c0 9 -4 21 -12 42zM313 451l-73 -202h157z" />
    <glyph glyph-name="afii10018" unicode="&#x411;" horiz-adv-x="661" 
d="M548 662v-175h-29c-5 92 -53 142 -134 139h-111v-251c46 3 53 3 75 3c165 0 256 -70 256 -198c0 -117 -84 -180 -238 -180h-324v20h19c53 3 68 20 66 76v466c2 59 -13 77 -66 80h-19v20h505zM274 336v-243c0 -41 13 -55 51 -55c73 0 115 53 115 143
c0 102 -46 157 -131 157c-10 0 -20 -1 -35 -2z" />
    <glyph glyph-name="afii10019" unicode="&#x412;" horiz-adv-x="667" 
d="M46 662h291c72 0 117 -9 160 -32c58 -31 90 -80 90 -135c0 -42 -20 -85 -53 -110c-24 -20 -47 -29 -99 -40c57 -14 85 -25 113 -47c40 -31 60 -71 60 -123c0 -112 -87 -175 -238 -175h-324v20h19c53 3 68 20 66 76v466c2 59 -14 77 -66 80h-19v20zM277 321v-230
c0 -39 13 -53 51 -53c71 0 114 53 114 141c0 95 -46 142 -141 142h-24zM277 623v-262c10 -1 20 -1 24 -1c83 0 130 48 130 133c0 84 -49 130 -136 130h-18z" />
    <glyph glyph-name="afii10020" unicode="&#x413;" horiz-adv-x="636" 
d="M573 662v-175h-29c-5 92 -54 142 -134 139h-121v-530c-2 -56 13 -73 66 -76h32v-20h-329v20h19c53 3 68 20 66 76v467c2 58 -14 76 -66 79h-19v20h515z" />
    <glyph glyph-name="afii10021" unicode="&#x414;" horiz-adv-x="688" 
d="M649 662v-20h-19c-52 -2 -67 -21 -65 -79v-491c1 -29 9 -34 53 -34h38v-175h-29c-8 92 -55 135 -150 137h-299c-85 5 -128 -36 -144 -137h-29l6 175h31c29 0 46 8 67 31c75 81 113 235 113 456c0 97 -9 117 -54 117h-47v20h528zM419 38v586h-161v-72
c-2 -269 -40 -421 -129 -514h290z" />
    <glyph glyph-name="afii10022" unicode="&#x415;" horiz-adv-x="667" 
d="M281 319v-211c-2 -53 13 -71 58 -71h38c117 -1 188 55 211 166h25l-32 -203h-531v20h18c54 3 69 20 67 76v469c2 57 -13 75 -67 77h-18v20h519v-182h-22c-10 94 -62 144 -152 148h-114v-271h27c60 2 93 49 102 143h23v-323h-23v8c0 25 -4 43 -13 65c-20 49 -46 69 -89 69
h-27z" />
    <glyph glyph-name="afii10024" unicode="&#x416;" horiz-adv-x="989" 
d="M424 295l-20 27l-134 -234c-14 -25 -20 -38 -20 -45c0 -15 16 -23 45 -23h24v-20h-295v20c34 1 40 7 76 68l209 353l-65 81c-79 97 -113 119 -184 120v20h235v-20h-22c-27 0 -43 -12 -43 -32c0 -14 7 -27 26 -50l168 -205v211c2 56 -13 73 -66 76h-8v20h294v-20h-8
c-53 -3 -68 -20 -66 -76v-211l168 205c19 23 26 36 26 50c0 20 -16 32 -43 32h-22v20h235v-20c-71 -1 -106 -23 -184 -120l-65 -81l209 -353c36 -61 42 -67 76 -68v-20h-295v20h24c29 0 45 8 45 23c0 7 -6 20 -20 45l-134 234l-20 -27v-199c-2 -56 13 -73 66 -76h8v-20h-294
v20h8c53 3 68 20 66 76v199z" />
    <glyph glyph-name="afii10025" unicode="&#x417;" horiz-adv-x="528" 
d="M68 676h24c1 -25 9 -35 30 -35c10 0 19 2 38 10c51 21 70 25 106 25c127 0 203 -62 203 -165c0 -86 -45 -141 -131 -159c104 -20 158 -80 158 -177c0 -113 -102 -190 -252 -190c-127 0 -206 69 -220 190l40 6c16 -94 68 -144 149 -144c79 0 125 56 125 152
c0 50 -12 88 -37 112c-21 22 -50 31 -97 31c-12 0 -20 0 -36 -2v40c10 -1 14 -1 24 -1c35 0 56 2 70 8c37 15 57 58 57 120c0 83 -34 128 -98 128c-41 0 -75 -17 -97 -48c-17 -25 -25 -49 -32 -101h-24v200z" />
    <glyph glyph-name="afii10026" unicode="&#x418;" horiz-adv-x="778" 
d="M272 159l249 415c2 47 -17 66 -66 68h-19v20h315v-20h-18c-53 -2 -68 -21 -66 -79v-467c-2 -56 13 -73 66 -76h18v-20h-315v20h19c53 3 68 20 66 76v409l-249 -414c-1 -52 14 -68 66 -71h19v-20h-316v20h19c53 3 68 20 66 76v467c2 58 -13 76 -66 79h-19v20h316v-20h-19
c-53 -3 -68 -21 -66 -79v-404z" />
    <glyph glyph-name="afii10027" unicode="&#x419;" horiz-adv-x="778" 
d="M266 159l249 415c2 47 -17 66 -66 68h-19v20h315v-20h-18c-53 -2 -68 -21 -66 -79v-467c-2 -56 13 -73 66 -76h18v-20h-315v20h19c53 3 68 20 66 76v409l-249 -414c-1 -52 14 -68 66 -71h19v-20h-316v20h19c53 3 68 20 66 76v467c2 58 -13 76 -66 79h-19v20h316v-20h-19
c-53 -3 -68 -21 -66 -79v-404zM287 855c30 0 53 -19 53 -44c0 -6 -1 -10 -6 -26c-1 -3 -1 -7 -1 -10c0 -16 29 -30 61 -30c33 0 62 14 62 30c0 3 -1 6 -2 10c-3 14 -4 21 -4 26c0 25 23 44 52 44c33 0 56 -23 56 -56c0 -56 -63 -90 -165 -90c-99 0 -161 35 -161 90
c0 33 23 56 55 56z" />
    <glyph glyph-name="afii10028" unicode="&#x41a;" horiz-adv-x="725" 
d="M288 295v-199c-2 -56 13 -73 66 -76h8v-20h-305v20h19c53 3 68 20 66 76v470c2 56 -13 73 -66 76h-19v20h305v-20h-8c-53 -3 -68 -20 -66 -76v-211l168 205c19 23 26 36 26 50c0 20 -16 32 -43 32h-22v20h235v-20c-72 -1 -106 -23 -184 -120l-65 -81l209 -353
c35 -61 42 -67 76 -68v-20h-295v20h24c29 0 45 8 45 23c0 7 -6 21 -20 45l-134 234z" />
    <glyph glyph-name="afii10029" unicode="&#x41b;" horiz-adv-x="745" 
d="M375 0v20h19c53 3 68 20 66 76v528h-162v-313c0 -107 -9 -168 -31 -223c-27 -66 -74 -101 -133 -101c-60 0 -101 37 -101 92c0 41 23 66 61 66c34 0 58 -22 58 -52v-11c-1 -4 -1 -8 -1 -12c0 -15 9 -24 25 -24c57 0 86 93 86 281v253c0 38 -22 61 -56 62h-27v20h512v-20
h-19c-53 -2 -68 -21 -66 -79v-467c-2 -56 13 -73 66 -76h19v-20h-316z" />
    <glyph glyph-name="afii10030" unicode="&#x41c;" horiz-adv-x="944" 
d="M472 204l199 458h239v-20h-18c-53 -2 -68 -21 -66 -79v-467c-2 -56 13 -73 66 -76h18v-20h-322v20h26c53 3 68 20 66 76v497l-257 -593h-17l-253 618v-522c-3 -58 14 -75 72 -76h13v-20h-203v20h19c53 3 68 20 66 76v467c2 58 -13 76 -66 79h-19v20h253z" />
    <glyph glyph-name="afii10031" unicode="&#x41d;" horiz-adv-x="778" 
d="M262 318v-222c-2 -56 13 -73 66 -76h19v-20h-316v20h19c53 3 68 20 66 76v467c2 58 -13 77 -66 79h-19v20h316v-20h-19c-53 -2 -68 -20 -66 -79v-205h257v205c2 58 -14 77 -66 79h-19v20h315v-20h-18c-53 -2 -68 -21 -66 -79v-467c-2 -56 13 -73 66 -76h18v-20h-315v20
h19c53 3 68 20 66 76v222h-257z" />
    <glyph glyph-name="afii10032" unicode="&#x41e;" horiz-adv-x="778" 
d="M388 672c104 0 182 -31 246 -96c62 -64 91 -143 91 -249c0 -199 -136 -337 -332 -337c-201 0 -335 136 -335 341c0 112 37 199 111 262c65 55 131 79 219 79zM392 637c-40 0 -74 -17 -101 -51c-47 -57 -67 -135 -67 -259c0 -105 14 -175 45 -229c27 -46 72 -74 119 -74
c107 0 171 117 171 313c0 192 -60 300 -167 300z" />
    <glyph glyph-name="afii10033" unicode="&#x41f;" horiz-adv-x="778" 
d="M748 662v-20h-18c-53 -3 -68 -21 -66 -79v-467c-2 -56 13 -73 66 -76h18v-20h-315v20h19c53 3 68 20 66 76v528h-258v-528c-2 -56 13 -73 66 -76h19v-20h-316v20h19c53 3 68 20 66 76v467c2 58 -13 76 -66 79h-19v20h719z" />
    <glyph glyph-name="afii10034" unicode="&#x420;" horiz-adv-x="611" 
d="M259 302v-206c-2 -56 13 -73 66 -76h32v-20h-329v20h18c53 3 68 20 67 76v470c2 56 -13 73 -65 76h-20v20h329c66 0 100 -7 140 -27c59 -31 92 -85 92 -152c0 -64 -31 -117 -84 -147c-47 -25 -100 -35 -187 -35c-16 0 -35 0 -59 1zM259 623v-281c16 -1 32 -1 43 -1
c89 0 127 42 127 141c0 60 -16 106 -43 124c-16 12 -42 18 -74 18c-16 0 -33 0 -53 -1z" />
    <glyph glyph-name="afii10035" unicode="&#x421;" horiz-adv-x="722" 
d="M629 178l30 -32c-63 -100 -164 -156 -280 -156c-181 0 -310 138 -310 331c0 201 140 351 328 351c50 0 79 -6 141 -31c39 -16 39 -16 47 -16c20 0 29 11 35 47h23v-214h-23c-15 52 -27 75 -52 102c-37 38 -90 61 -143 61c-58 0 -108 -29 -141 -82
c-34 -54 -49 -119 -49 -211c0 -184 65 -287 180 -287c87 0 157 45 214 137z" />
    <glyph glyph-name="afii10036" unicode="&#x422;" horiz-adv-x="667" 
d="M407 626v-530c-2 -56 13 -73 66 -76h29v-20h-336v20h29c53 3 68 20 66 76v530h-43c-81 3 -129 -47 -134 -139h-29v175h558v-175h-29c-5 92 -53 142 -134 139h-43z" />
    <glyph glyph-name="afii10037" unicode="&#x423;" horiz-adv-x="734" 
d="M480 662h206v-20h-11c-34 -2 -44 -10 -69 -64l-220 -468c-24 -51 -35 -68 -52 -85c-26 -25 -60 -38 -99 -38c-65 0 -109 36 -109 89c0 39 27 66 66 66c36 0 58 -23 59 -61c1 -28 8 -37 28 -37c28 0 50 23 73 79l-230 470c-18 36 -38 50 -71 49v20h296v-20h-50
c-15 0 -24 -9 -24 -24c0 -7 4 -20 9 -32l144 -314l137 300c6 12 9 26 9 36c0 22 -14 34 -42 34h-50v20z" />
    <glyph glyph-name="afii10038" unicode="&#x424;" horiz-adv-x="859" 
d="M358 69h-11c-62 0 -120 11 -165 33c-82 39 -137 130 -137 229s53 186 137 228c40 20 67 27 134 31l42 3v11c2 49 -15 67 -65 69h-24v20h321v-20h-24c-50 -2 -67 -20 -65 -69v-11l18 -1c72 -5 89 -7 119 -17c107 -34 176 -130 176 -244c0 -99 -55 -190 -137 -229
c-44 -21 -103 -33 -164 -33h-12v-10c-2 -50 15 -68 65 -69h24v-20h-321v20h24c50 1 67 19 65 69v10zM501 556v-449c102 6 157 85 157 224c0 140 -55 219 -157 225zM358 107v449c-102 -6 -157 -85 -157 -225c0 -139 55 -218 157 -224z" />
    <glyph glyph-name="afii10039" unicode="&#x425;" horiz-adv-x="722" 
d="M332 259l-103 -149c-15 -22 -21 -37 -21 -50c0 -25 23 -40 60 -40h19v-20h-229v20h10c40 0 78 31 132 109l113 163l-119 215c-58 104 -86 132 -136 135v20h301v-20h-17c-25 0 -42 -12 -42 -29c0 -9 4 -19 19 -48l80 -146l84 119c16 23 24 42 24 59c0 25 -24 45 -55 45
h-12v20h225v-20c-62 -7 -86 -25 -151 -117l-95 -138l143 -253c44 -79 77 -116 103 -114h12v-20h-293v20h15c27 0 43 11 43 27c0 9 -2 16 -11 31z" />
    <glyph glyph-name="afii10040" unicode="&#x426;" horiz-adv-x="778" 
d="M25 0v20h19c53 3 68 20 66 76v467c2 58 -13 76 -66 79h-19v20h316v-20h-19c-53 -3 -68 -21 -66 -79v-525h258v525c2 58 -14 77 -66 79h-19v20h316v-20h-19c-53 -3 -68 -21 -66 -79v-449c-2 -56 12 -73 65 -76h27v-175h-29c-8 91 -56 135 -151 137h-547z" />
    <glyph glyph-name="afii10041" unicode="&#x427;" horiz-adv-x="734" 
d="M462 96v209c-75 -27 -122 -37 -180 -37c-114 0 -171 49 -171 148v147c1 58 -14 77 -67 79h-13v20h302v-20h-10c-53 -3 -69 -21 -66 -79v-136c0 -42 3 -60 15 -76c15 -21 40 -31 74 -31c33 0 65 8 116 27v216c1 58 -14 77 -67 79h-11v20h308v-20h-19
c-52 -2 -68 -21 -65 -79v-467c-3 -56 13 -73 65 -76h19v-20h-329v20h32c53 3 68 20 67 76z" />
    <glyph glyph-name="afii10042" unicode="&#x428;" horiz-adv-x="1098" 
d="M26 0v20h19c53 3 68 20 66 76v467c2 58 -13 76 -66 79h-19v20h316v-20h-19c-53 -3 -68 -21 -66 -79v-525h219v525c2 58 -14 76 -66 79h-19v20h316v-20h-19c-53 -3 -68 -21 -66 -79v-525h219v525c2 58 -13 76 -66 79h-19v20h316v-20h-19c-53 -3 -68 -21 -66 -79v-467
c-2 -56 13 -73 66 -76h19v-20h-1046z" />
    <glyph glyph-name="afii10043" unicode="&#x429;" horiz-adv-x="1098" 
d="M26 0v20h19c53 3 68 20 66 76v467c2 58 -13 76 -66 79h-19v20h316v-20h-19c-53 -3 -68 -21 -66 -79v-525h219v525c2 58 -14 76 -66 79h-19v20h316v-20h-19c-53 -3 -68 -21 -66 -79v-525h219v525c2 58 -13 76 -66 79h-19v20h316v-20h-19c-53 -3 -68 -21 -66 -79v-449
c-2 -56 13 -74 66 -76h26v-175h-29c-6 91 -59 139 -152 137h-872z" />
    <glyph glyph-name="afii10044" unicode="&#x42a;" horiz-adv-x="765" 
d="M391 563v-188c45 3 53 3 75 3c166 0 256 -70 256 -198c0 -117 -84 -180 -238 -180h-324v20h19c53 3 68 20 66 76v530h-38c-81 3 -129 -47 -134 -139h-29v175h432v-20h-19c-53 -3 -68 -21 -66 -79zM391 336v-243c0 -41 13 -55 51 -55c72 0 114 53 114 143
c0 102 -45 157 -130 157c-10 0 -20 -1 -35 -2z" />
    <glyph glyph-name="afii10045" unicode="&#x42b;" horiz-adv-x="982" 
d="M287 563v-188c42 3 53 3 75 3c165 0 256 -70 256 -198c0 -117 -84 -180 -238 -180h-324v20h19c53 3 68 20 66 76v466c2 59 -13 77 -66 80h-19v20h316v-20h-19c-53 -3 -68 -21 -66 -79zM287 336v-243c0 -41 12 -55 51 -55c72 0 114 53 114 143c0 102 -46 157 -130 157
c-10 0 -12 0 -35 -2zM936 20v-20h-316v20h19c53 3 68 20 66 76v467c2 58 -13 77 -66 79h-19v20h316v-20h-19c-53 -2 -68 -21 -66 -79v-467c-2 -56 13 -73 66 -76h19z" />
    <glyph glyph-name="afii10046" unicode="&#x42c;" horiz-adv-x="661" 
d="M276 563v-188c42 3 53 3 75 3c165 0 256 -70 256 -198c0 -117 -84 -180 -238 -180h-324v20h19c53 3 68 20 66 76v466c2 59 -13 77 -66 80h-19v20h316v-20h-19c-53 -3 -68 -21 -66 -79zM276 336v-243c0 -41 12 -55 51 -55c72 0 114 53 114 143c0 102 -46 157 -130 157
c-10 0 -12 0 -35 -2z" />
    <glyph glyph-name="afii10047" unicode="&#x42d;" horiz-adv-x="678" 
d="M49 676h22c7 -31 22 -46 47 -46c12 0 20 3 54 18c43 20 79 27 128 27c195 0 338 -149 338 -351c0 -197 -145 -337 -350 -337c-123 0 -200 47 -280 170l35 23c69 -104 132 -145 226 -145c76 0 131 30 166 91c28 48 38 96 39 194h-110c-85 0 -116 -30 -122 -116h-22v268h22
c5 -85 36 -114 122 -115h110c-2 96 -15 145 -48 195c-34 50 -82 75 -149 75c-70 0 -128 -28 -165 -80c-23 -32 -32 -58 -41 -110h-22v239z" />
    <glyph glyph-name="afii10048" unicode="&#x42e;" horiz-adv-x="1126" 
d="M71 0v20h19c53 3 68 20 66 76v467c2 58 -13 76 -66 79h-19v20h316v-20h-19c-53 -3 -68 -21 -66 -79v-190h89c8 78 29 130 71 180c66 80 150 119 258 119c102 0 183 -32 246 -96c62 -64 91 -142 91 -246c0 -202 -135 -340 -333 -340c-201 0 -333 134 -335 340h-87v-234
c-2 -56 13 -73 66 -76h19v-20h-316zM723 637c-40 0 -74 -17 -101 -51c-47 -58 -67 -135 -67 -259c0 -105 14 -175 45 -229c27 -46 72 -74 120 -74c45 0 92 27 117 67c35 58 54 142 54 246c0 192 -61 300 -168 300z" />
    <glyph glyph-name="afii10049" unicode="&#x42f;" horiz-adv-x="722" 
d="M433 300h-49l-170 -300h-189v20c33 4 53 23 89 86l117 204c-96 34 -137 84 -137 169c0 115 87 183 235 183h335v-20h-19c-53 -3 -68 -20 -66 -76v-470c-2 -56 13 -73 66 -76h19v-20h-321v20h24c53 3 68 20 66 76v204zM433 338v280c-18 1 -42 1 -49 1
c-53 0 -83 -8 -104 -29c-22 -23 -34 -58 -34 -105c0 -49 11 -91 30 -113c20 -23 59 -36 106 -36c11 0 32 1 51 2z" />
    <glyph glyph-name="afii10065" unicode="&#x430;" 
d="M457 75l17 -16c-24 -44 -63 -69 -106 -69c-44 0 -73 25 -83 69c-39 -42 -84 -67 -122 -67c-54 0 -97 41 -97 93c0 50 27 89 87 126c38 24 79 44 132 63v70c0 56 -15 76 -55 76c-31 0 -53 -14 -53 -33c0 -8 2 -12 12 -22c13 -13 18 -23 18 -34c0 -29 -31 -54 -68 -54
c-36 0 -67 29 -67 63c0 65 88 121 189 121c49 0 94 -14 118 -35c20 -19 31 -51 31 -92v-231c0 -36 6 -50 21 -50c9 0 11 2 26 22zM285 103v131c-54 -24 -86 -67 -86 -112c0 -29 13 -48 34 -48c16 0 28 7 52 29z" />
    <glyph glyph-name="afii10066" unicode="&#x431;" 
d="M425 679h22c-20 -88 -70 -129 -155 -126h-29c-112 -1 -162 -60 -176 -209c37 79 91 117 164 117c113 0 199 -100 199 -231c0 -68 -20 -129 -57 -171c-36 -41 -94 -69 -144 -69c-48 0 -100 26 -134 67c-43 52 -65 126 -65 215c0 93 23 207 54 273c28 57 69 94 121 107
c20 5 60 8 110 8h32c37 0 50 4 58 19zM249 422c-50 0 -66 -57 -66 -240c0 -105 18 -153 59 -153c53 0 72 57 72 222c0 64 -4 99 -13 127c-8 26 -30 44 -52 44z" />
    <glyph glyph-name="afii10067" unicode="&#x432;" horiz-adv-x="540" 
d="M58 452h205c50 0 81 -6 111 -22c41 -22 64 -55 64 -95c0 -49 -30 -84 -85 -100c73 -20 108 -57 108 -114c0 -77 -64 -121 -175 -121h-228v20c29 1 45 22 43 58v295c2 37 -14 59 -43 59v20zM226 214v-148c0 -24 7 -31 29 -31c43 0 67 32 67 89c0 38 -12 65 -34 79
c-13 8 -26 11 -62 11zM226 417v-166c5 -1 11 -1 13 -1c45 0 70 30 70 84c0 57 -25 81 -83 83z" />
    <glyph glyph-name="afii10068" unicode="&#x433;" horiz-adv-x="454" 
d="M384 452l10 -149h-21c-3 75 -38 111 -110 112h-38v-336c-2 -37 14 -59 44 -59h4v-20h-216v20c29 1 45 22 43 59v294c2 36 -14 58 -43 58v21h327z" />
    <glyph glyph-name="afii10069" unicode="&#x434;" horiz-adv-x="506" 
d="M470 37v-149h-20c-3 78 -40 113 -116 112h-188c-76 1 -113 -35 -116 -112h-20l4 148h15c18 0 29 4 43 18c51 53 77 154 77 304c0 57 -11 73 -49 73h-13v21h368v-21c-28 0 -44 -22 -42 -58v-278c-2 -36 14 -57 43 -58h14zM288 37v378h-102v-42c-2 -173 -26 -272 -83 -336
h185z" />
    <glyph glyph-name="afii10070" unicode="&#x435;" horiz-adv-x="444" 
d="M400 233h-231c4 -104 47 -168 113 -168c42 0 69 20 93 69l25 -12c-36 -84 -100 -132 -175 -132c-44 0 -88 17 -119 48c-41 39 -61 95 -61 172c0 68 15 124 46 169c34 51 87 82 140 82s104 -33 136 -89c23 -40 31 -76 33 -139zM167 270h120c-2 84 -2 89 -9 114
c-7 23 -24 39 -43 39c-43 0 -67 -54 -68 -153z" />
    <glyph glyph-name="afii10072" unicode="&#x436;" horiz-adv-x="725" 
d="M263 0v20c26 5 38 25 37 59v114l-15 18l-83 -139c-13 -22 -18 -33 -18 -38c0 -9 8 -14 25 -14h8v-20h-211v20c24 1 25 2 52 46l145 234l-43 50c-59 71 -75 81 -129 82v20h173v-20h-20c-16 0 -25 -7 -25 -19c0 -8 5 -18 17 -31l124 -138v129c1 34 -11 54 -37 59v20h198
v-20c-25 -4 -38 -25 -36 -59v-129l124 138c12 13 17 22 17 31c0 12 -10 19 -25 19h-21v20h173v-20c-53 -1 -70 -11 -129 -82l-43 -50l146 -234c26 -44 27 -45 51 -46v-20h-210v20h8c16 0 25 5 25 14c0 6 -2 9 -19 38l-83 139l-14 -18v-114c-2 -34 11 -54 36 -59v-20h-198z
" />
    <glyph glyph-name="afii10073" unicode="&#x437;" horiz-adv-x="402" 
d="M56 320l7 141h17c0 -12 6 -18 19 -18c9 0 13 1 38 9c19 6 39 9 60 9c89 0 152 -45 152 -110c0 -32 -15 -63 -39 -84c-14 -11 -27 -17 -56 -25c76 -16 116 -60 116 -123c0 -76 -77 -129 -188 -129c-85 0 -135 40 -155 125l27 9c21 -59 51 -86 95 -86c54 0 88 35 88 92
c0 59 -29 88 -89 88h-33v37h33c57 0 77 21 77 84c0 53 -23 84 -63 84c-49 0 -76 -34 -82 -103h-24z" />
    <glyph glyph-name="afii10074" unicode="&#x438;" horiz-adv-x="576" 
d="M226 152l124 223c1 35 -14 56 -42 57v20h210v-20c-29 -1 -45 -22 -43 -59v-294c-2 -37 14 -58 43 -59v-20h-210v20c28 1 44 23 42 59v220l-124 -225c-1 -32 15 -53 42 -54v-20h-210v20c29 1 45 22 43 59v294c2 37 -14 58 -43 59v20h210v-20c-28 -1 -44 -23 -42 -59v-221z
" />
    <glyph glyph-name="afii10075" unicode="&#x439;" horiz-adv-x="576" 
d="M226 152l124 223c1 35 -14 56 -42 57v20h210v-20c-29 -1 -45 -22 -43 -59v-294c-2 -37 14 -58 43 -59v-20h-210v20c28 1 44 23 42 59v220l-124 -225c-1 -32 15 -53 42 -54v-20h-210v20c29 1 45 22 43 59v294c2 37 -14 58 -43 59v20h210v-20c-28 -1 -44 -23 -42 -59v-221z
M342 585v9c0 21 18 38 43 38s43 -18 43 -45c0 -47 -60 -82 -141 -82c-79 0 -139 36 -139 82c0 27 18 45 44 45c24 0 43 -16 43 -38l-1 -15c-1 -3 -1 -6 -1 -8c0 -22 21 -36 55 -36s55 14 55 36v8v3z" />
    <glyph glyph-name="afii10076" unicode="&#x43a;" horiz-adv-x="576" 
d="M57 452h204v-20c-25 -4 -37 -25 -36 -59v-129l124 138c12 13 17 23 17 31c0 12 -9 19 -25 19h-20v20h173v-20c-54 -1 -70 -11 -130 -82l-43 -50l146 -234c26 -44 28 -45 52 -46v-20h-211v20h8c16 0 25 5 25 14c0 5 -5 15 -19 38l-83 139l-14 -18v-114
c-1 -34 11 -54 36 -59v-20h-204v20c29 1 45 22 43 59v294c2 37 -14 58 -43 59v20z" />
    <glyph glyph-name="afii10077" unicode="&#x43b;" horiz-adv-x="561" 
d="M337 415h-99v-157c0 -124 -6 -173 -26 -214c-17 -35 -47 -54 -86 -54c-46 0 -76 30 -76 76c0 35 22 58 55 58c31 0 53 -21 53 -50c0 -4 0 -4 -1 -10c-2 -10 -2 -10 -2 -12c0 -5 3 -9 9 -9c12 0 23 17 29 47c7 30 10 85 10 170v72c0 85 -6 97 -51 99v21h353v-21
c-29 0 -45 -22 -43 -58v-294c-2 -37 14 -58 43 -59v-20h-210v20c29 2 44 23 42 59v336z" />
    <glyph glyph-name="afii10078" unicode="&#x43c;" horiz-adv-x="681" 
d="M441 452h164v-20c-27 -1 -43 -23 -41 -59v-294c-2 -36 13 -57 41 -59v-20h-210v20c29 0 46 22 44 59v265l-129 -344h-18l-139 348v-269c-2 -36 14 -58 42 -59v-20h-120v20c29 2 44 23 42 59v294c2 37 -14 58 -42 59v20h164l104 -262z" />
    <glyph glyph-name="afii10079" unicode="&#x43d;" horiz-adv-x="576" 
d="M345 258v115c2 35 -12 56 -38 59v20h205v-20c-28 -1 -44 -23 -42 -59v-294c-2 -36 14 -58 42 -59v-20h-205v20c26 3 40 24 38 59v142h-114v-142c-2 -35 12 -56 38 -59v-20h-205v20c29 1 44 22 42 59v294c2 36 -14 58 -42 59v20h205v-20c-26 -3 -40 -24 -38 -59v-115h114z
" />
    <glyph glyph-name="afii10080" unicode="&#x43e;" 
d="M252 461c114 0 200 -99 200 -231c0 -68 -20 -129 -57 -171s-94 -69 -147 -69c-45 0 -98 24 -133 60c-42 42 -66 105 -66 174c0 136 86 237 203 237zM251 422c-50 0 -66 -57 -66 -240c0 -105 18 -153 59 -153c54 0 72 57 72 224c0 63 -3 97 -13 125c-9 26 -30 44 -52 44z
" />
    <glyph glyph-name="afii10081" unicode="&#x43f;" horiz-adv-x="576" 
d="M232 415v-336c-2 -36 14 -58 43 -59v-20h-211v20c29 1 45 22 43 59v294c2 36 -14 58 -43 58v21h448v-21c-29 0 -45 -21 -43 -58v-294c-2 -37 14 -58 43 -59v-20h-211v20c29 1 45 23 43 59v336h-112z" />
    <glyph glyph-name="afii10082" unicode="&#x440;" horiz-adv-x="556" 
d="M242 37v-121c-2 -38 16 -58 49 -56h10v-20h-235v20h8c28 0 45 21 43 56v426c1 34 -10 50 -36 56h-10v21l148 38h23v-46c28 35 54 50 89 50c84 0 144 -99 144 -239c0 -79 -16 -135 -50 -179c-27 -33 -64 -53 -99 -53c-36 0 -62 15 -84 47zM242 312v-218
c10 -28 33 -49 55 -49c32 0 42 42 42 177c0 124 -13 169 -48 169c-14 0 -28 -9 -38 -24s-11 -23 -11 -55z" />
    <glyph glyph-name="afii10083" unicode="&#x441;" horiz-adv-x="444" 
d="M382 125l19 -17c-46 -77 -108 -118 -176 -118c-109 0 -181 90 -181 225c0 144 83 246 199 246c87 0 155 -53 155 -121c0 -34 -25 -59 -58 -59c-26 0 -45 13 -58 39c-10 19 -11 27 -12 62c-1 22 -15 37 -35 37c-41 0 -70 -60 -70 -143c0 -114 55 -207 123 -207
c33 0 64 18 94 56z" />
    <glyph glyph-name="afii10084" unicode="&#x442;" horiz-adv-x="491" 
d="M137 0v20c32 1 47 20 46 59v336h-17c-71 0 -107 -37 -110 -112h-20l10 149h399l10 -149h-20c-4 76 -39 112 -111 112h-16v-336c-2 -38 14 -59 46 -59v-20h-217z" />
    <glyph glyph-name="afii10085" unicode="&#x443;" 
d="M298 193l47 133c10 27 16 57 16 74c0 19 -14 32 -33 32h-12v20h144v-20c-37 -1 -42 -8 -87 -127l-137 -369c-24 -64 -62 -98 -109 -98s-83 33 -83 74c0 36 23 61 57 61c29 0 52 -22 52 -51c0 -3 0 -7 -1 -12v-7c0 -7 5 -12 12 -12c14 0 28 18 43 55l29 75l-117 284
c-43 109 -50 120 -83 127v20h224v-20h-9c-19 0 -30 -12 -30 -32c0 -15 5 -34 18 -66z" />
    <glyph glyph-name="afii10086" unicode="&#x444;" horiz-adv-x="692" 
d="M408 654v-238c28 32 54 45 89 45c93 0 159 -99 159 -237c0 -140 -63 -234 -157 -234c-33 0 -60 11 -91 35v-107c-2 -36 14 -58 44 -58v-20h-211v20c28 1 44 23 42 58v107c-30 -24 -58 -35 -91 -35c-94 0 -157 93 -157 234c0 138 66 237 159 237c35 0 60 -12 89 -45v160
c2 35 -14 57 -42 57v21h167zM408 377v-312c14 -12 27 -17 43 -17c53 0 76 56 76 185c0 115 -21 167 -67 167c-16 0 -32 -7 -52 -23zM283 65v312c-19 15 -36 23 -52 23c-46 0 -67 -52 -67 -168c0 -128 23 -184 76 -184c16 0 29 5 43 17z" />
    <glyph glyph-name="afii10087" unicode="&#x445;" 
d="M212 164l-60 -81c-12 -17 -18 -30 -18 -39c0 -10 9 -19 23 -22c2 -1 9 -1 22 -2v-20h-162v20c43 3 61 15 96 63l82 110l-100 160c-45 71 -50 76 -78 79v20h228v-20c-32 -4 -41 -9 -41 -20c0 -8 3 -13 13 -30l54 -87l54 72c11 14 19 31 19 40c0 15 -8 21 -34 25v20h145
v-20c-37 -1 -52 -11 -84 -56l-82 -110l124 -197c30 -47 32 -48 51 -49h9v-20h-228v20h1c24 -2 39 4 39 18c0 6 -3 13 -14 31z" />
    <glyph glyph-name="afii10088" unicode="&#x446;" horiz-adv-x="576" 
d="M526 37v-149h-20c-3 78 -42 114 -118 112h-324v21c29 0 45 22 43 58v294c2 37 -14 58 -43 59v20h205v-20c-26 -5 -38 -25 -37 -59v-336h112v336c2 34 -11 54 -37 59v20h206v-20c-30 -1 -46 -22 -44 -59v-278c-2 -38 15 -59 45 -58h12z" />
    <glyph glyph-name="afii10089" unicode="&#x447;" horiz-adv-x="564" 
d="M66 432v20h200v-20c-26 -4 -40 -24 -38 -59v-90c0 -42 21 -63 62 -63c15 0 27 3 40 10v143c2 36 -14 58 -42 59v20h210v-20c-29 -1 -45 -22 -43 -59v-294c-2 -37 14 -58 43 -59v-20h-216v20h6c28 1 44 23 42 59v114c-31 -10 -50 -13 -77 -13c-102 0 -150 38 -150 118v75
c2 34 -12 55 -37 59z" />
    <glyph glyph-name="afii10090" unicode="&#x448;" horiz-adv-x="844" 
d="M551 452h205v-20c-29 -2 -44 -22 -42 -59v-294c-2 -36 14 -58 42 -58v-21h-669v21c28 0 44 22 42 58v294c2 37 -13 57 -42 59v20h205v-20c-26 -4 -40 -24 -38 -59v-336h105v336c2 35 -12 55 -38 59v20h201v-20c-26 -4 -40 -24 -38 -59v-336h105v336c2 35 -12 55 -38 59
v20z" />
    <glyph glyph-name="afii10091" unicode="&#x449;" horiz-adv-x="844" 
d="M771 37v-149h-20c-3 77 -41 113 -116 112h-548v21c28 0 44 22 42 58v294c2 37 -13 57 -42 59v20h205v-20c-26 -4 -40 -24 -38 -59v-336h105v336c2 35 -12 55 -38 59v20h201v-20c-26 -4 -40 -24 -38 -59v-336h105v336c2 35 -12 55 -38 59v20h205v-20
c-29 -2 -44 -22 -42 -59v-270c-2 -47 11 -66 45 -66h12z" />
    <glyph glyph-name="afii10092" unicode="&#x44a;" horiz-adv-x="583" 
d="M50 452h288v-20c-30 -1 -46 -22 -44 -59v-113c20 2 32 2 47 2c118 0 183 -49 183 -137c0 -81 -60 -125 -170 -125h-227v20c29 1 44 22 42 58v337c-70 0 -106 -38 -109 -112h-20zM294 226v-159c0 -24 7 -32 29 -32c40 0 62 32 62 91c0 68 -24 101 -74 101
c-6 0 -9 0 -17 -1z" />
    <glyph glyph-name="afii10093" unicode="&#x44b;" horiz-adv-x="781" 
d="M90 452h211v-20c-30 -1 -46 -22 -44 -59v-113c26 2 31 2 47 2c118 0 183 -49 183 -138c0 -80 -60 -124 -170 -124h-227v20c29 2 44 22 42 58v295c2 37 -13 57 -42 59v20zM257 226v-159c0 -24 7 -32 29 -32c40 0 62 32 62 91c0 68 -24 101 -74 101c-5 0 -9 0 -17 -1z
M693 0h-211v20c28 1 44 23 42 59v294c2 36 -14 58 -42 59v20h211v-20c-30 -1 -46 -22 -44 -59v-294c-2 -37 14 -58 44 -59v-20z" />
    <glyph glyph-name="afii10094" unicode="&#x44c;" horiz-adv-x="529" 
d="M55 452h211v-20c-30 -1 -46 -22 -44 -59v-113c26 2 31 2 47 2c118 0 183 -49 183 -138c0 -80 -60 -124 -170 -124h-227v20c29 2 44 22 42 58v295c2 37 -13 57 -42 59v20zM222 226v-159c0 -24 7 -32 29 -32c40 0 62 32 62 91c0 68 -24 101 -74 101c-5 0 -9 0 -17 -1z" />
    <glyph glyph-name="afii10095" unicode="&#x44d;" horiz-adv-x="432" 
d="M133 220v37h147c-3 59 -7 81 -18 110c-14 35 -42 55 -78 55c-54 0 -90 -38 -109 -117h-24l7 149h18c2 -11 12 -19 26 -19c8 0 16 2 29 8c30 14 49 18 75 18c114 0 202 -102 202 -236c0 -135 -89 -235 -210 -235c-88 0 -148 51 -175 149l30 9c23 -68 62 -101 120 -101
c46 0 79 24 93 68c8 27 11 49 13 105h-146z" />
    <glyph glyph-name="afii10096" unicode="&#x44e;" horiz-adv-x="764" 
d="M227 259h58c17 125 94 202 201 202c115 0 200 -98 200 -231c0 -68 -21 -129 -57 -171s-94 -69 -145 -69c-66 0 -133 41 -168 104c-21 37 -32 77 -33 126h-56v-141c-2 -36 13 -57 42 -59v-20h-210v20c29 1 45 22 43 59v294c2 37 -14 58 -43 59v20h210v-20
c-29 -1 -44 -23 -42 -59v-114zM485 423c-50 0 -66 -57 -66 -240c0 -106 18 -154 59 -154c53 0 72 57 72 224c0 64 -4 98 -13 126c-9 26 -30 44 -52 44z" />
    <glyph glyph-name="afii10097" unicode="&#x44f;" horiz-adv-x="541" 
d="M321 201h-25l-113 -201h-146v20c20 2 31 13 57 58l79 133c-64 18 -97 58 -97 114c0 80 64 127 173 127h239v-20c-29 -1 -44 -22 -42 -58v-295c-2 -37 13 -57 42 -59v-20h-209v20c29 2 44 23 42 59v122zM321 414h-26c-68 0 -94 -24 -94 -87c0 -65 28 -92 96 -92
c6 0 12 0 24 1v178z" />
    <glyph glyph-name="uni0450" unicode="&#x450;" horiz-adv-x="444" 
d="M398 122l24 -13c-64 -92 -112 -123 -191 -123c-122 0 -202 94 -202 237s83 240 204 240c55 0 100 -20 132 -57c31 -38 46 -84 52 -166h-247c4 -67 11 -100 30 -131c20 -35 49 -52 87 -52c42 0 72 18 111 65zM165 276h131v15c-1 51 -4 77 -8 96c-8 31 -26 46 -54 46
c-49 0 -66 -39 -69 -157zM319 517h-55l-139 86c-28 18 -39 32 -39 51c0 24 20 44 46 44c19 0 38 -10 53 -27z" />
    <glyph glyph-name="afii10071" unicode="&#x451;" horiz-adv-x="444" 
d="M400 232h-231c4 -104 47 -168 113 -168c42 0 69 20 93 70l25 -13c-36 -83 -100 -131 -175 -131c-44 0 -88 17 -119 47c-41 40 -61 95 -61 172c0 67 15 122 46 167c34 50 87 81 140 81s103 -33 136 -88c23 -39 31 -75 33 -137zM167 268h120c-2 83 -2 88 -9 113
c-7 23 -24 39 -43 39c-43 0 -67 -53 -68 -152zM146 647c33 0 58 -26 58 -58c0 -31 -26 -57 -57 -57c-32 0 -58 26 -58 58c0 31 26 57 57 57zM322 647c33 0 58 -26 58 -58c0 -31 -26 -57 -57 -57c-32 0 -58 26 -58 58c0 31 26 57 57 57z" />
    <glyph glyph-name="afii10099" unicode="&#x452;" horiz-adv-x="537" 
d="M213 654v-98h141v-37h-141v-125c47 50 79 67 124 67c85 0 136 -101 136 -269c0 -220 -83 -365 -210 -365c-55 0 -90 28 -90 72c0 34 21 56 53 56c26 0 45 -20 45 -48c0 -4 -1 -12 -3 -20l-1 -10c0 -7 4 -11 11 -11c43 0 60 73 60 260c0 196 -16 274 -57 274
c-20 0 -48 -25 -68 -60v-262c-1 -33 11 -53 37 -58v-20h-211v20h5c30 2 46 22 44 58v441h-67v37h67v20c2 35 -13 55 -42 58h-7v20h174z" />
    <glyph glyph-name="afii10100" unicode="&#x453;" horiz-adv-x="454" 
d="M58 430v21h327l8 -153h-23c-10 82 -45 113 -126 113h-4h-5h-5h-4v-350c0 -28 11 -39 37 -40h11v-21h-216v21h5c26 1 37 12 37 40v329c1 27 -10 39 -37 40h-1h-1h-2h-1zM183 515h-40l147 150c19 19 27 24 43 24c21 0 34 -12 34 -32c0 -17 -9 -30 -30 -44z" />
    <glyph glyph-name="afii10101" unicode="&#x454;" horiz-adv-x="432" 
d="M299 220h-146c2 -55 4 -78 13 -105c14 -44 47 -68 93 -68c58 0 96 32 120 101l30 -9c-28 -98 -87 -149 -176 -149c-120 0 -209 100 -209 235c0 134 87 236 202 236c26 0 44 -4 75 -18c13 -6 20 -8 28 -8c15 0 25 8 27 19h18l7 -149h-24c-20 79 -55 117 -109 117
c-63 0 -91 -48 -96 -165h147v-37z" />
    <glyph glyph-name="afii10102" unicode="&#x455;" horiz-adv-x="389" 
d="M323 464l6 -149h-13c-28 68 -76 109 -126 109c-35 0 -62 -22 -62 -50c0 -13 6 -26 14 -35c13 -13 13 -13 104 -63c71 -40 105 -88 105 -148c0 -74 -65 -135 -144 -135c-29 0 -48 5 -93 24c-6 3 -12 4 -18 4c-16 0 -24 -7 -32 -28h-14l-8 150h16c19 -66 77 -115 133 -115
c36 0 68 26 68 56c0 13 -6 27 -16 37c-19 18 -19 18 -102 66c-68 39 -101 87 -101 144c0 71 61 128 138 128c21 0 32 -2 63 -14c22 -8 32 -11 39 -11c14 0 24 12 25 30h18z" />
    <glyph glyph-name="afii10103" unicode="&#x456;" horiz-adv-x="278" 
d="M206 452v-373c-2 -37 14 -59 44 -59h7v-20h-226v20h6c30 0 46 22 44 59v294c2 37 -15 59 -44 58h-6v21h175zM136 660c36 0 67 -31 67 -68c0 -38 -30 -69 -68 -69s-68 31 -68 69s31 68 69 68z" />
    <glyph glyph-name="afii10104" unicode="&#x457;" horiz-adv-x="278" 
d="M207 452v-373c-2 -37 14 -59 44 -59h7v-20h-226v20h6c30 0 46 22 44 59v294c2 37 -15 59 -44 58h-6v21h175zM50 659c35 0 63 -30 63 -65c0 -36 -27 -63 -63 -63c-33 0 -61 29 -61 65c0 33 29 63 61 63zM227 659c35 0 64 -30 64 -65s-28 -63 -63 -63c-34 0 -61 29 -61 65
c0 33 29 63 60 63z" />
    <glyph glyph-name="afii10105" unicode="&#x458;" horiz-adv-x="333" 
d="M251 452v-483c0 -87 -53 -139 -139 -139c-69 0 -113 30 -113 76c0 33 25 60 54 60c28 0 51 -24 51 -55l-1 -17c-1 -3 -1 -6 -1 -10c0 -12 4 -20 11 -20c11 0 18 16 18 43c0 8 0 11 -3 67l-2 30v29v340c2 37 -15 59 -44 58h-10v21h179zM176 660c38 0 69 -32 69 -71
s-32 -71 -70 -71c-40 0 -71 32 -71 72c0 39 32 70 72 70z" />
    </font>
</defs>
</svg>
